G75*
%MOIN*%
%OFA0B0*%
%FSLAX25Y25*%
%IPPOS*%
%LPD*%
%AMOC8*
5,1,8,0,0,1.08239X$1,22.5*
%
%ADD10C,0.00000*%
%ADD11C,0.00600*%
%ADD12C,0.16598*%
%ADD13C,0.03937*%
%ADD14C,0.28409*%
%ADD15OC8,0.40220*%
%ADD16C,0.01969*%
D10*
X0003589Y0001000D02*
X0003589Y0507000D01*
X0282195Y0507000D01*
X0282195Y0001000D01*
X0003589Y0001000D01*
X0020912Y0011157D02*
X0020912Y0013205D01*
X0020912Y0015016D01*
X0020914Y0015153D01*
X0020920Y0015290D01*
X0020930Y0015427D01*
X0020943Y0015564D01*
X0020961Y0015700D01*
X0020982Y0015835D01*
X0021008Y0015970D01*
X0021037Y0016104D01*
X0021070Y0016237D01*
X0021107Y0016369D01*
X0021147Y0016500D01*
X0021191Y0016630D01*
X0021239Y0016759D01*
X0021291Y0016886D01*
X0021346Y0017011D01*
X0021405Y0017135D01*
X0021467Y0017257D01*
X0021533Y0017378D01*
X0021602Y0017496D01*
X0021674Y0017613D01*
X0021750Y0017727D01*
X0021829Y0017839D01*
X0021911Y0017949D01*
X0021997Y0018056D01*
X0022085Y0018161D01*
X0022176Y0018264D01*
X0022271Y0018363D01*
X0022368Y0018460D01*
X0022467Y0018555D01*
X0022570Y0018646D01*
X0022675Y0018734D01*
X0022782Y0018820D01*
X0022892Y0018902D01*
X0023004Y0018981D01*
X0023118Y0019057D01*
X0023235Y0019129D01*
X0023353Y0019198D01*
X0023474Y0019264D01*
X0023596Y0019326D01*
X0023720Y0019385D01*
X0023845Y0019440D01*
X0023972Y0019492D01*
X0024101Y0019540D01*
X0024231Y0019584D01*
X0024362Y0019624D01*
X0024494Y0019661D01*
X0024627Y0019694D01*
X0024761Y0019723D01*
X0024896Y0019749D01*
X0025031Y0019770D01*
X0025167Y0019788D01*
X0025304Y0019801D01*
X0025441Y0019811D01*
X0025578Y0019817D01*
X0025715Y0019819D01*
X0039809Y0019819D01*
X0039948Y0019817D01*
X0040087Y0019811D01*
X0040226Y0019801D01*
X0040364Y0019788D01*
X0040502Y0019770D01*
X0040640Y0019749D01*
X0040777Y0019724D01*
X0040913Y0019695D01*
X0041048Y0019662D01*
X0041182Y0019625D01*
X0041316Y0019585D01*
X0041448Y0019541D01*
X0041578Y0019493D01*
X0041707Y0019441D01*
X0041835Y0019386D01*
X0041961Y0019328D01*
X0042086Y0019266D01*
X0042209Y0019200D01*
X0042330Y0019131D01*
X0042448Y0019059D01*
X0042565Y0018983D01*
X0042680Y0018904D01*
X0042792Y0018822D01*
X0042902Y0018737D01*
X0043010Y0018648D01*
X0043115Y0018557D01*
X0043217Y0018463D01*
X0043317Y0018366D01*
X0043414Y0018266D01*
X0043508Y0018164D01*
X0043599Y0018059D01*
X0043688Y0017951D01*
X0043773Y0017841D01*
X0043855Y0017729D01*
X0043934Y0017614D01*
X0044010Y0017497D01*
X0044082Y0017379D01*
X0044151Y0017258D01*
X0044217Y0017135D01*
X0044279Y0017010D01*
X0044337Y0016884D01*
X0044392Y0016756D01*
X0044444Y0016627D01*
X0044492Y0016497D01*
X0044536Y0016365D01*
X0044576Y0016231D01*
X0044613Y0016097D01*
X0044646Y0015962D01*
X0044675Y0015826D01*
X0044700Y0015689D01*
X0044721Y0015551D01*
X0044739Y0015413D01*
X0044752Y0015275D01*
X0044762Y0015136D01*
X0044768Y0014997D01*
X0044770Y0014858D01*
X0044770Y0013165D01*
X0044770Y0011000D01*
X0044768Y0010861D01*
X0044762Y0010722D01*
X0044752Y0010583D01*
X0044739Y0010445D01*
X0044721Y0010307D01*
X0044700Y0010169D01*
X0044675Y0010032D01*
X0044646Y0009896D01*
X0044613Y0009761D01*
X0044576Y0009627D01*
X0044536Y0009493D01*
X0044492Y0009361D01*
X0044444Y0009231D01*
X0044392Y0009102D01*
X0044337Y0008974D01*
X0044279Y0008848D01*
X0044217Y0008723D01*
X0044151Y0008600D01*
X0044082Y0008479D01*
X0044010Y0008361D01*
X0043934Y0008244D01*
X0043855Y0008129D01*
X0043773Y0008017D01*
X0043688Y0007907D01*
X0043599Y0007799D01*
X0043508Y0007694D01*
X0043414Y0007592D01*
X0043317Y0007492D01*
X0043217Y0007395D01*
X0043115Y0007301D01*
X0043010Y0007210D01*
X0042902Y0007121D01*
X0042792Y0007036D01*
X0042680Y0006954D01*
X0042565Y0006875D01*
X0042448Y0006799D01*
X0042330Y0006727D01*
X0042209Y0006658D01*
X0042086Y0006592D01*
X0041961Y0006530D01*
X0041835Y0006472D01*
X0041707Y0006417D01*
X0041578Y0006365D01*
X0041448Y0006317D01*
X0041316Y0006273D01*
X0041182Y0006233D01*
X0041048Y0006196D01*
X0040913Y0006163D01*
X0040777Y0006134D01*
X0040640Y0006109D01*
X0040502Y0006088D01*
X0040364Y0006070D01*
X0040226Y0006057D01*
X0040087Y0006047D01*
X0039948Y0006041D01*
X0039809Y0006039D01*
X0026030Y0006039D01*
X0025889Y0006041D01*
X0025748Y0006047D01*
X0025607Y0006056D01*
X0025467Y0006070D01*
X0025327Y0006088D01*
X0025188Y0006109D01*
X0025049Y0006134D01*
X0024911Y0006163D01*
X0024774Y0006196D01*
X0024637Y0006232D01*
X0024502Y0006272D01*
X0024368Y0006316D01*
X0024235Y0006364D01*
X0024104Y0006415D01*
X0023974Y0006470D01*
X0023846Y0006529D01*
X0023719Y0006590D01*
X0023594Y0006656D01*
X0023471Y0006725D01*
X0023350Y0006797D01*
X0023231Y0006872D01*
X0023114Y0006951D01*
X0022999Y0007033D01*
X0022886Y0007118D01*
X0022776Y0007206D01*
X0022669Y0007297D01*
X0022564Y0007392D01*
X0022461Y0007489D01*
X0022362Y0007588D01*
X0022265Y0007691D01*
X0022170Y0007796D01*
X0022079Y0007903D01*
X0021991Y0008013D01*
X0021906Y0008126D01*
X0021824Y0008241D01*
X0021745Y0008358D01*
X0021670Y0008477D01*
X0021598Y0008598D01*
X0021529Y0008721D01*
X0021463Y0008846D01*
X0021402Y0008973D01*
X0021343Y0009101D01*
X0021288Y0009231D01*
X0021237Y0009362D01*
X0021189Y0009495D01*
X0021145Y0009629D01*
X0021105Y0009764D01*
X0021069Y0009901D01*
X0021036Y0010038D01*
X0021007Y0010176D01*
X0020982Y0010315D01*
X0020961Y0010454D01*
X0020943Y0010594D01*
X0020929Y0010734D01*
X0020920Y0010875D01*
X0020914Y0011016D01*
X0020912Y0011157D01*
X0039809Y0356512D02*
X0157132Y0356512D01*
X0157294Y0356514D01*
X0157455Y0356520D01*
X0157617Y0356530D01*
X0157778Y0356543D01*
X0157939Y0356561D01*
X0158099Y0356582D01*
X0158259Y0356608D01*
X0158418Y0356637D01*
X0158576Y0356670D01*
X0158734Y0356706D01*
X0158890Y0356747D01*
X0159046Y0356791D01*
X0159200Y0356840D01*
X0159353Y0356891D01*
X0159505Y0356947D01*
X0159656Y0357006D01*
X0159805Y0357069D01*
X0159952Y0357135D01*
X0160098Y0357205D01*
X0160242Y0357279D01*
X0160385Y0357356D01*
X0160525Y0357436D01*
X0160663Y0357520D01*
X0160800Y0357607D01*
X0160934Y0357697D01*
X0161066Y0357790D01*
X0161196Y0357887D01*
X0161323Y0357987D01*
X0161448Y0358089D01*
X0161570Y0358195D01*
X0161690Y0358304D01*
X0161807Y0358415D01*
X0161922Y0358530D01*
X0162033Y0358647D01*
X0162142Y0358767D01*
X0162248Y0358889D01*
X0162350Y0359014D01*
X0162450Y0359141D01*
X0162547Y0359271D01*
X0162640Y0359403D01*
X0162730Y0359537D01*
X0162817Y0359674D01*
X0162901Y0359812D01*
X0162981Y0359952D01*
X0163058Y0360095D01*
X0163132Y0360239D01*
X0163202Y0360385D01*
X0163268Y0360532D01*
X0163331Y0360681D01*
X0163390Y0360832D01*
X0163446Y0360984D01*
X0163497Y0361137D01*
X0163546Y0361291D01*
X0163590Y0361447D01*
X0163631Y0361603D01*
X0163667Y0361761D01*
X0163700Y0361919D01*
X0163729Y0362078D01*
X0163755Y0362238D01*
X0163776Y0362398D01*
X0163794Y0362559D01*
X0163807Y0362720D01*
X0163817Y0362882D01*
X0163823Y0363043D01*
X0163825Y0363205D01*
X0163825Y0424622D01*
X0163825Y0426197D01*
X0163823Y0426344D01*
X0163817Y0426490D01*
X0163807Y0426637D01*
X0163794Y0426783D01*
X0163776Y0426929D01*
X0163755Y0427074D01*
X0163730Y0427218D01*
X0163700Y0427362D01*
X0163668Y0427505D01*
X0163631Y0427647D01*
X0163590Y0427788D01*
X0163546Y0427928D01*
X0163498Y0428067D01*
X0163447Y0428204D01*
X0163391Y0428340D01*
X0163332Y0428475D01*
X0163270Y0428607D01*
X0163204Y0428739D01*
X0163135Y0428868D01*
X0163062Y0428995D01*
X0162986Y0429121D01*
X0162906Y0429244D01*
X0162823Y0429365D01*
X0162738Y0429484D01*
X0162648Y0429601D01*
X0162556Y0429715D01*
X0162461Y0429827D01*
X0162363Y0429936D01*
X0162262Y0430042D01*
X0162158Y0430146D01*
X0162052Y0430247D01*
X0161943Y0430345D01*
X0161831Y0430440D01*
X0161717Y0430532D01*
X0161600Y0430622D01*
X0161481Y0430707D01*
X0161360Y0430790D01*
X0161237Y0430870D01*
X0161111Y0430946D01*
X0160984Y0431019D01*
X0160855Y0431088D01*
X0160723Y0431154D01*
X0160591Y0431216D01*
X0160456Y0431275D01*
X0160320Y0431331D01*
X0160183Y0431382D01*
X0160044Y0431430D01*
X0159904Y0431474D01*
X0159763Y0431515D01*
X0159621Y0431552D01*
X0159478Y0431584D01*
X0159334Y0431614D01*
X0159190Y0431639D01*
X0159045Y0431660D01*
X0158899Y0431678D01*
X0158753Y0431691D01*
X0158606Y0431701D01*
X0158460Y0431707D01*
X0158313Y0431709D01*
X0039809Y0431709D01*
X0039657Y0431707D01*
X0039505Y0431701D01*
X0039353Y0431691D01*
X0039202Y0431678D01*
X0039051Y0431660D01*
X0038900Y0431639D01*
X0038750Y0431613D01*
X0038601Y0431584D01*
X0038452Y0431551D01*
X0038305Y0431514D01*
X0038158Y0431474D01*
X0038013Y0431429D01*
X0037869Y0431381D01*
X0037726Y0431329D01*
X0037584Y0431274D01*
X0037444Y0431215D01*
X0037305Y0431152D01*
X0037168Y0431086D01*
X0037033Y0431016D01*
X0036900Y0430943D01*
X0036769Y0430866D01*
X0036639Y0430786D01*
X0036512Y0430703D01*
X0036387Y0430617D01*
X0036264Y0430527D01*
X0036144Y0430434D01*
X0036026Y0430338D01*
X0035910Y0430239D01*
X0035797Y0430137D01*
X0035687Y0430033D01*
X0035579Y0429925D01*
X0035475Y0429815D01*
X0035373Y0429702D01*
X0035274Y0429586D01*
X0035178Y0429468D01*
X0035085Y0429348D01*
X0034995Y0429225D01*
X0034909Y0429100D01*
X0034826Y0428973D01*
X0034746Y0428843D01*
X0034669Y0428712D01*
X0034596Y0428579D01*
X0034526Y0428444D01*
X0034460Y0428307D01*
X0034397Y0428168D01*
X0034338Y0428028D01*
X0034283Y0427886D01*
X0034231Y0427743D01*
X0034183Y0427599D01*
X0034138Y0427454D01*
X0034098Y0427307D01*
X0034061Y0427160D01*
X0034028Y0427011D01*
X0033999Y0426862D01*
X0033973Y0426712D01*
X0033952Y0426561D01*
X0033934Y0426410D01*
X0033921Y0426259D01*
X0033911Y0426107D01*
X0033905Y0425955D01*
X0033903Y0425803D01*
X0033904Y0425803D02*
X0033904Y0425016D01*
X0033904Y0363205D01*
X0033903Y0363205D02*
X0033886Y0363053D01*
X0033873Y0362901D01*
X0033864Y0362748D01*
X0033858Y0362595D01*
X0033857Y0362442D01*
X0033860Y0362290D01*
X0033866Y0362137D01*
X0033876Y0361984D01*
X0033891Y0361832D01*
X0033909Y0361680D01*
X0033931Y0361529D01*
X0033957Y0361378D01*
X0033987Y0361228D01*
X0034020Y0361079D01*
X0034058Y0360931D01*
X0034099Y0360784D01*
X0034144Y0360637D01*
X0034193Y0360493D01*
X0034245Y0360349D01*
X0034302Y0360207D01*
X0034361Y0360066D01*
X0034425Y0359927D01*
X0034492Y0359789D01*
X0034562Y0359654D01*
X0034636Y0359520D01*
X0034714Y0359388D01*
X0034794Y0359258D01*
X0034878Y0359130D01*
X0034966Y0359005D01*
X0035056Y0358881D01*
X0035150Y0358760D01*
X0035246Y0358642D01*
X0035346Y0358526D01*
X0035449Y0358413D01*
X0035554Y0358302D01*
X0035662Y0358194D01*
X0035773Y0358089D01*
X0035887Y0357987D01*
X0036004Y0357887D01*
X0036122Y0357791D01*
X0036244Y0357698D01*
X0036367Y0357608D01*
X0036493Y0357521D01*
X0036621Y0357438D01*
X0036751Y0357357D01*
X0036884Y0357281D01*
X0037018Y0357207D01*
X0037154Y0357137D01*
X0037291Y0357071D01*
X0037431Y0357008D01*
X0037572Y0356949D01*
X0037714Y0356893D01*
X0037858Y0356841D01*
X0038003Y0356793D01*
X0038149Y0356748D01*
X0038297Y0356707D01*
X0038445Y0356670D01*
X0038594Y0356637D01*
X0038744Y0356608D01*
X0038895Y0356583D01*
X0039047Y0356561D01*
X0039198Y0356543D01*
X0039351Y0356530D01*
X0039503Y0356520D01*
X0039656Y0356514D01*
X0039809Y0356512D01*
X0039809Y0487929D02*
X0026030Y0487929D01*
X0025889Y0487931D01*
X0025748Y0487937D01*
X0025607Y0487946D01*
X0025467Y0487960D01*
X0025327Y0487978D01*
X0025188Y0487999D01*
X0025049Y0488024D01*
X0024911Y0488053D01*
X0024774Y0488086D01*
X0024637Y0488122D01*
X0024502Y0488162D01*
X0024368Y0488206D01*
X0024235Y0488254D01*
X0024104Y0488305D01*
X0023974Y0488360D01*
X0023846Y0488419D01*
X0023719Y0488480D01*
X0023594Y0488546D01*
X0023471Y0488615D01*
X0023350Y0488687D01*
X0023231Y0488762D01*
X0023114Y0488841D01*
X0022999Y0488923D01*
X0022886Y0489008D01*
X0022776Y0489096D01*
X0022669Y0489187D01*
X0022564Y0489282D01*
X0022461Y0489379D01*
X0022362Y0489478D01*
X0022265Y0489581D01*
X0022170Y0489686D01*
X0022079Y0489793D01*
X0021991Y0489903D01*
X0021906Y0490016D01*
X0021824Y0490131D01*
X0021745Y0490248D01*
X0021670Y0490367D01*
X0021598Y0490488D01*
X0021529Y0490611D01*
X0021463Y0490736D01*
X0021402Y0490863D01*
X0021343Y0490991D01*
X0021288Y0491121D01*
X0021237Y0491252D01*
X0021189Y0491385D01*
X0021145Y0491519D01*
X0021105Y0491654D01*
X0021069Y0491791D01*
X0021036Y0491928D01*
X0021007Y0492066D01*
X0020982Y0492205D01*
X0020961Y0492344D01*
X0020943Y0492484D01*
X0020929Y0492624D01*
X0020920Y0492765D01*
X0020914Y0492906D01*
X0020912Y0493047D01*
X0020912Y0495094D01*
X0020912Y0496906D01*
X0020914Y0497043D01*
X0020920Y0497180D01*
X0020930Y0497317D01*
X0020943Y0497454D01*
X0020961Y0497590D01*
X0020982Y0497725D01*
X0021008Y0497860D01*
X0021037Y0497994D01*
X0021070Y0498127D01*
X0021107Y0498259D01*
X0021147Y0498390D01*
X0021191Y0498520D01*
X0021239Y0498649D01*
X0021291Y0498776D01*
X0021346Y0498901D01*
X0021405Y0499025D01*
X0021467Y0499147D01*
X0021533Y0499268D01*
X0021602Y0499386D01*
X0021674Y0499503D01*
X0021750Y0499617D01*
X0021829Y0499729D01*
X0021911Y0499839D01*
X0021997Y0499946D01*
X0022085Y0500051D01*
X0022176Y0500154D01*
X0022271Y0500253D01*
X0022368Y0500350D01*
X0022467Y0500445D01*
X0022570Y0500536D01*
X0022675Y0500624D01*
X0022782Y0500710D01*
X0022892Y0500792D01*
X0023004Y0500871D01*
X0023118Y0500947D01*
X0023235Y0501019D01*
X0023353Y0501088D01*
X0023474Y0501154D01*
X0023596Y0501216D01*
X0023720Y0501275D01*
X0023845Y0501330D01*
X0023972Y0501382D01*
X0024101Y0501430D01*
X0024231Y0501474D01*
X0024362Y0501514D01*
X0024494Y0501551D01*
X0024627Y0501584D01*
X0024761Y0501613D01*
X0024896Y0501639D01*
X0025031Y0501660D01*
X0025167Y0501678D01*
X0025304Y0501691D01*
X0025441Y0501701D01*
X0025578Y0501707D01*
X0025715Y0501709D01*
X0039809Y0501709D01*
X0039948Y0501707D01*
X0040087Y0501701D01*
X0040226Y0501691D01*
X0040364Y0501678D01*
X0040502Y0501660D01*
X0040640Y0501639D01*
X0040777Y0501614D01*
X0040913Y0501585D01*
X0041048Y0501552D01*
X0041182Y0501515D01*
X0041316Y0501475D01*
X0041448Y0501431D01*
X0041578Y0501383D01*
X0041707Y0501331D01*
X0041835Y0501276D01*
X0041961Y0501218D01*
X0042086Y0501156D01*
X0042209Y0501090D01*
X0042330Y0501021D01*
X0042448Y0500949D01*
X0042565Y0500873D01*
X0042680Y0500794D01*
X0042792Y0500712D01*
X0042902Y0500627D01*
X0043010Y0500538D01*
X0043115Y0500447D01*
X0043217Y0500353D01*
X0043317Y0500256D01*
X0043414Y0500156D01*
X0043508Y0500054D01*
X0043599Y0499949D01*
X0043688Y0499841D01*
X0043773Y0499731D01*
X0043855Y0499619D01*
X0043934Y0499504D01*
X0044010Y0499387D01*
X0044082Y0499269D01*
X0044151Y0499148D01*
X0044217Y0499025D01*
X0044279Y0498900D01*
X0044337Y0498774D01*
X0044392Y0498646D01*
X0044444Y0498517D01*
X0044492Y0498387D01*
X0044536Y0498255D01*
X0044576Y0498121D01*
X0044613Y0497987D01*
X0044646Y0497852D01*
X0044675Y0497716D01*
X0044700Y0497579D01*
X0044721Y0497441D01*
X0044739Y0497303D01*
X0044752Y0497165D01*
X0044762Y0497026D01*
X0044768Y0496887D01*
X0044770Y0496748D01*
X0044770Y0495055D01*
X0044770Y0492890D01*
X0044768Y0492751D01*
X0044762Y0492612D01*
X0044752Y0492473D01*
X0044739Y0492335D01*
X0044721Y0492197D01*
X0044700Y0492059D01*
X0044675Y0491922D01*
X0044646Y0491786D01*
X0044613Y0491651D01*
X0044576Y0491517D01*
X0044536Y0491383D01*
X0044492Y0491251D01*
X0044444Y0491121D01*
X0044392Y0490992D01*
X0044337Y0490864D01*
X0044279Y0490738D01*
X0044217Y0490613D01*
X0044151Y0490490D01*
X0044082Y0490369D01*
X0044010Y0490251D01*
X0043934Y0490134D01*
X0043855Y0490019D01*
X0043773Y0489907D01*
X0043688Y0489797D01*
X0043599Y0489689D01*
X0043508Y0489584D01*
X0043414Y0489482D01*
X0043317Y0489382D01*
X0043217Y0489285D01*
X0043115Y0489191D01*
X0043010Y0489100D01*
X0042902Y0489011D01*
X0042792Y0488926D01*
X0042680Y0488844D01*
X0042565Y0488765D01*
X0042448Y0488689D01*
X0042330Y0488617D01*
X0042209Y0488548D01*
X0042086Y0488482D01*
X0041961Y0488420D01*
X0041835Y0488362D01*
X0041707Y0488307D01*
X0041578Y0488255D01*
X0041448Y0488207D01*
X0041316Y0488163D01*
X0041182Y0488123D01*
X0041048Y0488086D01*
X0040913Y0488053D01*
X0040777Y0488024D01*
X0040640Y0487999D01*
X0040502Y0487978D01*
X0040364Y0487960D01*
X0040226Y0487947D01*
X0040087Y0487937D01*
X0039948Y0487931D01*
X0039809Y0487929D01*
X0214219Y0431709D02*
X0214223Y0432028D01*
X0214235Y0432346D01*
X0214254Y0432665D01*
X0214282Y0432982D01*
X0214317Y0433299D01*
X0214360Y0433615D01*
X0214410Y0433930D01*
X0214469Y0434244D01*
X0214535Y0434556D01*
X0214608Y0434866D01*
X0214690Y0435174D01*
X0214778Y0435480D01*
X0214875Y0435784D01*
X0214978Y0436086D01*
X0215090Y0436385D01*
X0215208Y0436681D01*
X0215334Y0436974D01*
X0215466Y0437264D01*
X0215606Y0437550D01*
X0215753Y0437833D01*
X0215907Y0438113D01*
X0216067Y0438388D01*
X0216235Y0438660D01*
X0216409Y0438927D01*
X0216589Y0439190D01*
X0216776Y0439448D01*
X0216969Y0439702D01*
X0217168Y0439951D01*
X0217373Y0440195D01*
X0217585Y0440434D01*
X0217802Y0440668D01*
X0218024Y0440896D01*
X0218252Y0441118D01*
X0218486Y0441335D01*
X0218725Y0441547D01*
X0218969Y0441752D01*
X0219218Y0441951D01*
X0219472Y0442144D01*
X0219730Y0442331D01*
X0219993Y0442511D01*
X0220260Y0442685D01*
X0220532Y0442853D01*
X0220807Y0443013D01*
X0221087Y0443167D01*
X0221370Y0443314D01*
X0221656Y0443454D01*
X0221946Y0443586D01*
X0222239Y0443712D01*
X0222535Y0443830D01*
X0222834Y0443942D01*
X0223136Y0444045D01*
X0223440Y0444142D01*
X0223746Y0444230D01*
X0224054Y0444312D01*
X0224364Y0444385D01*
X0224676Y0444451D01*
X0224990Y0444510D01*
X0225305Y0444560D01*
X0225621Y0444603D01*
X0225938Y0444638D01*
X0226255Y0444666D01*
X0226574Y0444685D01*
X0226892Y0444697D01*
X0227211Y0444701D01*
X0227530Y0444697D01*
X0227848Y0444685D01*
X0228167Y0444666D01*
X0228484Y0444638D01*
X0228801Y0444603D01*
X0229117Y0444560D01*
X0229432Y0444510D01*
X0229746Y0444451D01*
X0230058Y0444385D01*
X0230368Y0444312D01*
X0230676Y0444230D01*
X0230982Y0444142D01*
X0231286Y0444045D01*
X0231588Y0443942D01*
X0231887Y0443830D01*
X0232183Y0443712D01*
X0232476Y0443586D01*
X0232766Y0443454D01*
X0233052Y0443314D01*
X0233335Y0443167D01*
X0233615Y0443013D01*
X0233890Y0442853D01*
X0234162Y0442685D01*
X0234429Y0442511D01*
X0234692Y0442331D01*
X0234950Y0442144D01*
X0235204Y0441951D01*
X0235453Y0441752D01*
X0235697Y0441547D01*
X0235936Y0441335D01*
X0236170Y0441118D01*
X0236398Y0440896D01*
X0236620Y0440668D01*
X0236837Y0440434D01*
X0237049Y0440195D01*
X0237254Y0439951D01*
X0237453Y0439702D01*
X0237646Y0439448D01*
X0237833Y0439190D01*
X0238013Y0438927D01*
X0238187Y0438660D01*
X0238355Y0438388D01*
X0238515Y0438113D01*
X0238669Y0437833D01*
X0238816Y0437550D01*
X0238956Y0437264D01*
X0239088Y0436974D01*
X0239214Y0436681D01*
X0239332Y0436385D01*
X0239444Y0436086D01*
X0239547Y0435784D01*
X0239644Y0435480D01*
X0239732Y0435174D01*
X0239814Y0434866D01*
X0239887Y0434556D01*
X0239953Y0434244D01*
X0240012Y0433930D01*
X0240062Y0433615D01*
X0240105Y0433299D01*
X0240140Y0432982D01*
X0240168Y0432665D01*
X0240187Y0432346D01*
X0240199Y0432028D01*
X0240203Y0431709D01*
X0240199Y0431390D01*
X0240187Y0431072D01*
X0240168Y0430753D01*
X0240140Y0430436D01*
X0240105Y0430119D01*
X0240062Y0429803D01*
X0240012Y0429488D01*
X0239953Y0429174D01*
X0239887Y0428862D01*
X0239814Y0428552D01*
X0239732Y0428244D01*
X0239644Y0427938D01*
X0239547Y0427634D01*
X0239444Y0427332D01*
X0239332Y0427033D01*
X0239214Y0426737D01*
X0239088Y0426444D01*
X0238956Y0426154D01*
X0238816Y0425868D01*
X0238669Y0425585D01*
X0238515Y0425305D01*
X0238355Y0425030D01*
X0238187Y0424758D01*
X0238013Y0424491D01*
X0237833Y0424228D01*
X0237646Y0423970D01*
X0237453Y0423716D01*
X0237254Y0423467D01*
X0237049Y0423223D01*
X0236837Y0422984D01*
X0236620Y0422750D01*
X0236398Y0422522D01*
X0236170Y0422300D01*
X0235936Y0422083D01*
X0235697Y0421871D01*
X0235453Y0421666D01*
X0235204Y0421467D01*
X0234950Y0421274D01*
X0234692Y0421087D01*
X0234429Y0420907D01*
X0234162Y0420733D01*
X0233890Y0420565D01*
X0233615Y0420405D01*
X0233335Y0420251D01*
X0233052Y0420104D01*
X0232766Y0419964D01*
X0232476Y0419832D01*
X0232183Y0419706D01*
X0231887Y0419588D01*
X0231588Y0419476D01*
X0231286Y0419373D01*
X0230982Y0419276D01*
X0230676Y0419188D01*
X0230368Y0419106D01*
X0230058Y0419033D01*
X0229746Y0418967D01*
X0229432Y0418908D01*
X0229117Y0418858D01*
X0228801Y0418815D01*
X0228484Y0418780D01*
X0228167Y0418752D01*
X0227848Y0418733D01*
X0227530Y0418721D01*
X0227211Y0418717D01*
X0226892Y0418721D01*
X0226574Y0418733D01*
X0226255Y0418752D01*
X0225938Y0418780D01*
X0225621Y0418815D01*
X0225305Y0418858D01*
X0224990Y0418908D01*
X0224676Y0418967D01*
X0224364Y0419033D01*
X0224054Y0419106D01*
X0223746Y0419188D01*
X0223440Y0419276D01*
X0223136Y0419373D01*
X0222834Y0419476D01*
X0222535Y0419588D01*
X0222239Y0419706D01*
X0221946Y0419832D01*
X0221656Y0419964D01*
X0221370Y0420104D01*
X0221087Y0420251D01*
X0220807Y0420405D01*
X0220532Y0420565D01*
X0220260Y0420733D01*
X0219993Y0420907D01*
X0219730Y0421087D01*
X0219472Y0421274D01*
X0219218Y0421467D01*
X0218969Y0421666D01*
X0218725Y0421871D01*
X0218486Y0422083D01*
X0218252Y0422300D01*
X0218024Y0422522D01*
X0217802Y0422750D01*
X0217585Y0422984D01*
X0217373Y0423223D01*
X0217168Y0423467D01*
X0216969Y0423716D01*
X0216776Y0423970D01*
X0216589Y0424228D01*
X0216409Y0424491D01*
X0216235Y0424758D01*
X0216067Y0425030D01*
X0215907Y0425305D01*
X0215753Y0425585D01*
X0215606Y0425868D01*
X0215466Y0426154D01*
X0215334Y0426444D01*
X0215208Y0426737D01*
X0215090Y0427033D01*
X0214978Y0427332D01*
X0214875Y0427634D01*
X0214778Y0427938D01*
X0214690Y0428244D01*
X0214608Y0428552D01*
X0214535Y0428862D01*
X0214469Y0429174D01*
X0214410Y0429488D01*
X0214360Y0429803D01*
X0214317Y0430119D01*
X0214282Y0430436D01*
X0214254Y0430753D01*
X0214235Y0431072D01*
X0214223Y0431390D01*
X0214219Y0431709D01*
X0245991Y0487929D02*
X0259770Y0487929D01*
X0259909Y0487931D01*
X0260048Y0487937D01*
X0260187Y0487947D01*
X0260325Y0487960D01*
X0260463Y0487978D01*
X0260601Y0487999D01*
X0260738Y0488024D01*
X0260874Y0488053D01*
X0261009Y0488086D01*
X0261143Y0488123D01*
X0261277Y0488163D01*
X0261409Y0488207D01*
X0261539Y0488255D01*
X0261668Y0488307D01*
X0261796Y0488362D01*
X0261922Y0488420D01*
X0262047Y0488482D01*
X0262170Y0488548D01*
X0262291Y0488617D01*
X0262409Y0488689D01*
X0262526Y0488765D01*
X0262641Y0488844D01*
X0262753Y0488926D01*
X0262863Y0489011D01*
X0262971Y0489100D01*
X0263076Y0489191D01*
X0263178Y0489285D01*
X0263278Y0489382D01*
X0263375Y0489482D01*
X0263469Y0489584D01*
X0263560Y0489689D01*
X0263649Y0489797D01*
X0263734Y0489907D01*
X0263816Y0490019D01*
X0263895Y0490134D01*
X0263971Y0490251D01*
X0264043Y0490369D01*
X0264112Y0490490D01*
X0264178Y0490613D01*
X0264240Y0490738D01*
X0264298Y0490864D01*
X0264353Y0490992D01*
X0264405Y0491121D01*
X0264453Y0491251D01*
X0264497Y0491383D01*
X0264537Y0491517D01*
X0264574Y0491651D01*
X0264607Y0491786D01*
X0264636Y0491922D01*
X0264661Y0492059D01*
X0264682Y0492197D01*
X0264700Y0492335D01*
X0264713Y0492473D01*
X0264723Y0492612D01*
X0264729Y0492751D01*
X0264731Y0492890D01*
X0264731Y0495055D01*
X0264731Y0496748D01*
X0264729Y0496887D01*
X0264723Y0497026D01*
X0264713Y0497165D01*
X0264700Y0497303D01*
X0264682Y0497441D01*
X0264661Y0497579D01*
X0264636Y0497716D01*
X0264607Y0497852D01*
X0264574Y0497987D01*
X0264537Y0498121D01*
X0264497Y0498255D01*
X0264453Y0498387D01*
X0264405Y0498517D01*
X0264353Y0498646D01*
X0264298Y0498774D01*
X0264240Y0498900D01*
X0264178Y0499025D01*
X0264112Y0499148D01*
X0264043Y0499269D01*
X0263971Y0499387D01*
X0263895Y0499504D01*
X0263816Y0499619D01*
X0263734Y0499731D01*
X0263649Y0499841D01*
X0263560Y0499949D01*
X0263469Y0500054D01*
X0263375Y0500156D01*
X0263278Y0500256D01*
X0263178Y0500353D01*
X0263076Y0500447D01*
X0262971Y0500538D01*
X0262863Y0500627D01*
X0262753Y0500712D01*
X0262641Y0500794D01*
X0262526Y0500873D01*
X0262409Y0500949D01*
X0262291Y0501021D01*
X0262170Y0501090D01*
X0262047Y0501156D01*
X0261922Y0501218D01*
X0261796Y0501276D01*
X0261668Y0501331D01*
X0261539Y0501383D01*
X0261409Y0501431D01*
X0261277Y0501475D01*
X0261143Y0501515D01*
X0261009Y0501552D01*
X0260874Y0501585D01*
X0260738Y0501614D01*
X0260601Y0501639D01*
X0260463Y0501660D01*
X0260325Y0501678D01*
X0260187Y0501691D01*
X0260048Y0501701D01*
X0259909Y0501707D01*
X0259770Y0501709D01*
X0245676Y0501709D01*
X0245539Y0501707D01*
X0245402Y0501701D01*
X0245265Y0501691D01*
X0245128Y0501678D01*
X0244992Y0501660D01*
X0244857Y0501639D01*
X0244722Y0501613D01*
X0244588Y0501584D01*
X0244455Y0501551D01*
X0244323Y0501514D01*
X0244192Y0501474D01*
X0244062Y0501430D01*
X0243933Y0501382D01*
X0243806Y0501330D01*
X0243681Y0501275D01*
X0243557Y0501216D01*
X0243435Y0501154D01*
X0243314Y0501088D01*
X0243196Y0501019D01*
X0243079Y0500947D01*
X0242965Y0500871D01*
X0242853Y0500792D01*
X0242743Y0500710D01*
X0242636Y0500624D01*
X0242531Y0500536D01*
X0242428Y0500445D01*
X0242329Y0500350D01*
X0242232Y0500253D01*
X0242137Y0500154D01*
X0242046Y0500051D01*
X0241958Y0499946D01*
X0241872Y0499839D01*
X0241790Y0499729D01*
X0241711Y0499617D01*
X0241635Y0499503D01*
X0241563Y0499386D01*
X0241494Y0499268D01*
X0241428Y0499147D01*
X0241366Y0499025D01*
X0241307Y0498901D01*
X0241252Y0498776D01*
X0241200Y0498649D01*
X0241152Y0498520D01*
X0241108Y0498390D01*
X0241068Y0498259D01*
X0241031Y0498127D01*
X0240998Y0497994D01*
X0240969Y0497860D01*
X0240943Y0497725D01*
X0240922Y0497590D01*
X0240904Y0497454D01*
X0240891Y0497317D01*
X0240881Y0497180D01*
X0240875Y0497043D01*
X0240873Y0496906D01*
X0240872Y0496906D02*
X0240872Y0495094D01*
X0240872Y0493047D01*
X0240873Y0493047D02*
X0240875Y0492906D01*
X0240881Y0492765D01*
X0240890Y0492624D01*
X0240904Y0492484D01*
X0240922Y0492344D01*
X0240943Y0492205D01*
X0240968Y0492066D01*
X0240997Y0491928D01*
X0241030Y0491791D01*
X0241066Y0491654D01*
X0241106Y0491519D01*
X0241150Y0491385D01*
X0241198Y0491252D01*
X0241249Y0491121D01*
X0241304Y0490991D01*
X0241363Y0490863D01*
X0241424Y0490736D01*
X0241490Y0490611D01*
X0241559Y0490488D01*
X0241631Y0490367D01*
X0241706Y0490248D01*
X0241785Y0490131D01*
X0241867Y0490016D01*
X0241952Y0489903D01*
X0242040Y0489793D01*
X0242131Y0489686D01*
X0242226Y0489581D01*
X0242323Y0489478D01*
X0242422Y0489379D01*
X0242525Y0489282D01*
X0242630Y0489187D01*
X0242737Y0489096D01*
X0242847Y0489008D01*
X0242960Y0488923D01*
X0243075Y0488841D01*
X0243192Y0488762D01*
X0243311Y0488687D01*
X0243432Y0488615D01*
X0243555Y0488546D01*
X0243680Y0488480D01*
X0243807Y0488419D01*
X0243935Y0488360D01*
X0244065Y0488305D01*
X0244196Y0488254D01*
X0244329Y0488206D01*
X0244463Y0488162D01*
X0244598Y0488122D01*
X0244735Y0488086D01*
X0244872Y0488053D01*
X0245010Y0488024D01*
X0245149Y0487999D01*
X0245288Y0487978D01*
X0245428Y0487960D01*
X0245568Y0487946D01*
X0245709Y0487937D01*
X0245850Y0487931D01*
X0245991Y0487929D01*
X0214219Y0357693D02*
X0214223Y0358012D01*
X0214235Y0358330D01*
X0214254Y0358649D01*
X0214282Y0358966D01*
X0214317Y0359283D01*
X0214360Y0359599D01*
X0214410Y0359914D01*
X0214469Y0360228D01*
X0214535Y0360540D01*
X0214608Y0360850D01*
X0214690Y0361158D01*
X0214778Y0361464D01*
X0214875Y0361768D01*
X0214978Y0362070D01*
X0215090Y0362369D01*
X0215208Y0362665D01*
X0215334Y0362958D01*
X0215466Y0363248D01*
X0215606Y0363534D01*
X0215753Y0363817D01*
X0215907Y0364097D01*
X0216067Y0364372D01*
X0216235Y0364644D01*
X0216409Y0364911D01*
X0216589Y0365174D01*
X0216776Y0365432D01*
X0216969Y0365686D01*
X0217168Y0365935D01*
X0217373Y0366179D01*
X0217585Y0366418D01*
X0217802Y0366652D01*
X0218024Y0366880D01*
X0218252Y0367102D01*
X0218486Y0367319D01*
X0218725Y0367531D01*
X0218969Y0367736D01*
X0219218Y0367935D01*
X0219472Y0368128D01*
X0219730Y0368315D01*
X0219993Y0368495D01*
X0220260Y0368669D01*
X0220532Y0368837D01*
X0220807Y0368997D01*
X0221087Y0369151D01*
X0221370Y0369298D01*
X0221656Y0369438D01*
X0221946Y0369570D01*
X0222239Y0369696D01*
X0222535Y0369814D01*
X0222834Y0369926D01*
X0223136Y0370029D01*
X0223440Y0370126D01*
X0223746Y0370214D01*
X0224054Y0370296D01*
X0224364Y0370369D01*
X0224676Y0370435D01*
X0224990Y0370494D01*
X0225305Y0370544D01*
X0225621Y0370587D01*
X0225938Y0370622D01*
X0226255Y0370650D01*
X0226574Y0370669D01*
X0226892Y0370681D01*
X0227211Y0370685D01*
X0227530Y0370681D01*
X0227848Y0370669D01*
X0228167Y0370650D01*
X0228484Y0370622D01*
X0228801Y0370587D01*
X0229117Y0370544D01*
X0229432Y0370494D01*
X0229746Y0370435D01*
X0230058Y0370369D01*
X0230368Y0370296D01*
X0230676Y0370214D01*
X0230982Y0370126D01*
X0231286Y0370029D01*
X0231588Y0369926D01*
X0231887Y0369814D01*
X0232183Y0369696D01*
X0232476Y0369570D01*
X0232766Y0369438D01*
X0233052Y0369298D01*
X0233335Y0369151D01*
X0233615Y0368997D01*
X0233890Y0368837D01*
X0234162Y0368669D01*
X0234429Y0368495D01*
X0234692Y0368315D01*
X0234950Y0368128D01*
X0235204Y0367935D01*
X0235453Y0367736D01*
X0235697Y0367531D01*
X0235936Y0367319D01*
X0236170Y0367102D01*
X0236398Y0366880D01*
X0236620Y0366652D01*
X0236837Y0366418D01*
X0237049Y0366179D01*
X0237254Y0365935D01*
X0237453Y0365686D01*
X0237646Y0365432D01*
X0237833Y0365174D01*
X0238013Y0364911D01*
X0238187Y0364644D01*
X0238355Y0364372D01*
X0238515Y0364097D01*
X0238669Y0363817D01*
X0238816Y0363534D01*
X0238956Y0363248D01*
X0239088Y0362958D01*
X0239214Y0362665D01*
X0239332Y0362369D01*
X0239444Y0362070D01*
X0239547Y0361768D01*
X0239644Y0361464D01*
X0239732Y0361158D01*
X0239814Y0360850D01*
X0239887Y0360540D01*
X0239953Y0360228D01*
X0240012Y0359914D01*
X0240062Y0359599D01*
X0240105Y0359283D01*
X0240140Y0358966D01*
X0240168Y0358649D01*
X0240187Y0358330D01*
X0240199Y0358012D01*
X0240203Y0357693D01*
X0240199Y0357374D01*
X0240187Y0357056D01*
X0240168Y0356737D01*
X0240140Y0356420D01*
X0240105Y0356103D01*
X0240062Y0355787D01*
X0240012Y0355472D01*
X0239953Y0355158D01*
X0239887Y0354846D01*
X0239814Y0354536D01*
X0239732Y0354228D01*
X0239644Y0353922D01*
X0239547Y0353618D01*
X0239444Y0353316D01*
X0239332Y0353017D01*
X0239214Y0352721D01*
X0239088Y0352428D01*
X0238956Y0352138D01*
X0238816Y0351852D01*
X0238669Y0351569D01*
X0238515Y0351289D01*
X0238355Y0351014D01*
X0238187Y0350742D01*
X0238013Y0350475D01*
X0237833Y0350212D01*
X0237646Y0349954D01*
X0237453Y0349700D01*
X0237254Y0349451D01*
X0237049Y0349207D01*
X0236837Y0348968D01*
X0236620Y0348734D01*
X0236398Y0348506D01*
X0236170Y0348284D01*
X0235936Y0348067D01*
X0235697Y0347855D01*
X0235453Y0347650D01*
X0235204Y0347451D01*
X0234950Y0347258D01*
X0234692Y0347071D01*
X0234429Y0346891D01*
X0234162Y0346717D01*
X0233890Y0346549D01*
X0233615Y0346389D01*
X0233335Y0346235D01*
X0233052Y0346088D01*
X0232766Y0345948D01*
X0232476Y0345816D01*
X0232183Y0345690D01*
X0231887Y0345572D01*
X0231588Y0345460D01*
X0231286Y0345357D01*
X0230982Y0345260D01*
X0230676Y0345172D01*
X0230368Y0345090D01*
X0230058Y0345017D01*
X0229746Y0344951D01*
X0229432Y0344892D01*
X0229117Y0344842D01*
X0228801Y0344799D01*
X0228484Y0344764D01*
X0228167Y0344736D01*
X0227848Y0344717D01*
X0227530Y0344705D01*
X0227211Y0344701D01*
X0226892Y0344705D01*
X0226574Y0344717D01*
X0226255Y0344736D01*
X0225938Y0344764D01*
X0225621Y0344799D01*
X0225305Y0344842D01*
X0224990Y0344892D01*
X0224676Y0344951D01*
X0224364Y0345017D01*
X0224054Y0345090D01*
X0223746Y0345172D01*
X0223440Y0345260D01*
X0223136Y0345357D01*
X0222834Y0345460D01*
X0222535Y0345572D01*
X0222239Y0345690D01*
X0221946Y0345816D01*
X0221656Y0345948D01*
X0221370Y0346088D01*
X0221087Y0346235D01*
X0220807Y0346389D01*
X0220532Y0346549D01*
X0220260Y0346717D01*
X0219993Y0346891D01*
X0219730Y0347071D01*
X0219472Y0347258D01*
X0219218Y0347451D01*
X0218969Y0347650D01*
X0218725Y0347855D01*
X0218486Y0348067D01*
X0218252Y0348284D01*
X0218024Y0348506D01*
X0217802Y0348734D01*
X0217585Y0348968D01*
X0217373Y0349207D01*
X0217168Y0349451D01*
X0216969Y0349700D01*
X0216776Y0349954D01*
X0216589Y0350212D01*
X0216409Y0350475D01*
X0216235Y0350742D01*
X0216067Y0351014D01*
X0215907Y0351289D01*
X0215753Y0351569D01*
X0215606Y0351852D01*
X0215466Y0352138D01*
X0215334Y0352428D01*
X0215208Y0352721D01*
X0215090Y0353017D01*
X0214978Y0353316D01*
X0214875Y0353618D01*
X0214778Y0353922D01*
X0214690Y0354228D01*
X0214608Y0354536D01*
X0214535Y0354846D01*
X0214469Y0355158D01*
X0214410Y0355472D01*
X0214360Y0355787D01*
X0214317Y0356103D01*
X0214282Y0356420D01*
X0214254Y0356737D01*
X0214235Y0357056D01*
X0214223Y0357374D01*
X0214219Y0357693D01*
X0245794Y0019819D02*
X0259888Y0019819D01*
X0260027Y0019817D01*
X0260166Y0019811D01*
X0260305Y0019801D01*
X0260443Y0019788D01*
X0260581Y0019770D01*
X0260719Y0019749D01*
X0260856Y0019724D01*
X0260992Y0019695D01*
X0261127Y0019662D01*
X0261261Y0019625D01*
X0261395Y0019585D01*
X0261527Y0019541D01*
X0261657Y0019493D01*
X0261786Y0019441D01*
X0261914Y0019386D01*
X0262040Y0019328D01*
X0262165Y0019266D01*
X0262288Y0019200D01*
X0262409Y0019131D01*
X0262527Y0019059D01*
X0262644Y0018983D01*
X0262759Y0018904D01*
X0262871Y0018822D01*
X0262981Y0018737D01*
X0263089Y0018648D01*
X0263194Y0018557D01*
X0263296Y0018463D01*
X0263396Y0018366D01*
X0263493Y0018266D01*
X0263587Y0018164D01*
X0263678Y0018059D01*
X0263767Y0017951D01*
X0263852Y0017841D01*
X0263934Y0017729D01*
X0264013Y0017614D01*
X0264089Y0017497D01*
X0264161Y0017379D01*
X0264230Y0017258D01*
X0264296Y0017135D01*
X0264358Y0017010D01*
X0264416Y0016884D01*
X0264471Y0016756D01*
X0264523Y0016627D01*
X0264571Y0016497D01*
X0264615Y0016365D01*
X0264655Y0016231D01*
X0264692Y0016097D01*
X0264725Y0015962D01*
X0264754Y0015826D01*
X0264779Y0015689D01*
X0264800Y0015551D01*
X0264818Y0015413D01*
X0264831Y0015275D01*
X0264841Y0015136D01*
X0264847Y0014997D01*
X0264849Y0014858D01*
X0264849Y0013165D01*
X0264849Y0011000D01*
X0264847Y0010861D01*
X0264841Y0010722D01*
X0264831Y0010583D01*
X0264818Y0010445D01*
X0264800Y0010307D01*
X0264779Y0010169D01*
X0264754Y0010032D01*
X0264725Y0009896D01*
X0264692Y0009761D01*
X0264655Y0009627D01*
X0264615Y0009493D01*
X0264571Y0009361D01*
X0264523Y0009231D01*
X0264471Y0009102D01*
X0264416Y0008974D01*
X0264358Y0008848D01*
X0264296Y0008723D01*
X0264230Y0008600D01*
X0264161Y0008479D01*
X0264089Y0008361D01*
X0264013Y0008244D01*
X0263934Y0008129D01*
X0263852Y0008017D01*
X0263767Y0007907D01*
X0263678Y0007799D01*
X0263587Y0007694D01*
X0263493Y0007592D01*
X0263396Y0007492D01*
X0263296Y0007395D01*
X0263194Y0007301D01*
X0263089Y0007210D01*
X0262981Y0007121D01*
X0262871Y0007036D01*
X0262759Y0006954D01*
X0262644Y0006875D01*
X0262527Y0006799D01*
X0262409Y0006727D01*
X0262288Y0006658D01*
X0262165Y0006592D01*
X0262040Y0006530D01*
X0261914Y0006472D01*
X0261786Y0006417D01*
X0261657Y0006365D01*
X0261527Y0006317D01*
X0261395Y0006273D01*
X0261261Y0006233D01*
X0261127Y0006196D01*
X0260992Y0006163D01*
X0260856Y0006134D01*
X0260719Y0006109D01*
X0260581Y0006088D01*
X0260443Y0006070D01*
X0260305Y0006057D01*
X0260166Y0006047D01*
X0260027Y0006041D01*
X0259888Y0006039D01*
X0246109Y0006039D01*
X0245968Y0006041D01*
X0245827Y0006047D01*
X0245686Y0006056D01*
X0245546Y0006070D01*
X0245406Y0006088D01*
X0245267Y0006109D01*
X0245128Y0006134D01*
X0244990Y0006163D01*
X0244853Y0006196D01*
X0244716Y0006232D01*
X0244581Y0006272D01*
X0244447Y0006316D01*
X0244314Y0006364D01*
X0244183Y0006415D01*
X0244053Y0006470D01*
X0243925Y0006529D01*
X0243798Y0006590D01*
X0243673Y0006656D01*
X0243550Y0006725D01*
X0243429Y0006797D01*
X0243310Y0006872D01*
X0243193Y0006951D01*
X0243078Y0007033D01*
X0242965Y0007118D01*
X0242855Y0007206D01*
X0242748Y0007297D01*
X0242643Y0007392D01*
X0242540Y0007489D01*
X0242441Y0007588D01*
X0242344Y0007691D01*
X0242249Y0007796D01*
X0242158Y0007903D01*
X0242070Y0008013D01*
X0241985Y0008126D01*
X0241903Y0008241D01*
X0241824Y0008358D01*
X0241749Y0008477D01*
X0241677Y0008598D01*
X0241608Y0008721D01*
X0241542Y0008846D01*
X0241481Y0008973D01*
X0241422Y0009101D01*
X0241367Y0009231D01*
X0241316Y0009362D01*
X0241268Y0009495D01*
X0241224Y0009629D01*
X0241184Y0009764D01*
X0241148Y0009901D01*
X0241115Y0010038D01*
X0241086Y0010176D01*
X0241061Y0010315D01*
X0241040Y0010454D01*
X0241022Y0010594D01*
X0241008Y0010734D01*
X0240999Y0010875D01*
X0240993Y0011016D01*
X0240991Y0011157D01*
X0240991Y0013205D01*
X0240991Y0015016D01*
X0240993Y0015153D01*
X0240999Y0015290D01*
X0241009Y0015427D01*
X0241022Y0015564D01*
X0241040Y0015700D01*
X0241061Y0015835D01*
X0241087Y0015970D01*
X0241116Y0016104D01*
X0241149Y0016237D01*
X0241186Y0016369D01*
X0241226Y0016500D01*
X0241270Y0016630D01*
X0241318Y0016759D01*
X0241370Y0016886D01*
X0241425Y0017011D01*
X0241484Y0017135D01*
X0241546Y0017257D01*
X0241612Y0017378D01*
X0241681Y0017496D01*
X0241753Y0017613D01*
X0241829Y0017727D01*
X0241908Y0017839D01*
X0241990Y0017949D01*
X0242076Y0018056D01*
X0242164Y0018161D01*
X0242255Y0018264D01*
X0242350Y0018363D01*
X0242447Y0018460D01*
X0242546Y0018555D01*
X0242649Y0018646D01*
X0242754Y0018734D01*
X0242861Y0018820D01*
X0242971Y0018902D01*
X0243083Y0018981D01*
X0243197Y0019057D01*
X0243314Y0019129D01*
X0243432Y0019198D01*
X0243553Y0019264D01*
X0243675Y0019326D01*
X0243799Y0019385D01*
X0243924Y0019440D01*
X0244051Y0019492D01*
X0244180Y0019540D01*
X0244310Y0019584D01*
X0244441Y0019624D01*
X0244573Y0019661D01*
X0244706Y0019694D01*
X0244840Y0019723D01*
X0244975Y0019749D01*
X0245110Y0019770D01*
X0245246Y0019788D01*
X0245383Y0019801D01*
X0245520Y0019811D01*
X0245657Y0019817D01*
X0245794Y0019819D01*
D11*
X0247043Y0015968D02*
X0248466Y0015968D01*
X0247043Y0015967D02*
X0246969Y0015965D01*
X0246894Y0015959D01*
X0246821Y0015949D01*
X0246747Y0015936D01*
X0246675Y0015919D01*
X0246604Y0015897D01*
X0246533Y0015873D01*
X0246465Y0015844D01*
X0246397Y0015812D01*
X0246332Y0015776D01*
X0246269Y0015738D01*
X0246207Y0015695D01*
X0246148Y0015650D01*
X0246091Y0015602D01*
X0246037Y0015551D01*
X0245986Y0015496D01*
X0245938Y0015440D01*
X0245893Y0015381D01*
X0245850Y0015319D01*
X0245812Y0015256D01*
X0245776Y0015191D01*
X0245744Y0015123D01*
X0245715Y0015055D01*
X0245691Y0014984D01*
X0245669Y0014913D01*
X0245652Y0014841D01*
X0245639Y0014767D01*
X0245629Y0014694D01*
X0245623Y0014619D01*
X0245621Y0014545D01*
X0245621Y0010990D01*
X0245623Y0010916D01*
X0245629Y0010841D01*
X0245639Y0010768D01*
X0245652Y0010694D01*
X0245669Y0010622D01*
X0245691Y0010551D01*
X0245715Y0010480D01*
X0245744Y0010412D01*
X0245776Y0010344D01*
X0245812Y0010279D01*
X0245850Y0010216D01*
X0245893Y0010154D01*
X0245938Y0010095D01*
X0245986Y0010038D01*
X0246037Y0009984D01*
X0246091Y0009933D01*
X0246148Y0009885D01*
X0246207Y0009840D01*
X0246269Y0009797D01*
X0246332Y0009759D01*
X0246397Y0009723D01*
X0246465Y0009691D01*
X0246533Y0009662D01*
X0246604Y0009638D01*
X0246675Y0009616D01*
X0246747Y0009599D01*
X0246821Y0009586D01*
X0246894Y0009576D01*
X0246969Y0009570D01*
X0247043Y0009568D01*
X0248466Y0009568D01*
X0250970Y0011345D02*
X0250970Y0015968D01*
X0254526Y0015968D02*
X0254526Y0011345D01*
X0254524Y0011262D01*
X0254518Y0011179D01*
X0254508Y0011096D01*
X0254495Y0011013D01*
X0254477Y0010932D01*
X0254456Y0010851D01*
X0254431Y0010772D01*
X0254402Y0010694D01*
X0254370Y0010617D01*
X0254334Y0010542D01*
X0254295Y0010468D01*
X0254252Y0010397D01*
X0254206Y0010327D01*
X0254156Y0010260D01*
X0254104Y0010195D01*
X0254049Y0010133D01*
X0253990Y0010073D01*
X0253929Y0010016D01*
X0253866Y0009962D01*
X0253800Y0009911D01*
X0253731Y0009864D01*
X0253661Y0009819D01*
X0253588Y0009778D01*
X0253514Y0009741D01*
X0253438Y0009706D01*
X0253360Y0009676D01*
X0253282Y0009649D01*
X0253201Y0009626D01*
X0253120Y0009606D01*
X0253038Y0009591D01*
X0252956Y0009579D01*
X0252873Y0009571D01*
X0252790Y0009567D01*
X0252706Y0009567D01*
X0252623Y0009571D01*
X0252540Y0009579D01*
X0252458Y0009591D01*
X0252376Y0009606D01*
X0252295Y0009626D01*
X0252214Y0009649D01*
X0252136Y0009676D01*
X0252058Y0009706D01*
X0251982Y0009741D01*
X0251908Y0009778D01*
X0251835Y0009819D01*
X0251765Y0009864D01*
X0251696Y0009911D01*
X0251630Y0009962D01*
X0251567Y0010016D01*
X0251506Y0010073D01*
X0251447Y0010133D01*
X0251392Y0010195D01*
X0251340Y0010260D01*
X0251290Y0010327D01*
X0251244Y0010397D01*
X0251201Y0010468D01*
X0251162Y0010542D01*
X0251126Y0010617D01*
X0251094Y0010694D01*
X0251065Y0010772D01*
X0251040Y0010851D01*
X0251019Y0010932D01*
X0251001Y0011013D01*
X0250988Y0011096D01*
X0250978Y0011179D01*
X0250972Y0011262D01*
X0250970Y0011345D01*
X0256919Y0015968D02*
X0260475Y0015968D01*
X0258697Y0015968D02*
X0258697Y0009568D01*
X0040396Y0015968D02*
X0036840Y0015968D01*
X0038618Y0015968D02*
X0038618Y0009568D01*
X0034447Y0011345D02*
X0034447Y0015968D01*
X0034447Y0011345D02*
X0034445Y0011262D01*
X0034439Y0011179D01*
X0034429Y0011096D01*
X0034416Y0011013D01*
X0034398Y0010932D01*
X0034377Y0010851D01*
X0034352Y0010772D01*
X0034323Y0010694D01*
X0034291Y0010617D01*
X0034255Y0010542D01*
X0034216Y0010468D01*
X0034173Y0010397D01*
X0034127Y0010327D01*
X0034077Y0010260D01*
X0034025Y0010195D01*
X0033970Y0010133D01*
X0033911Y0010073D01*
X0033850Y0010016D01*
X0033787Y0009962D01*
X0033721Y0009911D01*
X0033652Y0009864D01*
X0033582Y0009819D01*
X0033509Y0009778D01*
X0033435Y0009741D01*
X0033359Y0009706D01*
X0033281Y0009676D01*
X0033203Y0009649D01*
X0033122Y0009626D01*
X0033041Y0009606D01*
X0032959Y0009591D01*
X0032877Y0009579D01*
X0032794Y0009571D01*
X0032711Y0009567D01*
X0032627Y0009567D01*
X0032544Y0009571D01*
X0032461Y0009579D01*
X0032379Y0009591D01*
X0032297Y0009606D01*
X0032216Y0009626D01*
X0032135Y0009649D01*
X0032057Y0009676D01*
X0031979Y0009706D01*
X0031903Y0009741D01*
X0031829Y0009778D01*
X0031756Y0009819D01*
X0031686Y0009864D01*
X0031617Y0009911D01*
X0031551Y0009962D01*
X0031488Y0010016D01*
X0031427Y0010073D01*
X0031368Y0010133D01*
X0031313Y0010195D01*
X0031261Y0010260D01*
X0031211Y0010327D01*
X0031165Y0010397D01*
X0031122Y0010468D01*
X0031083Y0010542D01*
X0031047Y0010617D01*
X0031015Y0010694D01*
X0030986Y0010772D01*
X0030961Y0010851D01*
X0030940Y0010932D01*
X0030922Y0011013D01*
X0030909Y0011096D01*
X0030899Y0011179D01*
X0030893Y0011262D01*
X0030891Y0011345D01*
X0030892Y0011345D02*
X0030892Y0015968D01*
X0028387Y0015968D02*
X0026965Y0015968D01*
X0026965Y0015967D02*
X0026891Y0015965D01*
X0026816Y0015959D01*
X0026743Y0015949D01*
X0026669Y0015936D01*
X0026597Y0015919D01*
X0026526Y0015897D01*
X0026455Y0015873D01*
X0026387Y0015844D01*
X0026319Y0015812D01*
X0026254Y0015776D01*
X0026191Y0015738D01*
X0026129Y0015695D01*
X0026070Y0015650D01*
X0026013Y0015602D01*
X0025959Y0015551D01*
X0025908Y0015496D01*
X0025860Y0015440D01*
X0025815Y0015381D01*
X0025772Y0015319D01*
X0025734Y0015256D01*
X0025698Y0015191D01*
X0025666Y0015123D01*
X0025637Y0015055D01*
X0025613Y0014984D01*
X0025591Y0014913D01*
X0025574Y0014841D01*
X0025561Y0014767D01*
X0025551Y0014694D01*
X0025545Y0014619D01*
X0025543Y0014545D01*
X0025543Y0010990D01*
X0025545Y0010916D01*
X0025551Y0010841D01*
X0025561Y0010768D01*
X0025574Y0010694D01*
X0025591Y0010622D01*
X0025613Y0010551D01*
X0025637Y0010480D01*
X0025666Y0010412D01*
X0025698Y0010344D01*
X0025734Y0010279D01*
X0025772Y0010216D01*
X0025815Y0010154D01*
X0025860Y0010095D01*
X0025908Y0010038D01*
X0025959Y0009984D01*
X0026013Y0009933D01*
X0026070Y0009885D01*
X0026129Y0009840D01*
X0026191Y0009797D01*
X0026254Y0009759D01*
X0026319Y0009723D01*
X0026387Y0009691D01*
X0026455Y0009662D01*
X0026526Y0009638D01*
X0026597Y0009616D01*
X0026669Y0009599D01*
X0026743Y0009586D01*
X0026816Y0009576D01*
X0026891Y0009570D01*
X0026965Y0009568D01*
X0028387Y0009568D01*
X0028387Y0491457D02*
X0026965Y0491457D01*
X0026965Y0491458D02*
X0026891Y0491460D01*
X0026816Y0491466D01*
X0026743Y0491476D01*
X0026669Y0491489D01*
X0026597Y0491506D01*
X0026526Y0491528D01*
X0026455Y0491552D01*
X0026387Y0491581D01*
X0026319Y0491613D01*
X0026254Y0491649D01*
X0026191Y0491687D01*
X0026129Y0491730D01*
X0026070Y0491775D01*
X0026013Y0491823D01*
X0025959Y0491874D01*
X0025908Y0491928D01*
X0025860Y0491985D01*
X0025815Y0492044D01*
X0025772Y0492106D01*
X0025734Y0492169D01*
X0025698Y0492234D01*
X0025666Y0492302D01*
X0025637Y0492370D01*
X0025613Y0492441D01*
X0025591Y0492512D01*
X0025574Y0492584D01*
X0025561Y0492658D01*
X0025551Y0492731D01*
X0025545Y0492806D01*
X0025543Y0492880D01*
X0025543Y0496435D01*
X0025545Y0496509D01*
X0025551Y0496584D01*
X0025561Y0496657D01*
X0025574Y0496731D01*
X0025591Y0496803D01*
X0025613Y0496874D01*
X0025637Y0496945D01*
X0025666Y0497013D01*
X0025698Y0497081D01*
X0025734Y0497146D01*
X0025772Y0497209D01*
X0025815Y0497271D01*
X0025860Y0497330D01*
X0025908Y0497386D01*
X0025959Y0497441D01*
X0026013Y0497492D01*
X0026070Y0497540D01*
X0026129Y0497585D01*
X0026191Y0497628D01*
X0026254Y0497666D01*
X0026319Y0497702D01*
X0026387Y0497734D01*
X0026455Y0497763D01*
X0026526Y0497787D01*
X0026597Y0497809D01*
X0026669Y0497826D01*
X0026743Y0497839D01*
X0026816Y0497849D01*
X0026891Y0497855D01*
X0026965Y0497857D01*
X0028387Y0497857D01*
X0030892Y0497857D02*
X0030892Y0493235D01*
X0030891Y0493235D02*
X0030893Y0493152D01*
X0030899Y0493069D01*
X0030909Y0492986D01*
X0030922Y0492903D01*
X0030940Y0492822D01*
X0030961Y0492741D01*
X0030986Y0492662D01*
X0031015Y0492584D01*
X0031047Y0492507D01*
X0031083Y0492432D01*
X0031122Y0492358D01*
X0031165Y0492287D01*
X0031211Y0492217D01*
X0031261Y0492150D01*
X0031313Y0492085D01*
X0031368Y0492023D01*
X0031427Y0491963D01*
X0031488Y0491906D01*
X0031551Y0491852D01*
X0031617Y0491801D01*
X0031686Y0491754D01*
X0031756Y0491709D01*
X0031829Y0491668D01*
X0031903Y0491631D01*
X0031979Y0491596D01*
X0032057Y0491566D01*
X0032135Y0491539D01*
X0032216Y0491516D01*
X0032297Y0491496D01*
X0032379Y0491481D01*
X0032461Y0491469D01*
X0032544Y0491461D01*
X0032627Y0491457D01*
X0032711Y0491457D01*
X0032794Y0491461D01*
X0032877Y0491469D01*
X0032959Y0491481D01*
X0033041Y0491496D01*
X0033122Y0491516D01*
X0033203Y0491539D01*
X0033281Y0491566D01*
X0033359Y0491596D01*
X0033435Y0491631D01*
X0033509Y0491668D01*
X0033582Y0491709D01*
X0033652Y0491754D01*
X0033721Y0491801D01*
X0033787Y0491852D01*
X0033850Y0491906D01*
X0033911Y0491963D01*
X0033970Y0492023D01*
X0034025Y0492085D01*
X0034077Y0492150D01*
X0034127Y0492217D01*
X0034173Y0492287D01*
X0034216Y0492358D01*
X0034255Y0492432D01*
X0034291Y0492507D01*
X0034323Y0492584D01*
X0034352Y0492662D01*
X0034377Y0492741D01*
X0034398Y0492822D01*
X0034416Y0492903D01*
X0034429Y0492986D01*
X0034439Y0493069D01*
X0034445Y0493152D01*
X0034447Y0493235D01*
X0034447Y0497857D01*
X0036840Y0497857D02*
X0040396Y0497857D01*
X0038618Y0497857D02*
X0038618Y0491457D01*
X0245503Y0492880D02*
X0245503Y0496435D01*
X0245505Y0496509D01*
X0245511Y0496584D01*
X0245521Y0496657D01*
X0245534Y0496731D01*
X0245551Y0496803D01*
X0245573Y0496874D01*
X0245597Y0496945D01*
X0245626Y0497013D01*
X0245658Y0497081D01*
X0245694Y0497146D01*
X0245732Y0497209D01*
X0245775Y0497271D01*
X0245820Y0497330D01*
X0245868Y0497386D01*
X0245919Y0497441D01*
X0245973Y0497492D01*
X0246030Y0497540D01*
X0246089Y0497585D01*
X0246151Y0497628D01*
X0246214Y0497666D01*
X0246279Y0497702D01*
X0246347Y0497734D01*
X0246415Y0497763D01*
X0246486Y0497787D01*
X0246557Y0497809D01*
X0246629Y0497826D01*
X0246703Y0497839D01*
X0246776Y0497849D01*
X0246851Y0497855D01*
X0246925Y0497857D01*
X0248348Y0497857D01*
X0250852Y0497857D02*
X0250852Y0493235D01*
X0250854Y0493152D01*
X0250860Y0493069D01*
X0250870Y0492986D01*
X0250883Y0492903D01*
X0250901Y0492822D01*
X0250922Y0492741D01*
X0250947Y0492662D01*
X0250976Y0492584D01*
X0251008Y0492507D01*
X0251044Y0492432D01*
X0251083Y0492358D01*
X0251126Y0492287D01*
X0251172Y0492217D01*
X0251222Y0492150D01*
X0251274Y0492085D01*
X0251329Y0492023D01*
X0251388Y0491963D01*
X0251449Y0491906D01*
X0251512Y0491852D01*
X0251578Y0491801D01*
X0251647Y0491754D01*
X0251717Y0491709D01*
X0251790Y0491668D01*
X0251864Y0491631D01*
X0251940Y0491596D01*
X0252018Y0491566D01*
X0252096Y0491539D01*
X0252177Y0491516D01*
X0252258Y0491496D01*
X0252340Y0491481D01*
X0252422Y0491469D01*
X0252505Y0491461D01*
X0252588Y0491457D01*
X0252672Y0491457D01*
X0252755Y0491461D01*
X0252838Y0491469D01*
X0252920Y0491481D01*
X0253002Y0491496D01*
X0253083Y0491516D01*
X0253164Y0491539D01*
X0253242Y0491566D01*
X0253320Y0491596D01*
X0253396Y0491631D01*
X0253470Y0491668D01*
X0253543Y0491709D01*
X0253613Y0491754D01*
X0253682Y0491801D01*
X0253748Y0491852D01*
X0253811Y0491906D01*
X0253872Y0491963D01*
X0253931Y0492023D01*
X0253986Y0492085D01*
X0254038Y0492150D01*
X0254088Y0492217D01*
X0254134Y0492287D01*
X0254177Y0492358D01*
X0254216Y0492432D01*
X0254252Y0492507D01*
X0254284Y0492584D01*
X0254313Y0492662D01*
X0254338Y0492741D01*
X0254359Y0492822D01*
X0254377Y0492903D01*
X0254390Y0492986D01*
X0254400Y0493069D01*
X0254406Y0493152D01*
X0254408Y0493235D01*
X0254408Y0497857D01*
X0256801Y0497857D02*
X0260357Y0497857D01*
X0258579Y0497857D02*
X0258579Y0491457D01*
X0248348Y0491457D02*
X0246925Y0491457D01*
X0246925Y0491458D02*
X0246851Y0491460D01*
X0246776Y0491466D01*
X0246703Y0491476D01*
X0246629Y0491489D01*
X0246557Y0491506D01*
X0246486Y0491528D01*
X0246415Y0491552D01*
X0246347Y0491581D01*
X0246279Y0491613D01*
X0246214Y0491649D01*
X0246151Y0491687D01*
X0246089Y0491730D01*
X0246030Y0491775D01*
X0245973Y0491823D01*
X0245919Y0491874D01*
X0245868Y0491928D01*
X0245820Y0491985D01*
X0245775Y0492044D01*
X0245732Y0492106D01*
X0245694Y0492169D01*
X0245658Y0492234D01*
X0245626Y0492302D01*
X0245597Y0492370D01*
X0245573Y0492441D01*
X0245551Y0492512D01*
X0245534Y0492584D01*
X0245521Y0492658D01*
X0245511Y0492731D01*
X0245505Y0492806D01*
X0245503Y0492880D01*
D12*
X0185872Y0431709D03*
D13*
X0145321Y0060055D02*
X0137447Y0060055D01*
X0137447Y0056118D01*
X0137447Y0052181D01*
X0145321Y0052181D01*
X0145321Y0060055D01*
X0137447Y0056118D02*
X0121699Y0056118D01*
X0121699Y0016748D01*
X0141384Y0016748D01*
X0161069Y0016748D01*
X0161069Y0056118D01*
X0137447Y0056118D01*
D14*
X0149652Y0091945D03*
X0149652Y0138795D03*
X0111857Y0138795D03*
X0111857Y0091945D03*
X0074455Y0091945D03*
X0074455Y0138795D03*
X0037054Y0138795D03*
X0037054Y0091945D03*
X0208313Y0091551D03*
X0208313Y0139189D03*
X0245715Y0138795D03*
X0245715Y0091551D03*
D15*
X0227211Y0263205D03*
X0054376Y0262811D03*
D16*
X0011463Y0262613D02*
X0275243Y0262613D01*
X0275243Y0260646D02*
X0011463Y0260646D01*
X0011463Y0258679D02*
X0275243Y0258679D01*
X0275243Y0256712D02*
X0011463Y0256712D01*
X0011463Y0254745D02*
X0275243Y0254745D01*
X0275243Y0252778D02*
X0011463Y0252778D01*
X0011463Y0250811D02*
X0275243Y0250811D01*
X0275243Y0248844D02*
X0011463Y0248844D01*
X0011463Y0246877D02*
X0275243Y0246877D01*
X0275243Y0244910D02*
X0011463Y0244910D01*
X0011463Y0242943D02*
X0275243Y0242943D01*
X0275243Y0240976D02*
X0011463Y0240976D01*
X0011463Y0239009D02*
X0275243Y0239009D01*
X0275243Y0237042D02*
X0011463Y0237042D01*
X0011463Y0235075D02*
X0275243Y0235075D01*
X0275243Y0233108D02*
X0011463Y0233108D01*
X0011463Y0231141D02*
X0275243Y0231141D01*
X0275243Y0229174D02*
X0011463Y0229174D01*
X0011463Y0227207D02*
X0275243Y0227207D01*
X0275243Y0225240D02*
X0011463Y0225240D01*
X0011463Y0223273D02*
X0275243Y0223273D01*
X0275243Y0221306D02*
X0011463Y0221306D01*
X0011463Y0219339D02*
X0275243Y0219339D01*
X0275243Y0217372D02*
X0011463Y0217372D01*
X0011463Y0215405D02*
X0275243Y0215405D01*
X0275243Y0213438D02*
X0011463Y0213438D01*
X0011463Y0211471D02*
X0275243Y0211471D01*
X0275243Y0209504D02*
X0011463Y0209504D01*
X0011463Y0207537D02*
X0275243Y0207537D01*
X0275243Y0205570D02*
X0011463Y0205570D01*
X0011463Y0203603D02*
X0275243Y0203603D01*
X0275243Y0201636D02*
X0011463Y0201636D01*
X0011463Y0199669D02*
X0275243Y0199669D01*
X0275243Y0197702D02*
X0011463Y0197702D01*
X0011463Y0195735D02*
X0275243Y0195735D01*
X0275243Y0193767D02*
X0011463Y0193767D01*
X0011463Y0191800D02*
X0275243Y0191800D01*
X0275243Y0189833D02*
X0011463Y0189833D01*
X0011463Y0187866D02*
X0275243Y0187866D01*
X0275243Y0185899D02*
X0011463Y0185899D01*
X0011463Y0183932D02*
X0275243Y0183932D01*
X0275243Y0181965D02*
X0011463Y0181965D01*
X0011463Y0179998D02*
X0275243Y0179998D01*
X0275243Y0178031D02*
X0011463Y0178031D01*
X0011463Y0176064D02*
X0275243Y0176064D01*
X0275243Y0174097D02*
X0011463Y0174097D01*
X0011463Y0172130D02*
X0275243Y0172130D01*
X0275243Y0170163D02*
X0011463Y0170163D01*
X0011463Y0168196D02*
X0275243Y0168196D01*
X0275243Y0166229D02*
X0011463Y0166229D01*
X0011463Y0164262D02*
X0275243Y0164262D01*
X0275243Y0162295D02*
X0011463Y0162295D01*
X0011463Y0160328D02*
X0275243Y0160328D01*
X0275243Y0158361D02*
X0011463Y0158361D01*
X0011463Y0156394D02*
X0275243Y0156394D01*
X0275243Y0154427D02*
X0011463Y0154427D01*
X0011463Y0152460D02*
X0275243Y0152460D01*
X0275243Y0150493D02*
X0011463Y0150493D01*
X0011463Y0148526D02*
X0275243Y0148526D01*
X0275243Y0146559D02*
X0011463Y0146559D01*
X0011463Y0144592D02*
X0275243Y0144592D01*
X0275243Y0142625D02*
X0011463Y0142625D01*
X0011463Y0140658D02*
X0275243Y0140658D01*
X0275243Y0138691D02*
X0011463Y0138691D01*
X0011463Y0136724D02*
X0275243Y0136724D01*
X0275243Y0134757D02*
X0011463Y0134757D01*
X0011463Y0132790D02*
X0275243Y0132790D01*
X0275243Y0130823D02*
X0011463Y0130823D01*
X0011463Y0128856D02*
X0275243Y0128856D01*
X0275243Y0126889D02*
X0011463Y0126889D01*
X0011463Y0124922D02*
X0275243Y0124922D01*
X0275243Y0122955D02*
X0011463Y0122955D01*
X0011463Y0120988D02*
X0275243Y0120988D01*
X0275243Y0119021D02*
X0011463Y0119021D01*
X0011463Y0117054D02*
X0275243Y0117054D01*
X0275243Y0115087D02*
X0011463Y0115087D01*
X0011463Y0113120D02*
X0275243Y0113120D01*
X0275243Y0111153D02*
X0011463Y0111153D01*
X0011463Y0109186D02*
X0275243Y0109186D01*
X0275243Y0107219D02*
X0011463Y0107219D01*
X0011463Y0105252D02*
X0275243Y0105252D01*
X0275243Y0103285D02*
X0011463Y0103285D01*
X0011463Y0101318D02*
X0275243Y0101318D01*
X0275243Y0099351D02*
X0011463Y0099351D01*
X0011463Y0097384D02*
X0275243Y0097384D01*
X0275243Y0095417D02*
X0011463Y0095417D01*
X0011463Y0093450D02*
X0275243Y0093450D01*
X0275243Y0091483D02*
X0011463Y0091483D01*
X0011463Y0089516D02*
X0275243Y0089516D01*
X0275243Y0087549D02*
X0011463Y0087549D01*
X0011463Y0085582D02*
X0275243Y0085582D01*
X0275243Y0083615D02*
X0011463Y0083615D01*
X0011463Y0081648D02*
X0275243Y0081648D01*
X0275243Y0079681D02*
X0011463Y0079681D01*
X0011463Y0077714D02*
X0275243Y0077714D01*
X0275243Y0075747D02*
X0011463Y0075747D01*
X0011463Y0073780D02*
X0275243Y0073780D01*
X0275243Y0071813D02*
X0011463Y0071813D01*
X0011463Y0069846D02*
X0275243Y0069846D01*
X0275243Y0067879D02*
X0147215Y0067879D01*
X0146903Y0068008D02*
X0135865Y0068008D01*
X0132942Y0066797D01*
X0130705Y0064560D01*
X0130503Y0064071D01*
X0120117Y0064071D01*
X0117194Y0062860D01*
X0114957Y0060623D01*
X0113746Y0057700D01*
X0113746Y0015166D01*
X0114957Y0012243D01*
X0117194Y0010006D01*
X0119927Y0008874D01*
X0050627Y0008874D01*
X0050754Y0009266D01*
X0050754Y0016592D01*
X0049683Y0019889D01*
X0049683Y0019889D01*
X0047645Y0022694D01*
X0044840Y0024732D01*
X0041543Y0025803D01*
X0024006Y0025803D01*
X0020757Y0024747D01*
X0020757Y0024747D01*
X0017992Y0022739D01*
X0017992Y0022739D01*
X0017992Y0022739D01*
X0015984Y0019974D01*
X0014928Y0016724D01*
X0014928Y0009399D01*
X0015098Y0008874D01*
X0011463Y0008874D01*
X0011463Y0497063D01*
X0014928Y0497063D01*
X0014928Y0491289D01*
X0016014Y0487944D01*
X0018082Y0485099D01*
X0020927Y0483032D01*
X0024271Y0481945D01*
X0041543Y0481945D01*
X0044840Y0483016D01*
X0044840Y0483016D01*
X0047645Y0485054D01*
X0047645Y0485054D01*
X0047645Y0485054D01*
X0049683Y0487859D01*
X0050754Y0491156D01*
X0050754Y0497063D01*
X0234888Y0497063D01*
X0234888Y0491289D01*
X0235975Y0487944D01*
X0238042Y0485099D01*
X0240887Y0483032D01*
X0244232Y0481945D01*
X0261504Y0481945D01*
X0264801Y0483016D01*
X0267606Y0485054D01*
X0269644Y0487859D01*
X0270715Y0491156D01*
X0270715Y0497063D01*
X0275243Y0497063D01*
X0275243Y0008874D01*
X0270706Y0008874D01*
X0270833Y0009266D01*
X0270833Y0016592D01*
X0269762Y0019889D01*
X0267724Y0022694D01*
X0264919Y0024732D01*
X0261622Y0025803D01*
X0244085Y0025803D01*
X0240835Y0024747D01*
X0238071Y0022739D01*
X0238071Y0022739D01*
X0236062Y0019974D01*
X0235006Y0016724D01*
X0235006Y0009399D01*
X0235177Y0008874D01*
X0162841Y0008874D01*
X0165574Y0010006D01*
X0167811Y0012243D01*
X0169022Y0015166D01*
X0169022Y0057700D01*
X0167811Y0060623D01*
X0165574Y0062860D01*
X0162651Y0064071D01*
X0152266Y0064071D01*
X0152063Y0064560D01*
X0149826Y0066797D01*
X0146903Y0068008D01*
X0150712Y0065912D02*
X0275243Y0065912D01*
X0275243Y0063944D02*
X0162956Y0063944D01*
X0166457Y0061977D02*
X0275243Y0061977D01*
X0275243Y0060010D02*
X0168065Y0060010D01*
X0168880Y0058043D02*
X0275243Y0058043D01*
X0275243Y0056076D02*
X0169022Y0056076D01*
X0169022Y0054109D02*
X0275243Y0054109D01*
X0275243Y0052142D02*
X0169022Y0052142D01*
X0169022Y0050175D02*
X0275243Y0050175D01*
X0275243Y0048208D02*
X0169022Y0048208D01*
X0169022Y0046241D02*
X0275243Y0046241D01*
X0275243Y0044274D02*
X0169022Y0044274D01*
X0169022Y0042307D02*
X0275243Y0042307D01*
X0275243Y0040340D02*
X0169022Y0040340D01*
X0169022Y0038373D02*
X0275243Y0038373D01*
X0275243Y0036406D02*
X0169022Y0036406D01*
X0169022Y0034439D02*
X0275243Y0034439D01*
X0275243Y0032472D02*
X0169022Y0032472D01*
X0169022Y0030505D02*
X0275243Y0030505D01*
X0275243Y0028538D02*
X0169022Y0028538D01*
X0169022Y0026571D02*
X0275243Y0026571D01*
X0275243Y0024604D02*
X0265095Y0024604D01*
X0264919Y0024732D02*
X0264919Y0024732D01*
X0267724Y0022694D02*
X0267724Y0022694D01*
X0267724Y0022694D01*
X0267765Y0022637D02*
X0275243Y0022637D01*
X0275243Y0020670D02*
X0269194Y0020670D01*
X0269762Y0019889D02*
X0269762Y0019889D01*
X0270147Y0018703D02*
X0275243Y0018703D01*
X0275243Y0016736D02*
X0270786Y0016736D01*
X0270833Y0014769D02*
X0275243Y0014769D01*
X0275243Y0012802D02*
X0270833Y0012802D01*
X0270833Y0010835D02*
X0275243Y0010835D01*
X0240835Y0024747D02*
X0240835Y0024747D01*
X0240638Y0024604D02*
X0169022Y0024604D01*
X0169022Y0022637D02*
X0237997Y0022637D01*
X0238071Y0022739D02*
X0238071Y0022739D01*
X0236568Y0020670D02*
X0169022Y0020670D01*
X0169022Y0018703D02*
X0235649Y0018703D01*
X0236062Y0019974D02*
X0236062Y0019974D01*
X0235010Y0016736D02*
X0169022Y0016736D01*
X0168858Y0014769D02*
X0235006Y0014769D01*
X0235006Y0012802D02*
X0168043Y0012802D01*
X0166403Y0010835D02*
X0235006Y0010835D01*
X0135553Y0067879D02*
X0011463Y0067879D01*
X0011463Y0065912D02*
X0132057Y0065912D01*
X0119812Y0063944D02*
X0011463Y0063944D01*
X0011463Y0061977D02*
X0116312Y0061977D01*
X0114703Y0060010D02*
X0011463Y0060010D01*
X0011463Y0058043D02*
X0113889Y0058043D01*
X0113746Y0056076D02*
X0011463Y0056076D01*
X0011463Y0054109D02*
X0113746Y0054109D01*
X0113746Y0052142D02*
X0011463Y0052142D01*
X0011463Y0050175D02*
X0113746Y0050175D01*
X0113746Y0048208D02*
X0011463Y0048208D01*
X0011463Y0046241D02*
X0113746Y0046241D01*
X0113746Y0044274D02*
X0011463Y0044274D01*
X0011463Y0042307D02*
X0113746Y0042307D01*
X0113746Y0040340D02*
X0011463Y0040340D01*
X0011463Y0038373D02*
X0113746Y0038373D01*
X0113746Y0036406D02*
X0011463Y0036406D01*
X0011463Y0034439D02*
X0113746Y0034439D01*
X0113746Y0032472D02*
X0011463Y0032472D01*
X0011463Y0030505D02*
X0113746Y0030505D01*
X0113746Y0028538D02*
X0011463Y0028538D01*
X0011463Y0026571D02*
X0113746Y0026571D01*
X0113746Y0024604D02*
X0045016Y0024604D01*
X0044840Y0024732D02*
X0044840Y0024732D01*
X0047645Y0022694D02*
X0047645Y0022694D01*
X0047645Y0022694D01*
X0047686Y0022637D02*
X0113746Y0022637D01*
X0113746Y0020670D02*
X0049115Y0020670D01*
X0050068Y0018703D02*
X0113746Y0018703D01*
X0113746Y0016736D02*
X0050707Y0016736D01*
X0050754Y0014769D02*
X0113911Y0014769D01*
X0114726Y0012802D02*
X0050754Y0012802D01*
X0050754Y0010835D02*
X0116365Y0010835D01*
X0020560Y0024604D02*
X0011463Y0024604D01*
X0011463Y0022637D02*
X0017918Y0022637D01*
X0016489Y0020670D02*
X0011463Y0020670D01*
X0011463Y0018703D02*
X0015571Y0018703D01*
X0015984Y0019974D02*
X0015984Y0019974D01*
X0014931Y0016736D02*
X0011463Y0016736D01*
X0011463Y0014769D02*
X0014928Y0014769D01*
X0014928Y0012802D02*
X0011463Y0012802D01*
X0011463Y0010835D02*
X0014928Y0010835D01*
X0011463Y0264580D02*
X0275243Y0264580D01*
X0275243Y0266547D02*
X0011463Y0266547D01*
X0011463Y0268514D02*
X0275243Y0268514D01*
X0275243Y0270481D02*
X0011463Y0270481D01*
X0011463Y0272448D02*
X0275243Y0272448D01*
X0275243Y0274415D02*
X0011463Y0274415D01*
X0011463Y0276382D02*
X0275243Y0276382D01*
X0275243Y0278349D02*
X0011463Y0278349D01*
X0011463Y0280316D02*
X0275243Y0280316D01*
X0275243Y0282283D02*
X0011463Y0282283D01*
X0011463Y0284250D02*
X0275243Y0284250D01*
X0275243Y0286217D02*
X0011463Y0286217D01*
X0011463Y0288184D02*
X0275243Y0288184D01*
X0275243Y0290151D02*
X0011463Y0290151D01*
X0011463Y0292118D02*
X0275243Y0292118D01*
X0275243Y0294085D02*
X0011463Y0294085D01*
X0011463Y0296052D02*
X0275243Y0296052D01*
X0275243Y0298019D02*
X0011463Y0298019D01*
X0011463Y0299986D02*
X0275243Y0299986D01*
X0275243Y0301953D02*
X0011463Y0301953D01*
X0011463Y0303920D02*
X0275243Y0303920D01*
X0275243Y0305887D02*
X0011463Y0305887D01*
X0011463Y0307854D02*
X0275243Y0307854D01*
X0275243Y0309821D02*
X0011463Y0309821D01*
X0011463Y0311788D02*
X0275243Y0311788D01*
X0275243Y0313755D02*
X0011463Y0313755D01*
X0011463Y0315722D02*
X0275243Y0315722D01*
X0275243Y0317689D02*
X0011463Y0317689D01*
X0011463Y0319656D02*
X0275243Y0319656D01*
X0275243Y0321623D02*
X0011463Y0321623D01*
X0011463Y0323591D02*
X0275243Y0323591D01*
X0275243Y0325558D02*
X0011463Y0325558D01*
X0011463Y0327525D02*
X0275243Y0327525D01*
X0275243Y0329492D02*
X0011463Y0329492D01*
X0011463Y0331459D02*
X0275243Y0331459D01*
X0275243Y0333426D02*
X0011463Y0333426D01*
X0011463Y0335393D02*
X0275243Y0335393D01*
X0275243Y0337360D02*
X0011463Y0337360D01*
X0011463Y0339327D02*
X0222436Y0339327D01*
X0224713Y0338717D02*
X0219886Y0340010D01*
X0215559Y0342508D01*
X0212026Y0346041D01*
X0209528Y0350368D01*
X0208235Y0355195D01*
X0208235Y0360191D01*
X0209528Y0365018D01*
X0212026Y0369345D01*
X0215559Y0372878D01*
X0219886Y0375376D01*
X0224713Y0376669D01*
X0229709Y0376669D01*
X0234536Y0375376D01*
X0238863Y0372878D01*
X0242396Y0369345D01*
X0244894Y0365018D01*
X0246187Y0360191D01*
X0246187Y0355195D01*
X0244894Y0350368D01*
X0242396Y0346041D01*
X0238863Y0342508D01*
X0234536Y0340010D01*
X0229709Y0338717D01*
X0224713Y0338717D01*
X0231986Y0339327D02*
X0275243Y0339327D01*
X0275243Y0341294D02*
X0236759Y0341294D01*
X0239615Y0343261D02*
X0275243Y0343261D01*
X0275243Y0345228D02*
X0241582Y0345228D01*
X0243062Y0347195D02*
X0275243Y0347195D01*
X0275243Y0349162D02*
X0244198Y0349162D01*
X0245098Y0351129D02*
X0275243Y0351129D01*
X0275243Y0353096D02*
X0245625Y0353096D01*
X0246152Y0355063D02*
X0275243Y0355063D01*
X0275243Y0357030D02*
X0246187Y0357030D01*
X0246187Y0358997D02*
X0275243Y0358997D01*
X0275243Y0360964D02*
X0245980Y0360964D01*
X0245453Y0362931D02*
X0275243Y0362931D01*
X0275243Y0364898D02*
X0244926Y0364898D01*
X0243828Y0366865D02*
X0275243Y0366865D01*
X0275243Y0368832D02*
X0242692Y0368832D01*
X0240942Y0370799D02*
X0275243Y0370799D01*
X0275243Y0372766D02*
X0238975Y0372766D01*
X0235650Y0374733D02*
X0275243Y0374733D01*
X0275243Y0376700D02*
X0169809Y0376700D01*
X0169809Y0378667D02*
X0275243Y0378667D01*
X0275243Y0380634D02*
X0169809Y0380634D01*
X0169809Y0382601D02*
X0275243Y0382601D01*
X0275243Y0384568D02*
X0169809Y0384568D01*
X0169809Y0386535D02*
X0275243Y0386535D01*
X0275243Y0388502D02*
X0169809Y0388502D01*
X0169809Y0390469D02*
X0275243Y0390469D01*
X0275243Y0392436D02*
X0169809Y0392436D01*
X0169809Y0394403D02*
X0275243Y0394403D01*
X0275243Y0396370D02*
X0169809Y0396370D01*
X0169809Y0398337D02*
X0275243Y0398337D01*
X0275243Y0400304D02*
X0169809Y0400304D01*
X0169809Y0402271D02*
X0275243Y0402271D01*
X0275243Y0404238D02*
X0169809Y0404238D01*
X0169809Y0406205D02*
X0275243Y0406205D01*
X0275243Y0408172D02*
X0169809Y0408172D01*
X0169809Y0410139D02*
X0275243Y0410139D01*
X0275243Y0412106D02*
X0169809Y0412106D01*
X0169809Y0414073D02*
X0219804Y0414073D01*
X0219886Y0414025D02*
X0224713Y0412732D01*
X0229709Y0412732D01*
X0234536Y0414025D01*
X0238863Y0416524D01*
X0242396Y0420057D01*
X0244894Y0424384D01*
X0246187Y0429210D01*
X0246187Y0434207D01*
X0244894Y0439033D01*
X0242396Y0443360D01*
X0238863Y0446894D01*
X0234536Y0449392D01*
X0229709Y0450685D01*
X0224713Y0450685D01*
X0219886Y0449392D01*
X0215559Y0446894D01*
X0212026Y0443360D01*
X0209528Y0439033D01*
X0208235Y0434207D01*
X0208235Y0429210D01*
X0209528Y0424384D01*
X0212026Y0420057D01*
X0215559Y0416524D01*
X0219886Y0414025D01*
X0216397Y0416040D02*
X0169809Y0416040D01*
X0169809Y0418007D02*
X0181820Y0418007D01*
X0180359Y0418399D02*
X0183992Y0417425D01*
X0187753Y0417425D01*
X0191386Y0418399D01*
X0194643Y0420279D01*
X0197302Y0422938D01*
X0199183Y0426195D01*
X0200156Y0429828D01*
X0200156Y0433589D01*
X0199183Y0437222D01*
X0197302Y0440479D01*
X0194643Y0443138D01*
X0191386Y0445019D01*
X0187753Y0445992D01*
X0183992Y0445992D01*
X0180359Y0445019D01*
X0177102Y0443138D01*
X0174443Y0440479D01*
X0172562Y0437222D01*
X0171589Y0433589D01*
X0171589Y0429828D01*
X0172562Y0426195D01*
X0174443Y0422938D01*
X0177102Y0420279D01*
X0180359Y0418399D01*
X0177630Y0419974D02*
X0169809Y0419974D01*
X0169809Y0421941D02*
X0175440Y0421941D01*
X0173883Y0423908D02*
X0169809Y0423908D01*
X0169809Y0425875D02*
X0172747Y0425875D01*
X0172121Y0427842D02*
X0169809Y0427842D01*
X0169809Y0428018D02*
X0168684Y0431481D01*
X0166544Y0434427D01*
X0166544Y0434427D01*
X0166544Y0434427D01*
X0163598Y0436568D01*
X0163598Y0436568D01*
X0160134Y0437693D01*
X0037926Y0437693D01*
X0034344Y0436529D01*
X0031297Y0434315D01*
X0029084Y0431268D01*
X0027920Y0427686D01*
X0027920Y0363579D01*
X0027712Y0361922D01*
X0028581Y0357929D01*
X0030729Y0354452D01*
X0030729Y0354452D01*
X0033912Y0351887D01*
X0037766Y0350528D01*
X0038619Y0350528D01*
X0159140Y0350528D01*
X0162959Y0351768D01*
X0166208Y0354129D01*
X0168569Y0357378D01*
X0169809Y0361197D01*
X0169809Y0428018D01*
X0169227Y0429809D02*
X0171594Y0429809D01*
X0171589Y0431776D02*
X0168470Y0431776D01*
X0168684Y0431481D02*
X0168684Y0431481D01*
X0167040Y0433743D02*
X0171630Y0433743D01*
X0172157Y0435710D02*
X0164777Y0435710D01*
X0160182Y0437677D02*
X0172825Y0437677D01*
X0173961Y0439644D02*
X0011463Y0439644D01*
X0011463Y0437677D02*
X0037879Y0437677D01*
X0034344Y0436529D02*
X0034344Y0436529D01*
X0033218Y0435710D02*
X0011463Y0435710D01*
X0011463Y0433743D02*
X0030882Y0433743D01*
X0031297Y0434315D02*
X0031297Y0434315D01*
X0031297Y0434315D01*
X0029453Y0431776D02*
X0011463Y0431776D01*
X0011463Y0429809D02*
X0028610Y0429809D01*
X0029084Y0431268D02*
X0029084Y0431268D01*
X0027970Y0427842D02*
X0011463Y0427842D01*
X0011463Y0425875D02*
X0027920Y0425875D01*
X0027920Y0423908D02*
X0011463Y0423908D01*
X0011463Y0421941D02*
X0027920Y0421941D01*
X0027920Y0419974D02*
X0011463Y0419974D01*
X0011463Y0418007D02*
X0027920Y0418007D01*
X0027920Y0416040D02*
X0011463Y0416040D01*
X0011463Y0414073D02*
X0027920Y0414073D01*
X0027920Y0412106D02*
X0011463Y0412106D01*
X0011463Y0410139D02*
X0027920Y0410139D01*
X0027920Y0408172D02*
X0011463Y0408172D01*
X0011463Y0406205D02*
X0027920Y0406205D01*
X0027920Y0404238D02*
X0011463Y0404238D01*
X0011463Y0402271D02*
X0027920Y0402271D01*
X0027920Y0400304D02*
X0011463Y0400304D01*
X0011463Y0398337D02*
X0027920Y0398337D01*
X0027920Y0396370D02*
X0011463Y0396370D01*
X0011463Y0394403D02*
X0027920Y0394403D01*
X0027920Y0392436D02*
X0011463Y0392436D01*
X0011463Y0390469D02*
X0027920Y0390469D01*
X0027920Y0388502D02*
X0011463Y0388502D01*
X0011463Y0386535D02*
X0027920Y0386535D01*
X0027920Y0384568D02*
X0011463Y0384568D01*
X0011463Y0382601D02*
X0027920Y0382601D01*
X0027920Y0380634D02*
X0011463Y0380634D01*
X0011463Y0378667D02*
X0027920Y0378667D01*
X0027920Y0376700D02*
X0011463Y0376700D01*
X0011463Y0374733D02*
X0027920Y0374733D01*
X0027920Y0372766D02*
X0011463Y0372766D01*
X0011463Y0370799D02*
X0027920Y0370799D01*
X0027920Y0368832D02*
X0011463Y0368832D01*
X0011463Y0366865D02*
X0027920Y0366865D01*
X0027920Y0364898D02*
X0011463Y0364898D01*
X0011463Y0362931D02*
X0027838Y0362931D01*
X0027712Y0361922D02*
X0027712Y0361922D01*
X0027920Y0360964D02*
X0011463Y0360964D01*
X0011463Y0358997D02*
X0028348Y0358997D01*
X0028581Y0357929D02*
X0028581Y0357929D01*
X0029136Y0357030D02*
X0011463Y0357030D01*
X0011463Y0355063D02*
X0030352Y0355063D01*
X0032412Y0353096D02*
X0011463Y0353096D01*
X0011463Y0351129D02*
X0036062Y0351129D01*
X0033912Y0351887D02*
X0033912Y0351887D01*
X0011463Y0349162D02*
X0210224Y0349162D01*
X0209324Y0351129D02*
X0160990Y0351129D01*
X0162959Y0351768D02*
X0162959Y0351768D01*
X0164786Y0353096D02*
X0208797Y0353096D01*
X0208270Y0355063D02*
X0166887Y0355063D01*
X0166208Y0354129D02*
X0166208Y0354129D01*
X0166208Y0354129D01*
X0168316Y0357030D02*
X0208235Y0357030D01*
X0208235Y0358997D02*
X0169095Y0358997D01*
X0168569Y0357378D02*
X0168569Y0357378D01*
X0169734Y0360964D02*
X0208442Y0360964D01*
X0208969Y0362931D02*
X0169809Y0362931D01*
X0169809Y0364898D02*
X0209496Y0364898D01*
X0210594Y0366865D02*
X0169809Y0366865D01*
X0169809Y0368832D02*
X0211730Y0368832D01*
X0213480Y0370799D02*
X0169809Y0370799D01*
X0169809Y0372766D02*
X0215447Y0372766D01*
X0218772Y0374733D02*
X0169809Y0374733D01*
X0189925Y0418007D02*
X0214076Y0418007D01*
X0212109Y0419974D02*
X0194115Y0419974D01*
X0196305Y0421941D02*
X0210938Y0421941D01*
X0209803Y0423908D02*
X0197862Y0423908D01*
X0198998Y0425875D02*
X0209128Y0425875D01*
X0208601Y0427842D02*
X0199624Y0427842D01*
X0200151Y0429809D02*
X0208235Y0429809D01*
X0208235Y0431776D02*
X0200156Y0431776D01*
X0200115Y0433743D02*
X0208235Y0433743D01*
X0208637Y0435710D02*
X0199588Y0435710D01*
X0198920Y0437677D02*
X0209165Y0437677D01*
X0209881Y0439644D02*
X0197784Y0439644D01*
X0196170Y0441611D02*
X0211016Y0441611D01*
X0212244Y0443578D02*
X0193880Y0443578D01*
X0189420Y0445545D02*
X0214211Y0445545D01*
X0216631Y0447512D02*
X0011463Y0447512D01*
X0011463Y0445545D02*
X0182325Y0445545D01*
X0177865Y0443578D02*
X0011463Y0443578D01*
X0011463Y0441611D02*
X0175575Y0441611D01*
X0220214Y0449479D02*
X0011463Y0449479D01*
X0011463Y0451446D02*
X0275243Y0451446D01*
X0275243Y0449479D02*
X0234208Y0449479D01*
X0237791Y0447512D02*
X0275243Y0447512D01*
X0275243Y0445545D02*
X0240211Y0445545D01*
X0242178Y0443578D02*
X0275243Y0443578D01*
X0275243Y0441611D02*
X0243406Y0441611D01*
X0244541Y0439644D02*
X0275243Y0439644D01*
X0275243Y0437677D02*
X0245257Y0437677D01*
X0245785Y0435710D02*
X0275243Y0435710D01*
X0275243Y0433743D02*
X0246187Y0433743D01*
X0246187Y0431776D02*
X0275243Y0431776D01*
X0275243Y0429809D02*
X0246187Y0429809D01*
X0245821Y0427842D02*
X0275243Y0427842D01*
X0275243Y0425875D02*
X0245294Y0425875D01*
X0244619Y0423908D02*
X0275243Y0423908D01*
X0275243Y0421941D02*
X0243484Y0421941D01*
X0242313Y0419974D02*
X0275243Y0419974D01*
X0275243Y0418007D02*
X0240346Y0418007D01*
X0238025Y0416040D02*
X0275243Y0416040D01*
X0275243Y0414073D02*
X0234618Y0414073D01*
X0211360Y0347195D02*
X0011463Y0347195D01*
X0011463Y0345228D02*
X0212840Y0345228D01*
X0214807Y0343261D02*
X0011463Y0343261D01*
X0011463Y0341294D02*
X0217663Y0341294D01*
X0275243Y0453414D02*
X0011463Y0453414D01*
X0011463Y0455381D02*
X0275243Y0455381D01*
X0275243Y0457348D02*
X0011463Y0457348D01*
X0011463Y0459315D02*
X0275243Y0459315D01*
X0275243Y0461282D02*
X0011463Y0461282D01*
X0011463Y0463249D02*
X0275243Y0463249D01*
X0275243Y0465216D02*
X0011463Y0465216D01*
X0011463Y0467183D02*
X0275243Y0467183D01*
X0275243Y0469150D02*
X0011463Y0469150D01*
X0011463Y0471117D02*
X0275243Y0471117D01*
X0275243Y0473084D02*
X0011463Y0473084D01*
X0011463Y0475051D02*
X0275243Y0475051D01*
X0275243Y0477018D02*
X0011463Y0477018D01*
X0011463Y0478985D02*
X0275243Y0478985D01*
X0275243Y0480952D02*
X0011463Y0480952D01*
X0011463Y0482919D02*
X0021274Y0482919D01*
X0020927Y0483032D02*
X0020927Y0483032D01*
X0018375Y0484886D02*
X0011463Y0484886D01*
X0011463Y0486853D02*
X0016807Y0486853D01*
X0018082Y0485099D02*
X0018082Y0485099D01*
X0015730Y0488820D02*
X0011463Y0488820D01*
X0011463Y0490787D02*
X0015091Y0490787D01*
X0014928Y0492754D02*
X0011463Y0492754D01*
X0011463Y0494721D02*
X0014928Y0494721D01*
X0014928Y0496688D02*
X0011463Y0496688D01*
X0044540Y0482919D02*
X0241235Y0482919D01*
X0238335Y0484886D02*
X0047413Y0484886D01*
X0048952Y0486853D02*
X0236768Y0486853D01*
X0235975Y0487944D02*
X0235975Y0487944D01*
X0235690Y0488820D02*
X0049995Y0488820D01*
X0049683Y0487859D02*
X0049683Y0487859D01*
X0050634Y0490787D02*
X0235051Y0490787D01*
X0234888Y0492754D02*
X0050754Y0492754D01*
X0050754Y0494721D02*
X0234888Y0494721D01*
X0234888Y0496688D02*
X0050754Y0496688D01*
X0238042Y0485099D02*
X0238042Y0485099D01*
X0264501Y0482919D02*
X0275243Y0482919D01*
X0275243Y0484886D02*
X0267374Y0484886D01*
X0267606Y0485054D02*
X0267606Y0485054D01*
X0267606Y0485054D01*
X0268913Y0486853D02*
X0275243Y0486853D01*
X0275243Y0488820D02*
X0269956Y0488820D01*
X0269644Y0487859D02*
X0269644Y0487859D01*
X0270595Y0490787D02*
X0275243Y0490787D01*
X0275243Y0492754D02*
X0270715Y0492754D01*
X0270715Y0494721D02*
X0275243Y0494721D01*
X0275243Y0496688D02*
X0270715Y0496688D01*
X0264801Y0483016D02*
X0264801Y0483016D01*
M02*
