G75*
%MOIN*%
%OFA0B0*%
%FSLAX25Y25*%
%IPPOS*%
%LPD*%
%AMOC8*
5,1,8,0,0,1.08239X$1,22.5*
%
%ADD10C,0.00000*%
%ADD11C,0.00600*%
%ADD12C,0.01300*%
%ADD13C,0.00200*%
%ADD14C,0.00400*%
D10*
X0003589Y0001000D02*
X0003589Y0507000D01*
X0282195Y0507000D01*
X0282195Y0001000D01*
X0003589Y0001000D01*
X0020912Y0011157D02*
X0020912Y0013205D01*
X0020912Y0015016D01*
X0020914Y0015153D01*
X0020920Y0015290D01*
X0020930Y0015427D01*
X0020943Y0015564D01*
X0020961Y0015700D01*
X0020982Y0015835D01*
X0021008Y0015970D01*
X0021037Y0016104D01*
X0021070Y0016237D01*
X0021107Y0016369D01*
X0021147Y0016500D01*
X0021191Y0016630D01*
X0021239Y0016759D01*
X0021291Y0016886D01*
X0021346Y0017011D01*
X0021405Y0017135D01*
X0021467Y0017257D01*
X0021533Y0017378D01*
X0021602Y0017496D01*
X0021674Y0017613D01*
X0021750Y0017727D01*
X0021829Y0017839D01*
X0021911Y0017949D01*
X0021997Y0018056D01*
X0022085Y0018161D01*
X0022176Y0018264D01*
X0022271Y0018363D01*
X0022368Y0018460D01*
X0022467Y0018555D01*
X0022570Y0018646D01*
X0022675Y0018734D01*
X0022782Y0018820D01*
X0022892Y0018902D01*
X0023004Y0018981D01*
X0023118Y0019057D01*
X0023235Y0019129D01*
X0023353Y0019198D01*
X0023474Y0019264D01*
X0023596Y0019326D01*
X0023720Y0019385D01*
X0023845Y0019440D01*
X0023972Y0019492D01*
X0024101Y0019540D01*
X0024231Y0019584D01*
X0024362Y0019624D01*
X0024494Y0019661D01*
X0024627Y0019694D01*
X0024761Y0019723D01*
X0024896Y0019749D01*
X0025031Y0019770D01*
X0025167Y0019788D01*
X0025304Y0019801D01*
X0025441Y0019811D01*
X0025578Y0019817D01*
X0025715Y0019819D01*
X0039809Y0019819D01*
X0039948Y0019817D01*
X0040087Y0019811D01*
X0040226Y0019801D01*
X0040364Y0019788D01*
X0040502Y0019770D01*
X0040640Y0019749D01*
X0040777Y0019724D01*
X0040913Y0019695D01*
X0041048Y0019662D01*
X0041182Y0019625D01*
X0041316Y0019585D01*
X0041448Y0019541D01*
X0041578Y0019493D01*
X0041707Y0019441D01*
X0041835Y0019386D01*
X0041961Y0019328D01*
X0042086Y0019266D01*
X0042209Y0019200D01*
X0042330Y0019131D01*
X0042448Y0019059D01*
X0042565Y0018983D01*
X0042680Y0018904D01*
X0042792Y0018822D01*
X0042902Y0018737D01*
X0043010Y0018648D01*
X0043115Y0018557D01*
X0043217Y0018463D01*
X0043317Y0018366D01*
X0043414Y0018266D01*
X0043508Y0018164D01*
X0043599Y0018059D01*
X0043688Y0017951D01*
X0043773Y0017841D01*
X0043855Y0017729D01*
X0043934Y0017614D01*
X0044010Y0017497D01*
X0044082Y0017379D01*
X0044151Y0017258D01*
X0044217Y0017135D01*
X0044279Y0017010D01*
X0044337Y0016884D01*
X0044392Y0016756D01*
X0044444Y0016627D01*
X0044492Y0016497D01*
X0044536Y0016365D01*
X0044576Y0016231D01*
X0044613Y0016097D01*
X0044646Y0015962D01*
X0044675Y0015826D01*
X0044700Y0015689D01*
X0044721Y0015551D01*
X0044739Y0015413D01*
X0044752Y0015275D01*
X0044762Y0015136D01*
X0044768Y0014997D01*
X0044770Y0014858D01*
X0044770Y0013165D01*
X0044770Y0011000D01*
X0044768Y0010861D01*
X0044762Y0010722D01*
X0044752Y0010583D01*
X0044739Y0010445D01*
X0044721Y0010307D01*
X0044700Y0010169D01*
X0044675Y0010032D01*
X0044646Y0009896D01*
X0044613Y0009761D01*
X0044576Y0009627D01*
X0044536Y0009493D01*
X0044492Y0009361D01*
X0044444Y0009231D01*
X0044392Y0009102D01*
X0044337Y0008974D01*
X0044279Y0008848D01*
X0044217Y0008723D01*
X0044151Y0008600D01*
X0044082Y0008479D01*
X0044010Y0008361D01*
X0043934Y0008244D01*
X0043855Y0008129D01*
X0043773Y0008017D01*
X0043688Y0007907D01*
X0043599Y0007799D01*
X0043508Y0007694D01*
X0043414Y0007592D01*
X0043317Y0007492D01*
X0043217Y0007395D01*
X0043115Y0007301D01*
X0043010Y0007210D01*
X0042902Y0007121D01*
X0042792Y0007036D01*
X0042680Y0006954D01*
X0042565Y0006875D01*
X0042448Y0006799D01*
X0042330Y0006727D01*
X0042209Y0006658D01*
X0042086Y0006592D01*
X0041961Y0006530D01*
X0041835Y0006472D01*
X0041707Y0006417D01*
X0041578Y0006365D01*
X0041448Y0006317D01*
X0041316Y0006273D01*
X0041182Y0006233D01*
X0041048Y0006196D01*
X0040913Y0006163D01*
X0040777Y0006134D01*
X0040640Y0006109D01*
X0040502Y0006088D01*
X0040364Y0006070D01*
X0040226Y0006057D01*
X0040087Y0006047D01*
X0039948Y0006041D01*
X0039809Y0006039D01*
X0026030Y0006039D01*
X0025889Y0006041D01*
X0025748Y0006047D01*
X0025607Y0006056D01*
X0025467Y0006070D01*
X0025327Y0006088D01*
X0025188Y0006109D01*
X0025049Y0006134D01*
X0024911Y0006163D01*
X0024774Y0006196D01*
X0024637Y0006232D01*
X0024502Y0006272D01*
X0024368Y0006316D01*
X0024235Y0006364D01*
X0024104Y0006415D01*
X0023974Y0006470D01*
X0023846Y0006529D01*
X0023719Y0006590D01*
X0023594Y0006656D01*
X0023471Y0006725D01*
X0023350Y0006797D01*
X0023231Y0006872D01*
X0023114Y0006951D01*
X0022999Y0007033D01*
X0022886Y0007118D01*
X0022776Y0007206D01*
X0022669Y0007297D01*
X0022564Y0007392D01*
X0022461Y0007489D01*
X0022362Y0007588D01*
X0022265Y0007691D01*
X0022170Y0007796D01*
X0022079Y0007903D01*
X0021991Y0008013D01*
X0021906Y0008126D01*
X0021824Y0008241D01*
X0021745Y0008358D01*
X0021670Y0008477D01*
X0021598Y0008598D01*
X0021529Y0008721D01*
X0021463Y0008846D01*
X0021402Y0008973D01*
X0021343Y0009101D01*
X0021288Y0009231D01*
X0021237Y0009362D01*
X0021189Y0009495D01*
X0021145Y0009629D01*
X0021105Y0009764D01*
X0021069Y0009901D01*
X0021036Y0010038D01*
X0021007Y0010176D01*
X0020982Y0010315D01*
X0020961Y0010454D01*
X0020943Y0010594D01*
X0020929Y0010734D01*
X0020920Y0010875D01*
X0020914Y0011016D01*
X0020912Y0011157D01*
X0039809Y0356512D02*
X0157132Y0356512D01*
X0157294Y0356514D01*
X0157455Y0356520D01*
X0157617Y0356530D01*
X0157778Y0356543D01*
X0157939Y0356561D01*
X0158099Y0356582D01*
X0158259Y0356608D01*
X0158418Y0356637D01*
X0158576Y0356670D01*
X0158734Y0356706D01*
X0158890Y0356747D01*
X0159046Y0356791D01*
X0159200Y0356840D01*
X0159353Y0356891D01*
X0159505Y0356947D01*
X0159656Y0357006D01*
X0159805Y0357069D01*
X0159952Y0357135D01*
X0160098Y0357205D01*
X0160242Y0357279D01*
X0160385Y0357356D01*
X0160525Y0357436D01*
X0160663Y0357520D01*
X0160800Y0357607D01*
X0160934Y0357697D01*
X0161066Y0357790D01*
X0161196Y0357887D01*
X0161323Y0357987D01*
X0161448Y0358089D01*
X0161570Y0358195D01*
X0161690Y0358304D01*
X0161807Y0358415D01*
X0161922Y0358530D01*
X0162033Y0358647D01*
X0162142Y0358767D01*
X0162248Y0358889D01*
X0162350Y0359014D01*
X0162450Y0359141D01*
X0162547Y0359271D01*
X0162640Y0359403D01*
X0162730Y0359537D01*
X0162817Y0359674D01*
X0162901Y0359812D01*
X0162981Y0359952D01*
X0163058Y0360095D01*
X0163132Y0360239D01*
X0163202Y0360385D01*
X0163268Y0360532D01*
X0163331Y0360681D01*
X0163390Y0360832D01*
X0163446Y0360984D01*
X0163497Y0361137D01*
X0163546Y0361291D01*
X0163590Y0361447D01*
X0163631Y0361603D01*
X0163667Y0361761D01*
X0163700Y0361919D01*
X0163729Y0362078D01*
X0163755Y0362238D01*
X0163776Y0362398D01*
X0163794Y0362559D01*
X0163807Y0362720D01*
X0163817Y0362882D01*
X0163823Y0363043D01*
X0163825Y0363205D01*
X0163825Y0424622D01*
X0163825Y0426197D01*
X0163823Y0426344D01*
X0163817Y0426490D01*
X0163807Y0426637D01*
X0163794Y0426783D01*
X0163776Y0426929D01*
X0163755Y0427074D01*
X0163730Y0427218D01*
X0163700Y0427362D01*
X0163668Y0427505D01*
X0163631Y0427647D01*
X0163590Y0427788D01*
X0163546Y0427928D01*
X0163498Y0428067D01*
X0163447Y0428204D01*
X0163391Y0428340D01*
X0163332Y0428475D01*
X0163270Y0428607D01*
X0163204Y0428739D01*
X0163135Y0428868D01*
X0163062Y0428995D01*
X0162986Y0429121D01*
X0162906Y0429244D01*
X0162823Y0429365D01*
X0162738Y0429484D01*
X0162648Y0429601D01*
X0162556Y0429715D01*
X0162461Y0429827D01*
X0162363Y0429936D01*
X0162262Y0430042D01*
X0162158Y0430146D01*
X0162052Y0430247D01*
X0161943Y0430345D01*
X0161831Y0430440D01*
X0161717Y0430532D01*
X0161600Y0430622D01*
X0161481Y0430707D01*
X0161360Y0430790D01*
X0161237Y0430870D01*
X0161111Y0430946D01*
X0160984Y0431019D01*
X0160855Y0431088D01*
X0160723Y0431154D01*
X0160591Y0431216D01*
X0160456Y0431275D01*
X0160320Y0431331D01*
X0160183Y0431382D01*
X0160044Y0431430D01*
X0159904Y0431474D01*
X0159763Y0431515D01*
X0159621Y0431552D01*
X0159478Y0431584D01*
X0159334Y0431614D01*
X0159190Y0431639D01*
X0159045Y0431660D01*
X0158899Y0431678D01*
X0158753Y0431691D01*
X0158606Y0431701D01*
X0158460Y0431707D01*
X0158313Y0431709D01*
X0039809Y0431709D01*
X0039657Y0431707D01*
X0039505Y0431701D01*
X0039353Y0431691D01*
X0039202Y0431678D01*
X0039051Y0431660D01*
X0038900Y0431639D01*
X0038750Y0431613D01*
X0038601Y0431584D01*
X0038452Y0431551D01*
X0038305Y0431514D01*
X0038158Y0431474D01*
X0038013Y0431429D01*
X0037869Y0431381D01*
X0037726Y0431329D01*
X0037584Y0431274D01*
X0037444Y0431215D01*
X0037305Y0431152D01*
X0037168Y0431086D01*
X0037033Y0431016D01*
X0036900Y0430943D01*
X0036769Y0430866D01*
X0036639Y0430786D01*
X0036512Y0430703D01*
X0036387Y0430617D01*
X0036264Y0430527D01*
X0036144Y0430434D01*
X0036026Y0430338D01*
X0035910Y0430239D01*
X0035797Y0430137D01*
X0035687Y0430033D01*
X0035579Y0429925D01*
X0035475Y0429815D01*
X0035373Y0429702D01*
X0035274Y0429586D01*
X0035178Y0429468D01*
X0035085Y0429348D01*
X0034995Y0429225D01*
X0034909Y0429100D01*
X0034826Y0428973D01*
X0034746Y0428843D01*
X0034669Y0428712D01*
X0034596Y0428579D01*
X0034526Y0428444D01*
X0034460Y0428307D01*
X0034397Y0428168D01*
X0034338Y0428028D01*
X0034283Y0427886D01*
X0034231Y0427743D01*
X0034183Y0427599D01*
X0034138Y0427454D01*
X0034098Y0427307D01*
X0034061Y0427160D01*
X0034028Y0427011D01*
X0033999Y0426862D01*
X0033973Y0426712D01*
X0033952Y0426561D01*
X0033934Y0426410D01*
X0033921Y0426259D01*
X0033911Y0426107D01*
X0033905Y0425955D01*
X0033903Y0425803D01*
X0033904Y0425803D02*
X0033904Y0425016D01*
X0033904Y0363205D01*
X0033903Y0363205D02*
X0033886Y0363053D01*
X0033873Y0362901D01*
X0033864Y0362748D01*
X0033858Y0362595D01*
X0033857Y0362442D01*
X0033860Y0362290D01*
X0033866Y0362137D01*
X0033876Y0361984D01*
X0033891Y0361832D01*
X0033909Y0361680D01*
X0033931Y0361529D01*
X0033957Y0361378D01*
X0033987Y0361228D01*
X0034020Y0361079D01*
X0034058Y0360931D01*
X0034099Y0360784D01*
X0034144Y0360637D01*
X0034193Y0360493D01*
X0034245Y0360349D01*
X0034302Y0360207D01*
X0034361Y0360066D01*
X0034425Y0359927D01*
X0034492Y0359789D01*
X0034562Y0359654D01*
X0034636Y0359520D01*
X0034714Y0359388D01*
X0034794Y0359258D01*
X0034878Y0359130D01*
X0034966Y0359005D01*
X0035056Y0358881D01*
X0035150Y0358760D01*
X0035246Y0358642D01*
X0035346Y0358526D01*
X0035449Y0358413D01*
X0035554Y0358302D01*
X0035662Y0358194D01*
X0035773Y0358089D01*
X0035887Y0357987D01*
X0036004Y0357887D01*
X0036122Y0357791D01*
X0036244Y0357698D01*
X0036367Y0357608D01*
X0036493Y0357521D01*
X0036621Y0357438D01*
X0036751Y0357357D01*
X0036884Y0357281D01*
X0037018Y0357207D01*
X0037154Y0357137D01*
X0037291Y0357071D01*
X0037431Y0357008D01*
X0037572Y0356949D01*
X0037714Y0356893D01*
X0037858Y0356841D01*
X0038003Y0356793D01*
X0038149Y0356748D01*
X0038297Y0356707D01*
X0038445Y0356670D01*
X0038594Y0356637D01*
X0038744Y0356608D01*
X0038895Y0356583D01*
X0039047Y0356561D01*
X0039198Y0356543D01*
X0039351Y0356530D01*
X0039503Y0356520D01*
X0039656Y0356514D01*
X0039809Y0356512D01*
X0039809Y0487929D02*
X0026030Y0487929D01*
X0025889Y0487931D01*
X0025748Y0487937D01*
X0025607Y0487946D01*
X0025467Y0487960D01*
X0025327Y0487978D01*
X0025188Y0487999D01*
X0025049Y0488024D01*
X0024911Y0488053D01*
X0024774Y0488086D01*
X0024637Y0488122D01*
X0024502Y0488162D01*
X0024368Y0488206D01*
X0024235Y0488254D01*
X0024104Y0488305D01*
X0023974Y0488360D01*
X0023846Y0488419D01*
X0023719Y0488480D01*
X0023594Y0488546D01*
X0023471Y0488615D01*
X0023350Y0488687D01*
X0023231Y0488762D01*
X0023114Y0488841D01*
X0022999Y0488923D01*
X0022886Y0489008D01*
X0022776Y0489096D01*
X0022669Y0489187D01*
X0022564Y0489282D01*
X0022461Y0489379D01*
X0022362Y0489478D01*
X0022265Y0489581D01*
X0022170Y0489686D01*
X0022079Y0489793D01*
X0021991Y0489903D01*
X0021906Y0490016D01*
X0021824Y0490131D01*
X0021745Y0490248D01*
X0021670Y0490367D01*
X0021598Y0490488D01*
X0021529Y0490611D01*
X0021463Y0490736D01*
X0021402Y0490863D01*
X0021343Y0490991D01*
X0021288Y0491121D01*
X0021237Y0491252D01*
X0021189Y0491385D01*
X0021145Y0491519D01*
X0021105Y0491654D01*
X0021069Y0491791D01*
X0021036Y0491928D01*
X0021007Y0492066D01*
X0020982Y0492205D01*
X0020961Y0492344D01*
X0020943Y0492484D01*
X0020929Y0492624D01*
X0020920Y0492765D01*
X0020914Y0492906D01*
X0020912Y0493047D01*
X0020912Y0495094D01*
X0020912Y0496906D01*
X0020914Y0497043D01*
X0020920Y0497180D01*
X0020930Y0497317D01*
X0020943Y0497454D01*
X0020961Y0497590D01*
X0020982Y0497725D01*
X0021008Y0497860D01*
X0021037Y0497994D01*
X0021070Y0498127D01*
X0021107Y0498259D01*
X0021147Y0498390D01*
X0021191Y0498520D01*
X0021239Y0498649D01*
X0021291Y0498776D01*
X0021346Y0498901D01*
X0021405Y0499025D01*
X0021467Y0499147D01*
X0021533Y0499268D01*
X0021602Y0499386D01*
X0021674Y0499503D01*
X0021750Y0499617D01*
X0021829Y0499729D01*
X0021911Y0499839D01*
X0021997Y0499946D01*
X0022085Y0500051D01*
X0022176Y0500154D01*
X0022271Y0500253D01*
X0022368Y0500350D01*
X0022467Y0500445D01*
X0022570Y0500536D01*
X0022675Y0500624D01*
X0022782Y0500710D01*
X0022892Y0500792D01*
X0023004Y0500871D01*
X0023118Y0500947D01*
X0023235Y0501019D01*
X0023353Y0501088D01*
X0023474Y0501154D01*
X0023596Y0501216D01*
X0023720Y0501275D01*
X0023845Y0501330D01*
X0023972Y0501382D01*
X0024101Y0501430D01*
X0024231Y0501474D01*
X0024362Y0501514D01*
X0024494Y0501551D01*
X0024627Y0501584D01*
X0024761Y0501613D01*
X0024896Y0501639D01*
X0025031Y0501660D01*
X0025167Y0501678D01*
X0025304Y0501691D01*
X0025441Y0501701D01*
X0025578Y0501707D01*
X0025715Y0501709D01*
X0039809Y0501709D01*
X0039948Y0501707D01*
X0040087Y0501701D01*
X0040226Y0501691D01*
X0040364Y0501678D01*
X0040502Y0501660D01*
X0040640Y0501639D01*
X0040777Y0501614D01*
X0040913Y0501585D01*
X0041048Y0501552D01*
X0041182Y0501515D01*
X0041316Y0501475D01*
X0041448Y0501431D01*
X0041578Y0501383D01*
X0041707Y0501331D01*
X0041835Y0501276D01*
X0041961Y0501218D01*
X0042086Y0501156D01*
X0042209Y0501090D01*
X0042330Y0501021D01*
X0042448Y0500949D01*
X0042565Y0500873D01*
X0042680Y0500794D01*
X0042792Y0500712D01*
X0042902Y0500627D01*
X0043010Y0500538D01*
X0043115Y0500447D01*
X0043217Y0500353D01*
X0043317Y0500256D01*
X0043414Y0500156D01*
X0043508Y0500054D01*
X0043599Y0499949D01*
X0043688Y0499841D01*
X0043773Y0499731D01*
X0043855Y0499619D01*
X0043934Y0499504D01*
X0044010Y0499387D01*
X0044082Y0499269D01*
X0044151Y0499148D01*
X0044217Y0499025D01*
X0044279Y0498900D01*
X0044337Y0498774D01*
X0044392Y0498646D01*
X0044444Y0498517D01*
X0044492Y0498387D01*
X0044536Y0498255D01*
X0044576Y0498121D01*
X0044613Y0497987D01*
X0044646Y0497852D01*
X0044675Y0497716D01*
X0044700Y0497579D01*
X0044721Y0497441D01*
X0044739Y0497303D01*
X0044752Y0497165D01*
X0044762Y0497026D01*
X0044768Y0496887D01*
X0044770Y0496748D01*
X0044770Y0495055D01*
X0044770Y0492890D01*
X0044768Y0492751D01*
X0044762Y0492612D01*
X0044752Y0492473D01*
X0044739Y0492335D01*
X0044721Y0492197D01*
X0044700Y0492059D01*
X0044675Y0491922D01*
X0044646Y0491786D01*
X0044613Y0491651D01*
X0044576Y0491517D01*
X0044536Y0491383D01*
X0044492Y0491251D01*
X0044444Y0491121D01*
X0044392Y0490992D01*
X0044337Y0490864D01*
X0044279Y0490738D01*
X0044217Y0490613D01*
X0044151Y0490490D01*
X0044082Y0490369D01*
X0044010Y0490251D01*
X0043934Y0490134D01*
X0043855Y0490019D01*
X0043773Y0489907D01*
X0043688Y0489797D01*
X0043599Y0489689D01*
X0043508Y0489584D01*
X0043414Y0489482D01*
X0043317Y0489382D01*
X0043217Y0489285D01*
X0043115Y0489191D01*
X0043010Y0489100D01*
X0042902Y0489011D01*
X0042792Y0488926D01*
X0042680Y0488844D01*
X0042565Y0488765D01*
X0042448Y0488689D01*
X0042330Y0488617D01*
X0042209Y0488548D01*
X0042086Y0488482D01*
X0041961Y0488420D01*
X0041835Y0488362D01*
X0041707Y0488307D01*
X0041578Y0488255D01*
X0041448Y0488207D01*
X0041316Y0488163D01*
X0041182Y0488123D01*
X0041048Y0488086D01*
X0040913Y0488053D01*
X0040777Y0488024D01*
X0040640Y0487999D01*
X0040502Y0487978D01*
X0040364Y0487960D01*
X0040226Y0487947D01*
X0040087Y0487937D01*
X0039948Y0487931D01*
X0039809Y0487929D01*
X0214219Y0431709D02*
X0214223Y0432028D01*
X0214235Y0432346D01*
X0214254Y0432665D01*
X0214282Y0432982D01*
X0214317Y0433299D01*
X0214360Y0433615D01*
X0214410Y0433930D01*
X0214469Y0434244D01*
X0214535Y0434556D01*
X0214608Y0434866D01*
X0214690Y0435174D01*
X0214778Y0435480D01*
X0214875Y0435784D01*
X0214978Y0436086D01*
X0215090Y0436385D01*
X0215208Y0436681D01*
X0215334Y0436974D01*
X0215466Y0437264D01*
X0215606Y0437550D01*
X0215753Y0437833D01*
X0215907Y0438113D01*
X0216067Y0438388D01*
X0216235Y0438660D01*
X0216409Y0438927D01*
X0216589Y0439190D01*
X0216776Y0439448D01*
X0216969Y0439702D01*
X0217168Y0439951D01*
X0217373Y0440195D01*
X0217585Y0440434D01*
X0217802Y0440668D01*
X0218024Y0440896D01*
X0218252Y0441118D01*
X0218486Y0441335D01*
X0218725Y0441547D01*
X0218969Y0441752D01*
X0219218Y0441951D01*
X0219472Y0442144D01*
X0219730Y0442331D01*
X0219993Y0442511D01*
X0220260Y0442685D01*
X0220532Y0442853D01*
X0220807Y0443013D01*
X0221087Y0443167D01*
X0221370Y0443314D01*
X0221656Y0443454D01*
X0221946Y0443586D01*
X0222239Y0443712D01*
X0222535Y0443830D01*
X0222834Y0443942D01*
X0223136Y0444045D01*
X0223440Y0444142D01*
X0223746Y0444230D01*
X0224054Y0444312D01*
X0224364Y0444385D01*
X0224676Y0444451D01*
X0224990Y0444510D01*
X0225305Y0444560D01*
X0225621Y0444603D01*
X0225938Y0444638D01*
X0226255Y0444666D01*
X0226574Y0444685D01*
X0226892Y0444697D01*
X0227211Y0444701D01*
X0227530Y0444697D01*
X0227848Y0444685D01*
X0228167Y0444666D01*
X0228484Y0444638D01*
X0228801Y0444603D01*
X0229117Y0444560D01*
X0229432Y0444510D01*
X0229746Y0444451D01*
X0230058Y0444385D01*
X0230368Y0444312D01*
X0230676Y0444230D01*
X0230982Y0444142D01*
X0231286Y0444045D01*
X0231588Y0443942D01*
X0231887Y0443830D01*
X0232183Y0443712D01*
X0232476Y0443586D01*
X0232766Y0443454D01*
X0233052Y0443314D01*
X0233335Y0443167D01*
X0233615Y0443013D01*
X0233890Y0442853D01*
X0234162Y0442685D01*
X0234429Y0442511D01*
X0234692Y0442331D01*
X0234950Y0442144D01*
X0235204Y0441951D01*
X0235453Y0441752D01*
X0235697Y0441547D01*
X0235936Y0441335D01*
X0236170Y0441118D01*
X0236398Y0440896D01*
X0236620Y0440668D01*
X0236837Y0440434D01*
X0237049Y0440195D01*
X0237254Y0439951D01*
X0237453Y0439702D01*
X0237646Y0439448D01*
X0237833Y0439190D01*
X0238013Y0438927D01*
X0238187Y0438660D01*
X0238355Y0438388D01*
X0238515Y0438113D01*
X0238669Y0437833D01*
X0238816Y0437550D01*
X0238956Y0437264D01*
X0239088Y0436974D01*
X0239214Y0436681D01*
X0239332Y0436385D01*
X0239444Y0436086D01*
X0239547Y0435784D01*
X0239644Y0435480D01*
X0239732Y0435174D01*
X0239814Y0434866D01*
X0239887Y0434556D01*
X0239953Y0434244D01*
X0240012Y0433930D01*
X0240062Y0433615D01*
X0240105Y0433299D01*
X0240140Y0432982D01*
X0240168Y0432665D01*
X0240187Y0432346D01*
X0240199Y0432028D01*
X0240203Y0431709D01*
X0240199Y0431390D01*
X0240187Y0431072D01*
X0240168Y0430753D01*
X0240140Y0430436D01*
X0240105Y0430119D01*
X0240062Y0429803D01*
X0240012Y0429488D01*
X0239953Y0429174D01*
X0239887Y0428862D01*
X0239814Y0428552D01*
X0239732Y0428244D01*
X0239644Y0427938D01*
X0239547Y0427634D01*
X0239444Y0427332D01*
X0239332Y0427033D01*
X0239214Y0426737D01*
X0239088Y0426444D01*
X0238956Y0426154D01*
X0238816Y0425868D01*
X0238669Y0425585D01*
X0238515Y0425305D01*
X0238355Y0425030D01*
X0238187Y0424758D01*
X0238013Y0424491D01*
X0237833Y0424228D01*
X0237646Y0423970D01*
X0237453Y0423716D01*
X0237254Y0423467D01*
X0237049Y0423223D01*
X0236837Y0422984D01*
X0236620Y0422750D01*
X0236398Y0422522D01*
X0236170Y0422300D01*
X0235936Y0422083D01*
X0235697Y0421871D01*
X0235453Y0421666D01*
X0235204Y0421467D01*
X0234950Y0421274D01*
X0234692Y0421087D01*
X0234429Y0420907D01*
X0234162Y0420733D01*
X0233890Y0420565D01*
X0233615Y0420405D01*
X0233335Y0420251D01*
X0233052Y0420104D01*
X0232766Y0419964D01*
X0232476Y0419832D01*
X0232183Y0419706D01*
X0231887Y0419588D01*
X0231588Y0419476D01*
X0231286Y0419373D01*
X0230982Y0419276D01*
X0230676Y0419188D01*
X0230368Y0419106D01*
X0230058Y0419033D01*
X0229746Y0418967D01*
X0229432Y0418908D01*
X0229117Y0418858D01*
X0228801Y0418815D01*
X0228484Y0418780D01*
X0228167Y0418752D01*
X0227848Y0418733D01*
X0227530Y0418721D01*
X0227211Y0418717D01*
X0226892Y0418721D01*
X0226574Y0418733D01*
X0226255Y0418752D01*
X0225938Y0418780D01*
X0225621Y0418815D01*
X0225305Y0418858D01*
X0224990Y0418908D01*
X0224676Y0418967D01*
X0224364Y0419033D01*
X0224054Y0419106D01*
X0223746Y0419188D01*
X0223440Y0419276D01*
X0223136Y0419373D01*
X0222834Y0419476D01*
X0222535Y0419588D01*
X0222239Y0419706D01*
X0221946Y0419832D01*
X0221656Y0419964D01*
X0221370Y0420104D01*
X0221087Y0420251D01*
X0220807Y0420405D01*
X0220532Y0420565D01*
X0220260Y0420733D01*
X0219993Y0420907D01*
X0219730Y0421087D01*
X0219472Y0421274D01*
X0219218Y0421467D01*
X0218969Y0421666D01*
X0218725Y0421871D01*
X0218486Y0422083D01*
X0218252Y0422300D01*
X0218024Y0422522D01*
X0217802Y0422750D01*
X0217585Y0422984D01*
X0217373Y0423223D01*
X0217168Y0423467D01*
X0216969Y0423716D01*
X0216776Y0423970D01*
X0216589Y0424228D01*
X0216409Y0424491D01*
X0216235Y0424758D01*
X0216067Y0425030D01*
X0215907Y0425305D01*
X0215753Y0425585D01*
X0215606Y0425868D01*
X0215466Y0426154D01*
X0215334Y0426444D01*
X0215208Y0426737D01*
X0215090Y0427033D01*
X0214978Y0427332D01*
X0214875Y0427634D01*
X0214778Y0427938D01*
X0214690Y0428244D01*
X0214608Y0428552D01*
X0214535Y0428862D01*
X0214469Y0429174D01*
X0214410Y0429488D01*
X0214360Y0429803D01*
X0214317Y0430119D01*
X0214282Y0430436D01*
X0214254Y0430753D01*
X0214235Y0431072D01*
X0214223Y0431390D01*
X0214219Y0431709D01*
X0245991Y0487929D02*
X0259770Y0487929D01*
X0259909Y0487931D01*
X0260048Y0487937D01*
X0260187Y0487947D01*
X0260325Y0487960D01*
X0260463Y0487978D01*
X0260601Y0487999D01*
X0260738Y0488024D01*
X0260874Y0488053D01*
X0261009Y0488086D01*
X0261143Y0488123D01*
X0261277Y0488163D01*
X0261409Y0488207D01*
X0261539Y0488255D01*
X0261668Y0488307D01*
X0261796Y0488362D01*
X0261922Y0488420D01*
X0262047Y0488482D01*
X0262170Y0488548D01*
X0262291Y0488617D01*
X0262409Y0488689D01*
X0262526Y0488765D01*
X0262641Y0488844D01*
X0262753Y0488926D01*
X0262863Y0489011D01*
X0262971Y0489100D01*
X0263076Y0489191D01*
X0263178Y0489285D01*
X0263278Y0489382D01*
X0263375Y0489482D01*
X0263469Y0489584D01*
X0263560Y0489689D01*
X0263649Y0489797D01*
X0263734Y0489907D01*
X0263816Y0490019D01*
X0263895Y0490134D01*
X0263971Y0490251D01*
X0264043Y0490369D01*
X0264112Y0490490D01*
X0264178Y0490613D01*
X0264240Y0490738D01*
X0264298Y0490864D01*
X0264353Y0490992D01*
X0264405Y0491121D01*
X0264453Y0491251D01*
X0264497Y0491383D01*
X0264537Y0491517D01*
X0264574Y0491651D01*
X0264607Y0491786D01*
X0264636Y0491922D01*
X0264661Y0492059D01*
X0264682Y0492197D01*
X0264700Y0492335D01*
X0264713Y0492473D01*
X0264723Y0492612D01*
X0264729Y0492751D01*
X0264731Y0492890D01*
X0264731Y0495055D01*
X0264731Y0496748D01*
X0264729Y0496887D01*
X0264723Y0497026D01*
X0264713Y0497165D01*
X0264700Y0497303D01*
X0264682Y0497441D01*
X0264661Y0497579D01*
X0264636Y0497716D01*
X0264607Y0497852D01*
X0264574Y0497987D01*
X0264537Y0498121D01*
X0264497Y0498255D01*
X0264453Y0498387D01*
X0264405Y0498517D01*
X0264353Y0498646D01*
X0264298Y0498774D01*
X0264240Y0498900D01*
X0264178Y0499025D01*
X0264112Y0499148D01*
X0264043Y0499269D01*
X0263971Y0499387D01*
X0263895Y0499504D01*
X0263816Y0499619D01*
X0263734Y0499731D01*
X0263649Y0499841D01*
X0263560Y0499949D01*
X0263469Y0500054D01*
X0263375Y0500156D01*
X0263278Y0500256D01*
X0263178Y0500353D01*
X0263076Y0500447D01*
X0262971Y0500538D01*
X0262863Y0500627D01*
X0262753Y0500712D01*
X0262641Y0500794D01*
X0262526Y0500873D01*
X0262409Y0500949D01*
X0262291Y0501021D01*
X0262170Y0501090D01*
X0262047Y0501156D01*
X0261922Y0501218D01*
X0261796Y0501276D01*
X0261668Y0501331D01*
X0261539Y0501383D01*
X0261409Y0501431D01*
X0261277Y0501475D01*
X0261143Y0501515D01*
X0261009Y0501552D01*
X0260874Y0501585D01*
X0260738Y0501614D01*
X0260601Y0501639D01*
X0260463Y0501660D01*
X0260325Y0501678D01*
X0260187Y0501691D01*
X0260048Y0501701D01*
X0259909Y0501707D01*
X0259770Y0501709D01*
X0245676Y0501709D01*
X0245539Y0501707D01*
X0245402Y0501701D01*
X0245265Y0501691D01*
X0245128Y0501678D01*
X0244992Y0501660D01*
X0244857Y0501639D01*
X0244722Y0501613D01*
X0244588Y0501584D01*
X0244455Y0501551D01*
X0244323Y0501514D01*
X0244192Y0501474D01*
X0244062Y0501430D01*
X0243933Y0501382D01*
X0243806Y0501330D01*
X0243681Y0501275D01*
X0243557Y0501216D01*
X0243435Y0501154D01*
X0243314Y0501088D01*
X0243196Y0501019D01*
X0243079Y0500947D01*
X0242965Y0500871D01*
X0242853Y0500792D01*
X0242743Y0500710D01*
X0242636Y0500624D01*
X0242531Y0500536D01*
X0242428Y0500445D01*
X0242329Y0500350D01*
X0242232Y0500253D01*
X0242137Y0500154D01*
X0242046Y0500051D01*
X0241958Y0499946D01*
X0241872Y0499839D01*
X0241790Y0499729D01*
X0241711Y0499617D01*
X0241635Y0499503D01*
X0241563Y0499386D01*
X0241494Y0499268D01*
X0241428Y0499147D01*
X0241366Y0499025D01*
X0241307Y0498901D01*
X0241252Y0498776D01*
X0241200Y0498649D01*
X0241152Y0498520D01*
X0241108Y0498390D01*
X0241068Y0498259D01*
X0241031Y0498127D01*
X0240998Y0497994D01*
X0240969Y0497860D01*
X0240943Y0497725D01*
X0240922Y0497590D01*
X0240904Y0497454D01*
X0240891Y0497317D01*
X0240881Y0497180D01*
X0240875Y0497043D01*
X0240873Y0496906D01*
X0240872Y0496906D02*
X0240872Y0495094D01*
X0240872Y0493047D01*
X0240873Y0493047D02*
X0240875Y0492906D01*
X0240881Y0492765D01*
X0240890Y0492624D01*
X0240904Y0492484D01*
X0240922Y0492344D01*
X0240943Y0492205D01*
X0240968Y0492066D01*
X0240997Y0491928D01*
X0241030Y0491791D01*
X0241066Y0491654D01*
X0241106Y0491519D01*
X0241150Y0491385D01*
X0241198Y0491252D01*
X0241249Y0491121D01*
X0241304Y0490991D01*
X0241363Y0490863D01*
X0241424Y0490736D01*
X0241490Y0490611D01*
X0241559Y0490488D01*
X0241631Y0490367D01*
X0241706Y0490248D01*
X0241785Y0490131D01*
X0241867Y0490016D01*
X0241952Y0489903D01*
X0242040Y0489793D01*
X0242131Y0489686D01*
X0242226Y0489581D01*
X0242323Y0489478D01*
X0242422Y0489379D01*
X0242525Y0489282D01*
X0242630Y0489187D01*
X0242737Y0489096D01*
X0242847Y0489008D01*
X0242960Y0488923D01*
X0243075Y0488841D01*
X0243192Y0488762D01*
X0243311Y0488687D01*
X0243432Y0488615D01*
X0243555Y0488546D01*
X0243680Y0488480D01*
X0243807Y0488419D01*
X0243935Y0488360D01*
X0244065Y0488305D01*
X0244196Y0488254D01*
X0244329Y0488206D01*
X0244463Y0488162D01*
X0244598Y0488122D01*
X0244735Y0488086D01*
X0244872Y0488053D01*
X0245010Y0488024D01*
X0245149Y0487999D01*
X0245288Y0487978D01*
X0245428Y0487960D01*
X0245568Y0487946D01*
X0245709Y0487937D01*
X0245850Y0487931D01*
X0245991Y0487929D01*
X0214219Y0357693D02*
X0214223Y0358012D01*
X0214235Y0358330D01*
X0214254Y0358649D01*
X0214282Y0358966D01*
X0214317Y0359283D01*
X0214360Y0359599D01*
X0214410Y0359914D01*
X0214469Y0360228D01*
X0214535Y0360540D01*
X0214608Y0360850D01*
X0214690Y0361158D01*
X0214778Y0361464D01*
X0214875Y0361768D01*
X0214978Y0362070D01*
X0215090Y0362369D01*
X0215208Y0362665D01*
X0215334Y0362958D01*
X0215466Y0363248D01*
X0215606Y0363534D01*
X0215753Y0363817D01*
X0215907Y0364097D01*
X0216067Y0364372D01*
X0216235Y0364644D01*
X0216409Y0364911D01*
X0216589Y0365174D01*
X0216776Y0365432D01*
X0216969Y0365686D01*
X0217168Y0365935D01*
X0217373Y0366179D01*
X0217585Y0366418D01*
X0217802Y0366652D01*
X0218024Y0366880D01*
X0218252Y0367102D01*
X0218486Y0367319D01*
X0218725Y0367531D01*
X0218969Y0367736D01*
X0219218Y0367935D01*
X0219472Y0368128D01*
X0219730Y0368315D01*
X0219993Y0368495D01*
X0220260Y0368669D01*
X0220532Y0368837D01*
X0220807Y0368997D01*
X0221087Y0369151D01*
X0221370Y0369298D01*
X0221656Y0369438D01*
X0221946Y0369570D01*
X0222239Y0369696D01*
X0222535Y0369814D01*
X0222834Y0369926D01*
X0223136Y0370029D01*
X0223440Y0370126D01*
X0223746Y0370214D01*
X0224054Y0370296D01*
X0224364Y0370369D01*
X0224676Y0370435D01*
X0224990Y0370494D01*
X0225305Y0370544D01*
X0225621Y0370587D01*
X0225938Y0370622D01*
X0226255Y0370650D01*
X0226574Y0370669D01*
X0226892Y0370681D01*
X0227211Y0370685D01*
X0227530Y0370681D01*
X0227848Y0370669D01*
X0228167Y0370650D01*
X0228484Y0370622D01*
X0228801Y0370587D01*
X0229117Y0370544D01*
X0229432Y0370494D01*
X0229746Y0370435D01*
X0230058Y0370369D01*
X0230368Y0370296D01*
X0230676Y0370214D01*
X0230982Y0370126D01*
X0231286Y0370029D01*
X0231588Y0369926D01*
X0231887Y0369814D01*
X0232183Y0369696D01*
X0232476Y0369570D01*
X0232766Y0369438D01*
X0233052Y0369298D01*
X0233335Y0369151D01*
X0233615Y0368997D01*
X0233890Y0368837D01*
X0234162Y0368669D01*
X0234429Y0368495D01*
X0234692Y0368315D01*
X0234950Y0368128D01*
X0235204Y0367935D01*
X0235453Y0367736D01*
X0235697Y0367531D01*
X0235936Y0367319D01*
X0236170Y0367102D01*
X0236398Y0366880D01*
X0236620Y0366652D01*
X0236837Y0366418D01*
X0237049Y0366179D01*
X0237254Y0365935D01*
X0237453Y0365686D01*
X0237646Y0365432D01*
X0237833Y0365174D01*
X0238013Y0364911D01*
X0238187Y0364644D01*
X0238355Y0364372D01*
X0238515Y0364097D01*
X0238669Y0363817D01*
X0238816Y0363534D01*
X0238956Y0363248D01*
X0239088Y0362958D01*
X0239214Y0362665D01*
X0239332Y0362369D01*
X0239444Y0362070D01*
X0239547Y0361768D01*
X0239644Y0361464D01*
X0239732Y0361158D01*
X0239814Y0360850D01*
X0239887Y0360540D01*
X0239953Y0360228D01*
X0240012Y0359914D01*
X0240062Y0359599D01*
X0240105Y0359283D01*
X0240140Y0358966D01*
X0240168Y0358649D01*
X0240187Y0358330D01*
X0240199Y0358012D01*
X0240203Y0357693D01*
X0240199Y0357374D01*
X0240187Y0357056D01*
X0240168Y0356737D01*
X0240140Y0356420D01*
X0240105Y0356103D01*
X0240062Y0355787D01*
X0240012Y0355472D01*
X0239953Y0355158D01*
X0239887Y0354846D01*
X0239814Y0354536D01*
X0239732Y0354228D01*
X0239644Y0353922D01*
X0239547Y0353618D01*
X0239444Y0353316D01*
X0239332Y0353017D01*
X0239214Y0352721D01*
X0239088Y0352428D01*
X0238956Y0352138D01*
X0238816Y0351852D01*
X0238669Y0351569D01*
X0238515Y0351289D01*
X0238355Y0351014D01*
X0238187Y0350742D01*
X0238013Y0350475D01*
X0237833Y0350212D01*
X0237646Y0349954D01*
X0237453Y0349700D01*
X0237254Y0349451D01*
X0237049Y0349207D01*
X0236837Y0348968D01*
X0236620Y0348734D01*
X0236398Y0348506D01*
X0236170Y0348284D01*
X0235936Y0348067D01*
X0235697Y0347855D01*
X0235453Y0347650D01*
X0235204Y0347451D01*
X0234950Y0347258D01*
X0234692Y0347071D01*
X0234429Y0346891D01*
X0234162Y0346717D01*
X0233890Y0346549D01*
X0233615Y0346389D01*
X0233335Y0346235D01*
X0233052Y0346088D01*
X0232766Y0345948D01*
X0232476Y0345816D01*
X0232183Y0345690D01*
X0231887Y0345572D01*
X0231588Y0345460D01*
X0231286Y0345357D01*
X0230982Y0345260D01*
X0230676Y0345172D01*
X0230368Y0345090D01*
X0230058Y0345017D01*
X0229746Y0344951D01*
X0229432Y0344892D01*
X0229117Y0344842D01*
X0228801Y0344799D01*
X0228484Y0344764D01*
X0228167Y0344736D01*
X0227848Y0344717D01*
X0227530Y0344705D01*
X0227211Y0344701D01*
X0226892Y0344705D01*
X0226574Y0344717D01*
X0226255Y0344736D01*
X0225938Y0344764D01*
X0225621Y0344799D01*
X0225305Y0344842D01*
X0224990Y0344892D01*
X0224676Y0344951D01*
X0224364Y0345017D01*
X0224054Y0345090D01*
X0223746Y0345172D01*
X0223440Y0345260D01*
X0223136Y0345357D01*
X0222834Y0345460D01*
X0222535Y0345572D01*
X0222239Y0345690D01*
X0221946Y0345816D01*
X0221656Y0345948D01*
X0221370Y0346088D01*
X0221087Y0346235D01*
X0220807Y0346389D01*
X0220532Y0346549D01*
X0220260Y0346717D01*
X0219993Y0346891D01*
X0219730Y0347071D01*
X0219472Y0347258D01*
X0219218Y0347451D01*
X0218969Y0347650D01*
X0218725Y0347855D01*
X0218486Y0348067D01*
X0218252Y0348284D01*
X0218024Y0348506D01*
X0217802Y0348734D01*
X0217585Y0348968D01*
X0217373Y0349207D01*
X0217168Y0349451D01*
X0216969Y0349700D01*
X0216776Y0349954D01*
X0216589Y0350212D01*
X0216409Y0350475D01*
X0216235Y0350742D01*
X0216067Y0351014D01*
X0215907Y0351289D01*
X0215753Y0351569D01*
X0215606Y0351852D01*
X0215466Y0352138D01*
X0215334Y0352428D01*
X0215208Y0352721D01*
X0215090Y0353017D01*
X0214978Y0353316D01*
X0214875Y0353618D01*
X0214778Y0353922D01*
X0214690Y0354228D01*
X0214608Y0354536D01*
X0214535Y0354846D01*
X0214469Y0355158D01*
X0214410Y0355472D01*
X0214360Y0355787D01*
X0214317Y0356103D01*
X0214282Y0356420D01*
X0214254Y0356737D01*
X0214235Y0357056D01*
X0214223Y0357374D01*
X0214219Y0357693D01*
X0245794Y0019819D02*
X0259888Y0019819D01*
X0260027Y0019817D01*
X0260166Y0019811D01*
X0260305Y0019801D01*
X0260443Y0019788D01*
X0260581Y0019770D01*
X0260719Y0019749D01*
X0260856Y0019724D01*
X0260992Y0019695D01*
X0261127Y0019662D01*
X0261261Y0019625D01*
X0261395Y0019585D01*
X0261527Y0019541D01*
X0261657Y0019493D01*
X0261786Y0019441D01*
X0261914Y0019386D01*
X0262040Y0019328D01*
X0262165Y0019266D01*
X0262288Y0019200D01*
X0262409Y0019131D01*
X0262527Y0019059D01*
X0262644Y0018983D01*
X0262759Y0018904D01*
X0262871Y0018822D01*
X0262981Y0018737D01*
X0263089Y0018648D01*
X0263194Y0018557D01*
X0263296Y0018463D01*
X0263396Y0018366D01*
X0263493Y0018266D01*
X0263587Y0018164D01*
X0263678Y0018059D01*
X0263767Y0017951D01*
X0263852Y0017841D01*
X0263934Y0017729D01*
X0264013Y0017614D01*
X0264089Y0017497D01*
X0264161Y0017379D01*
X0264230Y0017258D01*
X0264296Y0017135D01*
X0264358Y0017010D01*
X0264416Y0016884D01*
X0264471Y0016756D01*
X0264523Y0016627D01*
X0264571Y0016497D01*
X0264615Y0016365D01*
X0264655Y0016231D01*
X0264692Y0016097D01*
X0264725Y0015962D01*
X0264754Y0015826D01*
X0264779Y0015689D01*
X0264800Y0015551D01*
X0264818Y0015413D01*
X0264831Y0015275D01*
X0264841Y0015136D01*
X0264847Y0014997D01*
X0264849Y0014858D01*
X0264849Y0013165D01*
X0264849Y0011000D01*
X0264847Y0010861D01*
X0264841Y0010722D01*
X0264831Y0010583D01*
X0264818Y0010445D01*
X0264800Y0010307D01*
X0264779Y0010169D01*
X0264754Y0010032D01*
X0264725Y0009896D01*
X0264692Y0009761D01*
X0264655Y0009627D01*
X0264615Y0009493D01*
X0264571Y0009361D01*
X0264523Y0009231D01*
X0264471Y0009102D01*
X0264416Y0008974D01*
X0264358Y0008848D01*
X0264296Y0008723D01*
X0264230Y0008600D01*
X0264161Y0008479D01*
X0264089Y0008361D01*
X0264013Y0008244D01*
X0263934Y0008129D01*
X0263852Y0008017D01*
X0263767Y0007907D01*
X0263678Y0007799D01*
X0263587Y0007694D01*
X0263493Y0007592D01*
X0263396Y0007492D01*
X0263296Y0007395D01*
X0263194Y0007301D01*
X0263089Y0007210D01*
X0262981Y0007121D01*
X0262871Y0007036D01*
X0262759Y0006954D01*
X0262644Y0006875D01*
X0262527Y0006799D01*
X0262409Y0006727D01*
X0262288Y0006658D01*
X0262165Y0006592D01*
X0262040Y0006530D01*
X0261914Y0006472D01*
X0261786Y0006417D01*
X0261657Y0006365D01*
X0261527Y0006317D01*
X0261395Y0006273D01*
X0261261Y0006233D01*
X0261127Y0006196D01*
X0260992Y0006163D01*
X0260856Y0006134D01*
X0260719Y0006109D01*
X0260581Y0006088D01*
X0260443Y0006070D01*
X0260305Y0006057D01*
X0260166Y0006047D01*
X0260027Y0006041D01*
X0259888Y0006039D01*
X0246109Y0006039D01*
X0245968Y0006041D01*
X0245827Y0006047D01*
X0245686Y0006056D01*
X0245546Y0006070D01*
X0245406Y0006088D01*
X0245267Y0006109D01*
X0245128Y0006134D01*
X0244990Y0006163D01*
X0244853Y0006196D01*
X0244716Y0006232D01*
X0244581Y0006272D01*
X0244447Y0006316D01*
X0244314Y0006364D01*
X0244183Y0006415D01*
X0244053Y0006470D01*
X0243925Y0006529D01*
X0243798Y0006590D01*
X0243673Y0006656D01*
X0243550Y0006725D01*
X0243429Y0006797D01*
X0243310Y0006872D01*
X0243193Y0006951D01*
X0243078Y0007033D01*
X0242965Y0007118D01*
X0242855Y0007206D01*
X0242748Y0007297D01*
X0242643Y0007392D01*
X0242540Y0007489D01*
X0242441Y0007588D01*
X0242344Y0007691D01*
X0242249Y0007796D01*
X0242158Y0007903D01*
X0242070Y0008013D01*
X0241985Y0008126D01*
X0241903Y0008241D01*
X0241824Y0008358D01*
X0241749Y0008477D01*
X0241677Y0008598D01*
X0241608Y0008721D01*
X0241542Y0008846D01*
X0241481Y0008973D01*
X0241422Y0009101D01*
X0241367Y0009231D01*
X0241316Y0009362D01*
X0241268Y0009495D01*
X0241224Y0009629D01*
X0241184Y0009764D01*
X0241148Y0009901D01*
X0241115Y0010038D01*
X0241086Y0010176D01*
X0241061Y0010315D01*
X0241040Y0010454D01*
X0241022Y0010594D01*
X0241008Y0010734D01*
X0240999Y0010875D01*
X0240993Y0011016D01*
X0240991Y0011157D01*
X0240991Y0013205D01*
X0240991Y0015016D01*
X0240993Y0015153D01*
X0240999Y0015290D01*
X0241009Y0015427D01*
X0241022Y0015564D01*
X0241040Y0015700D01*
X0241061Y0015835D01*
X0241087Y0015970D01*
X0241116Y0016104D01*
X0241149Y0016237D01*
X0241186Y0016369D01*
X0241226Y0016500D01*
X0241270Y0016630D01*
X0241318Y0016759D01*
X0241370Y0016886D01*
X0241425Y0017011D01*
X0241484Y0017135D01*
X0241546Y0017257D01*
X0241612Y0017378D01*
X0241681Y0017496D01*
X0241753Y0017613D01*
X0241829Y0017727D01*
X0241908Y0017839D01*
X0241990Y0017949D01*
X0242076Y0018056D01*
X0242164Y0018161D01*
X0242255Y0018264D01*
X0242350Y0018363D01*
X0242447Y0018460D01*
X0242546Y0018555D01*
X0242649Y0018646D01*
X0242754Y0018734D01*
X0242861Y0018820D01*
X0242971Y0018902D01*
X0243083Y0018981D01*
X0243197Y0019057D01*
X0243314Y0019129D01*
X0243432Y0019198D01*
X0243553Y0019264D01*
X0243675Y0019326D01*
X0243799Y0019385D01*
X0243924Y0019440D01*
X0244051Y0019492D01*
X0244180Y0019540D01*
X0244310Y0019584D01*
X0244441Y0019624D01*
X0244573Y0019661D01*
X0244706Y0019694D01*
X0244840Y0019723D01*
X0244975Y0019749D01*
X0245110Y0019770D01*
X0245246Y0019788D01*
X0245383Y0019801D01*
X0245520Y0019811D01*
X0245657Y0019817D01*
X0245794Y0019819D01*
D11*
X0247043Y0015968D02*
X0248466Y0015968D01*
X0247043Y0015967D02*
X0246969Y0015965D01*
X0246894Y0015959D01*
X0246821Y0015949D01*
X0246747Y0015936D01*
X0246675Y0015919D01*
X0246604Y0015897D01*
X0246533Y0015873D01*
X0246465Y0015844D01*
X0246397Y0015812D01*
X0246332Y0015776D01*
X0246269Y0015738D01*
X0246207Y0015695D01*
X0246148Y0015650D01*
X0246091Y0015602D01*
X0246037Y0015551D01*
X0245986Y0015496D01*
X0245938Y0015440D01*
X0245893Y0015381D01*
X0245850Y0015319D01*
X0245812Y0015256D01*
X0245776Y0015191D01*
X0245744Y0015123D01*
X0245715Y0015055D01*
X0245691Y0014984D01*
X0245669Y0014913D01*
X0245652Y0014841D01*
X0245639Y0014767D01*
X0245629Y0014694D01*
X0245623Y0014619D01*
X0245621Y0014545D01*
X0245621Y0010990D01*
X0245623Y0010916D01*
X0245629Y0010841D01*
X0245639Y0010768D01*
X0245652Y0010694D01*
X0245669Y0010622D01*
X0245691Y0010551D01*
X0245715Y0010480D01*
X0245744Y0010412D01*
X0245776Y0010344D01*
X0245812Y0010279D01*
X0245850Y0010216D01*
X0245893Y0010154D01*
X0245938Y0010095D01*
X0245986Y0010038D01*
X0246037Y0009984D01*
X0246091Y0009933D01*
X0246148Y0009885D01*
X0246207Y0009840D01*
X0246269Y0009797D01*
X0246332Y0009759D01*
X0246397Y0009723D01*
X0246465Y0009691D01*
X0246533Y0009662D01*
X0246604Y0009638D01*
X0246675Y0009616D01*
X0246747Y0009599D01*
X0246821Y0009586D01*
X0246894Y0009576D01*
X0246969Y0009570D01*
X0247043Y0009568D01*
X0248466Y0009568D01*
X0250970Y0011345D02*
X0250970Y0015968D01*
X0254526Y0015968D02*
X0254526Y0011345D01*
X0254524Y0011262D01*
X0254518Y0011179D01*
X0254508Y0011096D01*
X0254495Y0011013D01*
X0254477Y0010932D01*
X0254456Y0010851D01*
X0254431Y0010772D01*
X0254402Y0010694D01*
X0254370Y0010617D01*
X0254334Y0010542D01*
X0254295Y0010468D01*
X0254252Y0010397D01*
X0254206Y0010327D01*
X0254156Y0010260D01*
X0254104Y0010195D01*
X0254049Y0010133D01*
X0253990Y0010073D01*
X0253929Y0010016D01*
X0253866Y0009962D01*
X0253800Y0009911D01*
X0253731Y0009864D01*
X0253661Y0009819D01*
X0253588Y0009778D01*
X0253514Y0009741D01*
X0253438Y0009706D01*
X0253360Y0009676D01*
X0253282Y0009649D01*
X0253201Y0009626D01*
X0253120Y0009606D01*
X0253038Y0009591D01*
X0252956Y0009579D01*
X0252873Y0009571D01*
X0252790Y0009567D01*
X0252706Y0009567D01*
X0252623Y0009571D01*
X0252540Y0009579D01*
X0252458Y0009591D01*
X0252376Y0009606D01*
X0252295Y0009626D01*
X0252214Y0009649D01*
X0252136Y0009676D01*
X0252058Y0009706D01*
X0251982Y0009741D01*
X0251908Y0009778D01*
X0251835Y0009819D01*
X0251765Y0009864D01*
X0251696Y0009911D01*
X0251630Y0009962D01*
X0251567Y0010016D01*
X0251506Y0010073D01*
X0251447Y0010133D01*
X0251392Y0010195D01*
X0251340Y0010260D01*
X0251290Y0010327D01*
X0251244Y0010397D01*
X0251201Y0010468D01*
X0251162Y0010542D01*
X0251126Y0010617D01*
X0251094Y0010694D01*
X0251065Y0010772D01*
X0251040Y0010851D01*
X0251019Y0010932D01*
X0251001Y0011013D01*
X0250988Y0011096D01*
X0250978Y0011179D01*
X0250972Y0011262D01*
X0250970Y0011345D01*
X0256919Y0015968D02*
X0260475Y0015968D01*
X0258697Y0015968D02*
X0258697Y0009568D01*
X0258865Y0024922D02*
X0258865Y0031322D01*
X0260998Y0027766D01*
X0263131Y0031322D01*
X0263131Y0024922D01*
X0256007Y0026700D02*
X0256007Y0029544D01*
X0256005Y0029627D01*
X0255999Y0029710D01*
X0255989Y0029793D01*
X0255976Y0029876D01*
X0255958Y0029957D01*
X0255937Y0030038D01*
X0255912Y0030117D01*
X0255883Y0030195D01*
X0255851Y0030272D01*
X0255815Y0030347D01*
X0255776Y0030421D01*
X0255733Y0030492D01*
X0255687Y0030562D01*
X0255637Y0030629D01*
X0255585Y0030694D01*
X0255530Y0030756D01*
X0255471Y0030816D01*
X0255410Y0030873D01*
X0255347Y0030927D01*
X0255281Y0030978D01*
X0255212Y0031025D01*
X0255142Y0031070D01*
X0255069Y0031111D01*
X0254995Y0031148D01*
X0254919Y0031183D01*
X0254841Y0031213D01*
X0254763Y0031240D01*
X0254682Y0031263D01*
X0254601Y0031283D01*
X0254519Y0031298D01*
X0254437Y0031310D01*
X0254354Y0031318D01*
X0254271Y0031322D01*
X0254187Y0031322D01*
X0254104Y0031318D01*
X0254021Y0031310D01*
X0253939Y0031298D01*
X0253857Y0031283D01*
X0253776Y0031263D01*
X0253695Y0031240D01*
X0253617Y0031213D01*
X0253539Y0031183D01*
X0253463Y0031148D01*
X0253389Y0031111D01*
X0253316Y0031070D01*
X0253246Y0031025D01*
X0253177Y0030978D01*
X0253111Y0030927D01*
X0253048Y0030873D01*
X0252987Y0030816D01*
X0252928Y0030756D01*
X0252873Y0030694D01*
X0252821Y0030629D01*
X0252771Y0030562D01*
X0252725Y0030492D01*
X0252682Y0030421D01*
X0252643Y0030347D01*
X0252607Y0030272D01*
X0252575Y0030195D01*
X0252546Y0030117D01*
X0252521Y0030038D01*
X0252500Y0029957D01*
X0252482Y0029876D01*
X0252469Y0029793D01*
X0252459Y0029710D01*
X0252453Y0029627D01*
X0252451Y0029544D01*
X0252451Y0026700D01*
X0252453Y0026617D01*
X0252459Y0026534D01*
X0252469Y0026451D01*
X0252482Y0026368D01*
X0252500Y0026287D01*
X0252521Y0026206D01*
X0252546Y0026127D01*
X0252575Y0026049D01*
X0252607Y0025972D01*
X0252643Y0025897D01*
X0252682Y0025823D01*
X0252725Y0025752D01*
X0252771Y0025682D01*
X0252821Y0025615D01*
X0252873Y0025550D01*
X0252928Y0025488D01*
X0252987Y0025428D01*
X0253048Y0025371D01*
X0253111Y0025317D01*
X0253177Y0025266D01*
X0253246Y0025219D01*
X0253316Y0025174D01*
X0253389Y0025133D01*
X0253463Y0025096D01*
X0253539Y0025061D01*
X0253617Y0025031D01*
X0253695Y0025004D01*
X0253776Y0024981D01*
X0253857Y0024961D01*
X0253939Y0024946D01*
X0254021Y0024934D01*
X0254104Y0024926D01*
X0254187Y0024922D01*
X0254271Y0024922D01*
X0254354Y0024926D01*
X0254437Y0024934D01*
X0254519Y0024946D01*
X0254601Y0024961D01*
X0254682Y0024981D01*
X0254763Y0025004D01*
X0254841Y0025031D01*
X0254919Y0025061D01*
X0254995Y0025096D01*
X0255069Y0025133D01*
X0255142Y0025174D01*
X0255212Y0025219D01*
X0255281Y0025266D01*
X0255347Y0025317D01*
X0255410Y0025371D01*
X0255471Y0025428D01*
X0255530Y0025488D01*
X0255585Y0025550D01*
X0255637Y0025615D01*
X0255687Y0025682D01*
X0255733Y0025752D01*
X0255776Y0025823D01*
X0255815Y0025897D01*
X0255851Y0025972D01*
X0255883Y0026049D01*
X0255912Y0026127D01*
X0255937Y0026206D01*
X0255958Y0026287D01*
X0255976Y0026368D01*
X0255989Y0026451D01*
X0255999Y0026534D01*
X0256005Y0026617D01*
X0256007Y0026700D01*
X0249647Y0024922D02*
X0249647Y0031322D01*
X0246092Y0024922D01*
X0246092Y0031322D01*
X0243288Y0029544D02*
X0243288Y0026700D01*
X0243286Y0026617D01*
X0243280Y0026534D01*
X0243270Y0026451D01*
X0243257Y0026368D01*
X0243239Y0026287D01*
X0243218Y0026206D01*
X0243193Y0026127D01*
X0243164Y0026049D01*
X0243132Y0025972D01*
X0243096Y0025897D01*
X0243057Y0025823D01*
X0243014Y0025752D01*
X0242968Y0025682D01*
X0242918Y0025615D01*
X0242866Y0025550D01*
X0242811Y0025488D01*
X0242752Y0025428D01*
X0242691Y0025371D01*
X0242628Y0025317D01*
X0242562Y0025266D01*
X0242493Y0025219D01*
X0242423Y0025174D01*
X0242350Y0025133D01*
X0242276Y0025096D01*
X0242200Y0025061D01*
X0242122Y0025031D01*
X0242044Y0025004D01*
X0241963Y0024981D01*
X0241882Y0024961D01*
X0241800Y0024946D01*
X0241718Y0024934D01*
X0241635Y0024926D01*
X0241552Y0024922D01*
X0241468Y0024922D01*
X0241385Y0024926D01*
X0241302Y0024934D01*
X0241220Y0024946D01*
X0241138Y0024961D01*
X0241057Y0024981D01*
X0240976Y0025004D01*
X0240898Y0025031D01*
X0240820Y0025061D01*
X0240744Y0025096D01*
X0240670Y0025133D01*
X0240597Y0025174D01*
X0240527Y0025219D01*
X0240458Y0025266D01*
X0240392Y0025317D01*
X0240329Y0025371D01*
X0240268Y0025428D01*
X0240209Y0025488D01*
X0240154Y0025550D01*
X0240102Y0025615D01*
X0240052Y0025682D01*
X0240006Y0025752D01*
X0239963Y0025823D01*
X0239924Y0025897D01*
X0239888Y0025972D01*
X0239856Y0026049D01*
X0239827Y0026127D01*
X0239802Y0026206D01*
X0239781Y0026287D01*
X0239763Y0026368D01*
X0239750Y0026451D01*
X0239740Y0026534D01*
X0239734Y0026617D01*
X0239732Y0026700D01*
X0239733Y0026700D02*
X0239733Y0029544D01*
X0239732Y0029544D02*
X0239734Y0029627D01*
X0239740Y0029710D01*
X0239750Y0029793D01*
X0239763Y0029876D01*
X0239781Y0029957D01*
X0239802Y0030038D01*
X0239827Y0030117D01*
X0239856Y0030195D01*
X0239888Y0030272D01*
X0239924Y0030347D01*
X0239963Y0030421D01*
X0240006Y0030492D01*
X0240052Y0030562D01*
X0240102Y0030629D01*
X0240154Y0030694D01*
X0240209Y0030756D01*
X0240268Y0030816D01*
X0240329Y0030873D01*
X0240392Y0030927D01*
X0240458Y0030978D01*
X0240527Y0031025D01*
X0240597Y0031070D01*
X0240670Y0031111D01*
X0240744Y0031148D01*
X0240820Y0031183D01*
X0240898Y0031213D01*
X0240976Y0031240D01*
X0241057Y0031263D01*
X0241138Y0031283D01*
X0241220Y0031298D01*
X0241302Y0031310D01*
X0241385Y0031318D01*
X0241468Y0031322D01*
X0241552Y0031322D01*
X0241635Y0031318D01*
X0241718Y0031310D01*
X0241800Y0031298D01*
X0241882Y0031283D01*
X0241963Y0031263D01*
X0242044Y0031240D01*
X0242122Y0031213D01*
X0242200Y0031183D01*
X0242276Y0031148D01*
X0242350Y0031111D01*
X0242423Y0031070D01*
X0242493Y0031025D01*
X0242562Y0030978D01*
X0242628Y0030927D01*
X0242691Y0030873D01*
X0242752Y0030816D01*
X0242811Y0030756D01*
X0242866Y0030694D01*
X0242918Y0030629D01*
X0242968Y0030562D01*
X0243014Y0030492D01*
X0243057Y0030421D01*
X0243096Y0030347D01*
X0243132Y0030272D01*
X0243164Y0030195D01*
X0243193Y0030117D01*
X0243218Y0030038D01*
X0243239Y0029957D01*
X0243257Y0029876D01*
X0243270Y0029793D01*
X0243280Y0029710D01*
X0243286Y0029627D01*
X0243288Y0029544D01*
X0236874Y0031322D02*
X0236874Y0024922D01*
X0234741Y0027766D02*
X0232608Y0031322D01*
X0232608Y0024922D01*
X0230105Y0024922D02*
X0227972Y0031322D01*
X0225838Y0024922D01*
X0226372Y0026522D02*
X0229572Y0026522D01*
X0234741Y0027766D02*
X0236874Y0031322D01*
X0223390Y0031322D02*
X0223390Y0024922D01*
X0219835Y0024922D02*
X0219835Y0031322D01*
X0217195Y0031322D02*
X0215773Y0031322D01*
X0216484Y0031322D02*
X0216484Y0024922D01*
X0217195Y0024922D02*
X0215773Y0024922D01*
X0213354Y0026344D02*
X0213354Y0029900D01*
X0213352Y0029974D01*
X0213346Y0030049D01*
X0213336Y0030122D01*
X0213323Y0030196D01*
X0213306Y0030268D01*
X0213284Y0030339D01*
X0213260Y0030410D01*
X0213231Y0030478D01*
X0213199Y0030546D01*
X0213163Y0030611D01*
X0213125Y0030674D01*
X0213082Y0030736D01*
X0213037Y0030795D01*
X0212989Y0030852D01*
X0212938Y0030906D01*
X0212884Y0030957D01*
X0212827Y0031005D01*
X0212768Y0031050D01*
X0212706Y0031093D01*
X0212643Y0031131D01*
X0212578Y0031167D01*
X0212510Y0031199D01*
X0212442Y0031228D01*
X0212371Y0031252D01*
X0212300Y0031274D01*
X0212228Y0031291D01*
X0212154Y0031304D01*
X0212081Y0031314D01*
X0212006Y0031320D01*
X0211932Y0031322D01*
X0210510Y0031322D01*
X0213354Y0026344D02*
X0213352Y0026270D01*
X0213346Y0026195D01*
X0213336Y0026122D01*
X0213323Y0026048D01*
X0213306Y0025976D01*
X0213284Y0025905D01*
X0213260Y0025834D01*
X0213231Y0025766D01*
X0213199Y0025698D01*
X0213163Y0025633D01*
X0213125Y0025570D01*
X0213082Y0025508D01*
X0213037Y0025449D01*
X0212989Y0025392D01*
X0212938Y0025338D01*
X0212884Y0025287D01*
X0212827Y0025239D01*
X0212768Y0025194D01*
X0212706Y0025151D01*
X0212643Y0025113D01*
X0212578Y0025077D01*
X0212510Y0025045D01*
X0212442Y0025016D01*
X0212371Y0024992D01*
X0212300Y0024970D01*
X0212228Y0024953D01*
X0212154Y0024940D01*
X0212081Y0024930D01*
X0212006Y0024924D01*
X0211932Y0024922D01*
X0210510Y0024922D01*
X0204711Y0024922D02*
X0204711Y0031322D01*
X0201867Y0031322D01*
X0199389Y0031322D02*
X0197612Y0031322D01*
X0199389Y0031322D02*
X0199389Y0024922D01*
X0197612Y0024922D01*
X0197530Y0024924D01*
X0197448Y0024930D01*
X0197366Y0024939D01*
X0197285Y0024952D01*
X0197205Y0024969D01*
X0197125Y0024990D01*
X0197047Y0025014D01*
X0196970Y0025042D01*
X0196894Y0025073D01*
X0196819Y0025108D01*
X0196747Y0025147D01*
X0196676Y0025188D01*
X0196607Y0025233D01*
X0196541Y0025281D01*
X0196476Y0025332D01*
X0196414Y0025386D01*
X0196355Y0025443D01*
X0196298Y0025502D01*
X0196244Y0025564D01*
X0196193Y0025629D01*
X0196145Y0025695D01*
X0196100Y0025764D01*
X0196059Y0025835D01*
X0196020Y0025907D01*
X0195985Y0025982D01*
X0195954Y0026058D01*
X0195926Y0026135D01*
X0195902Y0026213D01*
X0195881Y0026293D01*
X0195864Y0026373D01*
X0195851Y0026454D01*
X0195842Y0026536D01*
X0195836Y0026618D01*
X0195834Y0026700D01*
X0195834Y0029544D01*
X0195836Y0029626D01*
X0195842Y0029708D01*
X0195851Y0029790D01*
X0195864Y0029871D01*
X0195881Y0029951D01*
X0195902Y0030031D01*
X0195926Y0030109D01*
X0195954Y0030186D01*
X0195985Y0030262D01*
X0196020Y0030337D01*
X0196059Y0030409D01*
X0196100Y0030480D01*
X0196145Y0030549D01*
X0196193Y0030615D01*
X0196244Y0030680D01*
X0196298Y0030742D01*
X0196355Y0030801D01*
X0196414Y0030858D01*
X0196476Y0030912D01*
X0196541Y0030963D01*
X0196607Y0031011D01*
X0196676Y0031056D01*
X0196747Y0031097D01*
X0196819Y0031136D01*
X0196894Y0031171D01*
X0196970Y0031202D01*
X0197047Y0031230D01*
X0197125Y0031254D01*
X0197205Y0031275D01*
X0197285Y0031292D01*
X0197366Y0031305D01*
X0197448Y0031314D01*
X0197530Y0031320D01*
X0197612Y0031322D01*
X0193194Y0031322D02*
X0191772Y0031322D01*
X0192483Y0031322D02*
X0192483Y0024922D01*
X0193194Y0024922D02*
X0191772Y0024922D01*
X0187970Y0024922D02*
X0187970Y0031322D01*
X0186193Y0031322D02*
X0189748Y0031322D01*
X0184169Y0031322D02*
X0182746Y0031322D01*
X0183457Y0031322D02*
X0183457Y0024922D01*
X0182746Y0024922D02*
X0184169Y0024922D01*
X0180312Y0026700D02*
X0180312Y0029544D01*
X0180310Y0029627D01*
X0180304Y0029710D01*
X0180294Y0029793D01*
X0180281Y0029876D01*
X0180263Y0029957D01*
X0180242Y0030038D01*
X0180217Y0030117D01*
X0180188Y0030195D01*
X0180156Y0030272D01*
X0180120Y0030347D01*
X0180081Y0030421D01*
X0180038Y0030492D01*
X0179992Y0030562D01*
X0179942Y0030629D01*
X0179890Y0030694D01*
X0179835Y0030756D01*
X0179776Y0030816D01*
X0179715Y0030873D01*
X0179652Y0030927D01*
X0179586Y0030978D01*
X0179517Y0031025D01*
X0179447Y0031070D01*
X0179374Y0031111D01*
X0179300Y0031148D01*
X0179224Y0031183D01*
X0179146Y0031213D01*
X0179068Y0031240D01*
X0178987Y0031263D01*
X0178906Y0031283D01*
X0178824Y0031298D01*
X0178742Y0031310D01*
X0178659Y0031318D01*
X0178576Y0031322D01*
X0178492Y0031322D01*
X0178409Y0031318D01*
X0178326Y0031310D01*
X0178244Y0031298D01*
X0178162Y0031283D01*
X0178081Y0031263D01*
X0178000Y0031240D01*
X0177922Y0031213D01*
X0177844Y0031183D01*
X0177768Y0031148D01*
X0177694Y0031111D01*
X0177621Y0031070D01*
X0177551Y0031025D01*
X0177482Y0030978D01*
X0177416Y0030927D01*
X0177353Y0030873D01*
X0177292Y0030816D01*
X0177233Y0030756D01*
X0177178Y0030694D01*
X0177126Y0030629D01*
X0177076Y0030562D01*
X0177030Y0030492D01*
X0176987Y0030421D01*
X0176948Y0030347D01*
X0176912Y0030272D01*
X0176880Y0030195D01*
X0176851Y0030117D01*
X0176826Y0030038D01*
X0176805Y0029957D01*
X0176787Y0029876D01*
X0176774Y0029793D01*
X0176764Y0029710D01*
X0176758Y0029627D01*
X0176756Y0029544D01*
X0176756Y0026700D01*
X0176758Y0026617D01*
X0176764Y0026534D01*
X0176774Y0026451D01*
X0176787Y0026368D01*
X0176805Y0026287D01*
X0176826Y0026206D01*
X0176851Y0026127D01*
X0176880Y0026049D01*
X0176912Y0025972D01*
X0176948Y0025897D01*
X0176987Y0025823D01*
X0177030Y0025752D01*
X0177076Y0025682D01*
X0177126Y0025615D01*
X0177178Y0025550D01*
X0177233Y0025488D01*
X0177292Y0025428D01*
X0177353Y0025371D01*
X0177416Y0025317D01*
X0177482Y0025266D01*
X0177551Y0025219D01*
X0177621Y0025174D01*
X0177694Y0025133D01*
X0177768Y0025096D01*
X0177844Y0025061D01*
X0177922Y0025031D01*
X0178000Y0025004D01*
X0178081Y0024981D01*
X0178162Y0024961D01*
X0178244Y0024946D01*
X0178326Y0024934D01*
X0178409Y0024926D01*
X0178492Y0024922D01*
X0178576Y0024922D01*
X0178659Y0024926D01*
X0178742Y0024934D01*
X0178824Y0024946D01*
X0178906Y0024961D01*
X0178987Y0024981D01*
X0179068Y0025004D01*
X0179146Y0025031D01*
X0179224Y0025061D01*
X0179300Y0025096D01*
X0179374Y0025133D01*
X0179447Y0025174D01*
X0179517Y0025219D01*
X0179586Y0025266D01*
X0179652Y0025317D01*
X0179715Y0025371D01*
X0179776Y0025428D01*
X0179835Y0025488D01*
X0179890Y0025550D01*
X0179942Y0025615D01*
X0179992Y0025682D01*
X0180038Y0025752D01*
X0180081Y0025823D01*
X0180120Y0025897D01*
X0180156Y0025972D01*
X0180188Y0026049D01*
X0180217Y0026127D01*
X0180242Y0026206D01*
X0180263Y0026287D01*
X0180281Y0026368D01*
X0180294Y0026451D01*
X0180304Y0026534D01*
X0180310Y0026617D01*
X0180312Y0026700D01*
X0173953Y0024922D02*
X0173953Y0031322D01*
X0170397Y0024922D01*
X0170397Y0031322D01*
X0201867Y0024922D02*
X0204711Y0024922D01*
X0204711Y0028478D02*
X0202578Y0028478D01*
X0219835Y0024922D02*
X0223390Y0031322D01*
X0040396Y0015968D02*
X0036840Y0015968D01*
X0038618Y0015968D02*
X0038618Y0009568D01*
X0034447Y0011345D02*
X0034447Y0015968D01*
X0034447Y0011345D02*
X0034445Y0011262D01*
X0034439Y0011179D01*
X0034429Y0011096D01*
X0034416Y0011013D01*
X0034398Y0010932D01*
X0034377Y0010851D01*
X0034352Y0010772D01*
X0034323Y0010694D01*
X0034291Y0010617D01*
X0034255Y0010542D01*
X0034216Y0010468D01*
X0034173Y0010397D01*
X0034127Y0010327D01*
X0034077Y0010260D01*
X0034025Y0010195D01*
X0033970Y0010133D01*
X0033911Y0010073D01*
X0033850Y0010016D01*
X0033787Y0009962D01*
X0033721Y0009911D01*
X0033652Y0009864D01*
X0033582Y0009819D01*
X0033509Y0009778D01*
X0033435Y0009741D01*
X0033359Y0009706D01*
X0033281Y0009676D01*
X0033203Y0009649D01*
X0033122Y0009626D01*
X0033041Y0009606D01*
X0032959Y0009591D01*
X0032877Y0009579D01*
X0032794Y0009571D01*
X0032711Y0009567D01*
X0032627Y0009567D01*
X0032544Y0009571D01*
X0032461Y0009579D01*
X0032379Y0009591D01*
X0032297Y0009606D01*
X0032216Y0009626D01*
X0032135Y0009649D01*
X0032057Y0009676D01*
X0031979Y0009706D01*
X0031903Y0009741D01*
X0031829Y0009778D01*
X0031756Y0009819D01*
X0031686Y0009864D01*
X0031617Y0009911D01*
X0031551Y0009962D01*
X0031488Y0010016D01*
X0031427Y0010073D01*
X0031368Y0010133D01*
X0031313Y0010195D01*
X0031261Y0010260D01*
X0031211Y0010327D01*
X0031165Y0010397D01*
X0031122Y0010468D01*
X0031083Y0010542D01*
X0031047Y0010617D01*
X0031015Y0010694D01*
X0030986Y0010772D01*
X0030961Y0010851D01*
X0030940Y0010932D01*
X0030922Y0011013D01*
X0030909Y0011096D01*
X0030899Y0011179D01*
X0030893Y0011262D01*
X0030891Y0011345D01*
X0030892Y0011345D02*
X0030892Y0015968D01*
X0028387Y0015968D02*
X0026965Y0015968D01*
X0026965Y0015967D02*
X0026891Y0015965D01*
X0026816Y0015959D01*
X0026743Y0015949D01*
X0026669Y0015936D01*
X0026597Y0015919D01*
X0026526Y0015897D01*
X0026455Y0015873D01*
X0026387Y0015844D01*
X0026319Y0015812D01*
X0026254Y0015776D01*
X0026191Y0015738D01*
X0026129Y0015695D01*
X0026070Y0015650D01*
X0026013Y0015602D01*
X0025959Y0015551D01*
X0025908Y0015496D01*
X0025860Y0015440D01*
X0025815Y0015381D01*
X0025772Y0015319D01*
X0025734Y0015256D01*
X0025698Y0015191D01*
X0025666Y0015123D01*
X0025637Y0015055D01*
X0025613Y0014984D01*
X0025591Y0014913D01*
X0025574Y0014841D01*
X0025561Y0014767D01*
X0025551Y0014694D01*
X0025545Y0014619D01*
X0025543Y0014545D01*
X0025543Y0010990D01*
X0025545Y0010916D01*
X0025551Y0010841D01*
X0025561Y0010768D01*
X0025574Y0010694D01*
X0025591Y0010622D01*
X0025613Y0010551D01*
X0025637Y0010480D01*
X0025666Y0010412D01*
X0025698Y0010344D01*
X0025734Y0010279D01*
X0025772Y0010216D01*
X0025815Y0010154D01*
X0025860Y0010095D01*
X0025908Y0010038D01*
X0025959Y0009984D01*
X0026013Y0009933D01*
X0026070Y0009885D01*
X0026129Y0009840D01*
X0026191Y0009797D01*
X0026254Y0009759D01*
X0026319Y0009723D01*
X0026387Y0009691D01*
X0026455Y0009662D01*
X0026526Y0009638D01*
X0026597Y0009616D01*
X0026669Y0009599D01*
X0026743Y0009586D01*
X0026816Y0009576D01*
X0026891Y0009570D01*
X0026965Y0009568D01*
X0028387Y0009568D01*
X0147870Y0465867D02*
X0148226Y0465867D01*
X0148226Y0466222D01*
X0147870Y0466222D01*
X0147870Y0465867D01*
X0151412Y0465867D02*
X0151353Y0465868D01*
X0151293Y0465873D01*
X0151235Y0465882D01*
X0151176Y0465894D01*
X0151119Y0465911D01*
X0151063Y0465930D01*
X0151008Y0465954D01*
X0150955Y0465981D01*
X0150904Y0466011D01*
X0150855Y0466045D01*
X0150808Y0466081D01*
X0150764Y0466121D01*
X0150722Y0466163D01*
X0150683Y0466208D01*
X0150647Y0466256D01*
X0150614Y0466305D01*
X0150585Y0466357D01*
X0150558Y0466410D01*
X0150536Y0466465D01*
X0150517Y0466522D01*
X0150501Y0466579D01*
X0150490Y0466637D01*
X0150482Y0466696D01*
X0150478Y0466756D01*
X0150477Y0466815D01*
X0150481Y0466875D01*
X0150488Y0466934D01*
X0150500Y0466992D01*
X0150515Y0467050D01*
X0150533Y0467106D01*
X0150556Y0467161D01*
X0150581Y0467215D01*
X0150611Y0467267D01*
X0150643Y0467317D01*
X0150679Y0467364D01*
X0150717Y0467410D01*
X0150759Y0467452D01*
X0150803Y0467492D01*
X0150849Y0467529D01*
X0150898Y0467563D01*
X0150949Y0467594D01*
X0151002Y0467621D01*
X0151057Y0467645D01*
X0152835Y0468356D01*
X0152834Y0468356D02*
X0152889Y0468380D01*
X0152942Y0468407D01*
X0152993Y0468438D01*
X0153042Y0468472D01*
X0153088Y0468509D01*
X0153132Y0468549D01*
X0153174Y0468591D01*
X0153212Y0468637D01*
X0153248Y0468684D01*
X0153280Y0468734D01*
X0153310Y0468786D01*
X0153335Y0468840D01*
X0153358Y0468895D01*
X0153376Y0468951D01*
X0153391Y0469009D01*
X0153403Y0469067D01*
X0153410Y0469126D01*
X0153414Y0469186D01*
X0153413Y0469245D01*
X0153409Y0469305D01*
X0153401Y0469364D01*
X0153390Y0469422D01*
X0153374Y0469479D01*
X0153355Y0469536D01*
X0153333Y0469591D01*
X0153306Y0469644D01*
X0153277Y0469696D01*
X0153244Y0469745D01*
X0153208Y0469793D01*
X0153169Y0469838D01*
X0153127Y0469880D01*
X0153083Y0469920D01*
X0153036Y0469956D01*
X0152987Y0469990D01*
X0152936Y0470020D01*
X0152883Y0470047D01*
X0152828Y0470071D01*
X0152772Y0470090D01*
X0152715Y0470107D01*
X0152656Y0470119D01*
X0152598Y0470128D01*
X0152538Y0470133D01*
X0152479Y0470134D01*
X0153368Y0466222D02*
X0153223Y0466172D01*
X0153076Y0466126D01*
X0152929Y0466083D01*
X0152780Y0466044D01*
X0152630Y0466009D01*
X0152480Y0465977D01*
X0152329Y0465950D01*
X0152177Y0465926D01*
X0152025Y0465907D01*
X0151872Y0465891D01*
X0151719Y0465879D01*
X0151566Y0465871D01*
X0151412Y0465867D01*
X0150879Y0469778D02*
X0150987Y0469825D01*
X0151097Y0469868D01*
X0151208Y0469909D01*
X0151320Y0469946D01*
X0151432Y0469980D01*
X0151546Y0470011D01*
X0151661Y0470038D01*
X0151777Y0470062D01*
X0151893Y0470082D01*
X0152009Y0470099D01*
X0152126Y0470113D01*
X0152244Y0470123D01*
X0152361Y0470130D01*
X0152479Y0470134D01*
X0153812Y0476367D02*
X0153812Y0480634D01*
X0151678Y0480634D01*
X0151678Y0479922D01*
X0149736Y0479567D02*
X0149736Y0477434D01*
X0149734Y0477370D01*
X0149728Y0477305D01*
X0149719Y0477242D01*
X0149705Y0477179D01*
X0149688Y0477117D01*
X0149667Y0477056D01*
X0149642Y0476996D01*
X0149614Y0476938D01*
X0149582Y0476882D01*
X0149547Y0476828D01*
X0149509Y0476776D01*
X0149468Y0476726D01*
X0149423Y0476680D01*
X0149377Y0476635D01*
X0149327Y0476594D01*
X0149275Y0476556D01*
X0149221Y0476521D01*
X0149165Y0476489D01*
X0149107Y0476461D01*
X0149047Y0476436D01*
X0148986Y0476415D01*
X0148924Y0476398D01*
X0148861Y0476384D01*
X0148798Y0476375D01*
X0148733Y0476369D01*
X0148669Y0476367D01*
X0147247Y0476367D01*
X0145024Y0477434D02*
X0145024Y0479211D01*
X0145024Y0478500D02*
X0142180Y0478500D01*
X0142180Y0479211D01*
X0142182Y0479285D01*
X0142188Y0479360D01*
X0142198Y0479433D01*
X0142211Y0479507D01*
X0142228Y0479579D01*
X0142250Y0479650D01*
X0142274Y0479721D01*
X0142303Y0479789D01*
X0142335Y0479857D01*
X0142371Y0479922D01*
X0142409Y0479985D01*
X0142452Y0480047D01*
X0142497Y0480106D01*
X0142545Y0480163D01*
X0142596Y0480217D01*
X0142650Y0480268D01*
X0142707Y0480316D01*
X0142766Y0480361D01*
X0142828Y0480404D01*
X0142891Y0480442D01*
X0142956Y0480478D01*
X0143024Y0480510D01*
X0143092Y0480539D01*
X0143163Y0480563D01*
X0143234Y0480585D01*
X0143306Y0480602D01*
X0143380Y0480615D01*
X0143453Y0480625D01*
X0143528Y0480631D01*
X0143602Y0480633D01*
X0143676Y0480631D01*
X0143751Y0480625D01*
X0143824Y0480615D01*
X0143898Y0480602D01*
X0143970Y0480585D01*
X0144041Y0480563D01*
X0144112Y0480539D01*
X0144180Y0480510D01*
X0144248Y0480478D01*
X0144313Y0480442D01*
X0144376Y0480404D01*
X0144438Y0480361D01*
X0144497Y0480316D01*
X0144554Y0480268D01*
X0144608Y0480217D01*
X0144659Y0480163D01*
X0144707Y0480106D01*
X0144752Y0480047D01*
X0144795Y0479985D01*
X0144833Y0479922D01*
X0144869Y0479857D01*
X0144901Y0479789D01*
X0144930Y0479721D01*
X0144954Y0479650D01*
X0144976Y0479579D01*
X0144993Y0479507D01*
X0145006Y0479433D01*
X0145016Y0479360D01*
X0145022Y0479285D01*
X0145024Y0479211D01*
X0145025Y0477434D02*
X0145023Y0477370D01*
X0145017Y0477305D01*
X0145008Y0477242D01*
X0144994Y0477179D01*
X0144977Y0477117D01*
X0144956Y0477056D01*
X0144931Y0476996D01*
X0144903Y0476938D01*
X0144871Y0476882D01*
X0144836Y0476828D01*
X0144798Y0476776D01*
X0144757Y0476726D01*
X0144712Y0476680D01*
X0144666Y0476635D01*
X0144616Y0476594D01*
X0144564Y0476556D01*
X0144510Y0476521D01*
X0144454Y0476489D01*
X0144396Y0476461D01*
X0144336Y0476436D01*
X0144275Y0476415D01*
X0144213Y0476398D01*
X0144150Y0476384D01*
X0144087Y0476375D01*
X0144022Y0476369D01*
X0143958Y0476367D01*
X0142180Y0476367D01*
X0147247Y0480634D02*
X0148669Y0480634D01*
X0148733Y0480632D01*
X0148798Y0480626D01*
X0148861Y0480617D01*
X0148924Y0480603D01*
X0148986Y0480586D01*
X0149047Y0480565D01*
X0149107Y0480540D01*
X0149165Y0480512D01*
X0149221Y0480480D01*
X0149275Y0480445D01*
X0149327Y0480407D01*
X0149377Y0480366D01*
X0149423Y0480321D01*
X0149468Y0480275D01*
X0149509Y0480225D01*
X0149547Y0480173D01*
X0149582Y0480119D01*
X0149614Y0480063D01*
X0149642Y0480005D01*
X0149667Y0479945D01*
X0149688Y0479884D01*
X0149705Y0479822D01*
X0149719Y0479759D01*
X0149728Y0479696D01*
X0149734Y0479631D01*
X0149736Y0479567D01*
X0156744Y0480634D02*
X0156744Y0476367D01*
X0158522Y0476367D01*
X0158586Y0476369D01*
X0158651Y0476375D01*
X0158714Y0476384D01*
X0158777Y0476398D01*
X0158839Y0476415D01*
X0158900Y0476436D01*
X0158960Y0476461D01*
X0159018Y0476489D01*
X0159074Y0476521D01*
X0159128Y0476556D01*
X0159180Y0476594D01*
X0159230Y0476635D01*
X0159276Y0476680D01*
X0159321Y0476726D01*
X0159362Y0476776D01*
X0159400Y0476828D01*
X0159435Y0476882D01*
X0159467Y0476938D01*
X0159495Y0476996D01*
X0159520Y0477056D01*
X0159541Y0477117D01*
X0159558Y0477179D01*
X0159572Y0477242D01*
X0159581Y0477305D01*
X0159587Y0477370D01*
X0159589Y0477434D01*
X0159589Y0480634D01*
X0162283Y0479211D02*
X0162283Y0477789D01*
X0162285Y0477715D01*
X0162291Y0477640D01*
X0162301Y0477567D01*
X0162314Y0477493D01*
X0162331Y0477421D01*
X0162353Y0477350D01*
X0162377Y0477279D01*
X0162406Y0477211D01*
X0162438Y0477143D01*
X0162474Y0477078D01*
X0162512Y0477015D01*
X0162555Y0476953D01*
X0162600Y0476894D01*
X0162648Y0476837D01*
X0162699Y0476783D01*
X0162753Y0476732D01*
X0162810Y0476684D01*
X0162869Y0476639D01*
X0162931Y0476596D01*
X0162994Y0476558D01*
X0163059Y0476522D01*
X0163127Y0476490D01*
X0163195Y0476461D01*
X0163266Y0476437D01*
X0163337Y0476415D01*
X0163409Y0476398D01*
X0163483Y0476385D01*
X0163556Y0476375D01*
X0163631Y0476369D01*
X0163705Y0476367D01*
X0163779Y0476369D01*
X0163854Y0476375D01*
X0163927Y0476385D01*
X0164001Y0476398D01*
X0164073Y0476415D01*
X0164144Y0476437D01*
X0164215Y0476461D01*
X0164283Y0476490D01*
X0164351Y0476522D01*
X0164416Y0476558D01*
X0164479Y0476596D01*
X0164541Y0476639D01*
X0164600Y0476684D01*
X0164657Y0476732D01*
X0164711Y0476783D01*
X0164762Y0476837D01*
X0164810Y0476894D01*
X0164855Y0476953D01*
X0164898Y0477015D01*
X0164936Y0477078D01*
X0164972Y0477143D01*
X0165004Y0477211D01*
X0165033Y0477279D01*
X0165057Y0477350D01*
X0165079Y0477421D01*
X0165096Y0477493D01*
X0165109Y0477567D01*
X0165119Y0477640D01*
X0165125Y0477715D01*
X0165127Y0477789D01*
X0165127Y0479211D01*
X0165125Y0479285D01*
X0165119Y0479360D01*
X0165109Y0479433D01*
X0165096Y0479507D01*
X0165079Y0479579D01*
X0165057Y0479650D01*
X0165033Y0479721D01*
X0165004Y0479789D01*
X0164972Y0479857D01*
X0164936Y0479922D01*
X0164898Y0479985D01*
X0164855Y0480047D01*
X0164810Y0480106D01*
X0164762Y0480163D01*
X0164711Y0480217D01*
X0164657Y0480268D01*
X0164600Y0480316D01*
X0164541Y0480361D01*
X0164479Y0480404D01*
X0164416Y0480442D01*
X0164351Y0480478D01*
X0164283Y0480510D01*
X0164215Y0480539D01*
X0164144Y0480563D01*
X0164073Y0480585D01*
X0164001Y0480602D01*
X0163927Y0480615D01*
X0163854Y0480625D01*
X0163779Y0480631D01*
X0163705Y0480633D01*
X0163631Y0480631D01*
X0163556Y0480625D01*
X0163483Y0480615D01*
X0163409Y0480602D01*
X0163337Y0480585D01*
X0163266Y0480563D01*
X0163195Y0480539D01*
X0163127Y0480510D01*
X0163059Y0480478D01*
X0162994Y0480442D01*
X0162931Y0480404D01*
X0162869Y0480361D01*
X0162810Y0480316D01*
X0162753Y0480268D01*
X0162699Y0480217D01*
X0162648Y0480163D01*
X0162600Y0480106D01*
X0162555Y0480047D01*
X0162512Y0479985D01*
X0162474Y0479922D01*
X0162438Y0479857D01*
X0162406Y0479789D01*
X0162377Y0479721D01*
X0162353Y0479650D01*
X0162331Y0479579D01*
X0162314Y0479507D01*
X0162301Y0479433D01*
X0162291Y0479360D01*
X0162285Y0479285D01*
X0162283Y0479211D01*
X0168150Y0478145D02*
X0169928Y0478856D01*
X0169927Y0478856D02*
X0169982Y0478880D01*
X0170035Y0478907D01*
X0170086Y0478938D01*
X0170135Y0478972D01*
X0170181Y0479009D01*
X0170225Y0479049D01*
X0170267Y0479091D01*
X0170305Y0479137D01*
X0170341Y0479184D01*
X0170373Y0479234D01*
X0170403Y0479286D01*
X0170428Y0479340D01*
X0170451Y0479395D01*
X0170469Y0479451D01*
X0170484Y0479509D01*
X0170496Y0479567D01*
X0170503Y0479626D01*
X0170507Y0479686D01*
X0170506Y0479745D01*
X0170502Y0479805D01*
X0170494Y0479864D01*
X0170483Y0479922D01*
X0170467Y0479979D01*
X0170448Y0480036D01*
X0170426Y0480091D01*
X0170399Y0480144D01*
X0170370Y0480196D01*
X0170337Y0480245D01*
X0170301Y0480293D01*
X0170262Y0480338D01*
X0170220Y0480380D01*
X0170176Y0480420D01*
X0170129Y0480456D01*
X0170080Y0480490D01*
X0170029Y0480520D01*
X0169976Y0480547D01*
X0169921Y0480571D01*
X0169865Y0480590D01*
X0169808Y0480607D01*
X0169749Y0480619D01*
X0169691Y0480628D01*
X0169631Y0480633D01*
X0169572Y0480634D01*
X0170461Y0476722D02*
X0170316Y0476672D01*
X0170169Y0476626D01*
X0170022Y0476583D01*
X0169873Y0476544D01*
X0169723Y0476509D01*
X0169573Y0476477D01*
X0169422Y0476450D01*
X0169270Y0476426D01*
X0169118Y0476407D01*
X0168965Y0476391D01*
X0168812Y0476379D01*
X0168659Y0476371D01*
X0168505Y0476367D01*
X0168446Y0476368D01*
X0168386Y0476373D01*
X0168328Y0476382D01*
X0168269Y0476394D01*
X0168212Y0476411D01*
X0168156Y0476430D01*
X0168101Y0476454D01*
X0168048Y0476481D01*
X0167997Y0476511D01*
X0167948Y0476545D01*
X0167901Y0476581D01*
X0167857Y0476621D01*
X0167815Y0476663D01*
X0167776Y0476708D01*
X0167740Y0476756D01*
X0167707Y0476805D01*
X0167678Y0476857D01*
X0167651Y0476910D01*
X0167629Y0476965D01*
X0167610Y0477022D01*
X0167594Y0477079D01*
X0167583Y0477137D01*
X0167575Y0477196D01*
X0167571Y0477256D01*
X0167570Y0477315D01*
X0167574Y0477375D01*
X0167581Y0477434D01*
X0167593Y0477492D01*
X0167608Y0477550D01*
X0167626Y0477606D01*
X0167649Y0477661D01*
X0167674Y0477715D01*
X0167704Y0477767D01*
X0167736Y0477817D01*
X0167772Y0477864D01*
X0167810Y0477910D01*
X0167852Y0477952D01*
X0167896Y0477992D01*
X0167942Y0478029D01*
X0167991Y0478063D01*
X0168042Y0478094D01*
X0168095Y0478121D01*
X0168150Y0478145D01*
X0167972Y0480278D02*
X0168080Y0480325D01*
X0168190Y0480368D01*
X0168301Y0480409D01*
X0168413Y0480446D01*
X0168525Y0480480D01*
X0168639Y0480511D01*
X0168754Y0480538D01*
X0168870Y0480562D01*
X0168986Y0480582D01*
X0169102Y0480599D01*
X0169219Y0480613D01*
X0169337Y0480623D01*
X0169454Y0480630D01*
X0169572Y0480634D01*
X0173059Y0478856D02*
X0177326Y0478856D01*
X0180130Y0479567D02*
X0180130Y0476367D01*
X0182974Y0476367D02*
X0182974Y0480634D01*
X0181196Y0480634D01*
X0181132Y0480632D01*
X0181067Y0480626D01*
X0181004Y0480617D01*
X0180941Y0480603D01*
X0180879Y0480586D01*
X0180818Y0480565D01*
X0180758Y0480540D01*
X0180700Y0480512D01*
X0180644Y0480480D01*
X0180590Y0480445D01*
X0180538Y0480407D01*
X0180488Y0480366D01*
X0180442Y0480321D01*
X0180397Y0480275D01*
X0180356Y0480225D01*
X0180318Y0480173D01*
X0180283Y0480119D01*
X0180251Y0480063D01*
X0180223Y0480005D01*
X0180198Y0479945D01*
X0180177Y0479884D01*
X0180160Y0479822D01*
X0180146Y0479759D01*
X0180137Y0479696D01*
X0180131Y0479631D01*
X0180129Y0479567D01*
X0185668Y0479211D02*
X0185668Y0478500D01*
X0188513Y0478500D01*
X0188513Y0479211D02*
X0188513Y0477434D01*
X0188511Y0477370D01*
X0188505Y0477305D01*
X0188496Y0477242D01*
X0188482Y0477179D01*
X0188465Y0477117D01*
X0188444Y0477056D01*
X0188419Y0476996D01*
X0188391Y0476938D01*
X0188359Y0476882D01*
X0188324Y0476828D01*
X0188286Y0476776D01*
X0188245Y0476726D01*
X0188200Y0476680D01*
X0188154Y0476635D01*
X0188104Y0476594D01*
X0188052Y0476556D01*
X0187998Y0476521D01*
X0187942Y0476489D01*
X0187884Y0476461D01*
X0187824Y0476436D01*
X0187763Y0476415D01*
X0187701Y0476398D01*
X0187638Y0476384D01*
X0187575Y0476375D01*
X0187510Y0476369D01*
X0187446Y0476367D01*
X0185668Y0476367D01*
X0185669Y0479211D02*
X0185671Y0479285D01*
X0185677Y0479360D01*
X0185687Y0479433D01*
X0185700Y0479507D01*
X0185717Y0479579D01*
X0185739Y0479650D01*
X0185763Y0479721D01*
X0185792Y0479789D01*
X0185824Y0479857D01*
X0185860Y0479922D01*
X0185898Y0479985D01*
X0185941Y0480047D01*
X0185986Y0480106D01*
X0186034Y0480163D01*
X0186085Y0480217D01*
X0186139Y0480268D01*
X0186196Y0480316D01*
X0186255Y0480361D01*
X0186317Y0480404D01*
X0186380Y0480442D01*
X0186445Y0480478D01*
X0186513Y0480510D01*
X0186581Y0480539D01*
X0186652Y0480563D01*
X0186723Y0480585D01*
X0186795Y0480602D01*
X0186869Y0480615D01*
X0186942Y0480625D01*
X0187017Y0480631D01*
X0187091Y0480633D01*
X0187165Y0480631D01*
X0187240Y0480625D01*
X0187313Y0480615D01*
X0187387Y0480602D01*
X0187459Y0480585D01*
X0187530Y0480563D01*
X0187601Y0480539D01*
X0187669Y0480510D01*
X0187737Y0480478D01*
X0187802Y0480442D01*
X0187865Y0480404D01*
X0187927Y0480361D01*
X0187986Y0480316D01*
X0188043Y0480268D01*
X0188097Y0480217D01*
X0188148Y0480163D01*
X0188196Y0480106D01*
X0188241Y0480047D01*
X0188284Y0479985D01*
X0188322Y0479922D01*
X0188358Y0479857D01*
X0188390Y0479789D01*
X0188419Y0479721D01*
X0188443Y0479650D01*
X0188465Y0479579D01*
X0188482Y0479507D01*
X0188495Y0479433D01*
X0188505Y0479360D01*
X0188511Y0479285D01*
X0188513Y0479211D01*
X0190973Y0479567D02*
X0190973Y0477434D01*
X0190975Y0477370D01*
X0190981Y0477305D01*
X0190990Y0477242D01*
X0191004Y0477179D01*
X0191021Y0477117D01*
X0191042Y0477056D01*
X0191067Y0476996D01*
X0191095Y0476938D01*
X0191127Y0476882D01*
X0191162Y0476828D01*
X0191200Y0476776D01*
X0191241Y0476726D01*
X0191286Y0476680D01*
X0191332Y0476635D01*
X0191382Y0476594D01*
X0191434Y0476556D01*
X0191488Y0476521D01*
X0191544Y0476489D01*
X0191602Y0476461D01*
X0191662Y0476436D01*
X0191723Y0476415D01*
X0191785Y0476398D01*
X0191848Y0476384D01*
X0191911Y0476375D01*
X0191976Y0476369D01*
X0192040Y0476367D01*
X0193817Y0476367D01*
X0193817Y0474234D02*
X0193817Y0480634D01*
X0192040Y0480634D01*
X0191976Y0480632D01*
X0191911Y0480626D01*
X0191848Y0480617D01*
X0191785Y0480603D01*
X0191723Y0480586D01*
X0191662Y0480565D01*
X0191602Y0480540D01*
X0191544Y0480512D01*
X0191488Y0480480D01*
X0191434Y0480445D01*
X0191382Y0480407D01*
X0191332Y0480366D01*
X0191286Y0480321D01*
X0191241Y0480275D01*
X0191200Y0480225D01*
X0191162Y0480173D01*
X0191127Y0480119D01*
X0191095Y0480063D01*
X0191067Y0480005D01*
X0191042Y0479945D01*
X0191021Y0479884D01*
X0191004Y0479822D01*
X0190990Y0479759D01*
X0190981Y0479696D01*
X0190975Y0479631D01*
X0190973Y0479567D01*
X0196540Y0479211D02*
X0196540Y0477789D01*
X0196541Y0477789D02*
X0196543Y0477715D01*
X0196549Y0477640D01*
X0196559Y0477567D01*
X0196572Y0477493D01*
X0196589Y0477421D01*
X0196611Y0477350D01*
X0196635Y0477279D01*
X0196664Y0477211D01*
X0196696Y0477143D01*
X0196732Y0477078D01*
X0196770Y0477015D01*
X0196813Y0476953D01*
X0196858Y0476894D01*
X0196906Y0476837D01*
X0196957Y0476783D01*
X0197011Y0476732D01*
X0197068Y0476684D01*
X0197127Y0476639D01*
X0197189Y0476596D01*
X0197252Y0476558D01*
X0197317Y0476522D01*
X0197385Y0476490D01*
X0197453Y0476461D01*
X0197524Y0476437D01*
X0197595Y0476415D01*
X0197667Y0476398D01*
X0197741Y0476385D01*
X0197814Y0476375D01*
X0197889Y0476369D01*
X0197963Y0476367D01*
X0198037Y0476369D01*
X0198112Y0476375D01*
X0198185Y0476385D01*
X0198259Y0476398D01*
X0198331Y0476415D01*
X0198402Y0476437D01*
X0198473Y0476461D01*
X0198541Y0476490D01*
X0198609Y0476522D01*
X0198674Y0476558D01*
X0198737Y0476596D01*
X0198799Y0476639D01*
X0198858Y0476684D01*
X0198915Y0476732D01*
X0198969Y0476783D01*
X0199020Y0476837D01*
X0199068Y0476894D01*
X0199113Y0476953D01*
X0199156Y0477015D01*
X0199194Y0477078D01*
X0199230Y0477143D01*
X0199262Y0477211D01*
X0199291Y0477279D01*
X0199315Y0477350D01*
X0199337Y0477421D01*
X0199354Y0477493D01*
X0199367Y0477567D01*
X0199377Y0477640D01*
X0199383Y0477715D01*
X0199385Y0477789D01*
X0199385Y0479211D01*
X0199383Y0479285D01*
X0199377Y0479360D01*
X0199367Y0479433D01*
X0199354Y0479507D01*
X0199337Y0479579D01*
X0199315Y0479650D01*
X0199291Y0479721D01*
X0199262Y0479789D01*
X0199230Y0479857D01*
X0199194Y0479922D01*
X0199156Y0479985D01*
X0199113Y0480047D01*
X0199068Y0480106D01*
X0199020Y0480163D01*
X0198969Y0480217D01*
X0198915Y0480268D01*
X0198858Y0480316D01*
X0198799Y0480361D01*
X0198737Y0480404D01*
X0198674Y0480442D01*
X0198609Y0480478D01*
X0198541Y0480510D01*
X0198473Y0480539D01*
X0198402Y0480563D01*
X0198331Y0480585D01*
X0198259Y0480602D01*
X0198185Y0480615D01*
X0198112Y0480625D01*
X0198037Y0480631D01*
X0197963Y0480633D01*
X0197889Y0480631D01*
X0197814Y0480625D01*
X0197741Y0480615D01*
X0197667Y0480602D01*
X0197595Y0480585D01*
X0197524Y0480563D01*
X0197453Y0480539D01*
X0197385Y0480510D01*
X0197317Y0480478D01*
X0197252Y0480442D01*
X0197189Y0480404D01*
X0197127Y0480361D01*
X0197068Y0480316D01*
X0197011Y0480268D01*
X0196957Y0480217D01*
X0196906Y0480163D01*
X0196858Y0480106D01*
X0196813Y0480047D01*
X0196770Y0479985D01*
X0196732Y0479922D01*
X0196696Y0479857D01*
X0196664Y0479789D01*
X0196635Y0479721D01*
X0196611Y0479650D01*
X0196589Y0479579D01*
X0196572Y0479507D01*
X0196559Y0479433D01*
X0196549Y0479360D01*
X0196543Y0479285D01*
X0196541Y0479211D01*
X0197239Y0470134D02*
X0200439Y0470134D01*
X0200439Y0465867D01*
X0198306Y0465867D02*
X0198306Y0470134D01*
X0197239Y0470134D02*
X0197175Y0470132D01*
X0197110Y0470126D01*
X0197047Y0470117D01*
X0196984Y0470103D01*
X0196922Y0470086D01*
X0196861Y0470065D01*
X0196801Y0470040D01*
X0196743Y0470012D01*
X0196687Y0469980D01*
X0196633Y0469945D01*
X0196581Y0469907D01*
X0196531Y0469866D01*
X0196485Y0469821D01*
X0196440Y0469775D01*
X0196399Y0469725D01*
X0196361Y0469673D01*
X0196326Y0469619D01*
X0196294Y0469563D01*
X0196266Y0469505D01*
X0196241Y0469445D01*
X0196220Y0469384D01*
X0196203Y0469322D01*
X0196189Y0469259D01*
X0196180Y0469196D01*
X0196174Y0469131D01*
X0196172Y0469067D01*
X0196173Y0469067D02*
X0196173Y0465867D01*
X0190048Y0467289D02*
X0190048Y0470845D01*
X0190046Y0470919D01*
X0190040Y0470994D01*
X0190030Y0471067D01*
X0190017Y0471141D01*
X0190000Y0471213D01*
X0189978Y0471284D01*
X0189954Y0471355D01*
X0189925Y0471423D01*
X0189893Y0471491D01*
X0189857Y0471556D01*
X0189819Y0471619D01*
X0189776Y0471681D01*
X0189731Y0471740D01*
X0189683Y0471797D01*
X0189632Y0471851D01*
X0189578Y0471902D01*
X0189521Y0471950D01*
X0189462Y0471995D01*
X0189400Y0472038D01*
X0189337Y0472076D01*
X0189272Y0472112D01*
X0189204Y0472144D01*
X0189136Y0472173D01*
X0189065Y0472197D01*
X0188994Y0472219D01*
X0188922Y0472236D01*
X0188848Y0472249D01*
X0188775Y0472259D01*
X0188700Y0472265D01*
X0188626Y0472267D01*
X0187203Y0472267D01*
X0184754Y0472267D02*
X0184754Y0465867D01*
X0187203Y0465867D02*
X0188626Y0465867D01*
X0188700Y0465869D01*
X0188775Y0465875D01*
X0188848Y0465885D01*
X0188922Y0465898D01*
X0188994Y0465915D01*
X0189065Y0465937D01*
X0189136Y0465961D01*
X0189204Y0465990D01*
X0189272Y0466022D01*
X0189337Y0466058D01*
X0189400Y0466096D01*
X0189462Y0466139D01*
X0189521Y0466184D01*
X0189578Y0466232D01*
X0189632Y0466283D01*
X0189683Y0466337D01*
X0189731Y0466394D01*
X0189776Y0466453D01*
X0189819Y0466515D01*
X0189857Y0466578D01*
X0189893Y0466643D01*
X0189925Y0466711D01*
X0189954Y0466779D01*
X0189978Y0466850D01*
X0190000Y0466921D01*
X0190017Y0466993D01*
X0190030Y0467067D01*
X0190040Y0467140D01*
X0190046Y0467215D01*
X0190048Y0467289D01*
X0184754Y0470134D02*
X0182976Y0470134D01*
X0182912Y0470132D01*
X0182847Y0470126D01*
X0182784Y0470117D01*
X0182721Y0470103D01*
X0182659Y0470086D01*
X0182598Y0470065D01*
X0182538Y0470040D01*
X0182480Y0470012D01*
X0182424Y0469980D01*
X0182370Y0469945D01*
X0182318Y0469907D01*
X0182268Y0469866D01*
X0182222Y0469821D01*
X0182177Y0469775D01*
X0182136Y0469725D01*
X0182098Y0469673D01*
X0182063Y0469619D01*
X0182031Y0469563D01*
X0182003Y0469505D01*
X0181978Y0469445D01*
X0181957Y0469384D01*
X0181940Y0469322D01*
X0181926Y0469259D01*
X0181917Y0469196D01*
X0181911Y0469131D01*
X0181909Y0469067D01*
X0181909Y0465867D01*
X0179010Y0466934D02*
X0179010Y0470134D01*
X0176165Y0470134D02*
X0176165Y0465867D01*
X0177943Y0465867D01*
X0178007Y0465869D01*
X0178072Y0465875D01*
X0178135Y0465884D01*
X0178198Y0465898D01*
X0178260Y0465915D01*
X0178321Y0465936D01*
X0178381Y0465961D01*
X0178439Y0465989D01*
X0178495Y0466021D01*
X0178549Y0466056D01*
X0178601Y0466094D01*
X0178651Y0466135D01*
X0178697Y0466180D01*
X0178742Y0466226D01*
X0178783Y0466276D01*
X0178821Y0466328D01*
X0178856Y0466382D01*
X0178888Y0466438D01*
X0178916Y0466496D01*
X0178941Y0466556D01*
X0178962Y0466617D01*
X0178979Y0466679D01*
X0178993Y0466742D01*
X0179002Y0466805D01*
X0179008Y0466870D01*
X0179010Y0466934D01*
X0173233Y0465867D02*
X0173233Y0470134D01*
X0171099Y0470134D01*
X0171099Y0469422D01*
X0169156Y0469067D02*
X0169156Y0466934D01*
X0169157Y0466934D02*
X0169155Y0466870D01*
X0169149Y0466805D01*
X0169140Y0466742D01*
X0169126Y0466679D01*
X0169109Y0466617D01*
X0169088Y0466556D01*
X0169063Y0466496D01*
X0169035Y0466438D01*
X0169003Y0466382D01*
X0168968Y0466328D01*
X0168930Y0466276D01*
X0168889Y0466226D01*
X0168844Y0466180D01*
X0168798Y0466135D01*
X0168748Y0466094D01*
X0168696Y0466056D01*
X0168642Y0466021D01*
X0168586Y0465989D01*
X0168528Y0465961D01*
X0168468Y0465936D01*
X0168407Y0465915D01*
X0168345Y0465898D01*
X0168282Y0465884D01*
X0168219Y0465875D01*
X0168154Y0465869D01*
X0168090Y0465867D01*
X0166668Y0465867D01*
X0164240Y0465867D02*
X0164240Y0472267D01*
X0164240Y0470134D02*
X0162462Y0470134D01*
X0162398Y0470132D01*
X0162333Y0470126D01*
X0162270Y0470117D01*
X0162207Y0470103D01*
X0162145Y0470086D01*
X0162084Y0470065D01*
X0162024Y0470040D01*
X0161966Y0470012D01*
X0161910Y0469980D01*
X0161856Y0469945D01*
X0161804Y0469907D01*
X0161754Y0469866D01*
X0161708Y0469821D01*
X0161663Y0469775D01*
X0161622Y0469725D01*
X0161584Y0469673D01*
X0161549Y0469619D01*
X0161517Y0469563D01*
X0161489Y0469505D01*
X0161464Y0469445D01*
X0161443Y0469384D01*
X0161426Y0469322D01*
X0161412Y0469259D01*
X0161403Y0469196D01*
X0161397Y0469131D01*
X0161395Y0469067D01*
X0161396Y0469067D02*
X0161396Y0465867D01*
X0158701Y0466934D02*
X0158701Y0468711D01*
X0158701Y0468000D02*
X0155857Y0468000D01*
X0155857Y0468711D01*
X0155859Y0468785D01*
X0155865Y0468860D01*
X0155875Y0468933D01*
X0155888Y0469007D01*
X0155905Y0469079D01*
X0155927Y0469150D01*
X0155951Y0469221D01*
X0155980Y0469289D01*
X0156012Y0469357D01*
X0156048Y0469422D01*
X0156086Y0469485D01*
X0156129Y0469547D01*
X0156174Y0469606D01*
X0156222Y0469663D01*
X0156273Y0469717D01*
X0156327Y0469768D01*
X0156384Y0469816D01*
X0156443Y0469861D01*
X0156505Y0469904D01*
X0156568Y0469942D01*
X0156633Y0469978D01*
X0156701Y0470010D01*
X0156769Y0470039D01*
X0156840Y0470063D01*
X0156911Y0470085D01*
X0156983Y0470102D01*
X0157057Y0470115D01*
X0157130Y0470125D01*
X0157205Y0470131D01*
X0157279Y0470133D01*
X0157353Y0470131D01*
X0157428Y0470125D01*
X0157501Y0470115D01*
X0157575Y0470102D01*
X0157647Y0470085D01*
X0157718Y0470063D01*
X0157789Y0470039D01*
X0157857Y0470010D01*
X0157925Y0469978D01*
X0157990Y0469942D01*
X0158053Y0469904D01*
X0158115Y0469861D01*
X0158174Y0469816D01*
X0158231Y0469768D01*
X0158285Y0469717D01*
X0158336Y0469663D01*
X0158384Y0469606D01*
X0158429Y0469547D01*
X0158472Y0469485D01*
X0158510Y0469422D01*
X0158546Y0469357D01*
X0158578Y0469289D01*
X0158607Y0469221D01*
X0158631Y0469150D01*
X0158653Y0469079D01*
X0158670Y0469007D01*
X0158683Y0468933D01*
X0158693Y0468860D01*
X0158699Y0468785D01*
X0158701Y0468711D01*
X0158702Y0466934D02*
X0158700Y0466870D01*
X0158694Y0466805D01*
X0158685Y0466742D01*
X0158671Y0466679D01*
X0158654Y0466617D01*
X0158633Y0466556D01*
X0158608Y0466496D01*
X0158580Y0466438D01*
X0158548Y0466382D01*
X0158513Y0466328D01*
X0158475Y0466276D01*
X0158434Y0466226D01*
X0158389Y0466180D01*
X0158343Y0466135D01*
X0158293Y0466094D01*
X0158241Y0466056D01*
X0158187Y0466021D01*
X0158131Y0465989D01*
X0158073Y0465961D01*
X0158013Y0465936D01*
X0157952Y0465915D01*
X0157890Y0465898D01*
X0157827Y0465884D01*
X0157764Y0465875D01*
X0157699Y0465869D01*
X0157635Y0465867D01*
X0155857Y0465867D01*
X0166668Y0470134D02*
X0168090Y0470134D01*
X0168154Y0470132D01*
X0168219Y0470126D01*
X0168282Y0470117D01*
X0168345Y0470103D01*
X0168407Y0470086D01*
X0168468Y0470065D01*
X0168528Y0470040D01*
X0168586Y0470012D01*
X0168642Y0469980D01*
X0168696Y0469945D01*
X0168748Y0469907D01*
X0168798Y0469866D01*
X0168844Y0469821D01*
X0168889Y0469775D01*
X0168930Y0469725D01*
X0168968Y0469673D01*
X0169003Y0469619D01*
X0169035Y0469563D01*
X0169063Y0469505D01*
X0169088Y0469445D01*
X0169109Y0469384D01*
X0169126Y0469322D01*
X0169140Y0469259D01*
X0169149Y0469196D01*
X0169155Y0469131D01*
X0169157Y0469067D01*
X0136175Y0474234D02*
X0136175Y0480634D01*
X0134397Y0480634D01*
X0134333Y0480632D01*
X0134268Y0480626D01*
X0134205Y0480617D01*
X0134142Y0480603D01*
X0134080Y0480586D01*
X0134019Y0480565D01*
X0133959Y0480540D01*
X0133901Y0480512D01*
X0133845Y0480480D01*
X0133791Y0480445D01*
X0133739Y0480407D01*
X0133689Y0480366D01*
X0133643Y0480321D01*
X0133598Y0480275D01*
X0133557Y0480225D01*
X0133519Y0480173D01*
X0133484Y0480119D01*
X0133452Y0480063D01*
X0133424Y0480005D01*
X0133399Y0479945D01*
X0133378Y0479884D01*
X0133361Y0479822D01*
X0133347Y0479759D01*
X0133338Y0479696D01*
X0133332Y0479631D01*
X0133330Y0479567D01*
X0133330Y0477434D01*
X0133332Y0477370D01*
X0133338Y0477305D01*
X0133347Y0477242D01*
X0133361Y0477179D01*
X0133378Y0477117D01*
X0133399Y0477056D01*
X0133424Y0476996D01*
X0133452Y0476938D01*
X0133484Y0476882D01*
X0133519Y0476828D01*
X0133557Y0476776D01*
X0133598Y0476726D01*
X0133643Y0476680D01*
X0133689Y0476635D01*
X0133739Y0476594D01*
X0133791Y0476556D01*
X0133845Y0476521D01*
X0133901Y0476489D01*
X0133959Y0476461D01*
X0134019Y0476436D01*
X0134080Y0476415D01*
X0134142Y0476398D01*
X0134205Y0476384D01*
X0134268Y0476375D01*
X0134333Y0476369D01*
X0134397Y0476367D01*
X0136175Y0476367D01*
X0130632Y0476367D02*
X0130632Y0480634D01*
X0128498Y0480634D01*
X0128498Y0479922D01*
X0126562Y0479211D02*
X0126562Y0477789D01*
X0126560Y0477715D01*
X0126554Y0477640D01*
X0126544Y0477567D01*
X0126531Y0477493D01*
X0126514Y0477421D01*
X0126492Y0477350D01*
X0126468Y0477279D01*
X0126439Y0477211D01*
X0126407Y0477143D01*
X0126371Y0477078D01*
X0126333Y0477015D01*
X0126290Y0476953D01*
X0126245Y0476894D01*
X0126197Y0476837D01*
X0126146Y0476783D01*
X0126092Y0476732D01*
X0126035Y0476684D01*
X0125976Y0476639D01*
X0125914Y0476596D01*
X0125851Y0476558D01*
X0125786Y0476522D01*
X0125718Y0476490D01*
X0125650Y0476461D01*
X0125579Y0476437D01*
X0125508Y0476415D01*
X0125436Y0476398D01*
X0125362Y0476385D01*
X0125289Y0476375D01*
X0125214Y0476369D01*
X0125140Y0476367D01*
X0125066Y0476369D01*
X0124991Y0476375D01*
X0124918Y0476385D01*
X0124844Y0476398D01*
X0124772Y0476415D01*
X0124701Y0476437D01*
X0124630Y0476461D01*
X0124562Y0476490D01*
X0124494Y0476522D01*
X0124429Y0476558D01*
X0124366Y0476596D01*
X0124304Y0476639D01*
X0124245Y0476684D01*
X0124188Y0476732D01*
X0124134Y0476783D01*
X0124083Y0476837D01*
X0124035Y0476894D01*
X0123990Y0476953D01*
X0123947Y0477015D01*
X0123909Y0477078D01*
X0123873Y0477143D01*
X0123841Y0477211D01*
X0123812Y0477279D01*
X0123788Y0477350D01*
X0123766Y0477421D01*
X0123749Y0477493D01*
X0123736Y0477567D01*
X0123726Y0477640D01*
X0123720Y0477715D01*
X0123718Y0477789D01*
X0123718Y0479211D01*
X0123720Y0479285D01*
X0123726Y0479360D01*
X0123736Y0479433D01*
X0123749Y0479507D01*
X0123766Y0479579D01*
X0123788Y0479650D01*
X0123812Y0479721D01*
X0123841Y0479789D01*
X0123873Y0479857D01*
X0123909Y0479922D01*
X0123947Y0479985D01*
X0123990Y0480047D01*
X0124035Y0480106D01*
X0124083Y0480163D01*
X0124134Y0480217D01*
X0124188Y0480268D01*
X0124245Y0480316D01*
X0124304Y0480361D01*
X0124366Y0480404D01*
X0124429Y0480442D01*
X0124494Y0480478D01*
X0124562Y0480510D01*
X0124630Y0480539D01*
X0124701Y0480563D01*
X0124772Y0480585D01*
X0124844Y0480602D01*
X0124918Y0480615D01*
X0124991Y0480625D01*
X0125066Y0480631D01*
X0125140Y0480633D01*
X0125214Y0480631D01*
X0125289Y0480625D01*
X0125362Y0480615D01*
X0125436Y0480602D01*
X0125508Y0480585D01*
X0125579Y0480563D01*
X0125650Y0480539D01*
X0125718Y0480510D01*
X0125786Y0480478D01*
X0125851Y0480442D01*
X0125914Y0480404D01*
X0125976Y0480361D01*
X0126035Y0480316D01*
X0126092Y0480268D01*
X0126146Y0480217D01*
X0126197Y0480163D01*
X0126245Y0480106D01*
X0126290Y0480047D01*
X0126333Y0479985D01*
X0126371Y0479922D01*
X0126407Y0479857D01*
X0126439Y0479789D01*
X0126468Y0479721D01*
X0126492Y0479650D01*
X0126514Y0479579D01*
X0126531Y0479507D01*
X0126544Y0479433D01*
X0126554Y0479360D01*
X0126560Y0479285D01*
X0126562Y0479211D01*
X0122405Y0474233D02*
X0122341Y0474235D01*
X0122276Y0474241D01*
X0122213Y0474250D01*
X0122150Y0474264D01*
X0122088Y0474281D01*
X0122027Y0474302D01*
X0121967Y0474327D01*
X0121909Y0474355D01*
X0121853Y0474387D01*
X0121799Y0474422D01*
X0121747Y0474460D01*
X0121697Y0474501D01*
X0121651Y0474546D01*
X0121606Y0474592D01*
X0121565Y0474642D01*
X0121527Y0474694D01*
X0121492Y0474748D01*
X0121460Y0474804D01*
X0121432Y0474862D01*
X0121407Y0474922D01*
X0121386Y0474983D01*
X0121369Y0475045D01*
X0121355Y0475108D01*
X0121346Y0475171D01*
X0121340Y0475236D01*
X0121338Y0475300D01*
X0121338Y0480634D01*
X0121160Y0482411D02*
X0121516Y0482411D01*
X0121516Y0482767D01*
X0121160Y0482767D01*
X0121160Y0482411D01*
X0118767Y0479211D02*
X0118767Y0477434D01*
X0118767Y0478500D02*
X0115923Y0478500D01*
X0115923Y0479211D01*
X0115925Y0479285D01*
X0115931Y0479360D01*
X0115941Y0479433D01*
X0115954Y0479507D01*
X0115971Y0479579D01*
X0115993Y0479650D01*
X0116017Y0479721D01*
X0116046Y0479789D01*
X0116078Y0479857D01*
X0116114Y0479922D01*
X0116152Y0479985D01*
X0116195Y0480047D01*
X0116240Y0480106D01*
X0116288Y0480163D01*
X0116339Y0480217D01*
X0116393Y0480268D01*
X0116450Y0480316D01*
X0116509Y0480361D01*
X0116571Y0480404D01*
X0116634Y0480442D01*
X0116699Y0480478D01*
X0116767Y0480510D01*
X0116835Y0480539D01*
X0116906Y0480563D01*
X0116977Y0480585D01*
X0117049Y0480602D01*
X0117123Y0480615D01*
X0117196Y0480625D01*
X0117271Y0480631D01*
X0117345Y0480633D01*
X0117419Y0480631D01*
X0117494Y0480625D01*
X0117567Y0480615D01*
X0117641Y0480602D01*
X0117713Y0480585D01*
X0117784Y0480563D01*
X0117855Y0480539D01*
X0117923Y0480510D01*
X0117991Y0480478D01*
X0118056Y0480442D01*
X0118119Y0480404D01*
X0118181Y0480361D01*
X0118240Y0480316D01*
X0118297Y0480268D01*
X0118351Y0480217D01*
X0118402Y0480163D01*
X0118450Y0480106D01*
X0118495Y0480047D01*
X0118538Y0479985D01*
X0118576Y0479922D01*
X0118612Y0479857D01*
X0118644Y0479789D01*
X0118673Y0479721D01*
X0118697Y0479650D01*
X0118719Y0479579D01*
X0118736Y0479507D01*
X0118749Y0479433D01*
X0118759Y0479360D01*
X0118765Y0479285D01*
X0118767Y0479211D01*
X0118768Y0477434D02*
X0118766Y0477370D01*
X0118760Y0477305D01*
X0118751Y0477242D01*
X0118737Y0477179D01*
X0118720Y0477117D01*
X0118699Y0477056D01*
X0118674Y0476996D01*
X0118646Y0476938D01*
X0118614Y0476882D01*
X0118579Y0476828D01*
X0118541Y0476776D01*
X0118500Y0476726D01*
X0118455Y0476680D01*
X0118409Y0476635D01*
X0118359Y0476594D01*
X0118307Y0476556D01*
X0118253Y0476521D01*
X0118197Y0476489D01*
X0118139Y0476461D01*
X0118079Y0476436D01*
X0118018Y0476415D01*
X0117956Y0476398D01*
X0117893Y0476384D01*
X0117830Y0476375D01*
X0117765Y0476369D01*
X0117701Y0476367D01*
X0115923Y0476367D01*
X0113427Y0477434D02*
X0113427Y0479567D01*
X0113425Y0479631D01*
X0113419Y0479696D01*
X0113410Y0479759D01*
X0113396Y0479822D01*
X0113379Y0479884D01*
X0113358Y0479945D01*
X0113333Y0480005D01*
X0113305Y0480063D01*
X0113273Y0480119D01*
X0113238Y0480173D01*
X0113200Y0480225D01*
X0113159Y0480275D01*
X0113114Y0480321D01*
X0113068Y0480366D01*
X0113018Y0480407D01*
X0112966Y0480445D01*
X0112912Y0480480D01*
X0112856Y0480512D01*
X0112798Y0480540D01*
X0112738Y0480565D01*
X0112677Y0480586D01*
X0112615Y0480603D01*
X0112552Y0480617D01*
X0112489Y0480626D01*
X0112424Y0480632D01*
X0112360Y0480634D01*
X0110938Y0480634D01*
X0109226Y0480634D02*
X0107093Y0480634D01*
X0108515Y0482767D02*
X0108515Y0477434D01*
X0108516Y0477434D02*
X0108514Y0477370D01*
X0108508Y0477305D01*
X0108499Y0477242D01*
X0108485Y0477179D01*
X0108468Y0477117D01*
X0108447Y0477056D01*
X0108422Y0476996D01*
X0108394Y0476938D01*
X0108362Y0476882D01*
X0108327Y0476828D01*
X0108289Y0476776D01*
X0108248Y0476726D01*
X0108203Y0476680D01*
X0108157Y0476635D01*
X0108107Y0476594D01*
X0108055Y0476556D01*
X0108001Y0476521D01*
X0107945Y0476489D01*
X0107887Y0476461D01*
X0107827Y0476436D01*
X0107766Y0476415D01*
X0107704Y0476398D01*
X0107641Y0476384D01*
X0107578Y0476375D01*
X0107513Y0476369D01*
X0107449Y0476367D01*
X0107093Y0476367D01*
X0110938Y0476367D02*
X0112360Y0476367D01*
X0112424Y0476369D01*
X0112489Y0476375D01*
X0112552Y0476384D01*
X0112615Y0476398D01*
X0112677Y0476415D01*
X0112738Y0476436D01*
X0112798Y0476461D01*
X0112856Y0476489D01*
X0112912Y0476521D01*
X0112966Y0476556D01*
X0113018Y0476594D01*
X0113068Y0476635D01*
X0113114Y0476680D01*
X0113159Y0476726D01*
X0113200Y0476776D01*
X0113238Y0476828D01*
X0113273Y0476882D01*
X0113305Y0476938D01*
X0113333Y0476996D01*
X0113358Y0477056D01*
X0113379Y0477117D01*
X0113396Y0477179D01*
X0113410Y0477242D01*
X0113419Y0477305D01*
X0113425Y0477370D01*
X0113427Y0477434D01*
X0122405Y0474234D02*
X0122760Y0474234D01*
X0101302Y0476367D02*
X0099524Y0476367D01*
X0099460Y0476369D01*
X0099395Y0476375D01*
X0099332Y0476384D01*
X0099269Y0476398D01*
X0099207Y0476415D01*
X0099146Y0476436D01*
X0099086Y0476461D01*
X0099028Y0476489D01*
X0098972Y0476521D01*
X0098918Y0476556D01*
X0098866Y0476594D01*
X0098816Y0476635D01*
X0098770Y0476680D01*
X0098725Y0476726D01*
X0098684Y0476776D01*
X0098646Y0476828D01*
X0098611Y0476882D01*
X0098579Y0476938D01*
X0098551Y0476996D01*
X0098526Y0477056D01*
X0098505Y0477117D01*
X0098488Y0477179D01*
X0098474Y0477242D01*
X0098465Y0477305D01*
X0098459Y0477370D01*
X0098457Y0477434D01*
X0098458Y0477434D02*
X0098458Y0479567D01*
X0098457Y0479567D02*
X0098459Y0479631D01*
X0098465Y0479696D01*
X0098474Y0479759D01*
X0098488Y0479822D01*
X0098505Y0479884D01*
X0098526Y0479945D01*
X0098551Y0480005D01*
X0098579Y0480063D01*
X0098611Y0480119D01*
X0098646Y0480173D01*
X0098684Y0480225D01*
X0098725Y0480275D01*
X0098770Y0480321D01*
X0098816Y0480366D01*
X0098866Y0480407D01*
X0098918Y0480445D01*
X0098972Y0480480D01*
X0099028Y0480512D01*
X0099086Y0480540D01*
X0099146Y0480565D01*
X0099207Y0480586D01*
X0099269Y0480603D01*
X0099332Y0480617D01*
X0099395Y0480626D01*
X0099460Y0480632D01*
X0099524Y0480634D01*
X0101302Y0480634D01*
X0101302Y0482767D02*
X0101302Y0476367D01*
X0096202Y0474234D02*
X0095491Y0474234D01*
X0093358Y0480634D01*
X0096202Y0480634D02*
X0094780Y0476367D01*
X0087449Y0476367D02*
X0087449Y0482767D01*
X0085671Y0482767D01*
X0085588Y0482765D01*
X0085505Y0482759D01*
X0085422Y0482749D01*
X0085339Y0482736D01*
X0085258Y0482718D01*
X0085177Y0482697D01*
X0085098Y0482672D01*
X0085020Y0482643D01*
X0084943Y0482611D01*
X0084868Y0482575D01*
X0084794Y0482536D01*
X0084723Y0482493D01*
X0084653Y0482447D01*
X0084586Y0482397D01*
X0084521Y0482345D01*
X0084459Y0482290D01*
X0084399Y0482231D01*
X0084342Y0482170D01*
X0084288Y0482107D01*
X0084237Y0482041D01*
X0084190Y0481972D01*
X0084145Y0481902D01*
X0084104Y0481829D01*
X0084067Y0481755D01*
X0084032Y0481679D01*
X0084002Y0481601D01*
X0083975Y0481523D01*
X0083952Y0481442D01*
X0083932Y0481361D01*
X0083917Y0481279D01*
X0083905Y0481197D01*
X0083897Y0481114D01*
X0083893Y0481031D01*
X0083893Y0480947D01*
X0083897Y0480864D01*
X0083905Y0480781D01*
X0083917Y0480699D01*
X0083932Y0480617D01*
X0083952Y0480536D01*
X0083975Y0480455D01*
X0084002Y0480377D01*
X0084032Y0480299D01*
X0084067Y0480223D01*
X0084104Y0480149D01*
X0084145Y0480076D01*
X0084190Y0480006D01*
X0084237Y0479937D01*
X0084288Y0479871D01*
X0084342Y0479808D01*
X0084399Y0479747D01*
X0084459Y0479688D01*
X0084521Y0479633D01*
X0084586Y0479581D01*
X0084653Y0479531D01*
X0084723Y0479485D01*
X0084794Y0479442D01*
X0084868Y0479403D01*
X0084943Y0479367D01*
X0085020Y0479335D01*
X0085098Y0479306D01*
X0085177Y0479281D01*
X0085258Y0479260D01*
X0085339Y0479242D01*
X0085422Y0479229D01*
X0085505Y0479219D01*
X0085588Y0479213D01*
X0085671Y0479211D01*
X0087449Y0479211D01*
X0081311Y0480634D02*
X0079889Y0480634D01*
X0079825Y0480632D01*
X0079760Y0480626D01*
X0079697Y0480617D01*
X0079634Y0480603D01*
X0079572Y0480586D01*
X0079511Y0480565D01*
X0079451Y0480540D01*
X0079393Y0480512D01*
X0079337Y0480480D01*
X0079283Y0480445D01*
X0079231Y0480407D01*
X0079181Y0480366D01*
X0079135Y0480321D01*
X0079090Y0480275D01*
X0079049Y0480225D01*
X0079011Y0480173D01*
X0078976Y0480119D01*
X0078944Y0480063D01*
X0078916Y0480005D01*
X0078891Y0479945D01*
X0078870Y0479884D01*
X0078853Y0479822D01*
X0078839Y0479759D01*
X0078830Y0479696D01*
X0078824Y0479631D01*
X0078822Y0479567D01*
X0078822Y0476367D01*
X0080422Y0476367D01*
X0080492Y0476369D01*
X0080561Y0476375D01*
X0080630Y0476385D01*
X0080699Y0476398D01*
X0080766Y0476416D01*
X0080833Y0476437D01*
X0080898Y0476462D01*
X0080962Y0476490D01*
X0081024Y0476522D01*
X0081084Y0476558D01*
X0081142Y0476596D01*
X0081198Y0476638D01*
X0081251Y0476683D01*
X0081302Y0476731D01*
X0081350Y0476782D01*
X0081395Y0476835D01*
X0081437Y0476891D01*
X0081475Y0476949D01*
X0081511Y0477009D01*
X0081543Y0477071D01*
X0081571Y0477135D01*
X0081596Y0477200D01*
X0081617Y0477267D01*
X0081635Y0477334D01*
X0081648Y0477403D01*
X0081658Y0477472D01*
X0081664Y0477541D01*
X0081666Y0477611D01*
X0081664Y0477681D01*
X0081658Y0477750D01*
X0081648Y0477819D01*
X0081635Y0477888D01*
X0081617Y0477955D01*
X0081596Y0478022D01*
X0081571Y0478087D01*
X0081543Y0478151D01*
X0081511Y0478213D01*
X0081475Y0478273D01*
X0081437Y0478331D01*
X0081395Y0478387D01*
X0081350Y0478440D01*
X0081302Y0478491D01*
X0081251Y0478539D01*
X0081198Y0478584D01*
X0081142Y0478626D01*
X0081084Y0478664D01*
X0081024Y0478700D01*
X0080962Y0478732D01*
X0080898Y0478760D01*
X0080833Y0478785D01*
X0080766Y0478806D01*
X0080699Y0478824D01*
X0080630Y0478837D01*
X0080561Y0478847D01*
X0080492Y0478853D01*
X0080422Y0478855D01*
X0080422Y0478856D02*
X0078822Y0478856D01*
X0076610Y0480634D02*
X0074477Y0480634D01*
X0071963Y0480634D02*
X0071963Y0476367D01*
X0074477Y0476367D02*
X0074832Y0476367D01*
X0074896Y0476369D01*
X0074961Y0476375D01*
X0075024Y0476384D01*
X0075087Y0476398D01*
X0075149Y0476415D01*
X0075210Y0476436D01*
X0075270Y0476461D01*
X0075328Y0476489D01*
X0075384Y0476521D01*
X0075438Y0476556D01*
X0075490Y0476594D01*
X0075540Y0476635D01*
X0075586Y0476680D01*
X0075631Y0476726D01*
X0075672Y0476776D01*
X0075710Y0476828D01*
X0075745Y0476882D01*
X0075777Y0476938D01*
X0075805Y0476996D01*
X0075830Y0477056D01*
X0075851Y0477117D01*
X0075868Y0477179D01*
X0075882Y0477242D01*
X0075891Y0477305D01*
X0075897Y0477370D01*
X0075899Y0477434D01*
X0075899Y0482767D01*
X0071963Y0480634D02*
X0069830Y0480634D01*
X0069830Y0479922D01*
X0067908Y0480634D02*
X0067908Y0476367D01*
X0065425Y0477434D02*
X0065425Y0479567D01*
X0065426Y0479567D02*
X0065424Y0479631D01*
X0065418Y0479696D01*
X0065409Y0479759D01*
X0065395Y0479822D01*
X0065378Y0479884D01*
X0065357Y0479945D01*
X0065332Y0480005D01*
X0065304Y0480063D01*
X0065272Y0480119D01*
X0065237Y0480173D01*
X0065199Y0480225D01*
X0065158Y0480275D01*
X0065113Y0480321D01*
X0065067Y0480366D01*
X0065017Y0480407D01*
X0064965Y0480445D01*
X0064911Y0480480D01*
X0064855Y0480512D01*
X0064797Y0480540D01*
X0064737Y0480565D01*
X0064676Y0480586D01*
X0064614Y0480603D01*
X0064551Y0480617D01*
X0064488Y0480626D01*
X0064423Y0480632D01*
X0064359Y0480634D01*
X0062937Y0480634D01*
X0060443Y0482767D02*
X0060443Y0476367D01*
X0060443Y0478500D02*
X0057598Y0480634D01*
X0059198Y0479389D02*
X0057598Y0476367D01*
X0062937Y0476367D02*
X0064359Y0476367D01*
X0064423Y0476369D01*
X0064488Y0476375D01*
X0064551Y0476384D01*
X0064614Y0476398D01*
X0064676Y0476415D01*
X0064737Y0476436D01*
X0064797Y0476461D01*
X0064855Y0476489D01*
X0064911Y0476521D01*
X0064965Y0476556D01*
X0065017Y0476594D01*
X0065067Y0476635D01*
X0065113Y0476680D01*
X0065158Y0476726D01*
X0065199Y0476776D01*
X0065237Y0476828D01*
X0065272Y0476882D01*
X0065304Y0476938D01*
X0065332Y0476996D01*
X0065357Y0477056D01*
X0065378Y0477117D01*
X0065395Y0477179D01*
X0065409Y0477242D01*
X0065418Y0477305D01*
X0065424Y0477370D01*
X0065426Y0477434D01*
X0067730Y0482411D02*
X0068085Y0482411D01*
X0068085Y0482767D01*
X0067730Y0482767D01*
X0067730Y0482411D01*
X0051839Y0482767D02*
X0051839Y0476367D01*
X0050061Y0476367D01*
X0049979Y0476369D01*
X0049897Y0476375D01*
X0049815Y0476384D01*
X0049734Y0476397D01*
X0049654Y0476414D01*
X0049574Y0476435D01*
X0049496Y0476459D01*
X0049419Y0476487D01*
X0049343Y0476518D01*
X0049268Y0476553D01*
X0049196Y0476592D01*
X0049125Y0476633D01*
X0049056Y0476678D01*
X0048990Y0476726D01*
X0048925Y0476777D01*
X0048863Y0476831D01*
X0048804Y0476888D01*
X0048747Y0476947D01*
X0048693Y0477009D01*
X0048642Y0477074D01*
X0048594Y0477140D01*
X0048549Y0477209D01*
X0048508Y0477280D01*
X0048469Y0477352D01*
X0048434Y0477427D01*
X0048403Y0477503D01*
X0048375Y0477580D01*
X0048351Y0477658D01*
X0048330Y0477738D01*
X0048313Y0477818D01*
X0048300Y0477899D01*
X0048291Y0477981D01*
X0048285Y0478063D01*
X0048283Y0478145D01*
X0048283Y0480989D01*
X0048285Y0481071D01*
X0048291Y0481153D01*
X0048300Y0481235D01*
X0048313Y0481316D01*
X0048330Y0481396D01*
X0048351Y0481476D01*
X0048375Y0481554D01*
X0048403Y0481631D01*
X0048434Y0481707D01*
X0048469Y0481782D01*
X0048508Y0481854D01*
X0048549Y0481925D01*
X0048594Y0481994D01*
X0048642Y0482060D01*
X0048693Y0482125D01*
X0048747Y0482187D01*
X0048804Y0482246D01*
X0048863Y0482303D01*
X0048925Y0482357D01*
X0048990Y0482408D01*
X0049056Y0482456D01*
X0049125Y0482501D01*
X0049196Y0482542D01*
X0049268Y0482581D01*
X0049343Y0482616D01*
X0049419Y0482647D01*
X0049496Y0482675D01*
X0049574Y0482699D01*
X0049654Y0482720D01*
X0049734Y0482737D01*
X0049815Y0482750D01*
X0049897Y0482759D01*
X0049979Y0482765D01*
X0050061Y0482767D01*
X0051839Y0482767D01*
X0045534Y0479211D02*
X0045534Y0477789D01*
X0045532Y0477715D01*
X0045526Y0477640D01*
X0045516Y0477567D01*
X0045503Y0477493D01*
X0045486Y0477421D01*
X0045464Y0477350D01*
X0045440Y0477279D01*
X0045411Y0477211D01*
X0045379Y0477143D01*
X0045343Y0477078D01*
X0045305Y0477015D01*
X0045262Y0476953D01*
X0045217Y0476894D01*
X0045169Y0476837D01*
X0045118Y0476783D01*
X0045064Y0476732D01*
X0045007Y0476684D01*
X0044948Y0476639D01*
X0044886Y0476596D01*
X0044823Y0476558D01*
X0044758Y0476522D01*
X0044690Y0476490D01*
X0044622Y0476461D01*
X0044551Y0476437D01*
X0044480Y0476415D01*
X0044408Y0476398D01*
X0044334Y0476385D01*
X0044261Y0476375D01*
X0044186Y0476369D01*
X0044112Y0476367D01*
X0044038Y0476369D01*
X0043963Y0476375D01*
X0043890Y0476385D01*
X0043816Y0476398D01*
X0043744Y0476415D01*
X0043673Y0476437D01*
X0043602Y0476461D01*
X0043534Y0476490D01*
X0043466Y0476522D01*
X0043401Y0476558D01*
X0043338Y0476596D01*
X0043276Y0476639D01*
X0043217Y0476684D01*
X0043160Y0476732D01*
X0043106Y0476783D01*
X0043055Y0476837D01*
X0043007Y0476894D01*
X0042962Y0476953D01*
X0042919Y0477015D01*
X0042881Y0477078D01*
X0042845Y0477143D01*
X0042813Y0477211D01*
X0042784Y0477279D01*
X0042760Y0477350D01*
X0042738Y0477421D01*
X0042721Y0477493D01*
X0042708Y0477567D01*
X0042698Y0477640D01*
X0042692Y0477715D01*
X0042690Y0477789D01*
X0042690Y0479211D01*
X0042692Y0479285D01*
X0042698Y0479360D01*
X0042708Y0479433D01*
X0042721Y0479507D01*
X0042738Y0479579D01*
X0042760Y0479650D01*
X0042784Y0479721D01*
X0042813Y0479789D01*
X0042845Y0479857D01*
X0042881Y0479922D01*
X0042919Y0479985D01*
X0042962Y0480047D01*
X0043007Y0480106D01*
X0043055Y0480163D01*
X0043106Y0480217D01*
X0043160Y0480268D01*
X0043217Y0480316D01*
X0043276Y0480361D01*
X0043338Y0480404D01*
X0043401Y0480442D01*
X0043466Y0480478D01*
X0043534Y0480510D01*
X0043602Y0480539D01*
X0043673Y0480563D01*
X0043744Y0480585D01*
X0043816Y0480602D01*
X0043890Y0480615D01*
X0043963Y0480625D01*
X0044038Y0480631D01*
X0044112Y0480633D01*
X0044186Y0480631D01*
X0044261Y0480625D01*
X0044334Y0480615D01*
X0044408Y0480602D01*
X0044480Y0480585D01*
X0044551Y0480563D01*
X0044622Y0480539D01*
X0044690Y0480510D01*
X0044758Y0480478D01*
X0044823Y0480442D01*
X0044886Y0480404D01*
X0044948Y0480361D01*
X0045007Y0480316D01*
X0045064Y0480268D01*
X0045118Y0480217D01*
X0045169Y0480163D01*
X0045217Y0480106D01*
X0045262Y0480047D01*
X0045305Y0479985D01*
X0045343Y0479922D01*
X0045379Y0479857D01*
X0045411Y0479789D01*
X0045440Y0479721D01*
X0045464Y0479650D01*
X0045486Y0479579D01*
X0045503Y0479507D01*
X0045516Y0479433D01*
X0045526Y0479360D01*
X0045532Y0479285D01*
X0045534Y0479211D01*
X0040297Y0480634D02*
X0039230Y0476367D01*
X0038163Y0479211D01*
X0037097Y0476367D01*
X0036030Y0480634D01*
X0033543Y0482767D02*
X0033543Y0477434D01*
X0033544Y0477434D02*
X0033542Y0477370D01*
X0033536Y0477305D01*
X0033527Y0477242D01*
X0033513Y0477179D01*
X0033496Y0477117D01*
X0033475Y0477056D01*
X0033450Y0476996D01*
X0033422Y0476938D01*
X0033390Y0476882D01*
X0033355Y0476828D01*
X0033317Y0476776D01*
X0033276Y0476726D01*
X0033231Y0476680D01*
X0033185Y0476635D01*
X0033135Y0476594D01*
X0033083Y0476556D01*
X0033029Y0476521D01*
X0032973Y0476489D01*
X0032915Y0476461D01*
X0032855Y0476436D01*
X0032794Y0476415D01*
X0032732Y0476398D01*
X0032669Y0476384D01*
X0032606Y0476375D01*
X0032541Y0476369D01*
X0032477Y0476367D01*
X0030368Y0476367D02*
X0030368Y0480634D01*
X0030190Y0482411D02*
X0030546Y0482411D01*
X0030546Y0482767D01*
X0030190Y0482767D01*
X0030190Y0482411D01*
X0027688Y0480634D02*
X0027688Y0476367D01*
X0024843Y0476367D02*
X0024843Y0479567D01*
X0024845Y0479631D01*
X0024851Y0479696D01*
X0024860Y0479759D01*
X0024874Y0479822D01*
X0024891Y0479884D01*
X0024912Y0479945D01*
X0024937Y0480005D01*
X0024965Y0480063D01*
X0024997Y0480119D01*
X0025032Y0480173D01*
X0025070Y0480225D01*
X0025111Y0480275D01*
X0025156Y0480321D01*
X0025202Y0480366D01*
X0025252Y0480407D01*
X0025304Y0480445D01*
X0025358Y0480480D01*
X0025414Y0480512D01*
X0025472Y0480540D01*
X0025532Y0480565D01*
X0025593Y0480586D01*
X0025655Y0480603D01*
X0025718Y0480617D01*
X0025781Y0480626D01*
X0025846Y0480632D01*
X0025910Y0480634D01*
X0027688Y0480634D01*
X0022178Y0479567D02*
X0022178Y0477434D01*
X0022176Y0477370D01*
X0022170Y0477305D01*
X0022161Y0477242D01*
X0022147Y0477179D01*
X0022130Y0477117D01*
X0022109Y0477056D01*
X0022084Y0476996D01*
X0022056Y0476938D01*
X0022024Y0476882D01*
X0021989Y0476828D01*
X0021951Y0476776D01*
X0021910Y0476726D01*
X0021865Y0476680D01*
X0021819Y0476635D01*
X0021769Y0476594D01*
X0021717Y0476556D01*
X0021663Y0476521D01*
X0021607Y0476489D01*
X0021549Y0476461D01*
X0021489Y0476436D01*
X0021428Y0476415D01*
X0021366Y0476398D01*
X0021303Y0476384D01*
X0021240Y0476375D01*
X0021175Y0476369D01*
X0021111Y0476367D01*
X0019333Y0476367D01*
X0019333Y0475300D02*
X0019333Y0480634D01*
X0021111Y0480634D01*
X0021175Y0480632D01*
X0021240Y0480626D01*
X0021303Y0480617D01*
X0021366Y0480603D01*
X0021428Y0480586D01*
X0021489Y0480565D01*
X0021549Y0480540D01*
X0021607Y0480512D01*
X0021663Y0480480D01*
X0021717Y0480445D01*
X0021769Y0480407D01*
X0021819Y0480366D01*
X0021865Y0480321D01*
X0021910Y0480275D01*
X0021951Y0480225D01*
X0021989Y0480173D01*
X0022024Y0480119D01*
X0022056Y0480063D01*
X0022084Y0480005D01*
X0022109Y0479945D01*
X0022130Y0479884D01*
X0022147Y0479822D01*
X0022161Y0479759D01*
X0022170Y0479696D01*
X0022176Y0479631D01*
X0022178Y0479567D01*
X0019333Y0475300D02*
X0019335Y0475236D01*
X0019341Y0475171D01*
X0019350Y0475108D01*
X0019364Y0475045D01*
X0019381Y0474983D01*
X0019402Y0474922D01*
X0019427Y0474862D01*
X0019455Y0474804D01*
X0019487Y0474748D01*
X0019522Y0474694D01*
X0019560Y0474642D01*
X0019601Y0474592D01*
X0019646Y0474546D01*
X0019692Y0474501D01*
X0019742Y0474460D01*
X0019794Y0474422D01*
X0019848Y0474387D01*
X0019904Y0474355D01*
X0019962Y0474327D01*
X0020022Y0474302D01*
X0020083Y0474281D01*
X0020145Y0474264D01*
X0020208Y0474250D01*
X0020271Y0474241D01*
X0020336Y0474235D01*
X0020400Y0474233D01*
X0020400Y0474234D02*
X0021822Y0474234D01*
X0017001Y0474945D02*
X0016467Y0476367D01*
X0016467Y0476722D01*
X0016823Y0476722D01*
X0016823Y0476367D01*
X0016467Y0476367D01*
X0026965Y0491457D02*
X0028387Y0491457D01*
X0026965Y0491458D02*
X0026891Y0491460D01*
X0026816Y0491466D01*
X0026743Y0491476D01*
X0026669Y0491489D01*
X0026597Y0491506D01*
X0026526Y0491528D01*
X0026455Y0491552D01*
X0026387Y0491581D01*
X0026319Y0491613D01*
X0026254Y0491649D01*
X0026191Y0491687D01*
X0026129Y0491730D01*
X0026070Y0491775D01*
X0026013Y0491823D01*
X0025959Y0491874D01*
X0025908Y0491928D01*
X0025860Y0491985D01*
X0025815Y0492044D01*
X0025772Y0492106D01*
X0025734Y0492169D01*
X0025698Y0492234D01*
X0025666Y0492302D01*
X0025637Y0492370D01*
X0025613Y0492441D01*
X0025591Y0492512D01*
X0025574Y0492584D01*
X0025561Y0492658D01*
X0025551Y0492731D01*
X0025545Y0492806D01*
X0025543Y0492880D01*
X0025543Y0496435D01*
X0025545Y0496509D01*
X0025551Y0496584D01*
X0025561Y0496657D01*
X0025574Y0496731D01*
X0025591Y0496803D01*
X0025613Y0496874D01*
X0025637Y0496945D01*
X0025666Y0497013D01*
X0025698Y0497081D01*
X0025734Y0497146D01*
X0025772Y0497209D01*
X0025815Y0497271D01*
X0025860Y0497330D01*
X0025908Y0497386D01*
X0025959Y0497441D01*
X0026013Y0497492D01*
X0026070Y0497540D01*
X0026129Y0497585D01*
X0026191Y0497628D01*
X0026254Y0497666D01*
X0026319Y0497702D01*
X0026387Y0497734D01*
X0026455Y0497763D01*
X0026526Y0497787D01*
X0026597Y0497809D01*
X0026669Y0497826D01*
X0026743Y0497839D01*
X0026816Y0497849D01*
X0026891Y0497855D01*
X0026965Y0497857D01*
X0028387Y0497857D01*
X0030892Y0497857D02*
X0030892Y0493235D01*
X0030891Y0493235D02*
X0030893Y0493152D01*
X0030899Y0493069D01*
X0030909Y0492986D01*
X0030922Y0492903D01*
X0030940Y0492822D01*
X0030961Y0492741D01*
X0030986Y0492662D01*
X0031015Y0492584D01*
X0031047Y0492507D01*
X0031083Y0492432D01*
X0031122Y0492358D01*
X0031165Y0492287D01*
X0031211Y0492217D01*
X0031261Y0492150D01*
X0031313Y0492085D01*
X0031368Y0492023D01*
X0031427Y0491963D01*
X0031488Y0491906D01*
X0031551Y0491852D01*
X0031617Y0491801D01*
X0031686Y0491754D01*
X0031756Y0491709D01*
X0031829Y0491668D01*
X0031903Y0491631D01*
X0031979Y0491596D01*
X0032057Y0491566D01*
X0032135Y0491539D01*
X0032216Y0491516D01*
X0032297Y0491496D01*
X0032379Y0491481D01*
X0032461Y0491469D01*
X0032544Y0491461D01*
X0032627Y0491457D01*
X0032711Y0491457D01*
X0032794Y0491461D01*
X0032877Y0491469D01*
X0032959Y0491481D01*
X0033041Y0491496D01*
X0033122Y0491516D01*
X0033203Y0491539D01*
X0033281Y0491566D01*
X0033359Y0491596D01*
X0033435Y0491631D01*
X0033509Y0491668D01*
X0033582Y0491709D01*
X0033652Y0491754D01*
X0033721Y0491801D01*
X0033787Y0491852D01*
X0033850Y0491906D01*
X0033911Y0491963D01*
X0033970Y0492023D01*
X0034025Y0492085D01*
X0034077Y0492150D01*
X0034127Y0492217D01*
X0034173Y0492287D01*
X0034216Y0492358D01*
X0034255Y0492432D01*
X0034291Y0492507D01*
X0034323Y0492584D01*
X0034352Y0492662D01*
X0034377Y0492741D01*
X0034398Y0492822D01*
X0034416Y0492903D01*
X0034429Y0492986D01*
X0034439Y0493069D01*
X0034445Y0493152D01*
X0034447Y0493235D01*
X0034447Y0497857D01*
X0036840Y0497857D02*
X0040396Y0497857D01*
X0038618Y0497857D02*
X0038618Y0491457D01*
X0203052Y0472267D02*
X0203052Y0471911D01*
X0203407Y0471911D01*
X0203407Y0472267D01*
X0203052Y0472267D01*
X0203229Y0470134D02*
X0203229Y0465867D01*
X0205349Y0472267D02*
X0208905Y0472267D01*
X0207127Y0472267D02*
X0207127Y0465867D01*
X0214554Y0465867D02*
X0216332Y0465867D01*
X0216396Y0465869D01*
X0216461Y0465875D01*
X0216524Y0465884D01*
X0216587Y0465898D01*
X0216649Y0465915D01*
X0216710Y0465936D01*
X0216770Y0465961D01*
X0216828Y0465989D01*
X0216884Y0466021D01*
X0216938Y0466056D01*
X0216990Y0466094D01*
X0217040Y0466135D01*
X0217086Y0466180D01*
X0217131Y0466226D01*
X0217172Y0466276D01*
X0217210Y0466328D01*
X0217245Y0466382D01*
X0217277Y0466438D01*
X0217305Y0466496D01*
X0217330Y0466556D01*
X0217351Y0466617D01*
X0217368Y0466679D01*
X0217382Y0466742D01*
X0217391Y0466805D01*
X0217397Y0466870D01*
X0217399Y0466934D01*
X0217399Y0469067D01*
X0217397Y0469131D01*
X0217391Y0469196D01*
X0217382Y0469259D01*
X0217368Y0469322D01*
X0217351Y0469384D01*
X0217330Y0469445D01*
X0217305Y0469505D01*
X0217277Y0469563D01*
X0217245Y0469619D01*
X0217210Y0469673D01*
X0217172Y0469725D01*
X0217131Y0469775D01*
X0217086Y0469821D01*
X0217040Y0469866D01*
X0216990Y0469907D01*
X0216938Y0469945D01*
X0216884Y0469980D01*
X0216828Y0470012D01*
X0216770Y0470040D01*
X0216710Y0470065D01*
X0216649Y0470086D01*
X0216587Y0470103D01*
X0216524Y0470117D01*
X0216461Y0470126D01*
X0216396Y0470132D01*
X0216332Y0470134D01*
X0214554Y0470134D01*
X0214554Y0472267D02*
X0214554Y0465867D01*
X0220064Y0465867D02*
X0220064Y0469067D01*
X0220066Y0469131D01*
X0220072Y0469196D01*
X0220081Y0469259D01*
X0220095Y0469322D01*
X0220112Y0469384D01*
X0220133Y0469445D01*
X0220158Y0469505D01*
X0220186Y0469563D01*
X0220218Y0469619D01*
X0220253Y0469673D01*
X0220291Y0469725D01*
X0220332Y0469775D01*
X0220377Y0469821D01*
X0220423Y0469866D01*
X0220473Y0469907D01*
X0220525Y0469945D01*
X0220579Y0469980D01*
X0220635Y0470012D01*
X0220693Y0470040D01*
X0220753Y0470065D01*
X0220814Y0470086D01*
X0220876Y0470103D01*
X0220939Y0470117D01*
X0221002Y0470126D01*
X0221067Y0470132D01*
X0221131Y0470134D01*
X0222908Y0470134D01*
X0222908Y0465867D01*
X0225837Y0465867D02*
X0225837Y0469067D01*
X0225837Y0468356D02*
X0227437Y0468356D01*
X0225836Y0469067D02*
X0225838Y0469131D01*
X0225844Y0469196D01*
X0225853Y0469259D01*
X0225867Y0469322D01*
X0225884Y0469384D01*
X0225905Y0469445D01*
X0225930Y0469505D01*
X0225958Y0469563D01*
X0225990Y0469619D01*
X0226025Y0469673D01*
X0226063Y0469725D01*
X0226104Y0469775D01*
X0226149Y0469821D01*
X0226195Y0469866D01*
X0226245Y0469907D01*
X0226297Y0469945D01*
X0226351Y0469980D01*
X0226407Y0470012D01*
X0226465Y0470040D01*
X0226525Y0470065D01*
X0226586Y0470086D01*
X0226648Y0470103D01*
X0226711Y0470117D01*
X0226774Y0470126D01*
X0226839Y0470132D01*
X0226903Y0470134D01*
X0228325Y0470134D01*
X0227437Y0468355D02*
X0227507Y0468353D01*
X0227576Y0468347D01*
X0227645Y0468337D01*
X0227714Y0468324D01*
X0227781Y0468306D01*
X0227848Y0468285D01*
X0227913Y0468260D01*
X0227977Y0468232D01*
X0228039Y0468200D01*
X0228099Y0468164D01*
X0228157Y0468126D01*
X0228213Y0468084D01*
X0228266Y0468039D01*
X0228317Y0467991D01*
X0228365Y0467940D01*
X0228410Y0467887D01*
X0228452Y0467831D01*
X0228490Y0467773D01*
X0228526Y0467713D01*
X0228558Y0467651D01*
X0228586Y0467587D01*
X0228611Y0467522D01*
X0228632Y0467455D01*
X0228650Y0467388D01*
X0228663Y0467319D01*
X0228673Y0467250D01*
X0228679Y0467181D01*
X0228681Y0467111D01*
X0228679Y0467041D01*
X0228673Y0466972D01*
X0228663Y0466903D01*
X0228650Y0466834D01*
X0228632Y0466767D01*
X0228611Y0466700D01*
X0228586Y0466635D01*
X0228558Y0466571D01*
X0228526Y0466509D01*
X0228490Y0466449D01*
X0228452Y0466391D01*
X0228410Y0466335D01*
X0228365Y0466282D01*
X0228317Y0466231D01*
X0228266Y0466183D01*
X0228213Y0466138D01*
X0228157Y0466096D01*
X0228099Y0466058D01*
X0228039Y0466022D01*
X0227977Y0465990D01*
X0227913Y0465962D01*
X0227848Y0465937D01*
X0227781Y0465916D01*
X0227714Y0465898D01*
X0227645Y0465885D01*
X0227576Y0465875D01*
X0227507Y0465869D01*
X0227437Y0465867D01*
X0225837Y0465867D01*
X0223606Y0476367D02*
X0222006Y0476367D01*
X0222006Y0479567D01*
X0222006Y0478856D02*
X0223606Y0478856D01*
X0222006Y0479567D02*
X0222008Y0479631D01*
X0222014Y0479696D01*
X0222023Y0479759D01*
X0222037Y0479822D01*
X0222054Y0479884D01*
X0222075Y0479945D01*
X0222100Y0480005D01*
X0222128Y0480063D01*
X0222160Y0480119D01*
X0222195Y0480173D01*
X0222233Y0480225D01*
X0222274Y0480275D01*
X0222319Y0480321D01*
X0222365Y0480366D01*
X0222415Y0480407D01*
X0222467Y0480445D01*
X0222521Y0480480D01*
X0222577Y0480512D01*
X0222635Y0480540D01*
X0222695Y0480565D01*
X0222756Y0480586D01*
X0222818Y0480603D01*
X0222881Y0480617D01*
X0222944Y0480626D01*
X0223009Y0480632D01*
X0223073Y0480634D01*
X0224495Y0480634D01*
X0226757Y0480634D02*
X0226757Y0479922D01*
X0226757Y0480634D02*
X0228891Y0480634D01*
X0228891Y0476367D01*
X0231618Y0477789D02*
X0231618Y0479211D01*
X0231619Y0479211D02*
X0231621Y0479285D01*
X0231627Y0479360D01*
X0231637Y0479433D01*
X0231650Y0479507D01*
X0231667Y0479579D01*
X0231689Y0479650D01*
X0231713Y0479721D01*
X0231742Y0479789D01*
X0231774Y0479857D01*
X0231810Y0479922D01*
X0231848Y0479985D01*
X0231891Y0480047D01*
X0231936Y0480106D01*
X0231984Y0480163D01*
X0232035Y0480217D01*
X0232089Y0480268D01*
X0232146Y0480316D01*
X0232205Y0480361D01*
X0232267Y0480404D01*
X0232330Y0480442D01*
X0232395Y0480478D01*
X0232463Y0480510D01*
X0232531Y0480539D01*
X0232602Y0480563D01*
X0232673Y0480585D01*
X0232745Y0480602D01*
X0232819Y0480615D01*
X0232892Y0480625D01*
X0232967Y0480631D01*
X0233041Y0480633D01*
X0233115Y0480631D01*
X0233190Y0480625D01*
X0233263Y0480615D01*
X0233337Y0480602D01*
X0233409Y0480585D01*
X0233480Y0480563D01*
X0233551Y0480539D01*
X0233619Y0480510D01*
X0233687Y0480478D01*
X0233752Y0480442D01*
X0233815Y0480404D01*
X0233877Y0480361D01*
X0233936Y0480316D01*
X0233993Y0480268D01*
X0234047Y0480217D01*
X0234098Y0480163D01*
X0234146Y0480106D01*
X0234191Y0480047D01*
X0234234Y0479985D01*
X0234272Y0479922D01*
X0234308Y0479857D01*
X0234340Y0479789D01*
X0234369Y0479721D01*
X0234393Y0479650D01*
X0234415Y0479579D01*
X0234432Y0479507D01*
X0234445Y0479433D01*
X0234455Y0479360D01*
X0234461Y0479285D01*
X0234463Y0479211D01*
X0234463Y0477789D01*
X0234461Y0477715D01*
X0234455Y0477640D01*
X0234445Y0477567D01*
X0234432Y0477493D01*
X0234415Y0477421D01*
X0234393Y0477350D01*
X0234369Y0477279D01*
X0234340Y0477211D01*
X0234308Y0477143D01*
X0234272Y0477078D01*
X0234234Y0477015D01*
X0234191Y0476953D01*
X0234146Y0476894D01*
X0234098Y0476837D01*
X0234047Y0476783D01*
X0233993Y0476732D01*
X0233936Y0476684D01*
X0233877Y0476639D01*
X0233815Y0476596D01*
X0233752Y0476558D01*
X0233687Y0476522D01*
X0233619Y0476490D01*
X0233551Y0476461D01*
X0233480Y0476437D01*
X0233409Y0476415D01*
X0233337Y0476398D01*
X0233263Y0476385D01*
X0233190Y0476375D01*
X0233115Y0476369D01*
X0233041Y0476367D01*
X0232967Y0476369D01*
X0232892Y0476375D01*
X0232819Y0476385D01*
X0232745Y0476398D01*
X0232673Y0476415D01*
X0232602Y0476437D01*
X0232531Y0476461D01*
X0232463Y0476490D01*
X0232395Y0476522D01*
X0232330Y0476558D01*
X0232267Y0476596D01*
X0232205Y0476639D01*
X0232146Y0476684D01*
X0232089Y0476732D01*
X0232035Y0476783D01*
X0231984Y0476837D01*
X0231936Y0476894D01*
X0231891Y0476953D01*
X0231848Y0477015D01*
X0231810Y0477078D01*
X0231774Y0477143D01*
X0231742Y0477211D01*
X0231713Y0477279D01*
X0231689Y0477350D01*
X0231667Y0477421D01*
X0231650Y0477493D01*
X0231637Y0477567D01*
X0231627Y0477640D01*
X0231621Y0477715D01*
X0231619Y0477789D01*
X0236923Y0477434D02*
X0236923Y0479567D01*
X0236925Y0479631D01*
X0236931Y0479696D01*
X0236940Y0479759D01*
X0236954Y0479822D01*
X0236971Y0479884D01*
X0236992Y0479945D01*
X0237017Y0480005D01*
X0237045Y0480063D01*
X0237077Y0480119D01*
X0237112Y0480173D01*
X0237150Y0480225D01*
X0237191Y0480275D01*
X0237236Y0480321D01*
X0237282Y0480366D01*
X0237332Y0480407D01*
X0237384Y0480445D01*
X0237438Y0480480D01*
X0237494Y0480512D01*
X0237552Y0480540D01*
X0237612Y0480565D01*
X0237673Y0480586D01*
X0237735Y0480603D01*
X0237798Y0480617D01*
X0237861Y0480626D01*
X0237926Y0480632D01*
X0237990Y0480634D01*
X0239767Y0480634D01*
X0239767Y0482767D02*
X0239767Y0476367D01*
X0237990Y0476367D01*
X0237926Y0476369D01*
X0237861Y0476375D01*
X0237798Y0476384D01*
X0237735Y0476398D01*
X0237673Y0476415D01*
X0237612Y0476436D01*
X0237552Y0476461D01*
X0237494Y0476489D01*
X0237438Y0476521D01*
X0237384Y0476556D01*
X0237332Y0476594D01*
X0237282Y0476635D01*
X0237236Y0476680D01*
X0237191Y0476726D01*
X0237150Y0476776D01*
X0237112Y0476828D01*
X0237077Y0476882D01*
X0237045Y0476938D01*
X0237017Y0476996D01*
X0236992Y0477056D01*
X0236971Y0477117D01*
X0236954Y0477179D01*
X0236940Y0477242D01*
X0236931Y0477305D01*
X0236925Y0477370D01*
X0236923Y0477434D01*
X0236680Y0470134D02*
X0239524Y0465867D01*
X0242123Y0465867D02*
X0242123Y0469067D01*
X0242122Y0469067D02*
X0242124Y0469131D01*
X0242130Y0469196D01*
X0242139Y0469259D01*
X0242153Y0469322D01*
X0242170Y0469384D01*
X0242191Y0469445D01*
X0242216Y0469505D01*
X0242244Y0469563D01*
X0242276Y0469619D01*
X0242311Y0469673D01*
X0242349Y0469725D01*
X0242390Y0469775D01*
X0242435Y0469821D01*
X0242481Y0469866D01*
X0242531Y0469907D01*
X0242583Y0469945D01*
X0242637Y0469980D01*
X0242693Y0470012D01*
X0242751Y0470040D01*
X0242811Y0470065D01*
X0242872Y0470086D01*
X0242934Y0470103D01*
X0242997Y0470117D01*
X0243060Y0470126D01*
X0243125Y0470132D01*
X0243189Y0470134D01*
X0246389Y0470134D01*
X0246389Y0465867D01*
X0244256Y0465867D02*
X0244256Y0470134D01*
X0248988Y0470134D02*
X0251832Y0465867D01*
X0254431Y0465867D02*
X0254431Y0469067D01*
X0254430Y0469067D02*
X0254432Y0469131D01*
X0254438Y0469196D01*
X0254447Y0469259D01*
X0254461Y0469322D01*
X0254478Y0469384D01*
X0254499Y0469445D01*
X0254524Y0469505D01*
X0254552Y0469563D01*
X0254584Y0469619D01*
X0254619Y0469673D01*
X0254657Y0469725D01*
X0254698Y0469775D01*
X0254743Y0469821D01*
X0254789Y0469866D01*
X0254839Y0469907D01*
X0254891Y0469945D01*
X0254945Y0469980D01*
X0255001Y0470012D01*
X0255059Y0470040D01*
X0255119Y0470065D01*
X0255180Y0470086D01*
X0255242Y0470103D01*
X0255305Y0470117D01*
X0255368Y0470126D01*
X0255433Y0470132D01*
X0255497Y0470134D01*
X0258697Y0470134D01*
X0258697Y0465867D01*
X0256564Y0465867D02*
X0256564Y0470134D01*
X0259660Y0476367D02*
X0261082Y0476367D01*
X0261146Y0476369D01*
X0261211Y0476375D01*
X0261274Y0476384D01*
X0261337Y0476398D01*
X0261399Y0476415D01*
X0261460Y0476436D01*
X0261520Y0476461D01*
X0261578Y0476489D01*
X0261634Y0476521D01*
X0261688Y0476556D01*
X0261740Y0476594D01*
X0261790Y0476635D01*
X0261836Y0476680D01*
X0261881Y0476726D01*
X0261922Y0476776D01*
X0261960Y0476828D01*
X0261995Y0476882D01*
X0262027Y0476938D01*
X0262055Y0476996D01*
X0262080Y0477056D01*
X0262101Y0477117D01*
X0262118Y0477179D01*
X0262132Y0477242D01*
X0262141Y0477305D01*
X0262147Y0477370D01*
X0262149Y0477434D01*
X0262149Y0479567D01*
X0262147Y0479631D01*
X0262141Y0479696D01*
X0262132Y0479759D01*
X0262118Y0479822D01*
X0262101Y0479884D01*
X0262080Y0479945D01*
X0262055Y0480005D01*
X0262027Y0480063D01*
X0261995Y0480119D01*
X0261960Y0480173D01*
X0261922Y0480225D01*
X0261881Y0480275D01*
X0261836Y0480321D01*
X0261790Y0480366D01*
X0261740Y0480407D01*
X0261688Y0480445D01*
X0261634Y0480480D01*
X0261578Y0480512D01*
X0261520Y0480540D01*
X0261460Y0480565D01*
X0261399Y0480586D01*
X0261337Y0480603D01*
X0261274Y0480617D01*
X0261211Y0480626D01*
X0261146Y0480632D01*
X0261082Y0480634D01*
X0259660Y0480634D01*
X0257438Y0479211D02*
X0257438Y0477789D01*
X0257436Y0477715D01*
X0257430Y0477640D01*
X0257420Y0477567D01*
X0257407Y0477493D01*
X0257390Y0477421D01*
X0257368Y0477350D01*
X0257344Y0477279D01*
X0257315Y0477211D01*
X0257283Y0477143D01*
X0257247Y0477078D01*
X0257209Y0477015D01*
X0257166Y0476953D01*
X0257121Y0476894D01*
X0257073Y0476837D01*
X0257022Y0476783D01*
X0256968Y0476732D01*
X0256911Y0476684D01*
X0256852Y0476639D01*
X0256790Y0476596D01*
X0256727Y0476558D01*
X0256662Y0476522D01*
X0256594Y0476490D01*
X0256526Y0476461D01*
X0256455Y0476437D01*
X0256384Y0476415D01*
X0256312Y0476398D01*
X0256238Y0476385D01*
X0256165Y0476375D01*
X0256090Y0476369D01*
X0256016Y0476367D01*
X0255942Y0476369D01*
X0255867Y0476375D01*
X0255794Y0476385D01*
X0255720Y0476398D01*
X0255648Y0476415D01*
X0255577Y0476437D01*
X0255506Y0476461D01*
X0255438Y0476490D01*
X0255370Y0476522D01*
X0255305Y0476558D01*
X0255242Y0476596D01*
X0255180Y0476639D01*
X0255121Y0476684D01*
X0255064Y0476732D01*
X0255010Y0476783D01*
X0254959Y0476837D01*
X0254911Y0476894D01*
X0254866Y0476953D01*
X0254823Y0477015D01*
X0254785Y0477078D01*
X0254749Y0477143D01*
X0254717Y0477211D01*
X0254688Y0477279D01*
X0254664Y0477350D01*
X0254642Y0477421D01*
X0254625Y0477493D01*
X0254612Y0477567D01*
X0254602Y0477640D01*
X0254596Y0477715D01*
X0254594Y0477789D01*
X0254593Y0477789D02*
X0254593Y0479211D01*
X0254594Y0479211D02*
X0254596Y0479285D01*
X0254602Y0479360D01*
X0254612Y0479433D01*
X0254625Y0479507D01*
X0254642Y0479579D01*
X0254664Y0479650D01*
X0254688Y0479721D01*
X0254717Y0479789D01*
X0254749Y0479857D01*
X0254785Y0479922D01*
X0254823Y0479985D01*
X0254866Y0480047D01*
X0254911Y0480106D01*
X0254959Y0480163D01*
X0255010Y0480217D01*
X0255064Y0480268D01*
X0255121Y0480316D01*
X0255180Y0480361D01*
X0255242Y0480404D01*
X0255305Y0480442D01*
X0255370Y0480478D01*
X0255438Y0480510D01*
X0255506Y0480539D01*
X0255577Y0480563D01*
X0255648Y0480585D01*
X0255720Y0480602D01*
X0255794Y0480615D01*
X0255867Y0480625D01*
X0255942Y0480631D01*
X0256016Y0480633D01*
X0256090Y0480631D01*
X0256165Y0480625D01*
X0256238Y0480615D01*
X0256312Y0480602D01*
X0256384Y0480585D01*
X0256455Y0480563D01*
X0256526Y0480539D01*
X0256594Y0480510D01*
X0256662Y0480478D01*
X0256727Y0480442D01*
X0256790Y0480404D01*
X0256852Y0480361D01*
X0256911Y0480316D01*
X0256968Y0480268D01*
X0257022Y0480217D01*
X0257073Y0480163D01*
X0257121Y0480106D01*
X0257166Y0480047D01*
X0257209Y0479985D01*
X0257247Y0479922D01*
X0257283Y0479857D01*
X0257315Y0479789D01*
X0257344Y0479721D01*
X0257368Y0479650D01*
X0257390Y0479579D01*
X0257407Y0479507D01*
X0257420Y0479433D01*
X0257430Y0479360D01*
X0257436Y0479285D01*
X0257438Y0479211D01*
X0252011Y0477434D02*
X0252011Y0482767D01*
X0248729Y0482767D02*
X0248729Y0477434D01*
X0248727Y0477370D01*
X0248721Y0477305D01*
X0248712Y0477242D01*
X0248698Y0477179D01*
X0248681Y0477117D01*
X0248660Y0477056D01*
X0248635Y0476996D01*
X0248607Y0476938D01*
X0248575Y0476882D01*
X0248540Y0476828D01*
X0248502Y0476776D01*
X0248461Y0476726D01*
X0248416Y0476680D01*
X0248370Y0476635D01*
X0248320Y0476594D01*
X0248268Y0476556D01*
X0248214Y0476521D01*
X0248158Y0476489D01*
X0248100Y0476461D01*
X0248040Y0476436D01*
X0247979Y0476415D01*
X0247917Y0476398D01*
X0247854Y0476384D01*
X0247791Y0476375D01*
X0247726Y0476369D01*
X0247662Y0476367D01*
X0244324Y0476367D02*
X0242724Y0476367D01*
X0242724Y0479567D01*
X0242724Y0478856D02*
X0244324Y0478856D01*
X0242724Y0479567D02*
X0242726Y0479631D01*
X0242732Y0479696D01*
X0242741Y0479759D01*
X0242755Y0479822D01*
X0242772Y0479884D01*
X0242793Y0479945D01*
X0242818Y0480005D01*
X0242846Y0480063D01*
X0242878Y0480119D01*
X0242913Y0480173D01*
X0242951Y0480225D01*
X0242992Y0480275D01*
X0243037Y0480321D01*
X0243083Y0480366D01*
X0243133Y0480407D01*
X0243185Y0480445D01*
X0243239Y0480480D01*
X0243295Y0480512D01*
X0243353Y0480540D01*
X0243413Y0480565D01*
X0243474Y0480586D01*
X0243536Y0480603D01*
X0243599Y0480617D01*
X0243662Y0480626D01*
X0243727Y0480632D01*
X0243791Y0480634D01*
X0245213Y0480634D01*
X0244324Y0478855D02*
X0244394Y0478853D01*
X0244463Y0478847D01*
X0244532Y0478837D01*
X0244601Y0478824D01*
X0244668Y0478806D01*
X0244735Y0478785D01*
X0244800Y0478760D01*
X0244864Y0478732D01*
X0244926Y0478700D01*
X0244986Y0478664D01*
X0245044Y0478626D01*
X0245100Y0478584D01*
X0245153Y0478539D01*
X0245204Y0478491D01*
X0245252Y0478440D01*
X0245297Y0478387D01*
X0245339Y0478331D01*
X0245377Y0478273D01*
X0245413Y0478213D01*
X0245445Y0478151D01*
X0245473Y0478087D01*
X0245498Y0478022D01*
X0245519Y0477955D01*
X0245537Y0477888D01*
X0245550Y0477819D01*
X0245560Y0477750D01*
X0245566Y0477681D01*
X0245568Y0477611D01*
X0245566Y0477541D01*
X0245560Y0477472D01*
X0245550Y0477403D01*
X0245537Y0477334D01*
X0245519Y0477267D01*
X0245498Y0477200D01*
X0245473Y0477135D01*
X0245445Y0477071D01*
X0245413Y0477009D01*
X0245377Y0476949D01*
X0245339Y0476891D01*
X0245297Y0476835D01*
X0245252Y0476782D01*
X0245204Y0476731D01*
X0245153Y0476683D01*
X0245100Y0476638D01*
X0245044Y0476596D01*
X0244986Y0476558D01*
X0244926Y0476522D01*
X0244864Y0476490D01*
X0244800Y0476462D01*
X0244735Y0476437D01*
X0244668Y0476416D01*
X0244601Y0476398D01*
X0244532Y0476385D01*
X0244463Y0476375D01*
X0244394Y0476369D01*
X0244324Y0476367D01*
X0250944Y0476367D02*
X0251008Y0476369D01*
X0251073Y0476375D01*
X0251136Y0476384D01*
X0251199Y0476398D01*
X0251261Y0476415D01*
X0251322Y0476436D01*
X0251382Y0476461D01*
X0251440Y0476489D01*
X0251496Y0476521D01*
X0251550Y0476556D01*
X0251602Y0476594D01*
X0251652Y0476635D01*
X0251698Y0476680D01*
X0251743Y0476726D01*
X0251784Y0476776D01*
X0251822Y0476828D01*
X0251857Y0476882D01*
X0251889Y0476938D01*
X0251917Y0476996D01*
X0251942Y0477056D01*
X0251963Y0477117D01*
X0251980Y0477179D01*
X0251994Y0477242D01*
X0252003Y0477305D01*
X0252009Y0477370D01*
X0252011Y0477434D01*
X0251832Y0470134D02*
X0248988Y0465867D01*
X0239524Y0470134D02*
X0236680Y0465867D01*
X0234608Y0465867D02*
X0234608Y0466222D01*
X0234253Y0466222D01*
X0234253Y0465867D01*
X0234786Y0464445D01*
X0234608Y0465867D02*
X0234253Y0465867D01*
X0223606Y0476367D02*
X0223676Y0476369D01*
X0223745Y0476375D01*
X0223814Y0476385D01*
X0223883Y0476398D01*
X0223950Y0476416D01*
X0224017Y0476437D01*
X0224082Y0476462D01*
X0224146Y0476490D01*
X0224208Y0476522D01*
X0224268Y0476558D01*
X0224326Y0476596D01*
X0224382Y0476638D01*
X0224435Y0476683D01*
X0224486Y0476731D01*
X0224534Y0476782D01*
X0224579Y0476835D01*
X0224621Y0476891D01*
X0224659Y0476949D01*
X0224695Y0477009D01*
X0224727Y0477071D01*
X0224755Y0477135D01*
X0224780Y0477200D01*
X0224801Y0477267D01*
X0224819Y0477334D01*
X0224832Y0477403D01*
X0224842Y0477472D01*
X0224848Y0477541D01*
X0224850Y0477611D01*
X0224848Y0477681D01*
X0224842Y0477750D01*
X0224832Y0477819D01*
X0224819Y0477888D01*
X0224801Y0477955D01*
X0224780Y0478022D01*
X0224755Y0478087D01*
X0224727Y0478151D01*
X0224695Y0478213D01*
X0224659Y0478273D01*
X0224621Y0478331D01*
X0224579Y0478387D01*
X0224534Y0478440D01*
X0224486Y0478491D01*
X0224435Y0478539D01*
X0224382Y0478584D01*
X0224326Y0478626D01*
X0224268Y0478664D01*
X0224208Y0478700D01*
X0224146Y0478732D01*
X0224082Y0478760D01*
X0224017Y0478785D01*
X0223950Y0478806D01*
X0223883Y0478824D01*
X0223814Y0478837D01*
X0223745Y0478847D01*
X0223676Y0478853D01*
X0223606Y0478855D01*
X0219794Y0480634D02*
X0217660Y0480634D01*
X0215399Y0480634D02*
X0215399Y0476367D01*
X0217660Y0476367D02*
X0218016Y0476367D01*
X0218080Y0476369D01*
X0218145Y0476375D01*
X0218208Y0476384D01*
X0218271Y0476398D01*
X0218333Y0476415D01*
X0218394Y0476436D01*
X0218454Y0476461D01*
X0218512Y0476489D01*
X0218568Y0476521D01*
X0218622Y0476556D01*
X0218674Y0476594D01*
X0218724Y0476635D01*
X0218770Y0476680D01*
X0218815Y0476726D01*
X0218856Y0476776D01*
X0218894Y0476828D01*
X0218929Y0476882D01*
X0218961Y0476938D01*
X0218989Y0476996D01*
X0219014Y0477056D01*
X0219035Y0477117D01*
X0219052Y0477179D01*
X0219066Y0477242D01*
X0219075Y0477305D01*
X0219081Y0477370D01*
X0219083Y0477434D01*
X0219082Y0477434D02*
X0219082Y0482767D01*
X0215577Y0482767D02*
X0215577Y0482411D01*
X0215221Y0482411D01*
X0215221Y0482767D01*
X0215577Y0482767D01*
X0213129Y0480634D02*
X0211707Y0476367D01*
X0210284Y0480634D01*
X0208001Y0479211D02*
X0208001Y0477434D01*
X0208001Y0478500D02*
X0205156Y0478500D01*
X0205156Y0479211D01*
X0205158Y0479285D01*
X0205164Y0479360D01*
X0205174Y0479433D01*
X0205187Y0479507D01*
X0205204Y0479579D01*
X0205226Y0479650D01*
X0205250Y0479721D01*
X0205279Y0479789D01*
X0205311Y0479857D01*
X0205347Y0479922D01*
X0205385Y0479985D01*
X0205428Y0480047D01*
X0205473Y0480106D01*
X0205521Y0480163D01*
X0205572Y0480217D01*
X0205626Y0480268D01*
X0205683Y0480316D01*
X0205742Y0480361D01*
X0205804Y0480404D01*
X0205867Y0480442D01*
X0205932Y0480478D01*
X0206000Y0480510D01*
X0206068Y0480539D01*
X0206139Y0480563D01*
X0206210Y0480585D01*
X0206282Y0480602D01*
X0206356Y0480615D01*
X0206429Y0480625D01*
X0206504Y0480631D01*
X0206578Y0480633D01*
X0206652Y0480631D01*
X0206727Y0480625D01*
X0206800Y0480615D01*
X0206874Y0480602D01*
X0206946Y0480585D01*
X0207017Y0480563D01*
X0207088Y0480539D01*
X0207156Y0480510D01*
X0207224Y0480478D01*
X0207289Y0480442D01*
X0207352Y0480404D01*
X0207414Y0480361D01*
X0207473Y0480316D01*
X0207530Y0480268D01*
X0207584Y0480217D01*
X0207635Y0480163D01*
X0207683Y0480106D01*
X0207728Y0480047D01*
X0207771Y0479985D01*
X0207809Y0479922D01*
X0207845Y0479857D01*
X0207877Y0479789D01*
X0207906Y0479721D01*
X0207930Y0479650D01*
X0207952Y0479579D01*
X0207969Y0479507D01*
X0207982Y0479433D01*
X0207992Y0479360D01*
X0207998Y0479285D01*
X0208000Y0479211D01*
X0208001Y0477434D02*
X0207999Y0477370D01*
X0207993Y0477305D01*
X0207984Y0477242D01*
X0207970Y0477179D01*
X0207953Y0477117D01*
X0207932Y0477056D01*
X0207907Y0476996D01*
X0207879Y0476938D01*
X0207847Y0476882D01*
X0207812Y0476828D01*
X0207774Y0476776D01*
X0207733Y0476726D01*
X0207688Y0476680D01*
X0207642Y0476635D01*
X0207592Y0476594D01*
X0207540Y0476556D01*
X0207486Y0476521D01*
X0207430Y0476489D01*
X0207372Y0476461D01*
X0207312Y0476436D01*
X0207251Y0476415D01*
X0207189Y0476398D01*
X0207126Y0476384D01*
X0207063Y0476375D01*
X0206998Y0476369D01*
X0206934Y0476367D01*
X0205156Y0476367D01*
X0245503Y0492880D02*
X0245503Y0496435D01*
X0245505Y0496509D01*
X0245511Y0496584D01*
X0245521Y0496657D01*
X0245534Y0496731D01*
X0245551Y0496803D01*
X0245573Y0496874D01*
X0245597Y0496945D01*
X0245626Y0497013D01*
X0245658Y0497081D01*
X0245694Y0497146D01*
X0245732Y0497209D01*
X0245775Y0497271D01*
X0245820Y0497330D01*
X0245868Y0497386D01*
X0245919Y0497441D01*
X0245973Y0497492D01*
X0246030Y0497540D01*
X0246089Y0497585D01*
X0246151Y0497628D01*
X0246214Y0497666D01*
X0246279Y0497702D01*
X0246347Y0497734D01*
X0246415Y0497763D01*
X0246486Y0497787D01*
X0246557Y0497809D01*
X0246629Y0497826D01*
X0246703Y0497839D01*
X0246776Y0497849D01*
X0246851Y0497855D01*
X0246925Y0497857D01*
X0248348Y0497857D01*
X0250852Y0497857D02*
X0250852Y0493235D01*
X0250854Y0493152D01*
X0250860Y0493069D01*
X0250870Y0492986D01*
X0250883Y0492903D01*
X0250901Y0492822D01*
X0250922Y0492741D01*
X0250947Y0492662D01*
X0250976Y0492584D01*
X0251008Y0492507D01*
X0251044Y0492432D01*
X0251083Y0492358D01*
X0251126Y0492287D01*
X0251172Y0492217D01*
X0251222Y0492150D01*
X0251274Y0492085D01*
X0251329Y0492023D01*
X0251388Y0491963D01*
X0251449Y0491906D01*
X0251512Y0491852D01*
X0251578Y0491801D01*
X0251647Y0491754D01*
X0251717Y0491709D01*
X0251790Y0491668D01*
X0251864Y0491631D01*
X0251940Y0491596D01*
X0252018Y0491566D01*
X0252096Y0491539D01*
X0252177Y0491516D01*
X0252258Y0491496D01*
X0252340Y0491481D01*
X0252422Y0491469D01*
X0252505Y0491461D01*
X0252588Y0491457D01*
X0252672Y0491457D01*
X0252755Y0491461D01*
X0252838Y0491469D01*
X0252920Y0491481D01*
X0253002Y0491496D01*
X0253083Y0491516D01*
X0253164Y0491539D01*
X0253242Y0491566D01*
X0253320Y0491596D01*
X0253396Y0491631D01*
X0253470Y0491668D01*
X0253543Y0491709D01*
X0253613Y0491754D01*
X0253682Y0491801D01*
X0253748Y0491852D01*
X0253811Y0491906D01*
X0253872Y0491963D01*
X0253931Y0492023D01*
X0253986Y0492085D01*
X0254038Y0492150D01*
X0254088Y0492217D01*
X0254134Y0492287D01*
X0254177Y0492358D01*
X0254216Y0492432D01*
X0254252Y0492507D01*
X0254284Y0492584D01*
X0254313Y0492662D01*
X0254338Y0492741D01*
X0254359Y0492822D01*
X0254377Y0492903D01*
X0254390Y0492986D01*
X0254400Y0493069D01*
X0254406Y0493152D01*
X0254408Y0493235D01*
X0254408Y0497857D01*
X0256801Y0497857D02*
X0260357Y0497857D01*
X0258579Y0497857D02*
X0258579Y0491457D01*
X0268161Y0479567D02*
X0268161Y0476367D01*
X0269761Y0476367D01*
X0269831Y0476369D01*
X0269900Y0476375D01*
X0269969Y0476385D01*
X0270038Y0476398D01*
X0270105Y0476416D01*
X0270172Y0476437D01*
X0270237Y0476462D01*
X0270301Y0476490D01*
X0270363Y0476522D01*
X0270423Y0476558D01*
X0270481Y0476596D01*
X0270537Y0476638D01*
X0270590Y0476683D01*
X0270641Y0476731D01*
X0270689Y0476782D01*
X0270734Y0476835D01*
X0270776Y0476891D01*
X0270814Y0476949D01*
X0270850Y0477009D01*
X0270882Y0477071D01*
X0270910Y0477135D01*
X0270935Y0477200D01*
X0270956Y0477267D01*
X0270974Y0477334D01*
X0270987Y0477403D01*
X0270997Y0477472D01*
X0271003Y0477541D01*
X0271005Y0477611D01*
X0271003Y0477681D01*
X0270997Y0477750D01*
X0270987Y0477819D01*
X0270974Y0477888D01*
X0270956Y0477955D01*
X0270935Y0478022D01*
X0270910Y0478087D01*
X0270882Y0478151D01*
X0270850Y0478213D01*
X0270814Y0478273D01*
X0270776Y0478331D01*
X0270734Y0478387D01*
X0270689Y0478440D01*
X0270641Y0478491D01*
X0270590Y0478539D01*
X0270537Y0478584D01*
X0270481Y0478626D01*
X0270423Y0478664D01*
X0270363Y0478700D01*
X0270301Y0478732D01*
X0270237Y0478760D01*
X0270172Y0478785D01*
X0270105Y0478806D01*
X0270038Y0478824D01*
X0269969Y0478837D01*
X0269900Y0478847D01*
X0269831Y0478853D01*
X0269761Y0478855D01*
X0269761Y0478856D02*
X0268161Y0478856D01*
X0268161Y0479567D02*
X0268163Y0479631D01*
X0268169Y0479696D01*
X0268178Y0479759D01*
X0268192Y0479822D01*
X0268209Y0479884D01*
X0268230Y0479945D01*
X0268255Y0480005D01*
X0268283Y0480063D01*
X0268315Y0480119D01*
X0268350Y0480173D01*
X0268388Y0480225D01*
X0268429Y0480275D01*
X0268474Y0480321D01*
X0268520Y0480366D01*
X0268570Y0480407D01*
X0268622Y0480445D01*
X0268676Y0480480D01*
X0268732Y0480512D01*
X0268790Y0480540D01*
X0268850Y0480565D01*
X0268911Y0480586D01*
X0268973Y0480603D01*
X0269036Y0480617D01*
X0269099Y0480626D01*
X0269164Y0480632D01*
X0269228Y0480634D01*
X0270650Y0480634D01*
X0271006Y0470134D02*
X0267806Y0470134D01*
X0268872Y0470134D02*
X0268872Y0465867D01*
X0266739Y0465867D02*
X0266739Y0469067D01*
X0266741Y0469131D01*
X0266747Y0469196D01*
X0266756Y0469259D01*
X0266770Y0469322D01*
X0266787Y0469384D01*
X0266808Y0469445D01*
X0266833Y0469505D01*
X0266861Y0469563D01*
X0266893Y0469619D01*
X0266928Y0469673D01*
X0266966Y0469725D01*
X0267007Y0469775D01*
X0267052Y0469821D01*
X0267098Y0469866D01*
X0267148Y0469907D01*
X0267200Y0469945D01*
X0267254Y0469980D01*
X0267310Y0470012D01*
X0267368Y0470040D01*
X0267428Y0470065D01*
X0267489Y0470086D01*
X0267551Y0470103D01*
X0267614Y0470117D01*
X0267677Y0470126D01*
X0267742Y0470132D01*
X0267806Y0470134D01*
X0271006Y0470134D02*
X0271006Y0465867D01*
X0264140Y0465867D02*
X0261296Y0470134D01*
X0264140Y0470134D02*
X0261296Y0465867D01*
X0248348Y0491457D02*
X0246925Y0491457D01*
X0246925Y0491458D02*
X0246851Y0491460D01*
X0246776Y0491466D01*
X0246703Y0491476D01*
X0246629Y0491489D01*
X0246557Y0491506D01*
X0246486Y0491528D01*
X0246415Y0491552D01*
X0246347Y0491581D01*
X0246279Y0491613D01*
X0246214Y0491649D01*
X0246151Y0491687D01*
X0246089Y0491730D01*
X0246030Y0491775D01*
X0245973Y0491823D01*
X0245919Y0491874D01*
X0245868Y0491928D01*
X0245820Y0491985D01*
X0245775Y0492044D01*
X0245732Y0492106D01*
X0245694Y0492169D01*
X0245658Y0492234D01*
X0245626Y0492302D01*
X0245597Y0492370D01*
X0245573Y0492441D01*
X0245551Y0492512D01*
X0245534Y0492584D01*
X0245521Y0492658D01*
X0245511Y0492731D01*
X0245505Y0492806D01*
X0245503Y0492880D01*
D12*
X0207663Y0493706D02*
X0207663Y0491772D01*
X0207661Y0491685D01*
X0207655Y0491599D01*
X0207646Y0491513D01*
X0207632Y0491427D01*
X0207615Y0491342D01*
X0207593Y0491258D01*
X0207568Y0491175D01*
X0207540Y0491093D01*
X0207507Y0491012D01*
X0207472Y0490933D01*
X0207432Y0490856D01*
X0207389Y0490781D01*
X0207343Y0490707D01*
X0207294Y0490636D01*
X0207241Y0490567D01*
X0207186Y0490500D01*
X0207127Y0490436D01*
X0207066Y0490375D01*
X0207002Y0490316D01*
X0206935Y0490261D01*
X0206866Y0490208D01*
X0206795Y0490159D01*
X0206721Y0490113D01*
X0206646Y0490070D01*
X0206569Y0490030D01*
X0206490Y0489995D01*
X0206409Y0489962D01*
X0206327Y0489934D01*
X0206244Y0489909D01*
X0206160Y0489887D01*
X0206075Y0489870D01*
X0205989Y0489856D01*
X0205903Y0489847D01*
X0205817Y0489841D01*
X0205730Y0489839D01*
X0205643Y0489841D01*
X0205557Y0489847D01*
X0205471Y0489856D01*
X0205385Y0489870D01*
X0205300Y0489887D01*
X0205216Y0489909D01*
X0205133Y0489934D01*
X0205051Y0489962D01*
X0204970Y0489995D01*
X0204891Y0490030D01*
X0204814Y0490070D01*
X0204739Y0490113D01*
X0204665Y0490159D01*
X0204594Y0490208D01*
X0204525Y0490261D01*
X0204458Y0490316D01*
X0204394Y0490375D01*
X0204333Y0490436D01*
X0204274Y0490500D01*
X0204219Y0490567D01*
X0204166Y0490636D01*
X0204117Y0490707D01*
X0204071Y0490781D01*
X0204028Y0490856D01*
X0203988Y0490933D01*
X0203953Y0491012D01*
X0203920Y0491093D01*
X0203892Y0491175D01*
X0203867Y0491258D01*
X0203845Y0491342D01*
X0203828Y0491427D01*
X0203814Y0491513D01*
X0203805Y0491599D01*
X0203799Y0491685D01*
X0203797Y0491772D01*
X0203797Y0493706D01*
X0203799Y0493793D01*
X0203805Y0493879D01*
X0203814Y0493965D01*
X0203828Y0494051D01*
X0203845Y0494136D01*
X0203867Y0494220D01*
X0203892Y0494303D01*
X0203920Y0494385D01*
X0203953Y0494466D01*
X0203988Y0494545D01*
X0204028Y0494622D01*
X0204071Y0494697D01*
X0204117Y0494771D01*
X0204166Y0494842D01*
X0204219Y0494911D01*
X0204274Y0494978D01*
X0204333Y0495042D01*
X0204394Y0495103D01*
X0204458Y0495162D01*
X0204525Y0495217D01*
X0204594Y0495270D01*
X0204665Y0495319D01*
X0204739Y0495365D01*
X0204814Y0495408D01*
X0204891Y0495448D01*
X0204970Y0495483D01*
X0205051Y0495516D01*
X0205133Y0495544D01*
X0205216Y0495569D01*
X0205300Y0495591D01*
X0205385Y0495608D01*
X0205471Y0495622D01*
X0205557Y0495631D01*
X0205643Y0495637D01*
X0205730Y0495639D01*
X0205817Y0495637D01*
X0205903Y0495631D01*
X0205989Y0495622D01*
X0206075Y0495608D01*
X0206160Y0495591D01*
X0206244Y0495569D01*
X0206327Y0495544D01*
X0206409Y0495516D01*
X0206490Y0495483D01*
X0206569Y0495448D01*
X0206646Y0495408D01*
X0206721Y0495365D01*
X0206795Y0495319D01*
X0206866Y0495270D01*
X0206935Y0495217D01*
X0207002Y0495162D01*
X0207066Y0495103D01*
X0207127Y0495042D01*
X0207186Y0494978D01*
X0207241Y0494911D01*
X0207294Y0494842D01*
X0207343Y0494771D01*
X0207389Y0494697D01*
X0207432Y0494622D01*
X0207472Y0494545D01*
X0207507Y0494466D01*
X0207540Y0494385D01*
X0207568Y0494303D01*
X0207593Y0494220D01*
X0207615Y0494136D01*
X0207632Y0494051D01*
X0207646Y0493965D01*
X0207655Y0493879D01*
X0207661Y0493793D01*
X0207663Y0493706D01*
X0200221Y0495639D02*
X0200221Y0489839D01*
X0197321Y0494672D02*
X0197321Y0495639D01*
X0200221Y0495639D01*
X0194511Y0495639D02*
X0194511Y0489839D01*
X0190645Y0489839D02*
X0190645Y0494189D01*
X0190647Y0494265D01*
X0190653Y0494341D01*
X0190663Y0494416D01*
X0190677Y0494490D01*
X0190694Y0494564D01*
X0190716Y0494637D01*
X0190741Y0494709D01*
X0190770Y0494779D01*
X0190803Y0494847D01*
X0190839Y0494914D01*
X0190879Y0494979D01*
X0190922Y0495041D01*
X0190968Y0495102D01*
X0191017Y0495159D01*
X0191070Y0495214D01*
X0191125Y0495267D01*
X0191182Y0495316D01*
X0191243Y0495362D01*
X0191305Y0495405D01*
X0191370Y0495445D01*
X0191437Y0495481D01*
X0191505Y0495514D01*
X0191575Y0495543D01*
X0191647Y0495568D01*
X0191720Y0495590D01*
X0191794Y0495607D01*
X0191868Y0495621D01*
X0191943Y0495631D01*
X0192019Y0495637D01*
X0192095Y0495639D01*
X0194511Y0495639D01*
X0186665Y0495639D02*
X0184732Y0495639D01*
X0184656Y0495637D01*
X0184580Y0495631D01*
X0184505Y0495621D01*
X0184431Y0495607D01*
X0184357Y0495590D01*
X0184284Y0495568D01*
X0184212Y0495543D01*
X0184142Y0495514D01*
X0184074Y0495481D01*
X0184007Y0495445D01*
X0183942Y0495405D01*
X0183880Y0495362D01*
X0183819Y0495316D01*
X0183762Y0495267D01*
X0183707Y0495214D01*
X0183654Y0495159D01*
X0183605Y0495102D01*
X0183559Y0495041D01*
X0183516Y0494979D01*
X0183476Y0494914D01*
X0183440Y0494847D01*
X0183407Y0494779D01*
X0183378Y0494709D01*
X0183353Y0494637D01*
X0183331Y0494564D01*
X0183314Y0494490D01*
X0183300Y0494416D01*
X0183290Y0494341D01*
X0183284Y0494265D01*
X0183282Y0494189D01*
X0183282Y0489839D01*
X0185457Y0489839D01*
X0185538Y0489841D01*
X0185618Y0489847D01*
X0185698Y0489856D01*
X0185777Y0489870D01*
X0185856Y0489887D01*
X0185934Y0489908D01*
X0186010Y0489932D01*
X0186086Y0489960D01*
X0186160Y0489992D01*
X0186232Y0490027D01*
X0186303Y0490066D01*
X0186372Y0490108D01*
X0186438Y0490153D01*
X0186503Y0490201D01*
X0186565Y0490252D01*
X0186625Y0490306D01*
X0186682Y0490363D01*
X0186736Y0490423D01*
X0186787Y0490485D01*
X0186835Y0490550D01*
X0186880Y0490616D01*
X0186922Y0490685D01*
X0186961Y0490756D01*
X0186996Y0490828D01*
X0187028Y0490902D01*
X0187056Y0490978D01*
X0187080Y0491054D01*
X0187101Y0491132D01*
X0187118Y0491211D01*
X0187132Y0491290D01*
X0187141Y0491370D01*
X0187147Y0491450D01*
X0187149Y0491531D01*
X0187147Y0491612D01*
X0187141Y0491692D01*
X0187132Y0491772D01*
X0187118Y0491851D01*
X0187101Y0491930D01*
X0187080Y0492008D01*
X0187056Y0492084D01*
X0187028Y0492160D01*
X0186996Y0492234D01*
X0186961Y0492306D01*
X0186922Y0492377D01*
X0186880Y0492446D01*
X0186835Y0492512D01*
X0186787Y0492577D01*
X0186736Y0492639D01*
X0186682Y0492699D01*
X0186625Y0492756D01*
X0186565Y0492810D01*
X0186503Y0492861D01*
X0186438Y0492909D01*
X0186372Y0492954D01*
X0186303Y0492996D01*
X0186232Y0493035D01*
X0186160Y0493070D01*
X0186086Y0493102D01*
X0186010Y0493130D01*
X0185934Y0493154D01*
X0185856Y0493175D01*
X0185777Y0493192D01*
X0185698Y0493206D01*
X0185618Y0493215D01*
X0185538Y0493221D01*
X0185457Y0493223D01*
X0185457Y0493222D02*
X0183282Y0493222D01*
X0179312Y0495639D02*
X0179312Y0489839D01*
X0176412Y0489839D02*
X0176412Y0495639D01*
X0174962Y0495639D02*
X0179312Y0495639D01*
X0174962Y0495639D02*
X0174886Y0495637D01*
X0174810Y0495631D01*
X0174735Y0495621D01*
X0174661Y0495607D01*
X0174587Y0495590D01*
X0174514Y0495568D01*
X0174442Y0495543D01*
X0174372Y0495514D01*
X0174304Y0495481D01*
X0174237Y0495445D01*
X0174172Y0495405D01*
X0174110Y0495362D01*
X0174049Y0495316D01*
X0173992Y0495267D01*
X0173937Y0495214D01*
X0173884Y0495159D01*
X0173835Y0495102D01*
X0173789Y0495041D01*
X0173746Y0494979D01*
X0173706Y0494914D01*
X0173670Y0494847D01*
X0173637Y0494779D01*
X0173608Y0494709D01*
X0173583Y0494637D01*
X0173561Y0494564D01*
X0173544Y0494490D01*
X0173530Y0494416D01*
X0173520Y0494341D01*
X0173514Y0494265D01*
X0173512Y0494189D01*
X0173512Y0489839D01*
X0169851Y0491289D02*
X0169851Y0493706D01*
X0169851Y0492739D02*
X0165985Y0492739D01*
X0165985Y0493706D01*
X0165987Y0493793D01*
X0165993Y0493879D01*
X0166002Y0493965D01*
X0166016Y0494051D01*
X0166033Y0494136D01*
X0166055Y0494220D01*
X0166080Y0494303D01*
X0166108Y0494385D01*
X0166141Y0494466D01*
X0166176Y0494545D01*
X0166216Y0494622D01*
X0166259Y0494697D01*
X0166305Y0494771D01*
X0166354Y0494842D01*
X0166407Y0494911D01*
X0166462Y0494978D01*
X0166521Y0495042D01*
X0166582Y0495103D01*
X0166646Y0495162D01*
X0166713Y0495217D01*
X0166782Y0495270D01*
X0166853Y0495319D01*
X0166927Y0495365D01*
X0167002Y0495408D01*
X0167079Y0495448D01*
X0167158Y0495483D01*
X0167239Y0495516D01*
X0167321Y0495544D01*
X0167404Y0495569D01*
X0167488Y0495591D01*
X0167573Y0495608D01*
X0167659Y0495622D01*
X0167745Y0495631D01*
X0167831Y0495637D01*
X0167918Y0495639D01*
X0168005Y0495637D01*
X0168091Y0495631D01*
X0168177Y0495622D01*
X0168263Y0495608D01*
X0168348Y0495591D01*
X0168432Y0495569D01*
X0168515Y0495544D01*
X0168597Y0495516D01*
X0168678Y0495483D01*
X0168757Y0495448D01*
X0168834Y0495408D01*
X0168909Y0495365D01*
X0168983Y0495319D01*
X0169054Y0495270D01*
X0169123Y0495217D01*
X0169190Y0495162D01*
X0169254Y0495103D01*
X0169315Y0495042D01*
X0169374Y0494978D01*
X0169429Y0494911D01*
X0169482Y0494842D01*
X0169531Y0494771D01*
X0169577Y0494697D01*
X0169620Y0494622D01*
X0169660Y0494545D01*
X0169695Y0494466D01*
X0169728Y0494385D01*
X0169756Y0494303D01*
X0169781Y0494220D01*
X0169803Y0494136D01*
X0169820Y0494051D01*
X0169834Y0493965D01*
X0169843Y0493879D01*
X0169849Y0493793D01*
X0169851Y0493706D01*
X0169851Y0491289D02*
X0169849Y0491213D01*
X0169843Y0491137D01*
X0169833Y0491062D01*
X0169819Y0490988D01*
X0169802Y0490914D01*
X0169780Y0490841D01*
X0169755Y0490769D01*
X0169726Y0490699D01*
X0169693Y0490631D01*
X0169657Y0490564D01*
X0169617Y0490499D01*
X0169574Y0490437D01*
X0169528Y0490376D01*
X0169479Y0490319D01*
X0169426Y0490264D01*
X0169371Y0490211D01*
X0169314Y0490162D01*
X0169253Y0490116D01*
X0169191Y0490073D01*
X0169126Y0490033D01*
X0169059Y0489997D01*
X0168991Y0489964D01*
X0168921Y0489935D01*
X0168849Y0489910D01*
X0168776Y0489888D01*
X0168702Y0489871D01*
X0168628Y0489857D01*
X0168553Y0489847D01*
X0168477Y0489841D01*
X0168401Y0489839D01*
X0165985Y0489839D01*
X0162454Y0489839D02*
X0162454Y0495639D01*
X0160037Y0495639D01*
X0159961Y0495637D01*
X0159885Y0495631D01*
X0159810Y0495621D01*
X0159736Y0495607D01*
X0159662Y0495590D01*
X0159589Y0495568D01*
X0159517Y0495543D01*
X0159447Y0495514D01*
X0159379Y0495481D01*
X0159312Y0495445D01*
X0159247Y0495405D01*
X0159185Y0495362D01*
X0159124Y0495316D01*
X0159067Y0495267D01*
X0159012Y0495214D01*
X0158959Y0495159D01*
X0158910Y0495102D01*
X0158864Y0495041D01*
X0158821Y0494979D01*
X0158781Y0494914D01*
X0158745Y0494847D01*
X0158712Y0494779D01*
X0158683Y0494709D01*
X0158658Y0494637D01*
X0158636Y0494564D01*
X0158619Y0494490D01*
X0158605Y0494416D01*
X0158595Y0494341D01*
X0158589Y0494265D01*
X0158587Y0494189D01*
X0158587Y0489839D01*
X0154759Y0491289D02*
X0154759Y0498539D01*
X0155726Y0495639D02*
X0152826Y0495639D01*
X0154759Y0491289D02*
X0154757Y0491213D01*
X0154751Y0491137D01*
X0154741Y0491062D01*
X0154727Y0490988D01*
X0154710Y0490914D01*
X0154688Y0490841D01*
X0154663Y0490769D01*
X0154634Y0490699D01*
X0154601Y0490631D01*
X0154565Y0490564D01*
X0154525Y0490499D01*
X0154482Y0490437D01*
X0154436Y0490376D01*
X0154387Y0490319D01*
X0154334Y0490264D01*
X0154279Y0490211D01*
X0154222Y0490162D01*
X0154161Y0490116D01*
X0154099Y0490073D01*
X0154034Y0490033D01*
X0153967Y0489997D01*
X0153899Y0489964D01*
X0153829Y0489935D01*
X0153757Y0489910D01*
X0153684Y0489888D01*
X0153610Y0489871D01*
X0153536Y0489857D01*
X0153461Y0489847D01*
X0153385Y0489841D01*
X0153309Y0489839D01*
X0152826Y0489839D01*
X0145038Y0492014D02*
X0142138Y0496364D01*
X0142139Y0496364D02*
X0142101Y0496428D01*
X0142067Y0496493D01*
X0142037Y0496561D01*
X0142010Y0496629D01*
X0141986Y0496699D01*
X0141967Y0496770D01*
X0141951Y0496843D01*
X0141938Y0496915D01*
X0141930Y0496989D01*
X0141925Y0497062D01*
X0141924Y0497136D01*
X0141927Y0497210D01*
X0141934Y0497283D01*
X0141944Y0497357D01*
X0141959Y0497429D01*
X0141977Y0497501D01*
X0141999Y0497571D01*
X0142024Y0497640D01*
X0142053Y0497708D01*
X0142086Y0497775D01*
X0142121Y0497839D01*
X0142161Y0497902D01*
X0142203Y0497962D01*
X0142248Y0498020D01*
X0142297Y0498076D01*
X0142348Y0498129D01*
X0142402Y0498180D01*
X0142458Y0498227D01*
X0142517Y0498272D01*
X0142578Y0498313D01*
X0142641Y0498352D01*
X0142706Y0498387D01*
X0142773Y0498418D01*
X0142841Y0498446D01*
X0142911Y0498471D01*
X0142982Y0498491D01*
X0143054Y0498508D01*
X0143126Y0498522D01*
X0143200Y0498531D01*
X0143273Y0498537D01*
X0143347Y0498539D01*
X0143421Y0498537D01*
X0143494Y0498531D01*
X0143568Y0498522D01*
X0143640Y0498508D01*
X0143712Y0498491D01*
X0143783Y0498471D01*
X0143853Y0498446D01*
X0143921Y0498418D01*
X0143988Y0498387D01*
X0144053Y0498352D01*
X0144116Y0498313D01*
X0144177Y0498272D01*
X0144236Y0498227D01*
X0144292Y0498180D01*
X0144346Y0498129D01*
X0144397Y0498076D01*
X0144446Y0498020D01*
X0144491Y0497962D01*
X0144533Y0497902D01*
X0144573Y0497839D01*
X0144608Y0497775D01*
X0144641Y0497708D01*
X0144670Y0497640D01*
X0144695Y0497571D01*
X0144717Y0497500D01*
X0144735Y0497429D01*
X0144750Y0497357D01*
X0144760Y0497283D01*
X0144767Y0497210D01*
X0144770Y0497136D01*
X0144769Y0497062D01*
X0144764Y0496989D01*
X0144756Y0496915D01*
X0144743Y0496843D01*
X0144727Y0496770D01*
X0144708Y0496699D01*
X0144684Y0496629D01*
X0144657Y0496561D01*
X0144627Y0496493D01*
X0144593Y0496428D01*
X0144555Y0496364D01*
X0140447Y0489839D01*
X0143105Y0490081D02*
X0139480Y0492739D01*
X0143830Y0489839D02*
X0143906Y0489841D01*
X0143982Y0489847D01*
X0144057Y0489857D01*
X0144131Y0489871D01*
X0144205Y0489888D01*
X0144278Y0489910D01*
X0144350Y0489935D01*
X0144420Y0489964D01*
X0144488Y0489997D01*
X0144555Y0490033D01*
X0144620Y0490073D01*
X0144682Y0490116D01*
X0144743Y0490162D01*
X0144800Y0490211D01*
X0144855Y0490264D01*
X0144908Y0490319D01*
X0144957Y0490376D01*
X0145003Y0490437D01*
X0145046Y0490499D01*
X0145086Y0490564D01*
X0145122Y0490631D01*
X0145155Y0490699D01*
X0145184Y0490769D01*
X0145209Y0490841D01*
X0145231Y0490914D01*
X0145248Y0490988D01*
X0145262Y0491062D01*
X0145272Y0491137D01*
X0145278Y0491213D01*
X0145280Y0491289D01*
X0145278Y0491354D01*
X0145273Y0491418D01*
X0145264Y0491482D01*
X0145252Y0491546D01*
X0145237Y0491609D01*
X0145218Y0491671D01*
X0145196Y0491732D01*
X0145171Y0491791D01*
X0145142Y0491850D01*
X0145110Y0491906D01*
X0145076Y0491961D01*
X0145038Y0492014D01*
X0143830Y0489839D02*
X0143765Y0489841D01*
X0143701Y0489846D01*
X0143637Y0489855D01*
X0143573Y0489867D01*
X0143510Y0489882D01*
X0143448Y0489901D01*
X0143387Y0489923D01*
X0143328Y0489948D01*
X0143269Y0489977D01*
X0143213Y0490009D01*
X0143158Y0490043D01*
X0143105Y0490081D01*
X0132852Y0491289D02*
X0132852Y0494189D01*
X0132850Y0494265D01*
X0132844Y0494341D01*
X0132834Y0494416D01*
X0132820Y0494490D01*
X0132803Y0494564D01*
X0132781Y0494637D01*
X0132756Y0494709D01*
X0132727Y0494779D01*
X0132694Y0494847D01*
X0132658Y0494914D01*
X0132618Y0494979D01*
X0132575Y0495041D01*
X0132529Y0495102D01*
X0132480Y0495159D01*
X0132427Y0495214D01*
X0132372Y0495267D01*
X0132315Y0495316D01*
X0132254Y0495362D01*
X0132192Y0495405D01*
X0132127Y0495445D01*
X0132060Y0495481D01*
X0131992Y0495514D01*
X0131922Y0495543D01*
X0131850Y0495568D01*
X0131777Y0495590D01*
X0131703Y0495607D01*
X0131629Y0495621D01*
X0131554Y0495631D01*
X0131478Y0495637D01*
X0131402Y0495639D01*
X0129468Y0495639D01*
X0126242Y0495639D02*
X0126242Y0489839D01*
X0129468Y0489839D02*
X0131402Y0489839D01*
X0131478Y0489841D01*
X0131554Y0489847D01*
X0131629Y0489857D01*
X0131703Y0489871D01*
X0131777Y0489888D01*
X0131850Y0489910D01*
X0131922Y0489935D01*
X0131992Y0489964D01*
X0132060Y0489997D01*
X0132127Y0490033D01*
X0132192Y0490073D01*
X0132254Y0490116D01*
X0132315Y0490162D01*
X0132372Y0490211D01*
X0132427Y0490264D01*
X0132480Y0490319D01*
X0132529Y0490376D01*
X0132575Y0490437D01*
X0132618Y0490499D01*
X0132658Y0490564D01*
X0132694Y0490631D01*
X0132727Y0490699D01*
X0132756Y0490769D01*
X0132781Y0490841D01*
X0132803Y0490914D01*
X0132820Y0490988D01*
X0132834Y0491062D01*
X0132844Y0491137D01*
X0132850Y0491213D01*
X0132852Y0491289D01*
X0126242Y0495639D02*
X0123342Y0495639D01*
X0123342Y0494672D01*
X0120790Y0495639D02*
X0120790Y0489839D01*
X0117114Y0489839D02*
X0117114Y0495639D01*
X0112764Y0495639D01*
X0112688Y0495637D01*
X0112612Y0495631D01*
X0112537Y0495621D01*
X0112463Y0495607D01*
X0112389Y0495590D01*
X0112316Y0495568D01*
X0112244Y0495543D01*
X0112174Y0495514D01*
X0112106Y0495481D01*
X0112039Y0495445D01*
X0111974Y0495405D01*
X0111912Y0495362D01*
X0111851Y0495316D01*
X0111794Y0495267D01*
X0111739Y0495214D01*
X0111686Y0495159D01*
X0111637Y0495102D01*
X0111591Y0495041D01*
X0111548Y0494979D01*
X0111508Y0494914D01*
X0111472Y0494847D01*
X0111439Y0494779D01*
X0111410Y0494709D01*
X0111385Y0494637D01*
X0111363Y0494564D01*
X0111346Y0494490D01*
X0111332Y0494416D01*
X0111322Y0494341D01*
X0111316Y0494265D01*
X0111314Y0494189D01*
X0111314Y0489839D01*
X0114214Y0489839D02*
X0114214Y0495639D01*
X0120549Y0498056D02*
X0121032Y0498056D01*
X0121032Y0498539D01*
X0120549Y0498539D01*
X0120549Y0498056D01*
X0107654Y0493706D02*
X0107654Y0491289D01*
X0107654Y0492739D02*
X0103787Y0492739D01*
X0103787Y0493706D01*
X0103789Y0493793D01*
X0103795Y0493879D01*
X0103804Y0493965D01*
X0103818Y0494051D01*
X0103835Y0494136D01*
X0103857Y0494220D01*
X0103882Y0494303D01*
X0103910Y0494385D01*
X0103943Y0494466D01*
X0103978Y0494545D01*
X0104018Y0494622D01*
X0104061Y0494697D01*
X0104107Y0494771D01*
X0104156Y0494842D01*
X0104209Y0494911D01*
X0104264Y0494978D01*
X0104323Y0495042D01*
X0104384Y0495103D01*
X0104448Y0495162D01*
X0104515Y0495217D01*
X0104584Y0495270D01*
X0104655Y0495319D01*
X0104729Y0495365D01*
X0104804Y0495408D01*
X0104881Y0495448D01*
X0104960Y0495483D01*
X0105041Y0495516D01*
X0105123Y0495544D01*
X0105206Y0495569D01*
X0105290Y0495591D01*
X0105375Y0495608D01*
X0105461Y0495622D01*
X0105547Y0495631D01*
X0105633Y0495637D01*
X0105720Y0495639D01*
X0105807Y0495637D01*
X0105893Y0495631D01*
X0105979Y0495622D01*
X0106065Y0495608D01*
X0106150Y0495591D01*
X0106234Y0495569D01*
X0106317Y0495544D01*
X0106399Y0495516D01*
X0106480Y0495483D01*
X0106559Y0495448D01*
X0106636Y0495408D01*
X0106711Y0495365D01*
X0106785Y0495319D01*
X0106856Y0495270D01*
X0106925Y0495217D01*
X0106992Y0495162D01*
X0107056Y0495103D01*
X0107117Y0495042D01*
X0107176Y0494978D01*
X0107231Y0494911D01*
X0107284Y0494842D01*
X0107333Y0494771D01*
X0107379Y0494697D01*
X0107422Y0494622D01*
X0107462Y0494545D01*
X0107497Y0494466D01*
X0107530Y0494385D01*
X0107558Y0494303D01*
X0107583Y0494220D01*
X0107605Y0494136D01*
X0107622Y0494051D01*
X0107636Y0493965D01*
X0107645Y0493879D01*
X0107651Y0493793D01*
X0107653Y0493706D01*
X0107654Y0491289D02*
X0107652Y0491213D01*
X0107646Y0491137D01*
X0107636Y0491062D01*
X0107622Y0490988D01*
X0107605Y0490914D01*
X0107583Y0490841D01*
X0107558Y0490769D01*
X0107529Y0490699D01*
X0107496Y0490631D01*
X0107460Y0490564D01*
X0107420Y0490499D01*
X0107377Y0490437D01*
X0107331Y0490376D01*
X0107282Y0490319D01*
X0107229Y0490264D01*
X0107174Y0490211D01*
X0107117Y0490162D01*
X0107056Y0490116D01*
X0106994Y0490073D01*
X0106929Y0490033D01*
X0106862Y0489997D01*
X0106794Y0489964D01*
X0106724Y0489935D01*
X0106652Y0489910D01*
X0106579Y0489888D01*
X0106505Y0489871D01*
X0106431Y0489857D01*
X0106356Y0489847D01*
X0106280Y0489841D01*
X0106204Y0489839D01*
X0103787Y0489839D01*
X0090940Y0491772D02*
X0090940Y0493706D01*
X0090939Y0493706D02*
X0090937Y0493793D01*
X0090931Y0493879D01*
X0090922Y0493965D01*
X0090908Y0494051D01*
X0090891Y0494136D01*
X0090869Y0494220D01*
X0090844Y0494303D01*
X0090816Y0494385D01*
X0090783Y0494466D01*
X0090748Y0494545D01*
X0090708Y0494622D01*
X0090665Y0494697D01*
X0090619Y0494771D01*
X0090570Y0494842D01*
X0090517Y0494911D01*
X0090462Y0494978D01*
X0090403Y0495042D01*
X0090342Y0495103D01*
X0090278Y0495162D01*
X0090211Y0495217D01*
X0090142Y0495270D01*
X0090071Y0495319D01*
X0089997Y0495365D01*
X0089922Y0495408D01*
X0089845Y0495448D01*
X0089766Y0495483D01*
X0089685Y0495516D01*
X0089603Y0495544D01*
X0089520Y0495569D01*
X0089436Y0495591D01*
X0089351Y0495608D01*
X0089265Y0495622D01*
X0089179Y0495631D01*
X0089093Y0495637D01*
X0089006Y0495639D01*
X0088919Y0495637D01*
X0088833Y0495631D01*
X0088747Y0495622D01*
X0088661Y0495608D01*
X0088576Y0495591D01*
X0088492Y0495569D01*
X0088409Y0495544D01*
X0088327Y0495516D01*
X0088246Y0495483D01*
X0088167Y0495448D01*
X0088090Y0495408D01*
X0088015Y0495365D01*
X0087941Y0495319D01*
X0087870Y0495270D01*
X0087801Y0495217D01*
X0087734Y0495162D01*
X0087670Y0495103D01*
X0087609Y0495042D01*
X0087550Y0494978D01*
X0087495Y0494911D01*
X0087442Y0494842D01*
X0087393Y0494771D01*
X0087347Y0494697D01*
X0087304Y0494622D01*
X0087264Y0494545D01*
X0087229Y0494466D01*
X0087196Y0494385D01*
X0087168Y0494303D01*
X0087143Y0494220D01*
X0087121Y0494136D01*
X0087104Y0494051D01*
X0087090Y0493965D01*
X0087081Y0493879D01*
X0087075Y0493793D01*
X0087073Y0493706D01*
X0087073Y0491772D01*
X0087075Y0491685D01*
X0087081Y0491599D01*
X0087090Y0491513D01*
X0087104Y0491427D01*
X0087121Y0491342D01*
X0087143Y0491258D01*
X0087168Y0491175D01*
X0087196Y0491093D01*
X0087229Y0491012D01*
X0087264Y0490933D01*
X0087304Y0490856D01*
X0087347Y0490781D01*
X0087393Y0490707D01*
X0087442Y0490636D01*
X0087495Y0490567D01*
X0087550Y0490500D01*
X0087609Y0490436D01*
X0087670Y0490375D01*
X0087734Y0490316D01*
X0087801Y0490261D01*
X0087870Y0490208D01*
X0087941Y0490159D01*
X0088015Y0490113D01*
X0088090Y0490070D01*
X0088167Y0490030D01*
X0088246Y0489995D01*
X0088327Y0489962D01*
X0088409Y0489934D01*
X0088492Y0489909D01*
X0088576Y0489887D01*
X0088661Y0489870D01*
X0088747Y0489856D01*
X0088833Y0489847D01*
X0088919Y0489841D01*
X0089006Y0489839D01*
X0089093Y0489841D01*
X0089179Y0489847D01*
X0089265Y0489856D01*
X0089351Y0489870D01*
X0089436Y0489887D01*
X0089520Y0489909D01*
X0089603Y0489934D01*
X0089685Y0489962D01*
X0089766Y0489995D01*
X0089845Y0490030D01*
X0089922Y0490070D01*
X0089997Y0490113D01*
X0090071Y0490159D01*
X0090142Y0490208D01*
X0090211Y0490261D01*
X0090278Y0490316D01*
X0090342Y0490375D01*
X0090403Y0490436D01*
X0090462Y0490500D01*
X0090517Y0490567D01*
X0090570Y0490636D01*
X0090619Y0490707D01*
X0090665Y0490781D01*
X0090708Y0490856D01*
X0090748Y0490933D01*
X0090783Y0491012D01*
X0090816Y0491093D01*
X0090844Y0491175D01*
X0090869Y0491258D01*
X0090891Y0491342D01*
X0090908Y0491427D01*
X0090922Y0491513D01*
X0090931Y0491599D01*
X0090937Y0491685D01*
X0090939Y0491772D01*
X0094050Y0488872D02*
X0094176Y0489027D01*
X0094298Y0489184D01*
X0094416Y0489344D01*
X0094531Y0489506D01*
X0094642Y0489672D01*
X0094748Y0489840D01*
X0094851Y0490011D01*
X0094949Y0490184D01*
X0095044Y0490359D01*
X0095134Y0490537D01*
X0095219Y0490716D01*
X0095301Y0490898D01*
X0095378Y0491082D01*
X0095450Y0491267D01*
X0095518Y0491454D01*
X0095582Y0491643D01*
X0095641Y0491833D01*
X0095695Y0492024D01*
X0095745Y0492217D01*
X0095790Y0492411D01*
X0095830Y0492606D01*
X0095866Y0492802D01*
X0095897Y0492999D01*
X0095923Y0493196D01*
X0095945Y0493394D01*
X0095961Y0493592D01*
X0095973Y0493791D01*
X0095981Y0493990D01*
X0095983Y0494189D01*
X0095981Y0494388D01*
X0095973Y0494587D01*
X0095961Y0494786D01*
X0095945Y0494984D01*
X0095923Y0495182D01*
X0095897Y0495379D01*
X0095866Y0495576D01*
X0095830Y0495772D01*
X0095790Y0495967D01*
X0095745Y0496161D01*
X0095695Y0496354D01*
X0095641Y0496545D01*
X0095582Y0496735D01*
X0095518Y0496924D01*
X0095450Y0497111D01*
X0095378Y0497296D01*
X0095301Y0497480D01*
X0095219Y0497662D01*
X0095134Y0497841D01*
X0095044Y0498019D01*
X0094949Y0498194D01*
X0094851Y0498367D01*
X0094748Y0498538D01*
X0094642Y0498706D01*
X0094531Y0498872D01*
X0094416Y0499034D01*
X0094298Y0499194D01*
X0094176Y0499351D01*
X0094050Y0499506D01*
X0084090Y0488872D02*
X0080223Y0488872D01*
X0077191Y0491772D02*
X0077191Y0496606D01*
X0077189Y0496693D01*
X0077183Y0496779D01*
X0077174Y0496865D01*
X0077160Y0496951D01*
X0077143Y0497036D01*
X0077121Y0497120D01*
X0077096Y0497203D01*
X0077068Y0497285D01*
X0077035Y0497366D01*
X0077000Y0497445D01*
X0076960Y0497522D01*
X0076917Y0497597D01*
X0076871Y0497671D01*
X0076822Y0497742D01*
X0076769Y0497811D01*
X0076714Y0497878D01*
X0076655Y0497942D01*
X0076594Y0498003D01*
X0076530Y0498062D01*
X0076463Y0498117D01*
X0076394Y0498170D01*
X0076323Y0498219D01*
X0076249Y0498265D01*
X0076174Y0498308D01*
X0076097Y0498348D01*
X0076018Y0498383D01*
X0075937Y0498416D01*
X0075855Y0498444D01*
X0075772Y0498469D01*
X0075688Y0498491D01*
X0075603Y0498508D01*
X0075517Y0498522D01*
X0075431Y0498531D01*
X0075345Y0498537D01*
X0075258Y0498539D01*
X0073325Y0498539D01*
X0070536Y0499506D02*
X0070410Y0499352D01*
X0070288Y0499194D01*
X0070170Y0499034D01*
X0070055Y0498872D01*
X0069944Y0498706D01*
X0069838Y0498538D01*
X0069735Y0498367D01*
X0069637Y0498194D01*
X0069542Y0498019D01*
X0069452Y0497841D01*
X0069367Y0497662D01*
X0069285Y0497480D01*
X0069208Y0497296D01*
X0069136Y0497111D01*
X0069068Y0496924D01*
X0069004Y0496735D01*
X0068945Y0496545D01*
X0068891Y0496354D01*
X0068841Y0496161D01*
X0068796Y0495967D01*
X0068756Y0495772D01*
X0068720Y0495576D01*
X0068689Y0495379D01*
X0068663Y0495182D01*
X0068641Y0494984D01*
X0068625Y0494786D01*
X0068613Y0494587D01*
X0068605Y0494388D01*
X0068603Y0494189D01*
X0073325Y0489839D02*
X0075258Y0489839D01*
X0075345Y0489841D01*
X0075431Y0489847D01*
X0075517Y0489856D01*
X0075603Y0489870D01*
X0075688Y0489887D01*
X0075772Y0489909D01*
X0075855Y0489934D01*
X0075937Y0489962D01*
X0076018Y0489995D01*
X0076097Y0490030D01*
X0076174Y0490070D01*
X0076249Y0490113D01*
X0076323Y0490159D01*
X0076394Y0490208D01*
X0076463Y0490261D01*
X0076530Y0490316D01*
X0076594Y0490375D01*
X0076655Y0490436D01*
X0076714Y0490500D01*
X0076769Y0490567D01*
X0076822Y0490636D01*
X0076871Y0490707D01*
X0076917Y0490781D01*
X0076960Y0490856D01*
X0077000Y0490933D01*
X0077035Y0491012D01*
X0077068Y0491093D01*
X0077096Y0491175D01*
X0077121Y0491258D01*
X0077143Y0491342D01*
X0077160Y0491427D01*
X0077174Y0491513D01*
X0077183Y0491599D01*
X0077189Y0491685D01*
X0077191Y0491772D01*
X0070536Y0488872D02*
X0070410Y0489026D01*
X0070288Y0489184D01*
X0070170Y0489344D01*
X0070055Y0489506D01*
X0069944Y0489672D01*
X0069838Y0489840D01*
X0069735Y0490011D01*
X0069637Y0490184D01*
X0069542Y0490359D01*
X0069452Y0490537D01*
X0069367Y0490716D01*
X0069285Y0490898D01*
X0069208Y0491082D01*
X0069136Y0491267D01*
X0069068Y0491454D01*
X0069004Y0491643D01*
X0068945Y0491833D01*
X0068891Y0492024D01*
X0068841Y0492217D01*
X0068796Y0492411D01*
X0068756Y0492606D01*
X0068720Y0492802D01*
X0068689Y0492999D01*
X0068663Y0493196D01*
X0068641Y0493394D01*
X0068625Y0493592D01*
X0068613Y0493791D01*
X0068605Y0493990D01*
X0068603Y0494189D01*
D13*
X0139384Y0047596D02*
X0143184Y0047596D01*
X0143984Y0043496D01*
X0145084Y0043196D01*
X0145884Y0042796D01*
X0147084Y0042196D01*
X0150484Y0044596D01*
X0151184Y0043996D01*
X0151884Y0043296D01*
X0152584Y0042596D01*
X0153184Y0041896D01*
X0150884Y0038496D01*
X0151384Y0037596D01*
X0151784Y0036696D01*
X0152084Y0035896D01*
X0152384Y0035096D01*
X0156384Y0034496D01*
X0156484Y0033296D01*
X0156484Y0030696D01*
X0152284Y0029996D01*
X0152084Y0028996D01*
X0151684Y0027996D01*
X0151284Y0027096D01*
X0150884Y0026296D01*
X0153284Y0023096D01*
X0152684Y0022396D01*
X0151984Y0021696D01*
X0151284Y0020996D01*
X0150684Y0020496D01*
X0147284Y0022796D01*
X0146584Y0022396D01*
X0145884Y0022096D01*
X0145284Y0021796D01*
X0142884Y0028596D01*
X0143588Y0028932D01*
X0144217Y0029393D01*
X0144749Y0029963D01*
X0145166Y0030622D01*
X0145453Y0031347D01*
X0145601Y0032112D01*
X0145604Y0032892D01*
X0145462Y0033659D01*
X0145180Y0034386D01*
X0144768Y0035048D01*
X0144240Y0035622D01*
X0143615Y0036087D01*
X0142914Y0036429D01*
X0142162Y0036634D01*
X0141384Y0036696D01*
X0140594Y0036671D01*
X0139822Y0036498D01*
X0139096Y0036183D01*
X0138442Y0035738D01*
X0137884Y0035178D01*
X0137440Y0034524D01*
X0137127Y0033797D01*
X0136955Y0033025D01*
X0136931Y0032235D01*
X0137056Y0031454D01*
X0137325Y0030710D01*
X0137729Y0030030D01*
X0138253Y0029437D01*
X0138879Y0028954D01*
X0139584Y0028596D01*
X0136984Y0021896D01*
X0136284Y0022296D01*
X0135584Y0022696D01*
X0134884Y0023096D01*
X0131584Y0020696D01*
X0130884Y0021396D01*
X0130284Y0021996D01*
X0129684Y0022696D01*
X0129084Y0023396D01*
X0131484Y0026996D01*
X0130984Y0027796D01*
X0130684Y0028696D01*
X0130384Y0029596D01*
X0130184Y0030296D01*
X0126184Y0030996D01*
X0126084Y0032096D01*
X0126084Y0032996D01*
X0126184Y0033796D01*
X0126284Y0034796D01*
X0130384Y0035496D01*
X0130784Y0036596D01*
X0130984Y0037196D01*
X0131384Y0037896D01*
X0131884Y0038696D01*
X0129384Y0041896D01*
X0129984Y0042596D01*
X0130684Y0043296D01*
X0131484Y0043996D01*
X0132284Y0044696D01*
X0135684Y0042296D01*
X0136584Y0042696D01*
X0137384Y0043096D01*
X0138084Y0043296D01*
X0138784Y0043496D01*
X0139384Y0047596D01*
X0139363Y0047452D02*
X0143212Y0047452D01*
X0143251Y0047253D02*
X0139334Y0047253D01*
X0139305Y0047055D02*
X0143290Y0047055D01*
X0143329Y0046856D02*
X0139276Y0046856D01*
X0139247Y0046658D02*
X0143367Y0046658D01*
X0143406Y0046459D02*
X0139218Y0046459D01*
X0139189Y0046261D02*
X0143445Y0046261D01*
X0143484Y0046062D02*
X0139160Y0046062D01*
X0139131Y0045864D02*
X0143522Y0045864D01*
X0143561Y0045665D02*
X0139102Y0045665D01*
X0139073Y0045467D02*
X0143600Y0045467D01*
X0143638Y0045268D02*
X0139044Y0045268D01*
X0139015Y0045070D02*
X0143677Y0045070D01*
X0143716Y0044871D02*
X0138985Y0044871D01*
X0138956Y0044672D02*
X0143755Y0044672D01*
X0143793Y0044474D02*
X0138927Y0044474D01*
X0138898Y0044275D02*
X0143832Y0044275D01*
X0143871Y0044077D02*
X0138869Y0044077D01*
X0138840Y0043878D02*
X0143910Y0043878D01*
X0143948Y0043680D02*
X0138811Y0043680D01*
X0138733Y0043481D02*
X0144038Y0043481D01*
X0144766Y0043283D02*
X0138038Y0043283D01*
X0137361Y0043084D02*
X0145308Y0043084D01*
X0145705Y0042886D02*
X0136964Y0042886D01*
X0136565Y0042687D02*
X0146102Y0042687D01*
X0146499Y0042489D02*
X0136118Y0042489D01*
X0135411Y0042489D02*
X0129892Y0042489D01*
X0129722Y0042290D02*
X0146896Y0042290D01*
X0147218Y0042290D02*
X0152846Y0042290D01*
X0153016Y0042092D02*
X0129552Y0042092D01*
X0129386Y0041893D02*
X0153182Y0041893D01*
X0153048Y0041695D02*
X0129541Y0041695D01*
X0129697Y0041496D02*
X0152914Y0041496D01*
X0152780Y0041298D02*
X0129852Y0041298D01*
X0130007Y0041099D02*
X0152645Y0041099D01*
X0152511Y0040901D02*
X0130162Y0040901D01*
X0130317Y0040702D02*
X0152377Y0040702D01*
X0152242Y0040504D02*
X0130472Y0040504D01*
X0130627Y0040305D02*
X0152108Y0040305D01*
X0151974Y0040107D02*
X0130782Y0040107D01*
X0130937Y0039908D02*
X0151840Y0039908D01*
X0151705Y0039710D02*
X0131092Y0039710D01*
X0131247Y0039511D02*
X0151571Y0039511D01*
X0151437Y0039313D02*
X0131403Y0039313D01*
X0131558Y0039114D02*
X0151302Y0039114D01*
X0151168Y0038916D02*
X0131713Y0038916D01*
X0131868Y0038717D02*
X0151034Y0038717D01*
X0150900Y0038519D02*
X0131773Y0038519D01*
X0131649Y0038320D02*
X0150982Y0038320D01*
X0151092Y0038122D02*
X0131525Y0038122D01*
X0131401Y0037923D02*
X0151203Y0037923D01*
X0151313Y0037725D02*
X0131286Y0037725D01*
X0131173Y0037526D02*
X0151415Y0037526D01*
X0151504Y0037328D02*
X0131059Y0037328D01*
X0130962Y0037129D02*
X0151592Y0037129D01*
X0151680Y0036931D02*
X0130896Y0036931D01*
X0130830Y0036732D02*
X0151768Y0036732D01*
X0151845Y0036534D02*
X0142530Y0036534D01*
X0143106Y0036335D02*
X0151920Y0036335D01*
X0151994Y0036137D02*
X0143514Y0036137D01*
X0143815Y0035938D02*
X0152069Y0035938D01*
X0152143Y0035739D02*
X0144082Y0035739D01*
X0144314Y0035541D02*
X0152217Y0035541D01*
X0152292Y0035342D02*
X0144497Y0035342D01*
X0144680Y0035144D02*
X0152366Y0035144D01*
X0153388Y0034945D02*
X0144832Y0034945D01*
X0144955Y0034747D02*
X0154712Y0034747D01*
X0156035Y0034548D02*
X0145079Y0034548D01*
X0145194Y0034350D02*
X0156396Y0034350D01*
X0156413Y0034151D02*
X0145271Y0034151D01*
X0145348Y0033953D02*
X0156430Y0033953D01*
X0156446Y0033754D02*
X0145425Y0033754D01*
X0145481Y0033556D02*
X0156463Y0033556D01*
X0156479Y0033357D02*
X0145518Y0033357D01*
X0145555Y0033159D02*
X0156484Y0033159D01*
X0156484Y0032960D02*
X0145592Y0032960D01*
X0145604Y0032762D02*
X0156484Y0032762D01*
X0156484Y0032563D02*
X0145603Y0032563D01*
X0145602Y0032365D02*
X0156484Y0032365D01*
X0156484Y0032166D02*
X0145601Y0032166D01*
X0145573Y0031968D02*
X0156484Y0031968D01*
X0156484Y0031769D02*
X0145535Y0031769D01*
X0145497Y0031571D02*
X0156484Y0031571D01*
X0156484Y0031372D02*
X0145458Y0031372D01*
X0145385Y0031174D02*
X0156484Y0031174D01*
X0156484Y0030975D02*
X0145306Y0030975D01*
X0145227Y0030777D02*
X0156484Y0030777D01*
X0155777Y0030578D02*
X0145138Y0030578D01*
X0145013Y0030380D02*
X0154586Y0030380D01*
X0153395Y0030181D02*
X0144887Y0030181D01*
X0144761Y0029983D02*
X0152282Y0029983D01*
X0152242Y0029784D02*
X0144582Y0029784D01*
X0144396Y0029586D02*
X0152202Y0029586D01*
X0152162Y0029387D02*
X0144208Y0029387D01*
X0143938Y0029189D02*
X0152123Y0029189D01*
X0152082Y0028990D02*
X0143667Y0028990D01*
X0143293Y0028792D02*
X0152002Y0028792D01*
X0151923Y0028593D02*
X0142885Y0028593D01*
X0142955Y0028395D02*
X0151844Y0028395D01*
X0151764Y0028196D02*
X0143025Y0028196D01*
X0143095Y0027998D02*
X0151685Y0027998D01*
X0151597Y0027799D02*
X0143166Y0027799D01*
X0143236Y0027601D02*
X0151508Y0027601D01*
X0151420Y0027402D02*
X0143306Y0027402D01*
X0143376Y0027203D02*
X0151332Y0027203D01*
X0151239Y0027005D02*
X0143446Y0027005D01*
X0143516Y0026806D02*
X0151139Y0026806D01*
X0151040Y0026608D02*
X0143586Y0026608D01*
X0143656Y0026409D02*
X0150941Y0026409D01*
X0150948Y0026211D02*
X0143726Y0026211D01*
X0143796Y0026012D02*
X0151097Y0026012D01*
X0151246Y0025814D02*
X0143866Y0025814D01*
X0143936Y0025615D02*
X0151395Y0025615D01*
X0151544Y0025417D02*
X0144006Y0025417D01*
X0144076Y0025218D02*
X0151693Y0025218D01*
X0151841Y0025020D02*
X0144146Y0025020D01*
X0144217Y0024821D02*
X0151990Y0024821D01*
X0152139Y0024623D02*
X0144287Y0024623D01*
X0144357Y0024424D02*
X0152288Y0024424D01*
X0152437Y0024226D02*
X0144427Y0024226D01*
X0144497Y0024027D02*
X0152586Y0024027D01*
X0152735Y0023829D02*
X0144567Y0023829D01*
X0144637Y0023630D02*
X0152884Y0023630D01*
X0153032Y0023432D02*
X0144707Y0023432D01*
X0144777Y0023233D02*
X0153181Y0023233D01*
X0153232Y0023035D02*
X0144847Y0023035D01*
X0144917Y0022836D02*
X0153062Y0022836D01*
X0152891Y0022638D02*
X0147518Y0022638D01*
X0147812Y0022439D02*
X0152721Y0022439D01*
X0152529Y0022241D02*
X0148105Y0022241D01*
X0148399Y0022042D02*
X0152330Y0022042D01*
X0152132Y0021844D02*
X0148692Y0021844D01*
X0148986Y0021645D02*
X0151933Y0021645D01*
X0151735Y0021447D02*
X0149279Y0021447D01*
X0149572Y0021248D02*
X0151536Y0021248D01*
X0151338Y0021050D02*
X0149866Y0021050D01*
X0150159Y0020851D02*
X0151110Y0020851D01*
X0150872Y0020653D02*
X0150453Y0020653D01*
X0147007Y0022638D02*
X0144987Y0022638D01*
X0145057Y0022439D02*
X0146660Y0022439D01*
X0146222Y0022241D02*
X0145127Y0022241D01*
X0145197Y0022042D02*
X0145777Y0022042D01*
X0145380Y0021844D02*
X0145267Y0021844D01*
X0138813Y0026608D02*
X0131226Y0026608D01*
X0131358Y0026806D02*
X0138890Y0026806D01*
X0138967Y0027005D02*
X0131479Y0027005D01*
X0131355Y0027203D02*
X0139044Y0027203D01*
X0139121Y0027402D02*
X0131231Y0027402D01*
X0131106Y0027601D02*
X0139198Y0027601D01*
X0139275Y0027799D02*
X0130983Y0027799D01*
X0130917Y0027998D02*
X0139352Y0027998D01*
X0139429Y0028196D02*
X0130851Y0028196D01*
X0130785Y0028395D02*
X0139506Y0028395D01*
X0139583Y0028593D02*
X0130719Y0028593D01*
X0130652Y0028792D02*
X0139199Y0028792D01*
X0138832Y0028990D02*
X0130586Y0028990D01*
X0130520Y0029189D02*
X0138575Y0029189D01*
X0138318Y0029387D02*
X0130454Y0029387D01*
X0130388Y0029586D02*
X0138122Y0029586D01*
X0137946Y0029784D02*
X0130331Y0029784D01*
X0130274Y0029983D02*
X0137770Y0029983D01*
X0137639Y0030181D02*
X0130217Y0030181D01*
X0129706Y0030380D02*
X0137521Y0030380D01*
X0137403Y0030578D02*
X0128572Y0030578D01*
X0127438Y0030777D02*
X0137301Y0030777D01*
X0137229Y0030975D02*
X0126303Y0030975D01*
X0126168Y0031174D02*
X0137157Y0031174D01*
X0137085Y0031372D02*
X0126150Y0031372D01*
X0126132Y0031571D02*
X0137037Y0031571D01*
X0137006Y0031769D02*
X0126114Y0031769D01*
X0126096Y0031968D02*
X0136974Y0031968D01*
X0136942Y0032166D02*
X0126084Y0032166D01*
X0126084Y0032365D02*
X0136935Y0032365D01*
X0136941Y0032563D02*
X0126084Y0032563D01*
X0126084Y0032762D02*
X0136947Y0032762D01*
X0136953Y0032960D02*
X0126084Y0032960D01*
X0126105Y0033159D02*
X0136985Y0033159D01*
X0137029Y0033357D02*
X0126129Y0033357D01*
X0126154Y0033556D02*
X0137073Y0033556D01*
X0137117Y0033754D02*
X0126179Y0033754D01*
X0126200Y0033953D02*
X0137194Y0033953D01*
X0137279Y0034151D02*
X0126220Y0034151D01*
X0126240Y0034350D02*
X0137365Y0034350D01*
X0137457Y0034548D02*
X0126259Y0034548D01*
X0126279Y0034747D02*
X0137591Y0034747D01*
X0137726Y0034945D02*
X0127159Y0034945D01*
X0128322Y0035144D02*
X0137860Y0035144D01*
X0138048Y0035342D02*
X0129485Y0035342D01*
X0130401Y0035541D02*
X0138246Y0035541D01*
X0138445Y0035739D02*
X0130473Y0035739D01*
X0130545Y0035938D02*
X0138736Y0035938D01*
X0139028Y0036137D02*
X0130617Y0036137D01*
X0130689Y0036335D02*
X0139447Y0036335D01*
X0139981Y0036534D02*
X0130762Y0036534D01*
X0130076Y0042687D02*
X0135130Y0042687D01*
X0134849Y0042886D02*
X0130274Y0042886D01*
X0130473Y0043084D02*
X0134567Y0043084D01*
X0134286Y0043283D02*
X0130671Y0043283D01*
X0130896Y0043481D02*
X0134005Y0043481D01*
X0133724Y0043680D02*
X0131123Y0043680D01*
X0131350Y0043878D02*
X0133443Y0043878D01*
X0133161Y0044077D02*
X0131577Y0044077D01*
X0131804Y0044275D02*
X0132880Y0044275D01*
X0132599Y0044474D02*
X0132030Y0044474D01*
X0132257Y0044672D02*
X0132318Y0044672D01*
X0131093Y0026409D02*
X0138736Y0026409D01*
X0138659Y0026211D02*
X0130961Y0026211D01*
X0130828Y0026012D02*
X0138582Y0026012D01*
X0138505Y0025814D02*
X0130696Y0025814D01*
X0130564Y0025615D02*
X0138428Y0025615D01*
X0138351Y0025417D02*
X0130431Y0025417D01*
X0130299Y0025218D02*
X0138274Y0025218D01*
X0138196Y0025020D02*
X0130167Y0025020D01*
X0130034Y0024821D02*
X0138119Y0024821D01*
X0138042Y0024623D02*
X0129902Y0024623D01*
X0129770Y0024424D02*
X0137965Y0024424D01*
X0137888Y0024226D02*
X0129637Y0024226D01*
X0129505Y0024027D02*
X0137811Y0024027D01*
X0137734Y0023829D02*
X0129373Y0023829D01*
X0129240Y0023630D02*
X0137657Y0023630D01*
X0137580Y0023432D02*
X0129108Y0023432D01*
X0129224Y0023233D02*
X0137503Y0023233D01*
X0137426Y0023035D02*
X0134992Y0023035D01*
X0134800Y0023035D02*
X0129394Y0023035D01*
X0129564Y0022836D02*
X0134527Y0022836D01*
X0134254Y0022638D02*
X0129734Y0022638D01*
X0129904Y0022439D02*
X0133981Y0022439D01*
X0133708Y0022241D02*
X0130075Y0022241D01*
X0130245Y0022042D02*
X0133435Y0022042D01*
X0133162Y0021844D02*
X0130437Y0021844D01*
X0130635Y0021645D02*
X0132889Y0021645D01*
X0132616Y0021447D02*
X0130834Y0021447D01*
X0131032Y0021248D02*
X0132343Y0021248D01*
X0132070Y0021050D02*
X0131231Y0021050D01*
X0131429Y0020851D02*
X0131797Y0020851D01*
X0135339Y0022836D02*
X0137349Y0022836D01*
X0137272Y0022638D02*
X0135686Y0022638D01*
X0136034Y0022439D02*
X0137195Y0022439D01*
X0137118Y0022241D02*
X0136381Y0022241D01*
X0136729Y0022042D02*
X0137041Y0022042D01*
X0147499Y0042489D02*
X0152676Y0042489D01*
X0152493Y0042687D02*
X0147780Y0042687D01*
X0148062Y0042886D02*
X0152294Y0042886D01*
X0152096Y0043084D02*
X0148343Y0043084D01*
X0148624Y0043283D02*
X0151897Y0043283D01*
X0151699Y0043481D02*
X0148905Y0043481D01*
X0149186Y0043680D02*
X0151500Y0043680D01*
X0151302Y0043878D02*
X0149468Y0043878D01*
X0149749Y0044077D02*
X0151090Y0044077D01*
X0150858Y0044275D02*
X0150030Y0044275D01*
X0150311Y0044474D02*
X0150627Y0044474D01*
D14*
X0149779Y0016363D02*
X0148501Y0016363D01*
X0148446Y0016361D01*
X0148392Y0016355D01*
X0148338Y0016345D01*
X0148285Y0016332D01*
X0148233Y0016315D01*
X0148182Y0016294D01*
X0148133Y0016269D01*
X0148086Y0016241D01*
X0148041Y0016210D01*
X0147999Y0016176D01*
X0147959Y0016138D01*
X0147921Y0016098D01*
X0147887Y0016056D01*
X0147856Y0016011D01*
X0147828Y0015964D01*
X0147803Y0015915D01*
X0147782Y0015864D01*
X0147765Y0015812D01*
X0147752Y0015759D01*
X0147742Y0015705D01*
X0147736Y0015651D01*
X0147734Y0015596D01*
X0147734Y0013296D01*
X0149779Y0013296D02*
X0149779Y0016363D01*
X0151784Y0015341D02*
X0151784Y0014829D01*
X0153829Y0014829D01*
X0153829Y0015341D02*
X0153829Y0014063D01*
X0153827Y0014008D01*
X0153821Y0013954D01*
X0153811Y0013900D01*
X0153798Y0013847D01*
X0153781Y0013795D01*
X0153760Y0013744D01*
X0153735Y0013695D01*
X0153707Y0013648D01*
X0153676Y0013603D01*
X0153642Y0013561D01*
X0153604Y0013521D01*
X0153564Y0013483D01*
X0153522Y0013449D01*
X0153477Y0013418D01*
X0153430Y0013390D01*
X0153381Y0013365D01*
X0153330Y0013344D01*
X0153278Y0013327D01*
X0153225Y0013314D01*
X0153171Y0013304D01*
X0153117Y0013298D01*
X0153062Y0013296D01*
X0151784Y0013296D01*
X0151784Y0015341D02*
X0151786Y0015404D01*
X0151792Y0015467D01*
X0151801Y0015529D01*
X0151815Y0015590D01*
X0151832Y0015651D01*
X0151853Y0015710D01*
X0151878Y0015768D01*
X0151906Y0015825D01*
X0151937Y0015879D01*
X0151972Y0015931D01*
X0152010Y0015982D01*
X0152051Y0016030D01*
X0152095Y0016075D01*
X0152141Y0016117D01*
X0152190Y0016157D01*
X0152241Y0016193D01*
X0152295Y0016226D01*
X0152350Y0016256D01*
X0152408Y0016282D01*
X0152466Y0016305D01*
X0152526Y0016324D01*
X0152587Y0016339D01*
X0152649Y0016351D01*
X0152712Y0016359D01*
X0152775Y0016363D01*
X0152837Y0016363D01*
X0152900Y0016359D01*
X0152963Y0016351D01*
X0153025Y0016339D01*
X0153086Y0016324D01*
X0153146Y0016305D01*
X0153204Y0016282D01*
X0153262Y0016256D01*
X0153317Y0016226D01*
X0153371Y0016193D01*
X0153422Y0016157D01*
X0153471Y0016117D01*
X0153517Y0016075D01*
X0153561Y0016030D01*
X0153602Y0015982D01*
X0153640Y0015931D01*
X0153675Y0015879D01*
X0153706Y0015825D01*
X0153734Y0015768D01*
X0153759Y0015710D01*
X0153780Y0015651D01*
X0153797Y0015590D01*
X0153811Y0015529D01*
X0153820Y0015467D01*
X0153826Y0015404D01*
X0153828Y0015341D01*
X0155661Y0015596D02*
X0155661Y0014063D01*
X0155663Y0014011D01*
X0155668Y0013959D01*
X0155677Y0013907D01*
X0155689Y0013856D01*
X0155705Y0013806D01*
X0155725Y0013757D01*
X0155747Y0013710D01*
X0155773Y0013664D01*
X0155801Y0013621D01*
X0155833Y0013579D01*
X0155867Y0013539D01*
X0155904Y0013502D01*
X0155944Y0013468D01*
X0155986Y0013436D01*
X0156029Y0013408D01*
X0156075Y0013382D01*
X0156122Y0013359D01*
X0156171Y0013340D01*
X0156221Y0013324D01*
X0156272Y0013312D01*
X0156324Y0013303D01*
X0156376Y0013298D01*
X0156428Y0013296D01*
X0157705Y0013296D01*
X0157705Y0011763D02*
X0157705Y0016363D01*
X0156428Y0016363D01*
X0156373Y0016361D01*
X0156319Y0016355D01*
X0156265Y0016345D01*
X0156212Y0016332D01*
X0156160Y0016315D01*
X0156109Y0016294D01*
X0156060Y0016269D01*
X0156013Y0016241D01*
X0155968Y0016210D01*
X0155926Y0016176D01*
X0155886Y0016138D01*
X0155848Y0016098D01*
X0155814Y0016056D01*
X0155783Y0016011D01*
X0155755Y0015964D01*
X0155730Y0015915D01*
X0155709Y0015864D01*
X0155692Y0015812D01*
X0155679Y0015759D01*
X0155669Y0015705D01*
X0155663Y0015651D01*
X0155661Y0015596D01*
X0156079Y0010396D02*
X0156079Y0005796D01*
X0154034Y0005796D02*
X0154034Y0008096D01*
X0154036Y0008151D01*
X0154042Y0008205D01*
X0154052Y0008259D01*
X0154065Y0008312D01*
X0154082Y0008364D01*
X0154103Y0008415D01*
X0154128Y0008464D01*
X0154156Y0008511D01*
X0154187Y0008556D01*
X0154221Y0008598D01*
X0154259Y0008638D01*
X0154299Y0008676D01*
X0154341Y0008710D01*
X0154386Y0008741D01*
X0154433Y0008769D01*
X0154482Y0008794D01*
X0154533Y0008815D01*
X0154585Y0008832D01*
X0154638Y0008845D01*
X0154692Y0008855D01*
X0154746Y0008861D01*
X0154801Y0008863D01*
X0156079Y0008863D01*
X0159734Y0014318D02*
X0159734Y0015341D01*
X0159736Y0015404D01*
X0159742Y0015467D01*
X0159751Y0015529D01*
X0159765Y0015590D01*
X0159782Y0015651D01*
X0159803Y0015710D01*
X0159828Y0015768D01*
X0159856Y0015825D01*
X0159887Y0015879D01*
X0159922Y0015931D01*
X0159960Y0015982D01*
X0160001Y0016030D01*
X0160045Y0016075D01*
X0160091Y0016117D01*
X0160140Y0016157D01*
X0160191Y0016193D01*
X0160245Y0016226D01*
X0160300Y0016256D01*
X0160358Y0016282D01*
X0160416Y0016305D01*
X0160476Y0016324D01*
X0160537Y0016339D01*
X0160599Y0016351D01*
X0160662Y0016359D01*
X0160725Y0016363D01*
X0160787Y0016363D01*
X0160850Y0016359D01*
X0160913Y0016351D01*
X0160975Y0016339D01*
X0161036Y0016324D01*
X0161096Y0016305D01*
X0161154Y0016282D01*
X0161212Y0016256D01*
X0161267Y0016226D01*
X0161321Y0016193D01*
X0161372Y0016157D01*
X0161421Y0016117D01*
X0161467Y0016075D01*
X0161511Y0016030D01*
X0161552Y0015982D01*
X0161590Y0015931D01*
X0161625Y0015879D01*
X0161656Y0015825D01*
X0161684Y0015768D01*
X0161709Y0015710D01*
X0161730Y0015651D01*
X0161747Y0015590D01*
X0161761Y0015529D01*
X0161770Y0015467D01*
X0161776Y0015404D01*
X0161778Y0015341D01*
X0161779Y0015341D02*
X0161779Y0014318D01*
X0161778Y0014318D02*
X0161776Y0014255D01*
X0161770Y0014192D01*
X0161761Y0014130D01*
X0161747Y0014069D01*
X0161730Y0014008D01*
X0161709Y0013949D01*
X0161684Y0013891D01*
X0161656Y0013834D01*
X0161625Y0013780D01*
X0161590Y0013728D01*
X0161552Y0013677D01*
X0161511Y0013629D01*
X0161467Y0013584D01*
X0161421Y0013542D01*
X0161372Y0013502D01*
X0161321Y0013466D01*
X0161267Y0013433D01*
X0161212Y0013403D01*
X0161154Y0013377D01*
X0161096Y0013354D01*
X0161036Y0013335D01*
X0160975Y0013320D01*
X0160913Y0013308D01*
X0160850Y0013300D01*
X0160787Y0013296D01*
X0160725Y0013296D01*
X0160662Y0013300D01*
X0160599Y0013308D01*
X0160537Y0013320D01*
X0160476Y0013335D01*
X0160416Y0013354D01*
X0160358Y0013377D01*
X0160300Y0013403D01*
X0160245Y0013433D01*
X0160191Y0013466D01*
X0160140Y0013502D01*
X0160091Y0013542D01*
X0160045Y0013584D01*
X0160001Y0013629D01*
X0159960Y0013677D01*
X0159922Y0013728D01*
X0159887Y0013780D01*
X0159856Y0013834D01*
X0159828Y0013891D01*
X0159803Y0013949D01*
X0159782Y0014008D01*
X0159765Y0014069D01*
X0159751Y0014130D01*
X0159742Y0014192D01*
X0159736Y0014255D01*
X0159734Y0014318D01*
X0151796Y0008863D02*
X0150774Y0008863D01*
X0150722Y0008861D01*
X0150670Y0008856D01*
X0150618Y0008847D01*
X0150567Y0008835D01*
X0150517Y0008819D01*
X0150468Y0008800D01*
X0150421Y0008777D01*
X0150375Y0008751D01*
X0150332Y0008723D01*
X0150290Y0008691D01*
X0150250Y0008657D01*
X0150213Y0008620D01*
X0150179Y0008580D01*
X0150147Y0008538D01*
X0150119Y0008495D01*
X0150093Y0008449D01*
X0150071Y0008402D01*
X0150051Y0008353D01*
X0150035Y0008303D01*
X0150023Y0008252D01*
X0150014Y0008200D01*
X0150009Y0008148D01*
X0150007Y0008096D01*
X0150007Y0005796D01*
X0151157Y0005796D01*
X0151157Y0005797D02*
X0151215Y0005799D01*
X0151274Y0005805D01*
X0151331Y0005814D01*
X0151388Y0005827D01*
X0151444Y0005844D01*
X0151499Y0005865D01*
X0151552Y0005889D01*
X0151604Y0005917D01*
X0151654Y0005948D01*
X0151701Y0005982D01*
X0151746Y0006019D01*
X0151789Y0006059D01*
X0151829Y0006102D01*
X0151866Y0006147D01*
X0151900Y0006194D01*
X0151931Y0006244D01*
X0151959Y0006296D01*
X0151983Y0006349D01*
X0152004Y0006404D01*
X0152021Y0006460D01*
X0152034Y0006517D01*
X0152043Y0006574D01*
X0152049Y0006633D01*
X0152051Y0006691D01*
X0152049Y0006749D01*
X0152043Y0006808D01*
X0152034Y0006865D01*
X0152021Y0006922D01*
X0152004Y0006978D01*
X0151983Y0007033D01*
X0151959Y0007086D01*
X0151931Y0007138D01*
X0151900Y0007188D01*
X0151866Y0007235D01*
X0151829Y0007280D01*
X0151789Y0007323D01*
X0151746Y0007363D01*
X0151701Y0007400D01*
X0151654Y0007434D01*
X0151604Y0007465D01*
X0151552Y0007493D01*
X0151499Y0007517D01*
X0151444Y0007538D01*
X0151388Y0007555D01*
X0151331Y0007568D01*
X0151274Y0007577D01*
X0151215Y0007583D01*
X0151157Y0007585D01*
X0150007Y0007585D01*
X0147803Y0008863D02*
X0146269Y0008863D01*
X0146269Y0008352D01*
X0144852Y0008096D02*
X0144852Y0006563D01*
X0144850Y0006508D01*
X0144844Y0006454D01*
X0144834Y0006400D01*
X0144821Y0006347D01*
X0144804Y0006295D01*
X0144783Y0006244D01*
X0144758Y0006195D01*
X0144730Y0006148D01*
X0144699Y0006103D01*
X0144665Y0006061D01*
X0144627Y0006021D01*
X0144587Y0005983D01*
X0144545Y0005949D01*
X0144500Y0005918D01*
X0144453Y0005890D01*
X0144404Y0005865D01*
X0144353Y0005844D01*
X0144301Y0005827D01*
X0144248Y0005814D01*
X0144194Y0005804D01*
X0144140Y0005798D01*
X0144085Y0005796D01*
X0142807Y0005796D01*
X0142807Y0010396D01*
X0142807Y0008863D02*
X0144085Y0008863D01*
X0144140Y0008861D01*
X0144194Y0008855D01*
X0144248Y0008845D01*
X0144301Y0008832D01*
X0144353Y0008815D01*
X0144404Y0008794D01*
X0144453Y0008769D01*
X0144500Y0008741D01*
X0144545Y0008710D01*
X0144587Y0008676D01*
X0144627Y0008638D01*
X0144665Y0008598D01*
X0144699Y0008556D01*
X0144730Y0008511D01*
X0144758Y0008464D01*
X0144783Y0008415D01*
X0144804Y0008364D01*
X0144821Y0008312D01*
X0144834Y0008259D01*
X0144844Y0008205D01*
X0144850Y0008151D01*
X0144852Y0008096D01*
X0147803Y0008863D02*
X0147803Y0005796D01*
X0142690Y0016363D02*
X0142591Y0016360D01*
X0142492Y0016353D01*
X0142394Y0016343D01*
X0142296Y0016330D01*
X0142198Y0016314D01*
X0142101Y0016294D01*
X0142005Y0016271D01*
X0141910Y0016244D01*
X0141816Y0016215D01*
X0141723Y0016182D01*
X0141630Y0016146D01*
X0141540Y0016107D01*
X0142690Y0016363D02*
X0142741Y0016362D01*
X0142791Y0016357D01*
X0142842Y0016347D01*
X0142891Y0016335D01*
X0142939Y0016318D01*
X0142986Y0016297D01*
X0143032Y0016274D01*
X0143075Y0016246D01*
X0143116Y0016216D01*
X0143154Y0016182D01*
X0143190Y0016146D01*
X0143223Y0016106D01*
X0143253Y0016065D01*
X0143279Y0016021D01*
X0143302Y0015976D01*
X0143321Y0015928D01*
X0143337Y0015880D01*
X0143349Y0015830D01*
X0143357Y0015780D01*
X0143361Y0015729D01*
X0143362Y0015678D01*
X0143358Y0015627D01*
X0143350Y0015576D01*
X0143339Y0015526D01*
X0143324Y0015477D01*
X0143305Y0015430D01*
X0143282Y0015384D01*
X0143256Y0015340D01*
X0143227Y0015298D01*
X0143194Y0015259D01*
X0143159Y0015222D01*
X0143120Y0015188D01*
X0143080Y0015157D01*
X0143037Y0015130D01*
X0142992Y0015105D01*
X0142945Y0015084D01*
X0142945Y0015085D02*
X0141668Y0014574D01*
X0141668Y0014575D02*
X0141621Y0014554D01*
X0141576Y0014529D01*
X0141533Y0014502D01*
X0141493Y0014471D01*
X0141454Y0014437D01*
X0141419Y0014400D01*
X0141386Y0014361D01*
X0141357Y0014319D01*
X0141331Y0014275D01*
X0141308Y0014229D01*
X0141289Y0014182D01*
X0141274Y0014133D01*
X0141263Y0014083D01*
X0141255Y0014032D01*
X0141251Y0013981D01*
X0141252Y0013930D01*
X0141256Y0013879D01*
X0141264Y0013829D01*
X0141276Y0013779D01*
X0141292Y0013731D01*
X0141311Y0013683D01*
X0141334Y0013638D01*
X0141360Y0013594D01*
X0141390Y0013553D01*
X0141423Y0013513D01*
X0141459Y0013477D01*
X0141497Y0013443D01*
X0141538Y0013413D01*
X0141581Y0013385D01*
X0141627Y0013362D01*
X0141674Y0013341D01*
X0141722Y0013324D01*
X0141771Y0013312D01*
X0141822Y0013302D01*
X0141872Y0013297D01*
X0141923Y0013296D01*
X0139429Y0014318D02*
X0139429Y0015341D01*
X0139428Y0015341D02*
X0139426Y0015404D01*
X0139420Y0015467D01*
X0139411Y0015529D01*
X0139397Y0015590D01*
X0139380Y0015651D01*
X0139359Y0015710D01*
X0139334Y0015768D01*
X0139306Y0015825D01*
X0139275Y0015879D01*
X0139240Y0015931D01*
X0139202Y0015982D01*
X0139161Y0016030D01*
X0139117Y0016075D01*
X0139071Y0016117D01*
X0139022Y0016157D01*
X0138971Y0016193D01*
X0138917Y0016226D01*
X0138862Y0016256D01*
X0138804Y0016282D01*
X0138746Y0016305D01*
X0138686Y0016324D01*
X0138625Y0016339D01*
X0138563Y0016351D01*
X0138500Y0016359D01*
X0138437Y0016363D01*
X0138375Y0016363D01*
X0138312Y0016359D01*
X0138249Y0016351D01*
X0138187Y0016339D01*
X0138126Y0016324D01*
X0138066Y0016305D01*
X0138008Y0016282D01*
X0137950Y0016256D01*
X0137895Y0016226D01*
X0137841Y0016193D01*
X0137790Y0016157D01*
X0137741Y0016117D01*
X0137695Y0016075D01*
X0137651Y0016030D01*
X0137610Y0015982D01*
X0137572Y0015931D01*
X0137537Y0015879D01*
X0137506Y0015825D01*
X0137478Y0015768D01*
X0137453Y0015710D01*
X0137432Y0015651D01*
X0137415Y0015590D01*
X0137401Y0015529D01*
X0137392Y0015467D01*
X0137386Y0015404D01*
X0137384Y0015341D01*
X0137384Y0014318D01*
X0137386Y0014255D01*
X0137392Y0014192D01*
X0137401Y0014130D01*
X0137415Y0014069D01*
X0137432Y0014008D01*
X0137453Y0013949D01*
X0137478Y0013891D01*
X0137506Y0013834D01*
X0137537Y0013780D01*
X0137572Y0013728D01*
X0137610Y0013677D01*
X0137651Y0013629D01*
X0137695Y0013584D01*
X0137741Y0013542D01*
X0137790Y0013502D01*
X0137841Y0013466D01*
X0137895Y0013433D01*
X0137950Y0013403D01*
X0138008Y0013377D01*
X0138066Y0013354D01*
X0138126Y0013335D01*
X0138187Y0013320D01*
X0138249Y0013308D01*
X0138312Y0013300D01*
X0138375Y0013296D01*
X0138437Y0013296D01*
X0138500Y0013300D01*
X0138563Y0013308D01*
X0138625Y0013320D01*
X0138686Y0013335D01*
X0138746Y0013354D01*
X0138804Y0013377D01*
X0138862Y0013403D01*
X0138917Y0013433D01*
X0138971Y0013466D01*
X0139022Y0013502D01*
X0139071Y0013542D01*
X0139117Y0013584D01*
X0139161Y0013629D01*
X0139202Y0013677D01*
X0139240Y0013728D01*
X0139275Y0013780D01*
X0139306Y0013834D01*
X0139334Y0013891D01*
X0139359Y0013949D01*
X0139380Y0014008D01*
X0139397Y0014069D01*
X0139411Y0014130D01*
X0139420Y0014192D01*
X0139426Y0014255D01*
X0139428Y0014318D01*
X0141923Y0013296D02*
X0142053Y0013300D01*
X0142184Y0013308D01*
X0142313Y0013320D01*
X0142443Y0013335D01*
X0142572Y0013355D01*
X0142700Y0013378D01*
X0142828Y0013405D01*
X0142955Y0013436D01*
X0143080Y0013471D01*
X0143205Y0013510D01*
X0143328Y0013552D01*
X0140840Y0008863D02*
X0140073Y0005796D01*
X0139306Y0007841D01*
X0138540Y0005796D01*
X0137773Y0008863D01*
X0135746Y0008863D02*
X0134724Y0008863D01*
X0134672Y0008861D01*
X0134620Y0008856D01*
X0134568Y0008847D01*
X0134517Y0008835D01*
X0134467Y0008819D01*
X0134418Y0008800D01*
X0134371Y0008777D01*
X0134325Y0008751D01*
X0134282Y0008723D01*
X0134240Y0008691D01*
X0134200Y0008657D01*
X0134163Y0008620D01*
X0134129Y0008580D01*
X0134097Y0008538D01*
X0134069Y0008495D01*
X0134043Y0008449D01*
X0134021Y0008402D01*
X0134001Y0008353D01*
X0133985Y0008303D01*
X0133973Y0008252D01*
X0133964Y0008200D01*
X0133959Y0008148D01*
X0133957Y0008096D01*
X0133957Y0005796D01*
X0135107Y0005796D01*
X0135107Y0005797D02*
X0135165Y0005799D01*
X0135224Y0005805D01*
X0135281Y0005814D01*
X0135338Y0005827D01*
X0135394Y0005844D01*
X0135449Y0005865D01*
X0135502Y0005889D01*
X0135554Y0005917D01*
X0135604Y0005948D01*
X0135651Y0005982D01*
X0135696Y0006019D01*
X0135739Y0006059D01*
X0135779Y0006102D01*
X0135816Y0006147D01*
X0135850Y0006194D01*
X0135881Y0006244D01*
X0135909Y0006296D01*
X0135933Y0006349D01*
X0135954Y0006404D01*
X0135971Y0006460D01*
X0135984Y0006517D01*
X0135993Y0006574D01*
X0135999Y0006633D01*
X0136001Y0006691D01*
X0135999Y0006749D01*
X0135993Y0006808D01*
X0135984Y0006865D01*
X0135971Y0006922D01*
X0135954Y0006978D01*
X0135933Y0007033D01*
X0135909Y0007086D01*
X0135881Y0007138D01*
X0135850Y0007188D01*
X0135816Y0007235D01*
X0135779Y0007280D01*
X0135739Y0007323D01*
X0135696Y0007363D01*
X0135651Y0007400D01*
X0135604Y0007434D01*
X0135554Y0007465D01*
X0135502Y0007493D01*
X0135449Y0007517D01*
X0135394Y0007538D01*
X0135338Y0007555D01*
X0135281Y0007568D01*
X0135224Y0007577D01*
X0135165Y0007583D01*
X0135107Y0007585D01*
X0133957Y0007585D01*
X0131753Y0008863D02*
X0130219Y0008863D01*
X0130219Y0008352D01*
X0128779Y0007841D02*
X0128779Y0006563D01*
X0128779Y0007329D02*
X0126734Y0007329D01*
X0126734Y0007841D01*
X0126736Y0007904D01*
X0126742Y0007967D01*
X0126751Y0008029D01*
X0126765Y0008090D01*
X0126782Y0008151D01*
X0126803Y0008210D01*
X0126828Y0008268D01*
X0126856Y0008325D01*
X0126887Y0008379D01*
X0126922Y0008431D01*
X0126960Y0008482D01*
X0127001Y0008530D01*
X0127045Y0008575D01*
X0127091Y0008617D01*
X0127140Y0008657D01*
X0127191Y0008693D01*
X0127245Y0008726D01*
X0127300Y0008756D01*
X0127358Y0008782D01*
X0127416Y0008805D01*
X0127476Y0008824D01*
X0127537Y0008839D01*
X0127599Y0008851D01*
X0127662Y0008859D01*
X0127725Y0008863D01*
X0127787Y0008863D01*
X0127850Y0008859D01*
X0127913Y0008851D01*
X0127975Y0008839D01*
X0128036Y0008824D01*
X0128096Y0008805D01*
X0128154Y0008782D01*
X0128212Y0008756D01*
X0128267Y0008726D01*
X0128321Y0008693D01*
X0128372Y0008657D01*
X0128421Y0008617D01*
X0128467Y0008575D01*
X0128511Y0008530D01*
X0128552Y0008482D01*
X0128590Y0008431D01*
X0128625Y0008379D01*
X0128656Y0008325D01*
X0128684Y0008268D01*
X0128709Y0008210D01*
X0128730Y0008151D01*
X0128747Y0008090D01*
X0128761Y0008029D01*
X0128770Y0007967D01*
X0128776Y0007904D01*
X0128778Y0007841D01*
X0128779Y0006563D02*
X0128777Y0006508D01*
X0128771Y0006454D01*
X0128761Y0006400D01*
X0128748Y0006347D01*
X0128731Y0006295D01*
X0128710Y0006244D01*
X0128685Y0006195D01*
X0128657Y0006148D01*
X0128626Y0006103D01*
X0128592Y0006061D01*
X0128554Y0006021D01*
X0128514Y0005983D01*
X0128472Y0005949D01*
X0128427Y0005918D01*
X0128380Y0005890D01*
X0128331Y0005865D01*
X0128280Y0005844D01*
X0128228Y0005827D01*
X0128175Y0005814D01*
X0128121Y0005804D01*
X0128067Y0005798D01*
X0128012Y0005796D01*
X0126734Y0005796D01*
X0126385Y0013296D02*
X0127407Y0013296D01*
X0127462Y0013298D01*
X0127516Y0013304D01*
X0127570Y0013314D01*
X0127623Y0013327D01*
X0127675Y0013344D01*
X0127726Y0013365D01*
X0127775Y0013390D01*
X0127822Y0013418D01*
X0127867Y0013449D01*
X0127909Y0013483D01*
X0127949Y0013521D01*
X0127987Y0013561D01*
X0128021Y0013603D01*
X0128052Y0013648D01*
X0128080Y0013695D01*
X0128105Y0013744D01*
X0128126Y0013795D01*
X0128143Y0013847D01*
X0128156Y0013900D01*
X0128166Y0013954D01*
X0128172Y0014008D01*
X0128174Y0014063D01*
X0128173Y0014063D02*
X0128173Y0015596D01*
X0128174Y0015596D02*
X0128172Y0015651D01*
X0128166Y0015705D01*
X0128156Y0015759D01*
X0128143Y0015812D01*
X0128126Y0015864D01*
X0128105Y0015915D01*
X0128080Y0015964D01*
X0128052Y0016011D01*
X0128021Y0016056D01*
X0127987Y0016098D01*
X0127949Y0016138D01*
X0127909Y0016176D01*
X0127867Y0016210D01*
X0127822Y0016241D01*
X0127775Y0016269D01*
X0127726Y0016294D01*
X0127675Y0016315D01*
X0127623Y0016332D01*
X0127570Y0016345D01*
X0127516Y0016355D01*
X0127462Y0016361D01*
X0127407Y0016363D01*
X0126385Y0016363D01*
X0124729Y0015341D02*
X0124729Y0014063D01*
X0124729Y0014829D02*
X0122684Y0014829D01*
X0122684Y0015341D01*
X0122686Y0015404D01*
X0122692Y0015467D01*
X0122701Y0015529D01*
X0122715Y0015590D01*
X0122732Y0015651D01*
X0122753Y0015710D01*
X0122778Y0015768D01*
X0122806Y0015825D01*
X0122837Y0015879D01*
X0122872Y0015931D01*
X0122910Y0015982D01*
X0122951Y0016030D01*
X0122995Y0016075D01*
X0123041Y0016117D01*
X0123090Y0016157D01*
X0123141Y0016193D01*
X0123195Y0016226D01*
X0123250Y0016256D01*
X0123308Y0016282D01*
X0123366Y0016305D01*
X0123426Y0016324D01*
X0123487Y0016339D01*
X0123549Y0016351D01*
X0123612Y0016359D01*
X0123675Y0016363D01*
X0123737Y0016363D01*
X0123800Y0016359D01*
X0123863Y0016351D01*
X0123925Y0016339D01*
X0123986Y0016324D01*
X0124046Y0016305D01*
X0124104Y0016282D01*
X0124162Y0016256D01*
X0124217Y0016226D01*
X0124271Y0016193D01*
X0124322Y0016157D01*
X0124371Y0016117D01*
X0124417Y0016075D01*
X0124461Y0016030D01*
X0124502Y0015982D01*
X0124540Y0015931D01*
X0124575Y0015879D01*
X0124606Y0015825D01*
X0124634Y0015768D01*
X0124659Y0015710D01*
X0124680Y0015651D01*
X0124697Y0015590D01*
X0124711Y0015529D01*
X0124720Y0015467D01*
X0124726Y0015404D01*
X0124728Y0015341D01*
X0124729Y0014063D02*
X0124727Y0014008D01*
X0124721Y0013954D01*
X0124711Y0013900D01*
X0124698Y0013847D01*
X0124681Y0013795D01*
X0124660Y0013744D01*
X0124635Y0013695D01*
X0124607Y0013648D01*
X0124576Y0013603D01*
X0124542Y0013561D01*
X0124504Y0013521D01*
X0124464Y0013483D01*
X0124422Y0013449D01*
X0124377Y0013418D01*
X0124330Y0013390D01*
X0124281Y0013365D01*
X0124230Y0013344D01*
X0124178Y0013327D01*
X0124125Y0013314D01*
X0124071Y0013304D01*
X0124017Y0013298D01*
X0123962Y0013296D01*
X0122684Y0013296D01*
X0129619Y0015852D02*
X0129619Y0016363D01*
X0131153Y0016363D01*
X0131153Y0013296D01*
X0133334Y0013296D02*
X0133334Y0016363D01*
X0135379Y0016363D02*
X0135379Y0014063D01*
X0135377Y0014008D01*
X0135371Y0013954D01*
X0135361Y0013900D01*
X0135348Y0013847D01*
X0135331Y0013795D01*
X0135310Y0013744D01*
X0135285Y0013695D01*
X0135257Y0013648D01*
X0135226Y0013603D01*
X0135192Y0013561D01*
X0135154Y0013521D01*
X0135114Y0013483D01*
X0135072Y0013449D01*
X0135027Y0013418D01*
X0134980Y0013390D01*
X0134931Y0013365D01*
X0134880Y0013344D01*
X0134828Y0013327D01*
X0134775Y0013314D01*
X0134721Y0013304D01*
X0134667Y0013298D01*
X0134612Y0013296D01*
X0133334Y0013296D01*
X0131753Y0008863D02*
X0131753Y0005796D01*
M02*
