  0
SECTION
  2
HEADER
  9
$ACADVER
  1
AC1012
  9
$DWGCODEPAGE
  3
ansi_1252
  9
$INSBASE
 10
0.0
 20
0.0
 30
0.0
  9
$EXTMIN
 10
1.000000000000000E+20
 20
1.000000000000000E+20
 30
1.000000000000000E+20
  9
$EXTMAX
 10
-1.000000000000000E+20
 20
-1.000000000000000E+20
 30
-1.000000000000000E+20
  9
$LIMMIN
 10
0.0
 20
0.0
  9
$LIMMAX
 10
12.0
 20
9.0
  9
$ORTHOMODE
 70
     0
  9
$REGENMODE
 70
     1
  9
$FILLMODE
 70
     1
  9
$QTEXTMODE
 70
     0
  9
$MIRRTEXT
 70
     1
  9
$DRAGMODE
 70
     2
  9
$LTSCALE
 40
1.0
  9
$OSMODE
 70
    37
  9
$ATTMODE
 70
     1
  9
$TEXTSIZE
 40
0.2
  9
$TRACEWID
 40
0.05
  9
$TEXTSTYLE
  7
STANDARD
  9
$CLAYER
  8
0
  9
$CELTYPE
  6
BYLAYER
  9
$CECOLOR
 62
   256
  9
$CELTSCALE
 40
1.0
  9
$DELOBJ
 70
     1
  9
$DISPSILH
 70
     0
  9
$DIMSCALE
 40
1.0
  9
$DIMASZ
 40
0.18
  9
$DIMEXO
 40
0.0625
  9
$DIMDLI
 40
0.38
  9
$DIMRND
 40
0.0
  9
$DIMDLE
 40
0.0
  9
$DIMEXE
 40
0.18
  9
$DIMTP
 40
0.0
  9
$DIMTM
 40
0.0
  9
$DIMTXT
 40
0.18
  9
$DIMCEN
 40
0.09
  9
$DIMTSZ
 40
0.0
  9
$DIMTOL
 70
     0
  9
$DIMLIM
 70
     0
  9
$DIMTIH
 70
     1
  9
$DIMTOH
 70
     1
  9
$DIMSE1
 70
     0
  9
$DIMSE2
 70
     0
  9
$DIMTAD
 70
     0
  9
$DIMZIN
 70
     0
  9
$DIMBLK
  1

  9
$DIMASO
 70
     1
  9
$DIMSHO
 70
     1
  9
$DIMPOST
  1

  9
$DIMAPOST
  1

  9
$DIMALT
 70
     0
  9
$DIMALTD
 70
     2
  9
$DIMALTF
 40
25.4
  9
$DIMLFAC
 40
1.0
  9
$DIMTOFL
 70
     0
  9
$DIMTVP
 40
0.0
  9
$DIMTIX
 70
     0
  9
$DIMSOXD
 70
     0
  9
$DIMSAH
 70
     0
  9
$DIMBLK1
  1

  9
$DIMBLK2
  1

  9
$DIMSTYLE
  2
STANDARD
  9
$DIMCLRD
 70
     0
  9
$DIMCLRE
 70
     0
  9
$DIMCLRT
 70
     0
  9
$DIMTFAC
 40
1.0
  9
$DIMGAP
 40
0.09
  9
$DIMJUST
 70
     0
  9
$DIMSD1
 70
     0
  9
$DIMSD2
 70
     0
  9
$DIMTOLJ
 70
     1
  9
$DIMTZIN
 70
     0
  9
$DIMALTZ
 70
     0
  9
$DIMALTTZ
 70
     0
  9
$DIMFIT
 70
     3
  9
$DIMUPT
 70
     0
  9
$DIMUNIT
 70
     2
  9
$DIMDEC
 70
     4
  9
$DIMTDEC
 70
     4
  9
$DIMALTU
 70
     2
  9
$DIMALTTD
 70
     2
  9
$DIMTXSTY
  7
STANDARD
  9
$DIMAUNIT
 70
     0
  9
$LUNITS
 70
     2
  9
$LUPREC
 70
     4
  9
$SKETCHINC
 40
0.1
  9
$FILLETRAD
 40
0.5
  9
$AUNITS
 70
     0
  9
$AUPREC
 70
     0
  9
$MENU
  1
.
  9
$ELEVATION
 40
0.0
  9
$PELEVATION
 40
0.0
  9
$THICKNESS
 40
0.0
  9
$LIMCHECK
 70
     0
  9
$CHAMFERA
 40
0.5
  9
$CHAMFERB
 40
0.5
  9
$CHAMFERC
 40
1.0
  9
$CHAMFERD
 40
0.0
  9
$SKPOLY
 70
     0
  9
$TDCREATE
 40
2458166.604919595
  9
$TDUPDATE
 40
2458166.604919595
  9
$TDINDWG
 40
0.0000000116
  9
$TDUSRTIMER
 40
0.0000000116
  9
$USRTIMER
 70
     1
  9
$ANGBASE
 50
0.0
  9
$ANGDIR
 70
     0
  9
$PDMODE
 70
     0
  9
$PDSIZE
 40
0.0
  9
$PLINEWID
 40
0.0
  9
$COORDS
 70
     1
  9
$SPLFRAME
 70
     0
  9
$SPLINETYPE
 70
     6
  9
$SPLINESEGS
 70
     8
  9
$ATTDIA
 70
     0
  9
$ATTREQ
 70
     1
  9
$HANDLING
 70
     1
  9
$HANDSEED
  5
C5
  9
$SURFTAB1
 70
     6
  9
$SURFTAB2
 70
     6
  9
$SURFTYPE
 70
     6
  9
$SURFU
 70
     6
  9
$SURFV
 70
     6
  9
$UCSNAME
  2

  9
$UCSORG
 10
0.0
 20
0.0
 30
0.0
  9
$UCSXDIR
 10
1.0
 20
0.0
 30
0.0
  9
$UCSYDIR
 10
0.0
 20
1.0
 30
0.0
  9
$PUCSNAME
  2

  9
$PUCSORG
 10
0.0
 20
0.0
 30
0.0
  9
$PUCSXDIR
 10
1.0
 20
0.0
 30
0.0
  9
$PUCSYDIR
 10
0.0
 20
1.0
 30
0.0
  9
$USERI1
 70
     0
  9
$USERI2
 70
     0
  9
$USERI3
 70
     0
  9
$USERI4
 70
     0
  9
$USERI5
 70
     0
  9
$USERR1
 40
0.0
  9
$USERR2
 40
0.0
  9
$USERR3
 40
0.0
  9
$USERR4
 40
0.0
  9
$USERR5
 40
0.0
  9
$WORLDVIEW
 70
     1
  9
$SHADEDGE
 70
     3
  9
$SHADEDIF
 70
    70
  9
$TILEMODE
 70
     1
  9
$MAXACTVP
 70
    64
  9
$PINSBASE
 10
0.0
 20
0.0
 30
0.0
  9
$PLIMCHECK
 70
     0
  9
$PEXTMIN
 10
1.000000000000000E+20
 20
1.000000000000000E+20
 30
1.000000000000000E+20
  9
$PEXTMAX
 10
-1.000000000000000E+20
 20
-1.000000000000000E+20
 30
-1.000000000000000E+20
  9
$PLIMMIN
 10
0.0
 20
0.0
  9
$PLIMMAX
 10
12.0
 20
9.0
  9
$UNITMODE
 70
     0
  9
$VISRETAIN
 70
     1
  9
$PLINEGEN
 70
     0
  9
$PSLTSCALE
 70
     1
  9
$TREEDEPTH
 70
  3020
  9
$PICKSTYLE
 70
     1
  9
$CMLSTYLE
  2
STANDARD
  9
$CMLJUST
 70
     0
  9
$CMLSCALE
 40
1.0
  9
$SAVEIMAGES
 70
     1
  0
ENDSEC
  0
SECTION
  2
CLASSES
  0
CLASS
  1
ACDBDICTIONARYWDFLT
  2
AcDbDictionaryWithDefault
  3
ObjectDBX Classes
 90
    32768
280
     0
281
     0
  0
CLASS
  1
VISUALSTYLE
  2
AcDbVisualStyle
  3
ObjectDBX Classes
 90
     4095
280
     0
281
     0
  0
CLASS
  1
MATERIAL
  2
AcDbMaterial
  3
ObjectDBX Classes
 90
     1153
280
     0
281
     0
  0
CLASS
  1
SUN
  2
AcDbSun
  3
SCENEOE
 90
     1024
280
     0
281
     0
  0
CLASS
  1
DICTIONARYVAR
  2
AcDbDictionaryVar
  3
ObjectDBX Classes
 90
        0
280
     0
281
     0
  0
CLASS
  1
XRECORD
  2
AcDbXrecord
  3
AutoCAD 2000
 90
    32768
280
     0
281
     0
  0
CLASS
  1
LWPOLYLINE
  2
AcDbPolyline
  3
AutoCAD 2000
 90
    32768
280
     0
281
     1
  0
CLASS
  1
HATCH
  2
AcDbHatch
  3
AutoCAD 2000
 90
    32768
280
     0
281
     1
  0
CLASS
  1
ACDBPLACEHOLDER
  2
AcDbPlaceHolder
  3
ObjectDBX Classes
 90
        0
280
     0
281
     0
  0
CLASS
  1
LAYOUT
  2
AcDbLayout
  3
ObjectDBX Classes
 90
        0
280
     0
281
     0
  0
ENDSEC
  0
SECTION
  2
TABLES
  0
TABLE
  2
VPORT
  5
8
330
0
100
AcDbSymbolTable
 70
     1
  0
VPORT
  5
29
330
8
100
AcDbSymbolTableRecord
100
AcDbViewportTableRecord
  2
*ACTIVE
 70
     0
 10
0.0
 20
0.0
 11
1.0
 21
1.0
 12
0.0
 22
0.0
 13
0.0
 23
0.0
 14
0.5
 24
0.5
 15
0.5
 25
0.5
 16
0.0
 26
0.0
 36
1.0
 17
40.27566999637795
 27
70.84493796039769
 37
0.0
 40
128.5108465933063
 41
0.5514488955848863
 42
50.0
 43
0.0
 44
0.0
 50
0.0
 51
0.0
 71
     0
 72
   100
 73
     1
 74
     3
 75
     0
 76
     0
 77
     0
 78
     0
  0
ENDTAB
  0
TABLE
  2
LTYPE
  5
5
330
0
100
AcDbSymbolTable
 70
     1
  0
LTYPE
  5
14
330
5
100
AcDbSymbolTableRecord
100
AcDbLinetypeTableRecord
  2
BYBLOCK
 70
     0
  3

 72
    65
 73
     0
 40
0.0
  0
LTYPE
  5
15
330
5
100
AcDbSymbolTableRecord
100
AcDbLinetypeTableRecord
  2
BYLAYER
 70
     0
  3

 72
    65
 73
     0
 40
0.0
  0
LTYPE
  5
16
330
5
100
AcDbSymbolTableRecord
100
AcDbLinetypeTableRecord
  2
CONTINUOUS
 70
     0
  3
Solid line
 72
    65
 73
     0
 40
0.0
  0
ENDTAB
  0
TABLE
  2
LAYER
  5
2
330
0
100
AcDbSymbolTable
 70
     2
  0
LAYER
  5
10
330
2
100
AcDbSymbolTableRecord
100
AcDbLayerTableRecord
  2
0
 70
     0
 62
     7
  6
CONTINUOUS
  0
LAYER
  5
40
330
2
100
AcDbSymbolTableRecord
100
AcDbLayerTableRecord
  2
SVG2
 70
     0
 62
     7
  6
CONTINUOUS
  0
ENDTAB
  0
TABLE
  2
STYLE
  5
3
330
0
100
AcDbSymbolTable
 70
     1
  0
STYLE
  5
11
330
3
100
AcDbSymbolTableRecord
100
AcDbTextStyleTableRecord
  2
STANDARD
 70
     0
 40
0.0
 41
1.0
 50
0.0
 71
     0
 42
0.2
  3
txt
  4

  0
ENDTAB
  0
TABLE
  2
VIEW
  5
6
330
0
100
AcDbSymbolTable
 70
     0
  0
ENDTAB
  0
TABLE
  2
UCS
  5
7
330
0
100
AcDbSymbolTable
 70
     0
  0
ENDTAB
  0
TABLE
  2
APPID
  5
9
330
0
100
AcDbSymbolTable
 70
     1
  0
APPID
  5
12
330
9
100
AcDbSymbolTableRecord
100
AcDbRegAppTableRecord
  2
ACAD
 70
     0
  0
ENDTAB
  0
TABLE
  2
DIMSTYLE
  5
A
330
0
100
AcDbSymbolTable
 70
     1
  0
DIMSTYLE
105
27
330
A
100
AcDbSymbolTableRecord
100
AcDbDimStyleTableRecord
  2
STANDARD
 70
     0
  3

  4

  5

  6

  7

 40
1.0
 41
0.18
 42
0.0625
 43
0.38
 44
0.18
 45
0.0
 46
0.0
 47
0.0
 48
0.0
140
0.18
141
0.09
142
0.0
143
25.4
144
1.0
145
0.0
146
1.0
147
0.09
 71
     0
 72
     0
 73
     1
 74
     1
 75
     0
 76
     0
 77
     0
 78
     0
170
     0
171
     2
172
     0
173
     0
174
     0
175
     0
176
     0
177
     0
178
     0
270
     2
271
     4
272
     4
273
     2
274
     2
340
11
275
     0
280
     0
281
     0
282
     0
283
     1
284
     0
285
     0
286
     0
287
     3
288
     0
  0
ENDTAB
  0
TABLE
  2
BLOCK_RECORD
  5
1
330
0
100
AcDbSymbolTable
 70
     5
  0
BLOCK_RECORD
  5
1F
330
1
100
AcDbSymbolTableRecord
100
AcDbBlockTableRecord
  2
*MODEL_SPACE
  0
BLOCK_RECORD
  5
1B
330
1
100
AcDbSymbolTableRecord
100
AcDbBlockTableRecord
  2
*PAPER_SPACE
  0
BLOCK_RECORD
  5
41
330
1
100
AcDbSymbolTableRecord
100
AcDbBlockTableRecord
  2
BLOCK_2
  0
BLOCK_RECORD
  5
45
330
1
100
AcDbSymbolTableRecord
100
AcDbBlockTableRecord
  2
BLOCK_3
  0
BLOCK_RECORD
  5
49
330
1
100
AcDbSymbolTableRecord
100
AcDbBlockTableRecord
  2
BLOCK_4
  0
BLOCK_RECORD
  5
7C
330
1
100
AcDbSymbolTableRecord
100
AcDbBlockTableRecord
  2
*U4
  0
ENDTAB
  0
ENDSEC
  0
SECTION
  2
BLOCKS
  0
BLOCK
  5
20
330
1F
100
AcDbEntity
  8
0
100
AcDbBlockBegin
  2
*MODEL_SPACE
 70
     0
 10
0.0
 20
0.0
 30
0.0
  3
*MODEL_SPACE
  1

  0
ENDBLK
  5
21
330
1F
100
AcDbEntity
  8
0
100
AcDbBlockEnd
  0
BLOCK
  5
1C
330
1B
100
AcDbEntity
 67
     1
  8
0
100
AcDbBlockBegin
  2
*PAPER_SPACE
 70
     0
 10
0.0
 20
0.0
 30
0.0
  3
*PAPER_SPACE
  1

  0
ENDBLK
  5
1D
330
1B
100
AcDbEntity
 67
     1
  8
0
100
AcDbBlockEnd
  0
BLOCK
  5
43
330
41
100
AcDbEntity
  8
0
100
AcDbBlockBegin
  2
BLOCK_2
 70
     0
 10
0.0
 20
0.0
 30
0.0
  3
BLOCK_2
  1

  0
ENDBLK
  5
44
330
41
100
AcDbEntity
  8
0
100
AcDbBlockEnd
  0
BLOCK
  5
47
330
45
100
AcDbEntity
  8
0
100
AcDbBlockBegin
  2
BLOCK_3
 70
     0
 10
0.0
 20
0.0
 30
0.0
  3
BLOCK_3
  1

  0
ENDBLK
  5
48
330
45
100
AcDbEntity
  8
0
100
AcDbBlockEnd
  0
BLOCK
  5
4B
330
49
100
AcDbEntity
  8
0
100
AcDbBlockBegin
  2
BLOCK_4
 70
     0
 10
0.0
 20
0.0
 30
0.0
  3
BLOCK_4
  1

  0
POLYLINE
  5
4D
330
49
100
AcDbEntity
  8
SVG2
100
AcDb2dPolyline
 66
     1
 10
0.0
 20
0.0
 30
0.0
  0
VERTEX
  5
4E
330
4D
100
AcDbEntity
  8
SVG2
100
AcDbVertex
100
AcDb2dVertex
 10
75.65928839928496
 20
135.0504773510168
 30
0.0
  0
VERTEX
  5
4F
330
4D
100
AcDbEntity
  8
SVG2
100
AcDbVertex
100
AcDb2dVertex
 10
4.8920660601805
 20
135.0504773510168
 30
0.0
  0
VERTEX
  5
50
330
4D
100
AcDbEntity
  8
SVG2
100
AcDbVertex
100
AcDb2dVertex
 10
4.8920660601805
 20
135.0504773510168
 30
0.0
  0
VERTEX
  5
51
330
4D
100
AcDbEntity
  8
SVG2
100
AcDbVertex
100
AcDb2dVertex
 10
4.8920660601805
 20
6.639366272008441
 30
0.0
  0
VERTEX
  5
52
330
4D
100
AcDbEntity
  8
SVG2
100
AcDbVertex
100
AcDb2dVertex
 10
4.8920660601805
 20
6.639366272008441
 30
0.0
  0
VERTEX
  5
53
330
4D
100
AcDbEntity
  8
SVG2
100
AcDbVertex
100
AcDb2dVertex
 10
75.65928839928496
 20
6.639366272008441
 30
0.0
  0
VERTEX
  5
54
330
4D
100
AcDbEntity
  8
SVG2
100
AcDbVertex
100
AcDb2dVertex
 10
75.65928839928496
 20
6.639366272008441
 30
0.0
  0
VERTEX
  5
55
330
4D
100
AcDbEntity
  8
SVG2
100
AcDbVertex
100
AcDb2dVertex
 10
75.65928839928496
 20
135.0504773510168
 30
0.0
  0
VERTEX
  5
56
330
4D
100
AcDbEntity
  8
SVG2
100
AcDbVertex
100
AcDb2dVertex
 10
75.65928839928496
 20
135.0504773510168
 30
0.0
  0
SEQEND
  5
57
330
4D
100
AcDbEntity
  8
SVG2
  0
SPLINE
  5
58
330
49
100
AcDbEntity
  8
SVG2
100
AcDbSpline
210
0.0
220
0.0
230
1.0
 70
    11
 71
     3
 72
    29
 73
    25
 74
     0
 42
0.0000000001
 43
0.0000000001
 12
1.0
 22
0.0
 32
0.0
 13
1.0
 23
0.0
 33
0.0
 40
0.0
 40
0.0
 40
0.0
 40
0.0
 40
1.0
 40
1.0
 40
1.0
 40
2.0
 40
2.0
 40
2.0
 40
3.0
 40
3.0
 40
3.0
 40
4.0
 40
4.0
 40
4.0
 40
5.0
 40
5.0
 40
5.0
 40
6.0
 40
6.0
 40
6.0
 40
7.0
 40
7.0
 40
7.0
 40
8.0
 40
8.0
 40
8.0
 40
8.0
 10
75.65929832412058
 20
6.589514663744537
 30
0.0
 10
75.65929832412058
 20
6.589514663744537
 30
0.0
 10
4.892041668635317
 20
6.589514663744537
 30
0.0
 10
4.892041668635317
 20
6.589514663744537
 30
0.0
 10
4.864480904753318
 20
6.589514663744537
 30
0.0
 10
4.842087784099194
 20
6.611907784398661
 30
0.0
 10
4.842087784099194
 20
6.63946854828066
 30
0.0
 10
4.842087784099194
 20
6.63946854828066
 30
0.0
 10
4.842087784099194
 20
135.0504073725147
 30
0.0
 10
4.842087784099194
 20
135.0504073725147
 30
0.0
 10
4.842087784099194
 20
135.0779681363967
 30
0.0
 10
4.864480904753318
 20
135.1003612570508
 30
0.0
 10
4.892041668635317
 20
135.1003612570508
 30
0.0
 10
4.892041668635317
 20
135.1003612570508
 30
0.0
 10
75.65929832412058
 20
135.1003612570508
 30
0.0
 10
75.65929832412058
 20
135.1003612570508
 30
0.0
 10
75.68685908800259
 20
135.1003612570508
 30
0.0
 10
75.70925220865671
 20
135.0779681363967
 30
0.0
 10
75.70925220865671
 20
135.0504073725147
 30
0.0
 10
75.70925220865671
 20
135.0504073725147
 30
0.0
 10
75.70925220865671
 20
6.63946854828066
 30
0.0
 10
75.70925220865671
 20
6.63946854828066
 30
0.0
 10
75.70925220865671
 20
6.611907784398661
 30
0.0
 10
75.68685908800259
 20
6.589514663744537
 30
0.0
 10
75.65929832412058
 20
6.589514663744537
 30
0.0
  0
POLYLINE
  5
59
330
49
100
AcDbEntity
  8
SVG2
100
AcDb2dPolyline
 66
     1
 10
0.0
 20
0.0
 30
0.0
  0
VERTEX
  5
5A
330
59
100
AcDbEntity
  8
SVG2
100
AcDbVertex
100
AcDb2dVertex
 10
4.941995553171439
 20
6.689422432816782
 30
0.0
  0
VERTEX
  5
5B
330
59
100
AcDbEntity
  8
SVG2
100
AcDbVertex
100
AcDb2dVertex
 10
75.60934443958446
 20
6.689422432816782
 30
0.0
  0
VERTEX
  5
5C
330
59
100
AcDbEntity
  8
SVG2
100
AcDbVertex
100
AcDb2dVertex
 10
75.60934443958446
 20
135.0004534879786
 30
0.0
  0
VERTEX
  5
5D
330
59
100
AcDbEntity
  8
SVG2
100
AcDbVertex
100
AcDb2dVertex
 10
4.941995553171439
 20
135.0004534879786
 30
0.0
  0
VERTEX
  5
5E
330
59
100
AcDbEntity
  8
SVG2
100
AcDbVertex
100
AcDb2dVertex
 10
4.941995553171439
 20
6.689422432816782
 30
0.0
  0
SEQEND
  5
5F
330
59
100
AcDbEntity
  8
SVG2
  0
INSERT
  5
60
330
49
100
AcDbEntity
  8
SVG2
 62
     5
100
AcDbBlockReference
  2
*U4
 10
0.0
 20
0.0
 30
0.0
1001
ACAD
1002
{
1000
R14_HATCH_DATA
1000
60
1011
1.0
1021
0.0
1031
0.0
1011
0.0
1021
1.0
1031
0.0
1011
0.0
1021
0.0
1031
1.0
1040
0.0
1010
0.0
1020
0.0
1030
1.0
1000
SOLID
1070
     1
1070
     1
1071
        2
1071
        1
1071
        1
1070
     4
1070
     3
1070
     0
1070
     1
1071
       29
1071
       25
1040
0.0
1040
0.0
1040
0.0
1040
0.0
1040
1.0
1040
1.0
1040
1.0
1040
2.0
1040
2.0
1040
2.0
1040
3.0
1040
3.0
1040
3.0
1040
4.0
1040
4.0
1040
4.0
1040
5.0
1040
5.0
1040
5.0
1040
6.0
1040
6.0
1040
6.0
1040
7.0
1040
7.0
1040
7.0
1040
8.0
1040
8.0
1040
8.0
1040
8.0
1040
75.65929832412058
1040
6.589514663744537
1040
75.65929832412058
1040
6.589514663744537
1040
4.892041668635317
1040
6.589514663744537
1040
4.892041668635317
1040
6.589514663744537
1040
4.864480904753318
1040
6.589514663744537
1040
4.842087784099194
1040
6.611907784398661
1040
4.842087784099194
1040
6.63946854828066
1040
4.842087784099194
1040
6.63946854828066
1040
4.842087784099194
1040
135.0504073725147
1040
4.842087784099194
1040
135.0504073725147
1040
4.842087784099194
1040
135.0779681363967
1040
4.864480904753318
1040
135.1003612570508
1040
4.892041668635317
1040
135.1003612570508
1040
4.892041668635317
1040
135.1003612570508
1040
75.65929832412058
1040
135.1003612570508
1040
75.65929832412058
1040
135.1003612570508
1040
75.68685908800259
1040
135.1003612570508
1040
75.70925220865671
1040
135.0779681363967
1040
75.70925220865671
1040
135.0504073725147
1040
75.70925220865671
1040
135.0504073725147
1040
75.70925220865671
1040
6.63946854828066
1040
75.70925220865671
1040
6.63946854828066
1040
75.70925220865671
1040
6.611907784398661
1040
75.68685908800259
1040
6.589514663744537
1040
75.65929832412058
1040
6.589514663744537
1071
        0
1071
        1
1071
        4
1070
     1
1040
4.941995553171439
1040
6.689422432816782
1040
75.60934443958446
1040
6.689422432816782
1070
     1
1040
75.60934443958446
1040
6.689422432816782
1040
75.60934443958446
1040
135.0004534879786
1070
     1
1040
75.60934443958446
1040
135.0004534879786
1040
4.941995553171438
1040
135.0004534879786
1070
     1
1040
4.941995553171439
1040
135.0004534879786
1040
4.941995553171439
1040
6.68942243281677
1071
        0
1070
     2
1070
     1
1071
        0
1002
}
  0
ENDBLK
  5
4C
330
49
100
AcDbEntity
  8
0
100
AcDbBlockEnd
  0
BLOCK
  5
BD
330
7C
100
AcDbEntity
  8
0
100
AcDbBlockBegin
  2
*U4
 70
     1
 10
0.0
 20
0.0
 30
0.0
  3
*U4
  1

  0
SOLID
  5
7D
330
7C
100
AcDbEntity
  8
SVG2
 62
     5
100
AcDbTrace
 10
4.842087784099194
 20
6.63946854828066
 30
0.0
 11
4.842087784099194
 21
135.0504073725147
 31
0.0
 12
4.892041668635317
 22
6.589514663744537
 32
0.0
 13
4.892041668635317
 23
6.589514663744537
 33
0.0
  0
SOLID
  5
7E
330
7C
100
AcDbEntity
  8
SVG2
 62
     5
100
AcDbTrace
 10
4.892041668635317
 20
6.589514663744537
 30
0.0
 11
4.842087784099194
 21
135.0504073725147
 31
0.0
 12
4.892041668635317
 22
135.1003612570508
 32
0.0
 13
4.892041668635317
 23
135.1003612570508
 33
0.0
  0
SOLID
  5
7F
330
7C
100
AcDbEntity
  8
SVG2
 62
     5
100
AcDbTrace
 10
4.892041668635317
 20
6.589514663744537
 30
0.0
 11
4.892041668635317
 21
135.1003612570508
 31
0.0
 12
4.941995553171439
 22
6.589514663744537
 32
0.0
 13
4.941995553171439
 23
6.589514663744537
 33
0.0
  0
SOLID
  5
80
330
7C
100
AcDbEntity
  8
SVG2
 62
     5
100
AcDbTrace
 10
4.941995553171439
 20
6.589514663744537
 30
0.0
 11
4.892041668635317
 21
135.1003612570508
 31
0.0
 12
4.941995553171439
 22
135.1003612570508
 32
0.0
 13
4.941995553171439
 23
135.1003612570508
 33
0.0
  0
SOLID
  5
81
330
7C
100
AcDbEntity
  8
SVG2
 62
     5
100
AcDbTrace
 10
4.941995553171438
 20
6.589514663744537
 30
0.0
 11
4.941995553171438
 21
6.689422432816782
 31
0.0
 12
5.686791133027973
 22
6.589514663744537
 32
0.0
 13
5.686791133027973
 23
6.589514663744537
 33
0.0
  0
SOLID
  5
82
330
7C
100
AcDbEntity
  8
SVG2
 62
     5
100
AcDbTrace
 10
5.686791133027973
 20
6.589514663744537
 30
0.0
 11
4.941995553171438
 21
6.689422432816782
 31
0.0
 12
5.686791133027973
 22
6.689422432816782
 32
0.0
 13
5.686791133027973
 23
6.689422432816782
 33
0.0
  0
SOLID
  5
83
330
7C
100
AcDbEntity
  8
SVG2
 62
     5
100
AcDbTrace
 10
4.941995553171438
 20
135.0004534879786
 30
0.0
 11
4.941995553171438
 21
135.1003612570508
 31
0.0
 12
5.686791133027973
 22
135.0004534879786
 32
0.0
 13
5.686791133027973
 23
135.0004534879786
 33
0.0
  0
SOLID
  5
84
330
7C
100
AcDbEntity
  8
SVG2
 62
     5
100
AcDbTrace
 10
5.686791133027973
 20
135.0004534879786
 30
0.0
 11
4.941995553171438
 21
135.1003612570508
 31
0.0
 12
5.686791133027973
 22
135.1003612570508
 32
0.0
 13
5.686791133027973
 23
135.1003612570508
 33
0.0
  0
SOLID
  5
85
330
7C
100
AcDbEntity
  8
SVG2
 62
     5
100
AcDbTrace
 10
5.686791133027973
 20
6.589514663744537
 30
0.0
 11
5.686791133027973
 21
6.689422432816782
 31
0.0
 12
7.932822228050699
 22
6.589514663744537
 32
0.0
 13
7.932822228050699
 23
6.589514663744537
 33
0.0
  0
SOLID
  5
86
330
7C
100
AcDbEntity
  8
SVG2
 62
     5
100
AcDbTrace
 10
7.932822228050699
 20
6.589514663744537
 30
0.0
 11
5.686791133027973
 21
6.689422432816782
 31
0.0
 12
7.932822228050699
 22
6.689422432816782
 32
0.0
 13
7.932822228050699
 23
6.689422432816782
 33
0.0
  0
SOLID
  5
87
330
7C
100
AcDbEntity
  8
SVG2
 62
     5
100
AcDbTrace
 10
5.686791133027973
 20
135.0004534879786
 30
0.0
 11
5.686791133027973
 21
135.1003612570508
 31
0.0
 12
7.932822228050699
 22
135.0004534879786
 32
0.0
 13
7.932822228050699
 23
135.0004534879786
 33
0.0
  0
SOLID
  5
88
330
7C
100
AcDbEntity
  8
SVG2
 62
     5
100
AcDbTrace
 10
7.932822228050699
 20
135.0004534879786
 30
0.0
 11
5.686791133027973
 21
135.1003612570508
 31
0.0
 12
7.932822228050699
 22
135.1003612570508
 32
0.0
 13
7.932822228050699
 23
135.1003612570508
 33
0.0
  0
SOLID
  5
89
330
7C
100
AcDbEntity
  8
SVG2
 62
     5
100
AcDbTrace
 10
7.9328222280507
 20
6.589514663744537
 30
0.0
 11
7.9328222280507
 21
6.689422432816782
 31
0.0
 12
11.42280900647063
 22
6.589514663744537
 32
0.0
 13
11.42280900647063
 23
6.589514663744537
 33
0.0
  0
SOLID
  5
8A
330
7C
100
AcDbEntity
  8
SVG2
 62
     5
100
AcDbTrace
 10
11.42280900647063
 20
6.589514663744537
 30
0.0
 11
7.9328222280507
 21
6.689422432816782
 31
0.0
 12
11.42280900647063
 22
6.689422432816782
 32
0.0
 13
11.42280900647063
 23
6.689422432816782
 33
0.0
  0
SOLID
  5
8B
330
7C
100
AcDbEntity
  8
SVG2
 62
     5
100
AcDbTrace
 10
7.9328222280507
 20
135.0004534879786
 30
0.0
 11
7.9328222280507
 21
135.1003612570508
 31
0.0
 12
11.42280900647063
 22
135.0004534879786
 32
0.0
 13
11.42280900647063
 23
135.0004534879786
 33
0.0
  0
SOLID
  5
8C
330
7C
100
AcDbEntity
  8
SVG2
 62
     5
100
AcDbTrace
 10
11.42280900647063
 20
135.0004534879786
 30
0.0
 11
7.9328222280507
 21
135.1003612570508
 31
0.0
 12
11.42280900647063
 22
135.1003612570508
 32
0.0
 13
11.42280900647063
 23
135.1003612570508
 33
0.0
  0
SOLID
  5
8D
330
7C
100
AcDbEntity
  8
SVG2
 62
     5
100
AcDbTrace
 10
11.42280900647063
 20
6.589514663744537
 30
0.0
 11
11.42280900647063
 21
6.689422432816782
 31
0.0
 12
15.94942552105489
 22
6.589514663744537
 32
0.0
 13
15.94942552105489
 23
6.589514663744537
 33
0.0
  0
SOLID
  5
8E
330
7C
100
AcDbEntity
  8
SVG2
 62
     5
100
AcDbTrace
 10
15.94942552105489
 20
6.589514663744537
 30
0.0
 11
11.42280900647063
 21
6.689422432816782
 31
0.0
 12
15.94942552105489
 22
6.689422432816782
 32
0.0
 13
15.94942552105489
 23
6.689422432816782
 33
0.0
  0
SOLID
  5
8F
330
7C
100
AcDbEntity
  8
SVG2
 62
     5
100
AcDbTrace
 10
11.42280900647063
 20
135.0004534879786
 30
0.0
 11
11.42280900647063
 21
135.1003612570508
 31
0.0
 12
15.94942552105489
 22
135.0004534879786
 32
0.0
 13
15.94942552105489
 23
135.0004534879786
 33
0.0
  0
SOLID
  5
90
330
7C
100
AcDbEntity
  8
SVG2
 62
     5
100
AcDbTrace
 10
15.94942552105489
 20
135.0004534879786
 30
0.0
 11
11.42280900647063
 21
135.1003612570508
 31
0.0
 12
15.94942552105489
 22
135.1003612570508
 32
0.0
 13
15.94942552105489
 23
135.1003612570508
 33
0.0
  0
SOLID
  5
91
330
7C
100
AcDbEntity
  8
SVG2
 62
     5
100
AcDbTrace
 10
15.94942552105489
 20
6.589514663744537
 30
0.0
 11
15.94942552105489
 21
6.689422432816782
 31
0.0
 12
21.30534582457062
 22
6.589514663744537
 32
0.0
 13
21.30534582457062
 23
6.589514663744537
 33
0.0
  0
SOLID
  5
92
330
7C
100
AcDbEntity
  8
SVG2
 62
     5
100
AcDbTrace
 10
21.30534582457062
 20
6.589514663744537
 30
0.0
 11
15.94942552105489
 21
6.689422432816782
 31
0.0
 12
21.30534582457062
 22
6.689422432816782
 32
0.0
 13
21.30534582457062
 23
6.689422432816782
 33
0.0
  0
SOLID
  5
93
330
7C
100
AcDbEntity
  8
SVG2
 62
     5
100
AcDbTrace
 10
15.94942552105489
 20
135.0004534879786
 30
0.0
 11
15.94942552105489
 21
135.1003612570508
 31
0.0
 12
21.30534582457062
 22
135.0004534879786
 32
0.0
 13
21.30534582457062
 23
135.0004534879786
 33
0.0
  0
SOLID
  5
94
330
7C
100
AcDbEntity
  8
SVG2
 62
     5
100
AcDbTrace
 10
21.30534582457062
 20
135.0004534879786
 30
0.0
 11
15.94942552105489
 21
135.1003612570508
 31
0.0
 12
21.30534582457062
 22
135.1003612570508
 32
0.0
 13
21.30534582457062
 23
135.1003612570508
 33
0.0
  0
SOLID
  5
95
330
7C
100
AcDbEntity
  8
SVG2
 62
     5
100
AcDbTrace
 10
21.30534582457062
 20
6.589514663744537
 30
0.0
 11
21.30534582457062
 21
6.689422432816782
 31
0.0
 12
27.28324396978495
 22
6.589514663744537
 32
0.0
 13
27.28324396978495
 23
6.589514663744537
 33
0.0
  0
SOLID
  5
96
330
7C
100
AcDbEntity
  8
SVG2
 62
     5
100
AcDbTrace
 10
27.28324396978495
 20
6.589514663744537
 30
0.0
 11
21.30534582457062
 21
6.689422432816782
 31
0.0
 12
27.28324396978495
 22
6.689422432816782
 32
0.0
 13
27.28324396978495
 23
6.689422432816782
 33
0.0
  0
SOLID
  5
97
330
7C
100
AcDbEntity
  8
SVG2
 62
     5
100
AcDbTrace
 10
21.30534582457062
 20
135.0004534879786
 30
0.0
 11
21.30534582457062
 21
135.1003612570508
 31
0.0
 12
27.28324396978495
 22
135.0004534879786
 32
0.0
 13
27.28324396978495
 23
135.0004534879786
 33
0.0
  0
SOLID
  5
98
330
7C
100
AcDbEntity
  8
SVG2
 62
     5
100
AcDbTrace
 10
27.28324396978495
 20
135.0004534879786
 30
0.0
 11
21.30534582457062
 21
135.1003612570508
 31
0.0
 12
27.28324396978495
 22
135.1003612570508
 32
0.0
 13
27.28324396978495
 23
135.1003612570508
 33
0.0
  0
SOLID
  5
99
330
7C
100
AcDbEntity
  8
SVG2
 62
     5
100
AcDbTrace
 10
27.28324396978496
 20
6.589514663744537
 30
0.0
 11
27.28324396978496
 21
6.689422432816782
 31
0.0
 12
40.27566999637796
 22
6.589514663744537
 32
0.0
 13
40.27566999637796
 23
6.589514663744537
 33
0.0
  0
SOLID
  5
9A
330
7C
100
AcDbEntity
  8
SVG2
 62
     5
100
AcDbTrace
 10
40.27566999637796
 20
6.589514663744537
 30
0.0
 11
27.28324396978496
 21
6.689422432816782
 31
0.0
 12
40.27566999637796
 22
6.689422432816782
 32
0.0
 13
40.27566999637796
 23
6.689422432816782
 33
0.0
  0
SOLID
  5
9B
330
7C
100
AcDbEntity
  8
SVG2
 62
     5
100
AcDbTrace
 10
27.28324396978496
 20
135.0004534879786
 30
0.0
 11
27.28324396978496
 21
135.1003612570508
 31
0.0
 12
40.27566999637796
 22
135.0004534879786
 32
0.0
 13
40.27566999637796
 23
135.0004534879786
 33
0.0
  0
SOLID
  5
9C
330
7C
100
AcDbEntity
  8
SVG2
 62
     5
100
AcDbTrace
 10
40.27566999637796
 20
135.0004534879786
 30
0.0
 11
27.28324396978496
 21
135.1003612570508
 31
0.0
 12
40.27566999637796
 22
135.1003612570508
 32
0.0
 13
40.27566999637796
 23
135.1003612570508
 33
0.0
  0
SOLID
  5
9D
330
7C
100
AcDbEntity
  8
SVG2
 62
     5
100
AcDbTrace
 10
40.27566999637795
 20
6.589514663744537
 30
0.0
 11
40.27566999637795
 21
6.689422432816782
 31
0.0
 12
53.26809602297095
 22
6.589514663744537
 32
0.0
 13
53.26809602297095
 23
6.589514663744537
 33
0.0
  0
SOLID
  5
9E
330
7C
100
AcDbEntity
  8
SVG2
 62
     5
100
AcDbTrace
 10
53.26809602297095
 20
6.589514663744537
 30
0.0
 11
40.27566999637795
 21
6.689422432816782
 31
0.0
 12
53.26809602297095
 22
6.689422432816782
 32
0.0
 13
53.26809602297095
 23
6.689422432816782
 33
0.0
  0
SOLID
  5
9F
330
7C
100
AcDbEntity
  8
SVG2
 62
     5
100
AcDbTrace
 10
40.27566999637795
 20
135.0004534879786
 30
0.0
 11
40.27566999637795
 21
135.1003612570508
 31
0.0
 12
53.26809602297095
 22
135.0004534879786
 32
0.0
 13
53.26809602297095
 23
135.0004534879786
 33
0.0
  0
SOLID
  5
A0
330
7C
100
AcDbEntity
  8
SVG2
 62
     5
100
AcDbTrace
 10
53.26809602297095
 20
135.0004534879786
 30
0.0
 11
40.27566999637795
 21
135.1003612570508
 31
0.0
 12
53.26809602297095
 22
135.1003612570508
 32
0.0
 13
53.26809602297095
 23
135.1003612570508
 33
0.0
  0
SOLID
  5
A1
330
7C
100
AcDbEntity
  8
SVG2
 62
     5
100
AcDbTrace
 10
53.26809602297095
 20
6.589514663744537
 30
0.0
 11
53.26809602297095
 21
6.689422432816782
 31
0.0
 12
59.24599416818528
 22
6.589514663744537
 32
0.0
 13
59.24599416818528
 23
6.589514663744537
 33
0.0
  0
SOLID
  5
A2
330
7C
100
AcDbEntity
  8
SVG2
 62
     5
100
AcDbTrace
 10
59.24599416818528
 20
6.589514663744537
 30
0.0
 11
53.26809602297095
 21
6.689422432816782
 31
0.0
 12
59.24599416818528
 22
6.689422432816782
 32
0.0
 13
59.24599416818528
 23
6.689422432816782
 33
0.0
  0
SOLID
  5
A3
330
7C
100
AcDbEntity
  8
SVG2
 62
     5
100
AcDbTrace
 10
53.26809602297095
 20
135.0004534879786
 30
0.0
 11
53.26809602297095
 21
135.1003612570508
 31
0.0
 12
59.24599416818528
 22
135.0004534879786
 32
0.0
 13
59.24599416818528
 23
135.0004534879786
 33
0.0
  0
SOLID
  5
A4
330
7C
100
AcDbEntity
  8
SVG2
 62
     5
100
AcDbTrace
 10
59.24599416818528
 20
135.0004534879786
 30
0.0
 11
53.26809602297095
 21
135.1003612570508
 31
0.0
 12
59.24599416818528
 22
135.1003612570508
 32
0.0
 13
59.24599416818528
 23
135.1003612570508
 33
0.0
  0
SOLID
  5
A5
330
7C
100
AcDbEntity
  8
SVG2
 62
     5
100
AcDbTrace
 10
59.24599416818528
 20
6.589514663744537
 30
0.0
 11
59.24599416818528
 21
6.689422432816782
 31
0.0
 12
64.60191447170101
 22
6.589514663744537
 32
0.0
 13
64.60191447170101
 23
6.589514663744537
 33
0.0
  0
SOLID
  5
A6
330
7C
100
AcDbEntity
  8
SVG2
 62
     5
100
AcDbTrace
 10
64.60191447170101
 20
6.589514663744537
 30
0.0
 11
59.24599416818528
 21
6.689422432816782
 31
0.0
 12
64.60191447170101
 22
6.689422432816782
 32
0.0
 13
64.60191447170101
 23
6.689422432816782
 33
0.0
  0
SOLID
  5
A7
330
7C
100
AcDbEntity
  8
SVG2
 62
     5
100
AcDbTrace
 10
59.24599416818528
 20
135.0004534879786
 30
0.0
 11
59.24599416818528
 21
135.1003612570508
 31
0.0
 12
64.60191447170101
 22
135.0004534879786
 32
0.0
 13
64.60191447170101
 23
135.0004534879786
 33
0.0
  0
SOLID
  5
A8
330
7C
100
AcDbEntity
  8
SVG2
 62
     5
100
AcDbTrace
 10
64.60191447170101
 20
135.0004534879786
 30
0.0
 11
59.24599416818528
 21
135.1003612570508
 31
0.0
 12
64.60191447170101
 22
135.1003612570508
 32
0.0
 13
64.60191447170101
 23
135.1003612570508
 33
0.0
  0
SOLID
  5
A9
330
7C
100
AcDbEntity
  8
SVG2
 62
     5
100
AcDbTrace
 10
64.60191447170101
 20
6.589514663744537
 30
0.0
 11
64.60191447170101
 21
6.689422432816782
 31
0.0
 12
69.12853098628527
 22
6.589514663744537
 32
0.0
 13
69.12853098628527
 23
6.589514663744537
 33
0.0
  0
SOLID
  5
AA
330
7C
100
AcDbEntity
  8
SVG2
 62
     5
100
AcDbTrace
 10
69.12853098628527
 20
6.589514663744537
 30
0.0
 11
64.60191447170101
 21
6.689422432816782
 31
0.0
 12
69.12853098628527
 22
6.689422432816782
 32
0.0
 13
69.12853098628527
 23
6.689422432816782
 33
0.0
  0
SOLID
  5
AB
330
7C
100
AcDbEntity
  8
SVG2
 62
     5
100
AcDbTrace
 10
64.60191447170101
 20
135.0004534879786
 30
0.0
 11
64.60191447170101
 21
135.1003612570508
 31
0.0
 12
69.12853098628527
 22
135.0004534879786
 32
0.0
 13
69.12853098628527
 23
135.0004534879786
 33
0.0
  0
SOLID
  5
AC
330
7C
100
AcDbEntity
  8
SVG2
 62
     5
100
AcDbTrace
 10
69.12853098628527
 20
135.0004534879786
 30
0.0
 11
64.60191447170101
 21
135.1003612570508
 31
0.0
 12
69.12853098628527
 22
135.1003612570508
 32
0.0
 13
69.12853098628527
 23
135.1003612570508
 33
0.0
  0
SOLID
  5
AD
330
7C
100
AcDbEntity
  8
SVG2
 62
     5
100
AcDbTrace
 10
69.12853098628527
 20
6.589514663744537
 30
0.0
 11
69.12853098628527
 21
6.689422432816782
 31
0.0
 12
72.61851776470522
 22
6.589514663744537
 32
0.0
 13
72.61851776470522
 23
6.589514663744537
 33
0.0
  0
SOLID
  5
AE
330
7C
100
AcDbEntity
  8
SVG2
 62
     5
100
AcDbTrace
 10
72.61851776470522
 20
6.589514663744537
 30
0.0
 11
69.12853098628527
 21
6.689422432816782
 31
0.0
 12
72.61851776470522
 22
6.689422432816782
 32
0.0
 13
72.61851776470522
 23
6.689422432816782
 33
0.0
  0
SOLID
  5
AF
330
7C
100
AcDbEntity
  8
SVG2
 62
     5
100
AcDbTrace
 10
69.12853098628527
 20
135.0004534879786
 30
0.0
 11
69.12853098628527
 21
135.1003612570508
 31
0.0
 12
72.61851776470522
 22
135.0004534879786
 32
0.0
 13
72.61851776470522
 23
135.0004534879786
 33
0.0
  0
SOLID
  5
B0
330
7C
100
AcDbEntity
  8
SVG2
 62
     5
100
AcDbTrace
 10
72.61851776470522
 20
135.0004534879786
 30
0.0
 11
69.12853098628527
 21
135.1003612570508
 31
0.0
 12
72.61851776470522
 22
135.1003612570508
 32
0.0
 13
72.61851776470522
 23
135.1003612570508
 33
0.0
  0
SOLID
  5
B1
330
7C
100
AcDbEntity
  8
SVG2
 62
     5
100
AcDbTrace
 10
72.61851776470519
 20
6.589514663744537
 30
0.0
 11
72.61851776470519
 21
6.689422432816782
 31
0.0
 12
74.86454885972792
 22
6.589514663744537
 32
0.0
 13
74.86454885972792
 23
6.589514663744537
 33
0.0
  0
SOLID
  5
B2
330
7C
100
AcDbEntity
  8
SVG2
 62
     5
100
AcDbTrace
 10
74.86454885972792
 20
6.589514663744537
 30
0.0
 11
72.61851776470519
 21
6.689422432816782
 31
0.0
 12
74.86454885972792
 22
6.689422432816782
 32
0.0
 13
74.86454885972792
 23
6.689422432816782
 33
0.0
  0
SOLID
  5
B3
330
7C
100
AcDbEntity
  8
SVG2
 62
     5
100
AcDbTrace
 10
72.61851776470519
 20
135.0004534879786
 30
0.0
 11
72.61851776470519
 21
135.1003612570508
 31
0.0
 12
74.86454885972792
 22
135.0004534879786
 32
0.0
 13
74.86454885972792
 23
135.0004534879786
 33
0.0
  0
SOLID
  5
B4
330
7C
100
AcDbEntity
  8
SVG2
 62
     5
100
AcDbTrace
 10
74.86454885972792
 20
135.0004534879786
 30
0.0
 11
72.61851776470519
 21
135.1003612570508
 31
0.0
 12
74.86454885972792
 22
135.1003612570508
 32
0.0
 13
74.86454885972792
 23
135.1003612570508
 33
0.0
  0
SOLID
  5
B5
330
7C
100
AcDbEntity
  8
SVG2
 62
     5
100
AcDbTrace
 10
74.86454885972792
 20
6.589514663744537
 30
0.0
 11
74.86454885972792
 21
6.689422432816782
 31
0.0
 12
75.60934443958446
 22
6.589514663744537
 32
0.0
 13
75.60934443958446
 23
6.589514663744537
 33
0.0
  0
SOLID
  5
B6
330
7C
100
AcDbEntity
  8
SVG2
 62
     5
100
AcDbTrace
 10
75.60934443958446
 20
6.589514663744537
 30
0.0
 11
74.86454885972792
 21
6.689422432816782
 31
0.0
 12
75.60934443958446
 22
6.689422432816782
 32
0.0
 13
75.60934443958446
 23
6.689422432816782
 33
0.0
  0
SOLID
  5
B7
330
7C
100
AcDbEntity
  8
SVG2
 62
     5
100
AcDbTrace
 10
74.86454885972792
 20
135.0004534879786
 30
0.0
 11
74.86454885972792
 21
135.1003612570508
 31
0.0
 12
75.60934443958446
 22
135.0004534879786
 32
0.0
 13
75.60934443958446
 23
135.0004534879786
 33
0.0
  0
SOLID
  5
B8
330
7C
100
AcDbEntity
  8
SVG2
 62
     5
100
AcDbTrace
 10
75.60934443958446
 20
135.0004534879786
 30
0.0
 11
74.86454885972792
 21
135.1003612570508
 31
0.0
 12
75.60934443958446
 22
135.1003612570508
 32
0.0
 13
75.60934443958446
 23
135.1003612570508
 33
0.0
  0
SOLID
  5
B9
330
7C
100
AcDbEntity
  8
SVG2
 62
     5
100
AcDbTrace
 10
75.60934443958446
 20
6.589514663744537
 30
0.0
 11
75.60934443958446
 21
135.1003612570508
 31
0.0
 12
75.65929832412058
 22
6.589514663744537
 32
0.0
 13
75.65929832412058
 23
6.589514663744537
 33
0.0
  0
SOLID
  5
BA
330
7C
100
AcDbEntity
  8
SVG2
 62
     5
100
AcDbTrace
 10
75.65929832412058
 20
6.589514663744537
 30
0.0
 11
75.60934443958446
 21
135.1003612570508
 31
0.0
 12
75.65929832412058
 22
135.1003612570508
 32
0.0
 13
75.65929832412058
 23
135.1003612570508
 33
0.0
  0
SOLID
  5
BB
330
7C
100
AcDbEntity
  8
SVG2
 62
     5
100
AcDbTrace
 10
75.65929832412058
 20
6.589514663744537
 30
0.0
 11
75.65929832412058
 21
135.1003612570508
 31
0.0
 12
75.70925220865671
 22
6.63946854828066
 32
0.0
 13
75.70925220865671
 23
6.63946854828066
 33
0.0
  0
SOLID
  5
BC
330
7C
100
AcDbEntity
  8
SVG2
 62
     5
100
AcDbTrace
 10
75.70925220865671
 20
6.63946854828066
 30
0.0
 11
75.65929832412058
 21
135.1003612570508
 31
0.0
 12
75.70925220865671
 22
135.0504073725147
 32
0.0
 13
75.70925220865671
 23
135.0504073725147
 33
0.0
  0
ENDBLK
  5
BE
330
7C
100
AcDbEntity
  8
0
100
AcDbBlockEnd
  0
ENDSEC
  0
SECTION
  2
ENTITIES
  0
INSERT
  5
42
330
1F
100
AcDbEntity
  8
SVG2
100
AcDbBlockReference
  2
BLOCK_2
 10
0.0
 20
0.0
 30
0.0
  0
INSERT
  5
46
330
1F
100
AcDbEntity
  8
SVG2
100
AcDbBlockReference
  2
BLOCK_3
 10
0.0
 20
0.0
 30
0.0
  0
INSERT
  5
4A
330
1F
100
AcDbEntity
  8
SVG2
100
AcDbBlockReference
  2
BLOCK_4
 10
0.0
 20
0.0
 30
0.0
  0
SPLINE
  5
61
330
1F
100
AcDbEntity
  8
SVG2
 62
     5
100
AcDbSpline
210
0.0
220
0.0
230
1.0
 70
    11
 71
     3
 72
    17
 73
    13
 74
     0
 42
0.0000000001
 43
0.0000000001
 12
1.0
 22
0.0
 32
0.0
 13
1.0
 23
0.0
 33
0.0
 40
0.0
 40
0.0
 40
0.0
 40
0.0
 40
1.0
 40
1.0
 40
1.0
 40
2.0
 40
2.0
 40
2.0
 40
3.0
 40
3.0
 40
3.0
 40
4.0
 40
4.0
 40
4.0
 40
4.0
 10
13.34835704231339
 20
38.49520067397016
 30
0.0
 10
15.08237722205228
 20
38.49520067397016
 30
0.0
 10
16.48807980204685
 20
39.90090190822431
 30
0.0
 10
16.48807980204685
 20
41.63492074222277
 30
0.0
 10
16.48807980204685
 20
43.36893957622123
 30
0.0
 10
15.08237722205228
 20
44.77464081047538
 30
0.0
 10
13.34835704231339
 20
44.77464081047538
 30
0.0
 10
11.6143361897043
 20
44.77464081047538
 30
0.0
 10
10.20863495545014
 20
43.36893957622123
 30
0.0
 10
10.20863495545014
 20
41.63492074222277
 30
0.0
 10
10.20863495545014
 20
39.90090190822431
 30
0.0
 10
11.6143361897043
 20
38.49520067397016
 30
0.0
 10
13.34835704231339
 20
38.49520067397016
 30
0.0
  0
SPLINE
  5
62
330
1F
100
AcDbEntity
  8
SVG2
 62
     5
100
AcDbSpline
210
0.0
220
0.0
230
1.0
 70
    11
 71
     3
 72
    17
 73
    13
 74
     0
 42
0.0000000001
 43
0.0000000001
 12
1.0
 22
0.0
 32
0.0
 13
1.0
 23
0.0
 33
0.0
 40
0.0
 40
0.0
 40
0.0
 40
0.0
 40
1.0
 40
1.0
 40
1.0
 40
2.0
 40
2.0
 40
2.0
 40
3.0
 40
3.0
 40
3.0
 40
4.0
 40
4.0
 40
4.0
 40
4.0
 10
22.83807980045935
 20
38.49520067397016
 30
0.0
 10
24.57210132593866
 20
38.49520067397016
 30
0.0
 10
25.97780256019282
 20
39.90090190822431
 30
0.0
 10
25.97780256019282
 20
41.63492074222277
 30
0.0
 10
25.97780256019282
 20
43.36893957622123
 30
0.0
 10
24.57210132593866
 20
44.77464081047538
 30
0.0
 10
22.83807980045935
 20
44.77464081047538
 30
0.0
 10
21.10405962072047
 20
44.77464081047538
 30
0.0
 10
19.6983570407259
 20
43.36893957622123
 30
0.0
 10
19.6983570407259
 20
41.63492074222277
 30
0.0
 10
19.6983570407259
 20
39.90090190822431
 30
0.0
 10
21.10405962072047
 20
38.49520067397016
 30
0.0
 10
22.83807980045935
 20
38.49520067397016
 30
0.0
  0
SPLINE
  5
63
330
1F
100
AcDbEntity
  8
SVG2
 62
     5
100
AcDbSpline
210
0.0
220
0.0
230
1.0
 70
    11
 71
     3
 72
    17
 73
    13
 74
     0
 42
0.0000000001
 43
0.0000000001
 12
1.0
 22
0.0
 32
0.0
 13
1.0
 23
0.0
 33
0.0
 40
0.0
 40
0.0
 40
0.0
 40
0.0
 40
1.0
 40
1.0
 40
1.0
 40
2.0
 40
2.0
 40
2.0
 40
3.0
 40
3.0
 40
3.0
 40
4.0
 40
4.0
 40
4.0
 40
4.0
 10
32.32780255860532
 20
38.49520067397016
 30
0.0
 10
34.06182408408463
 20
38.49520067397016
 30
0.0
 10
35.46752531833878
 20
39.90090190822431
 30
0.0
 10
35.46752531833878
 20
41.63492074222277
 30
0.0
 10
35.46752531833878
 20
43.36893957622123
 30
0.0
 10
34.06182408408463
 20
44.77464081047538
 30
0.0
 10
32.32780255860532
 20
44.77464081047538
 30
0.0
 10
30.59378103312601
 20
44.77464081047538
 30
0.0
 10
29.18807979887185
 20
43.36893957622123
 30
0.0
 10
29.18807979887185
 20
41.63492074222277
 30
0.0
 10
29.18807979887185
 20
39.90090190822431
 30
0.0
 10
30.59378103312601
 20
38.49520067397016
 30
0.0
 10
32.32780255860532
 20
38.49520067397016
 30
0.0
  0
SPLINE
  5
64
330
1F
100
AcDbEntity
  8
SVG2
 62
     5
100
AcDbSpline
210
0.0
220
0.0
230
1.0
 70
    11
 71
     3
 72
    17
 73
    13
 74
     0
 42
0.0000000001
 43
0.0000000001
 12
1.0
 22
0.0
 32
0.0
 13
1.0
 23
0.0
 33
0.0
 40
0.0
 40
0.0
 40
0.0
 40
0.0
 40
1.0
 40
1.0
 40
1.0
 40
2.0
 40
2.0
 40
2.0
 40
3.0
 40
3.0
 40
3.0
 40
4.0
 40
4.0
 40
4.0
 40
4.0
 10
41.85280255622407
 20
38.49520067397016
 30
0.0
 10
43.58682408170338
 20
38.49520067397016
 30
0.0
 10
44.99252531595753
 20
39.90090190822431
 30
0.0
 10
44.99252531595753
 20
41.63492074222277
 30
0.0
 10
44.99252531595753
 20
43.36893957622123
 30
0.0
 10
43.58682408170338
 20
44.77464081047538
 30
0.0
 10
41.85280255622407
 20
44.77464081047538
 30
0.0
 10
40.11878103074476
 20
44.77464081047538
 30
0.0
 10
38.7130797964906
 20
43.36893957622123
 30
0.0
 10
38.7130797964906
 20
41.63492074222277
 30
0.0
 10
38.7130797964906
 20
39.90090190822431
 30
0.0
 10
40.11878103074476
 20
38.49520067397016
 30
0.0
 10
41.85280255622407
 20
38.49520067397016
 30
0.0
  0
SPLINE
  5
65
330
1F
100
AcDbEntity
  8
SVG2
 62
     5
100
AcDbSpline
210
0.0
220
0.0
230
1.0
 70
    11
 71
     3
 72
    17
 73
    13
 74
     0
 42
0.0000000001
 43
0.0000000001
 12
1.0
 22
0.0
 32
0.0
 13
1.0
 23
0.0
 33
0.0
 40
0.0
 40
0.0
 40
0.0
 40
0.0
 40
1.0
 40
1.0
 40
1.0
 40
2.0
 40
2.0
 40
2.0
 40
3.0
 40
3.0
 40
3.0
 40
4.0
 40
4.0
 40
4.0
 40
4.0
 10
56.84585810803136
 20
38.49520067397016
 30
0.0
 10
58.57987694202982
 20
38.49520067397016
 30
0.0
 10
59.98557817628397
 20
39.90090190822431
 30
0.0
 10
59.98557817628397
 20
41.63492074222277
 30
0.0
 10
59.98557817628397
 20
43.36893957622123
 30
0.0
 10
58.57987694202982
 20
44.77464081047538
 30
0.0
 10
56.84585810803136
 20
44.77464081047538
 30
0.0
 10
55.1118392740329
 20
44.77464081047538
 30
0.0
 10
53.70613803977874
 20
43.36893957622123
 30
0.0
 10
53.70613803977874
 20
41.63492074222277
 30
0.0
 10
53.70613803977874
 20
39.90090190822431
 30
0.0
 10
55.1118392740329
 20
38.49520067397016
 30
0.0
 10
56.84585810803136
 20
38.49520067397016
 30
0.0
  0
SPLINE
  5
66
330
1F
100
AcDbEntity
  8
SVG2
 62
     5
100
AcDbSpline
210
0.0
220
0.0
230
1.0
 70
    11
 71
     3
 72
    17
 73
    13
 74
     0
 42
0.0000000001
 43
0.0000000001
 12
1.0
 22
0.0
 32
0.0
 13
1.0
 23
0.0
 33
0.0
 40
0.0
 40
0.0
 40
0.0
 40
0.0
 40
1.0
 40
1.0
 40
1.0
 40
2.0
 40
2.0
 40
2.0
 40
3.0
 40
3.0
 40
3.0
 40
4.0
 40
4.0
 40
4.0
 40
4.0
 10
66.33557817469648
 20
38.49520067397016
 30
0.0
 10
68.06959700869494
 20
38.49520067397016
 30
0.0
 10
69.47529824294908
 20
39.90090190822431
 30
0.0
 10
69.47529824294908
 20
41.63492074222277
 30
0.0
 10
69.47529824294908
 20
43.36893957622123
 30
0.0
 10
68.06959700869494
 20
44.77464081047538
 30
0.0
 10
66.33557817469648
 20
44.77464081047538
 30
0.0
 10
64.60155934069802
 20
44.77464081047538
 30
0.0
 10
63.19585810644386
 20
43.36893957622123
 30
0.0
 10
63.19585810644386
 20
41.63492074222277
 30
0.0
 10
63.19585810644386
 20
39.90090190822431
 30
0.0
 10
64.60155934069802
 20
38.49520067397016
 30
0.0
 10
66.33557817469648
 20
38.49520067397016
 30
0.0
  0
SPLINE
  5
67
330
1F
100
AcDbEntity
  8
SVG2
 62
     5
100
AcDbSpline
210
0.0
220
0.0
230
1.0
 70
    11
 71
     3
 72
    17
 73
    13
 74
     0
 42
0.0000000001
 43
0.0000000001
 12
1.0
 22
0.0
 32
0.0
 13
1.0
 23
0.0
 33
0.0
 40
0.0
 40
0.0
 40
0.0
 40
0.0
 40
1.0
 40
1.0
 40
1.0
 40
2.0
 40
2.0
 40
2.0
 40
3.0
 40
3.0
 40
3.0
 40
4.0
 40
4.0
 40
4.0
 40
4.0
 10
13.34835704231339
 20
26.50075623252432
 30
0.0
 10
15.08237722205228
 20
26.50075623252432
 30
0.0
 10
16.48807980204685
 20
27.90645746677848
 30
0.0
 10
16.48807980204685
 20
29.64047630077694
 30
0.0
 10
16.48807980204685
 20
31.3744951347754
 30
0.0
 10
15.08237722205228
 20
32.78019636902955
 30
0.0
 10
13.34835704231339
 20
32.78019636902955
 30
0.0
 10
11.6143361897043
 20
32.78019636902955
 30
0.0
 10
10.20863495545014
 20
31.3744951347754
 30
0.0
 10
10.20863495545014
 20
29.64047630077694
 30
0.0
 10
10.20863495545014
 20
27.90645746677848
 30
0.0
 10
11.6143361897043
 20
26.50075623252432
 30
0.0
 10
13.34835704231339
 20
26.50075623252432
 30
0.0
  0
SPLINE
  5
68
330
1F
100
AcDbEntity
  8
SVG2
 62
     5
100
AcDbSpline
210
0.0
220
0.0
230
1.0
 70
    11
 71
     3
 72
    17
 73
    13
 74
     0
 42
0.0000000001
 43
0.0000000001
 12
1.0
 22
0.0
 32
0.0
 13
1.0
 23
0.0
 33
0.0
 40
0.0
 40
0.0
 40
0.0
 40
0.0
 40
1.0
 40
1.0
 40
1.0
 40
2.0
 40
2.0
 40
2.0
 40
3.0
 40
3.0
 40
3.0
 40
4.0
 40
4.0
 40
4.0
 40
4.0
 10
22.83807980045935
 20
26.50075623252432
 30
0.0
 10
24.57210132593866
 20
26.50075623252432
 30
0.0
 10
25.97780256019282
 20
27.90645746677848
 30
0.0
 10
25.97780256019282
 20
29.64047630077694
 30
0.0
 10
25.97780256019282
 20
31.3744951347754
 30
0.0
 10
24.57210132593866
 20
32.78019636902955
 30
0.0
 10
22.83807980045935
 20
32.78019636902955
 30
0.0
 10
21.10405962072047
 20
32.78019636902955
 30
0.0
 10
19.6983570407259
 20
31.3744951347754
 30
0.0
 10
19.6983570407259
 20
29.64047630077694
 30
0.0
 10
19.6983570407259
 20
27.90645746677848
 30
0.0
 10
21.10405962072047
 20
26.50075623252432
 30
0.0
 10
22.83807980045935
 20
26.50075623252432
 30
0.0
  0
SPLINE
  5
69
330
1F
100
AcDbEntity
  8
SVG2
 62
     5
100
AcDbSpline
210
0.0
220
0.0
230
1.0
 70
    11
 71
     3
 72
    17
 73
    13
 74
     0
 42
0.0000000001
 43
0.0000000001
 12
1.0
 22
0.0
 32
0.0
 13
1.0
 23
0.0
 33
0.0
 40
0.0
 40
0.0
 40
0.0
 40
0.0
 40
1.0
 40
1.0
 40
1.0
 40
2.0
 40
2.0
 40
2.0
 40
3.0
 40
3.0
 40
3.0
 40
4.0
 40
4.0
 40
4.0
 40
4.0
 10
32.32780255860532
 20
26.50075623252432
 30
0.0
 10
34.06182408408463
 20
26.50075623252432
 30
0.0
 10
35.46752531833878
 20
27.90645746677848
 30
0.0
 10
35.46752531833878
 20
29.64047630077694
 30
0.0
 10
35.46752531833878
 20
31.3744951347754
 30
0.0
 10
34.06182408408463
 20
32.78019636902955
 30
0.0
 10
32.32780255860532
 20
32.78019636902955
 30
0.0
 10
30.59378103312601
 20
32.78019636902955
 30
0.0
 10
29.18807979887185
 20
31.3744951347754
 30
0.0
 10
29.18807979887185
 20
29.64047630077694
 30
0.0
 10
29.18807979887185
 20
27.90645746677848
 30
0.0
 10
30.59378103312601
 20
26.50075623252432
 30
0.0
 10
32.32780255860532
 20
26.50075623252432
 30
0.0
  0
SPLINE
  5
6A
330
1F
100
AcDbEntity
  8
SVG2
 62
     5
100
AcDbSpline
210
0.0
220
0.0
230
1.0
 70
    11
 71
     3
 72
    17
 73
    13
 74
     0
 42
0.0000000001
 43
0.0000000001
 12
1.0
 22
0.0
 32
0.0
 13
1.0
 23
0.0
 33
0.0
 40
0.0
 40
0.0
 40
0.0
 40
0.0
 40
1.0
 40
1.0
 40
1.0
 40
2.0
 40
2.0
 40
2.0
 40
3.0
 40
3.0
 40
3.0
 40
4.0
 40
4.0
 40
4.0
 40
4.0
 10
41.85280255622407
 20
26.50075623252432
 30
0.0
 10
43.58682408170338
 20
26.50075623252432
 30
0.0
 10
44.99252531595753
 20
27.90645746677848
 30
0.0
 10
44.99252531595753
 20
29.64047630077694
 30
0.0
 10
44.99252531595753
 20
31.3744951347754
 30
0.0
 10
43.58682408170338
 20
32.78019636902955
 30
0.0
 10
41.85280255622407
 20
32.78019636902955
 30
0.0
 10
40.11878103074476
 20
32.78019636902955
 30
0.0
 10
38.7130797964906
 20
31.3744951347754
 30
0.0
 10
38.7130797964906
 20
29.64047630077694
 30
0.0
 10
38.7130797964906
 20
27.90645746677848
 30
0.0
 10
40.11878103074476
 20
26.50075623252432
 30
0.0
 10
41.85280255622407
 20
26.50075623252432
 30
0.0
  0
SPLINE
  5
6B
330
1F
100
AcDbEntity
  8
SVG2
 62
     5
100
AcDbSpline
210
0.0
220
0.0
230
1.0
 70
    11
 71
     3
 72
    17
 73
    13
 74
     0
 42
0.0000000001
 43
0.0000000001
 12
1.0
 22
0.0
 32
0.0
 13
1.0
 23
0.0
 33
0.0
 40
0.0
 40
0.0
 40
0.0
 40
0.0
 40
1.0
 40
1.0
 40
1.0
 40
2.0
 40
2.0
 40
2.0
 40
3.0
 40
3.0
 40
3.0
 40
4.0
 40
4.0
 40
4.0
 40
4.0
 10
56.84585810803136
 20
26.50075623252432
 30
0.0
 10
58.57987694202982
 20
26.50075623252432
 30
0.0
 10
59.98557817628397
 20
27.90645746677848
 30
0.0
 10
59.98557817628397
 20
29.64047630077694
 30
0.0
 10
59.98557817628397
 20
31.3744951347754
 30
0.0
 10
58.57987694202982
 20
32.78019636902955
 30
0.0
 10
56.84585810803136
 20
32.78019636902955
 30
0.0
 10
55.1118392740329
 20
32.78019636902955
 30
0.0
 10
53.70613803977874
 20
31.3744951347754
 30
0.0
 10
53.70613803977874
 20
29.64047630077694
 30
0.0
 10
53.70613803977874
 20
27.90645746677848
 30
0.0
 10
55.1118392740329
 20
26.50075623252432
 30
0.0
 10
56.84585810803136
 20
26.50075623252432
 30
0.0
  0
SPLINE
  5
6C
330
1F
100
AcDbEntity
  8
SVG2
 62
     5
100
AcDbSpline
210
0.0
220
0.0
230
1.0
 70
    11
 71
     3
 72
    17
 73
    13
 74
     0
 42
0.0000000001
 43
0.0000000001
 12
1.0
 22
0.0
 32
0.0
 13
1.0
 23
0.0
 33
0.0
 40
0.0
 40
0.0
 40
0.0
 40
0.0
 40
1.0
 40
1.0
 40
1.0
 40
2.0
 40
2.0
 40
2.0
 40
3.0
 40
3.0
 40
3.0
 40
4.0
 40
4.0
 40
4.0
 40
4.0
 10
66.33557817469648
 20
26.50075623252432
 30
0.0
 10
68.06959700869494
 20
26.50075623252432
 30
0.0
 10
69.47529824294908
 20
27.90645746677848
 30
0.0
 10
69.47529824294908
 20
29.64047630077694
 30
0.0
 10
69.47529824294908
 20
31.3744951347754
 30
0.0
 10
68.06959700869494
 20
32.78019636902955
 30
0.0
 10
66.33557817469648
 20
32.78019636902955
 30
0.0
 10
64.60155934069802
 20
32.78019636902955
 30
0.0
 10
63.19585810644386
 20
31.3744951347754
 30
0.0
 10
63.19585810644386
 20
29.64047630077694
 30
0.0
 10
63.19585810644386
 20
27.90645746677848
 30
0.0
 10
64.60155934069802
 20
26.50075623252432
 30
0.0
 10
66.33557817469648
 20
26.50075623252432
 30
0.0
  0
SPLINE
  5
6D
330
1F
100
AcDbEntity
  8
SVG2
 62
     5
100
AcDbSpline
210
0.0
220
0.0
230
1.0
 70
    11
 71
     3
 72
    17
 73
    13
 74
     0
 42
0.0000000001
 43
0.0000000001
 12
1.0
 22
0.0
 32
0.0
 13
1.0
 23
0.0
 33
0.0
 40
0.0
 40
0.0
 40
0.0
 40
0.0
 40
1.0
 40
1.0
 40
1.0
 40
2.0
 40
2.0
 40
2.0
 40
3.0
 40
3.0
 40
3.0
 40
4.0
 40
4.0
 40
4.0
 40
4.0
 10
61.64363265483268
 20
68.6224207354759
 30
0.0
 10
64.13750497883485
 20
68.6224207354759
 30
0.0
 10
66.15918928585168
 20
70.6441036967523
 30
0.0
 10
66.15918928585168
 20
73.1379760207548
 30
0.0
 10
66.15918928585168
 20
75.63184834475666
 30
0.0
 10
64.13750497883485
 20
77.65353130603306
 30
0.0
 10
61.64363265483268
 20
77.65353130603306
 30
0.0
 10
59.1497603308305
 20
77.65353130603306
 30
0.0
 10
57.12807602381367
 20
75.63184834475666
 30
0.0
 10
57.12807602381367
 20
73.1379760207548
 30
0.0
 10
57.12807602381367
 20
70.6441036967523
 30
0.0
 10
59.1497603308305
 20
68.6224207354759
 30
0.0
 10
61.64363265483268
 20
68.6224207354759
 30
0.0
  0
SPLINE
  5
6E
330
1F
100
AcDbEntity
  8
SVG2
 62
     5
100
AcDbSpline
210
0.0
220
0.0
230
1.0
 70
    11
 71
     3
 72
    17
 73
    13
 74
     0
 42
0.0000000001
 43
0.0000000001
 12
1.0
 22
0.0
 32
0.0
 13
1.0
 23
0.0
 33
0.0
 40
0.0
 40
0.0
 40
0.0
 40
0.0
 40
1.0
 40
1.0
 40
1.0
 40
2.0
 40
2.0
 40
2.0
 40
3.0
 40
3.0
 40
3.0
 40
4.0
 40
4.0
 40
4.0
 40
4.0
 10
17.7228020239604
 20
68.6224207354759
 30
0.0
 10
20.21667434796258
 20
68.6224207354759
 30
0.0
 10
22.23835730923898
 20
70.6441036967523
 30
0.0
 10
22.23835730923898
 20
73.1379760207548
 30
0.0
 10
22.23835730923898
 20
75.63184834475666
 30
0.0
 10
20.21667434796258
 20
77.65353130603306
 30
0.0
 10
17.7228020239604
 20
77.65353130603306
 30
0.0
 10
15.22892969995821
 20
77.65353130603306
 30
0.0
 10
13.20724673868181
 20
75.63184834475666
 30
0.0
 10
13.20724673868181
 20
73.1379760207548
 30
0.0
 10
13.20724673868181
 20
70.6441036967523
 30
0.0
 10
15.22892969995821
 20
68.6224207354759
 30
0.0
 10
17.7228020239604
 20
68.6224207354759
 30
0.0
  0
SPLINE
  5
6F
330
1F
100
AcDbEntity
  8
SVG2
 62
     5
100
AcDbSpline
210
0.0
220
0.0
230
1.0
 70
    11
 71
     3
 72
    17
 73
    13
 74
     0
 42
0.0000000001
 43
0.0000000001
 12
1.0
 22
0.0
 32
0.0
 13
1.0
 23
0.0
 33
0.0
 40
0.0
 40
0.0
 40
0.0
 40
0.0
 40
1.0
 40
1.0
 40
1.0
 40
2.0
 40
2.0
 40
2.0
 40
3.0
 40
3.0
 40
3.0
 40
4.0
 40
4.0
 40
4.0
 40
4.0
 10
61.64363265483268
 20
93.8813097526241
 30
0.0
 10
63.49455326797672
 20
93.8813097526241
 30
0.0
 10
64.99502154288372
 20
95.381777691096
 30
0.0
 10
64.99502154288372
 20
97.23269864067515
 30
0.0
 10
64.99502154288372
 20
99.08361992668941
 30
0.0
 10
63.49455326797672
 20
100.5840875287262
 30
0.0
 10
61.64363265483268
 20
100.5840875287262
 30
0.0
 10
59.79271204168864
 20
100.5840875287262
 30
0.0
 10
58.29224376678163
 20
99.08361992668941
 30
0.0
 10
58.29224376678163
 20
97.23269864067515
 30
0.0
 10
58.29224376678163
 20
95.381777691096
 30
0.0
 10
59.79271204168864
 20
93.8813097526241
 30
0.0
 10
61.64363265483268
 20
93.8813097526241
 30
0.0
  0
SPLINE
  5
70
330
1F
100
AcDbEntity
  8
SVG2
 62
     5
100
AcDbSpline
210
0.0
220
0.0
230
1.0
 70
    11
 71
     3
 72
    17
 73
    13
 74
     0
 42
0.0000000001
 43
0.0000000001
 12
1.0
 22
0.0
 32
0.0
 13
1.0
 23
0.0
 33
0.0
 40
0.0
 40
0.0
 40
0.0
 40
0.0
 40
1.0
 40
1.0
 40
1.0
 40
2.0
 40
2.0
 40
2.0
 40
3.0
 40
3.0
 40
3.0
 40
4.0
 40
4.0
 40
4.0
 40
4.0
 10
61.64363265483268
 20
112.684365707201
 30
0.0
 10
63.49455326797672
 20
112.684365707201
 30
0.0
 10
64.99502154288372
 20
114.184833982108
 30
0.0
 10
64.99502154288372
 20
116.0357545952521
 30
0.0
 10
64.99502154288372
 20
117.8866752083961
 30
0.0
 10
63.49455326797672
 20
119.3871434833031
 30
0.0
 10
61.64363265483268
 20
119.3871434833031
 30
0.0
 10
59.79271204168864
 20
119.3871434833031
 30
0.0
 10
58.29224376678163
 20
117.8866752083961
 30
0.0
 10
58.29224376678163
 20
116.0357545952521
 30
0.0
 10
58.29224376678163
 20
114.184833982108
 30
0.0
 10
59.79271204168864
 20
112.684365707201
 30
0.0
 10
61.64363265483268
 20
112.684365707201
 30
0.0
  0
SPLINE
  5
71
330
1F
100
AcDbEntity
  8
SVG2
 62
     5
100
AcDbSpline
210
0.0
220
0.0
230
1.0
 70
    11
 71
     3
 72
    29
 73
    25
 74
     0
 42
0.0000000001
 43
0.0000000001
 12
1.0
 22
0.0
 32
0.0
 13
1.0
 23
0.0
 33
0.0
 40
0.0
 40
0.0
 40
0.0
 40
0.0
 40
1.0
 40
1.0
 40
1.0
 40
2.0
 40
2.0
 40
2.0
 40
3.0
 40
3.0
 40
3.0
 40
4.0
 40
4.0
 40
4.0
 40
5.0
 40
5.0
 40
5.0
 40
6.0
 40
6.0
 40
6.0
 40
7.0
 40
7.0
 40
7.0
 40
8.0
 40
8.0
 40
8.0
 40
8.0
 10
14.01863535821977
 20
96.9379760148042
 30
0.0
 10
14.01863535821977
 20
96.9379760148042
 30
0.0
 10
44.00474646183436
 20
96.9379760148042
 30
0.0
 10
44.00474646183436
 20
96.9379760148042
 30
0.0
 10
44.81613642711274
 20
96.9379760148042
 30
0.0
 10
45.5216919824919
 20
97.66433406228363
 30
0.0
 10
45.5216919824919
 20
98.58183900274035
 30
0.0
 10
45.5216919824919
 20
98.58183900274035
 30
0.0
 10
45.5216919824919
 20
114.2941130221189
 30
0.0
 10
45.5216919824919
 20
114.2941130221189
 30
0.0
 10
45.5216919824919
 20
115.1733884381465
 30
0.0
 10
44.85141366658553
 20
115.9379760100547
 30
0.0
 10
44.00474646183436
 20
115.9379760100547
 30
0.0
 10
44.00474646183436
 20
115.9379760100547
 30
0.0
 10
14.01863535821977
 20
115.9379760100547
 30
0.0
 10
14.01863535821977
 20
115.9379760100547
 30
0.0
 10
13.20724673868181
 20
115.9379760100547
 30
0.0
 10
12.50169118330265
 20
115.2116172334078
 30
0.0
 10
12.50169118330265
 20
114.2941130221189
 30
0.0
 10
12.50169118330265
 20
114.2941130221189
 30
0.0
 10
12.50169118330265
 20
98.58183900274035
 30
0.0
 10
12.50169118330265
 20
98.58183900274035
 30
0.0
 10
12.53696842277544
 20
97.66433406228363
 30
0.0
 10
13.20724539294139
 20
96.9379760148042
 30
0.0
 10
14.01863535821977
 20
96.9379760148042
 30
0.0
  0
SPLINE
  5
72
330
1F
100
AcDbEntity
  8
SVG2
 62
     5
100
AcDbSpline
210
0.0
220
0.0
230
1.0
 70
    11
 71
     3
 72
    29
 73
    25
 74
     0
 42
0.0000000001
 43
0.0000000001
 12
1.0
 22
0.0
 32
0.0
 13
1.0
 23
0.0
 33
0.0
 40
0.0
 40
0.0
 40
0.0
 40
0.0
 40
1.0
 40
1.0
 40
1.0
 40
2.0
 40
2.0
 40
2.0
 40
3.0
 40
3.0
 40
3.0
 40
4.0
 40
4.0
 40
4.0
 40
5.0
 40
5.0
 40
5.0
 40
6.0
 40
6.0
 40
6.0
 40
7.0
 40
7.0
 40
7.0
 40
8.0
 40
8.0
 40
8.0
 40
8.0
 10
9.361968423569186
 20
10.5551963745858
 30
0.0
 10
9.503079400070977
 20
11.04908311016654
 30
0.0
 10
9.996968154262351
 20
11.40186088785612
 30
0.0
 10
10.49085758132394
 20
11.40186088785612
 30
0.0
 10
10.49085758132394
 20
11.40186088785612
 30
0.0
 10
14.01863535821977
 20
11.40186088785612
 30
0.0
 10
14.01863535821977
 20
11.40186088785612
 30
0.0
 10
14.54780202475415
 20
11.40186088785612
 30
0.0
 10
15.00641286660252
 20
11.04908311016654
 30
0.0
 10
15.14752451597452
 20
10.5551963745858
 30
0.0
 10
15.32391340481932
 20
9.955475229105847
 30
0.0
 10
15.32391340481932
 20
9.320474152672258
 30
0.0
 10
15.14752451597452
 20
8.756027555184247
 30
0.0
 10
15.00641286660252
 20
8.262140819603507
 30
0.0
 10
14.51252478528136
 20
7.909363041913924
 30
0.0
 10
14.01863535821977
 20
7.909363041913924
 30
0.0
 10
14.01863535821977
 20
7.909363041913924
 30
0.0
 10
10.52613482079673
 20
7.909363041913924
 30
0.0
 10
10.52613482079673
 20
7.909363041913924
 30
0.0
 10
9.996968154262351
 20
7.909363041913924
 30
0.0
 10
9.538357312413979
 20
8.262140819603507
 30
0.0
 10
9.397245663041975
 20
8.756027555184247
 30
0.0
 10
9.185579534724395
 20
9.320474152672258
 30
0.0
 10
9.185579534724395
 20
9.955475229105847
 30
0.0
 10
9.361968423569186
 20
10.5551963745858
 30
0.0
  0
SPLINE
  5
73
330
1F
100
AcDbEntity
  8
SVG2
 62
     5
100
AcDbSpline
210
0.0
220
0.0
230
1.0
 70
    11
 71
     3
 72
    29
 73
    25
 74
     0
 42
0.0000000001
 43
0.0000000001
 12
1.0
 22
0.0
 32
0.0
 13
1.0
 23
0.0
 33
0.0
 40
0.0
 40
0.0
 40
0.0
 40
0.0
 40
1.0
 40
1.0
 40
1.0
 40
2.0
 40
2.0
 40
2.0
 40
3.0
 40
3.0
 40
3.0
 40
4.0
 40
4.0
 40
4.0
 40
5.0
 40
5.0
 40
5.0
 40
6.0
 40
6.0
 40
6.0
 40
7.0
 40
7.0
 40
7.0
 40
8.0
 40
8.0
 40
8.0
 40
8.0
 10
9.361968423569186
 20
132.9338106848793
 30
0.0
 10
9.503079400070977
 20
133.4277001119409
 30
0.0
 10
9.996968154262351
 20
133.7804778896304
 30
0.0
 10
10.49085758132394
 20
133.7804778896304
 30
0.0
 10
10.49085758132394
 20
133.7804778896304
 30
0.0
 10
14.01863535821977
 20
133.7804778896304
 30
0.0
 10
14.01863535821977
 20
133.7804778896304
 30
0.0
 10
14.54780202475415
 20
133.7804778896304
 30
0.0
 10
15.00641286660252
 20
133.4277001119409
 30
0.0
 10
15.14752451597452
 20
132.9338106848793
 30
0.0
 10
15.32391340481932
 20
132.3340895393993
 30
0.0
 10
15.32391340481932
 20
131.6990884629657
 30
0.0
 10
15.14752451597452
 20
131.1346445569586
 30
0.0
 10
15.00641286660252
 20
130.640755129897
 30
0.0
 10
14.51252478528136
 20
130.2879773522074
 30
0.0
 10
14.01863535821977
 20
130.2879773522074
 30
0.0
 10
14.01863535821977
 20
130.2879773522074
 30
0.0
 10
10.52613482079673
 20
130.2879773522074
 30
0.0
 10
10.52613482079673
 20
130.2879773522074
 30
0.0
 10
9.996968154262351
 20
130.2879773522074
 30
0.0
 10
9.538357312413979
 20
130.640755129897
 30
0.0
 10
9.397245663041975
 20
131.1346445569586
 30
0.0
 10
9.185579534724395
 20
131.7343657024385
 30
0.0
 10
9.185579534724395
 20
132.3693640873913
 30
0.0
 10
9.361968423569186
 20
132.9338106848793
 30
0.0
  0
SPLINE
  5
74
330
1F
100
AcDbEntity
  8
SVG2
 62
     5
100
AcDbSpline
210
0.0
220
0.0
230
1.0
 70
    11
 71
     3
 72
    29
 73
    25
 74
     0
 42
0.0000000001
 43
0.0000000001
 12
1.0
 22
0.0
 32
0.0
 13
1.0
 23
0.0
 33
0.0
 40
0.0
 40
0.0
 40
0.0
 40
0.0
 40
1.0
 40
1.0
 40
1.0
 40
2.0
 40
2.0
 40
2.0
 40
3.0
 40
3.0
 40
3.0
 40
4.0
 40
4.0
 40
4.0
 40
5.0
 40
5.0
 40
5.0
 40
6.0
 40
6.0
 40
6.0
 40
7.0
 40
7.0
 40
7.0
 40
8.0
 40
8.0
 40
8.0
 40
8.0
 10
65.24197029363579
 20
10.5551963745858
 30
0.0
 10
65.38307925152694
 20
11.04908311016654
 30
0.0
 10
65.87697137006937
 20
11.40186088785612
 30
0.0
 10
66.37085810565011
 20
11.40186088785612
 30
0.0
 10
66.37085810565011
 20
11.40186088785612
 30
0.0
 10
69.89863588254595
 20
11.40186088785612
 30
0.0
 10
69.89863588254595
 20
11.40186088785612
 30
0.0
 10
70.42780254908031
 20
11.40186088785612
 30
0.0
 10
70.88641473666911
 20
11.04908311016654
 30
0.0
 10
71.02752369456027
 20
10.5551963745858
 30
0.0
 10
71.20391258340506
 20
9.955475229105847
 30
0.0
 10
71.20391258340506
 20
9.320474152672258
 30
0.0
 10
71.02752369456027
 20
8.756027555184247
 30
0.0
 10
70.88641473666911
 20
8.262140819603507
 30
0.0
 10
70.39252261812668
 20
7.909363041913924
 30
0.0
 10
69.89863588254595
 20
7.909363041913924
 30
0.0
 10
69.89863588254595
 20
7.909363041913924
 30
0.0
 10
66.37085810565011
 20
7.909363041913924
 30
0.0
 10
66.37085810565011
 20
7.909363041913924
 30
0.0
 10
65.84169143911573
 20
7.909363041913924
 30
0.0
 10
65.38307925152694
 20
8.262140819603507
 30
0.0
 10
65.24197029363579
 20
8.756027555184247
 30
0.0
 10
65.06558140479099
 20
9.320474152672258
 30
0.0
 10
65.06558140479099
 20
9.955475229105847
 30
0.0
 10
65.24197029363579
 20
10.5551963745858
 30
0.0
  0
SPLINE
  5
75
330
1F
100
AcDbEntity
  8
SVG2
 62
     5
100
AcDbSpline
210
0.0
220
0.0
230
1.0
 70
    11
 71
     3
 72
    29
 73
    25
 74
     0
 42
0.0000000001
 43
0.0000000001
 12
1.0
 22
0.0
 32
0.0
 13
1.0
 23
0.0
 33
0.0
 40
0.0
 40
0.0
 40
0.0
 40
0.0
 40
1.0
 40
1.0
 40
1.0
 40
2.0
 40
2.0
 40
2.0
 40
3.0
 40
3.0
 40
3.0
 40
4.0
 40
4.0
 40
4.0
 40
5.0
 40
5.0
 40
5.0
 40
6.0
 40
6.0
 40
6.0
 40
7.0
 40
7.0
 40
7.0
 40
8.0
 40
8.0
 40
8.0
 40
8.0
 10
65.24197029363579
 20
132.9338106848793
 30
0.0
 10
65.38307925152694
 20
133.4277001119409
 30
0.0
 10
65.87697137006937
 20
133.7804778896304
 30
0.0
 10
66.37085810565011
 20
133.7804778896304
 30
0.0
 10
66.37085810565011
 20
133.7804778896304
 30
0.0
 10
69.89863588254595
 20
133.7804778896304
 30
0.0
 10
69.89863588254595
 20
133.7804778896304
 30
0.0
 10
70.42780254908031
 20
133.7804778896304
 30
0.0
 10
70.88641473666911
 20
133.4277001119409
 30
0.0
 10
71.02752369456027
 20
132.9338106848793
 30
0.0
 10
71.20391258340506
 20
132.3340895393993
 30
0.0
 10
71.20391258340506
 20
131.6990884629657
 30
0.0
 10
71.02752369456027
 20
131.1346445569586
 30
0.0
 10
70.88641473666911
 20
130.640755129897
 30
0.0
 10
70.39252261812668
 20
130.2879773522074
 30
0.0
 10
69.89863588254595
 20
130.2879773522074
 30
0.0
 10
69.89863588254595
 20
130.2879773522074
 30
0.0
 10
66.37085810565011
 20
130.2879773522074
 30
0.0
 10
66.37085810565011
 20
130.2879773522074
 30
0.0
 10
65.84169143911573
 20
130.2879773522074
 30
0.0
 10
65.38307925152694
 20
130.640755129897
 30
0.0
 10
65.24197029363579
 20
131.1346445569586
 30
0.0
 10
65.06558140479099
 20
131.7343657024385
 30
0.0
 10
65.06558140479099
 20
132.3693640873913
 30
0.0
 10
65.24197029363579
 20
132.9338106848793
 30
0.0
  0
SPLINE
  5
76
330
1F
100
AcDbEntity
  8
SVG2
 62
     5
100
AcDbSpline
210
0.0
220
0.0
230
1.0
 70
    11
 71
     3
 72
    17
 73
    13
 74
     0
 42
0.0000000001
 43
0.0000000001
 12
1.0
 22
0.0
 32
0.0
 13
1.0
 23
0.0
 33
0.0
 40
0.0
 40
0.0
 40
0.0
 40
0.0
 40
1.0
 40
1.0
 40
1.0
 40
2.0
 40
2.0
 40
2.0
 40
3.0
 40
3.0
 40
3.0
 40
4.0
 40
4.0
 40
4.0
 40
4.0
 10
51.13085918605245
 20
114.4835318351217
 30
0.0
 10
51.98812813386331
 20
114.4835318351217
 30
0.0
 10
52.68307925470194
 20
115.1784856474412
 30
0.0
 10
52.68307925470194
 20
116.0357545952521
 30
0.0
 10
52.68307925470194
 20
116.8930235430629
 30
0.0
 10
51.98812813386331
 20
117.5879773553824
 30
0.0
 10
51.13085918605245
 20
117.5879773553824
 30
0.0
 10
50.27359023824159
 20
117.5879773553824
 30
0.0
 10
49.57863911740296
 20
116.8930235430629
 30
0.0
 10
49.57863911740296
 20
116.0357545952521
 30
0.0
 10
49.57863911740296
 20
115.1784856474412
 30
0.0
 10
50.27359023824159
 20
114.4835318351217
 30
0.0
 10
51.13085918605245
 20
114.4835318351217
 30
0.0
  0
ENDSEC
  0
SECTION
  2
OBJECTS
  0
DICTIONARY
  5
C
330
0
100
AcDbDictionary
  3
ACAD_GROUP
350
D
  3
ACAD_LAYOUT
350
1A
  3
ACAD_MATERIAL
350
3B
  3
ACAD_MLEADERSTYLE
350
79
  3
ACAD_MLINESTYLE
350
17
  3
ACAD_PLOTSETTINGS
350
19
  3
ACAD_VISUALSTYLE
350
2A
  3
ACDBVARIABLEDICTIONARY
350
77
1001
ACAD
1000
TREAT_AS_HARD
1070
     0
  0
DICTIONARY
  5
D
102
{ACAD_REACTORS
330
C
102
}
330
C
100
AcDbDictionary
1001
ACAD
1000
TREAT_AS_HARD
1070
     0
  0
DICTIONARY
  5
1A
102
{ACAD_REACTORS
330
C
102
}
330
C
100
AcDbDictionary
1001
ACAD
1000
TREAT_AS_HARD
1070
     0
  0
DICTIONARY
  5
3B
102
{ACAD_REACTORS
330
C
102
}
330
C
100
AcDbDictionary
  3
BYBLOCK
350
3D
  3
BYLAYER
350
3C
  3
GLOBAL
350
3E
1001
ACAD
1000
TREAT_AS_HARD
1070
     0
  0
DICTIONARY
  5
79
102
{ACAD_REACTORS
330
C
102
}
330
C
100
AcDbDictionary
1001
ACAD
1000
TREAT_AS_HARD
1070
     0
  0
DICTIONARY
  5
17
102
{ACAD_REACTORS
330
C
102
}
330
C
100
AcDbDictionary
  3
STANDARD
350
18
1001
ACAD
1000
TREAT_AS_HARD
1070
     0
  0
DICTIONARY
  5
19
102
{ACAD_REACTORS
330
C
102
}
330
C
100
AcDbDictionary
1001
ACAD
1000
TREAT_AS_HARD
1070
     0
  0
DICTIONARY
  5
2A
102
{ACAD_REACTORS
330
C
102
}
330
C
100
AcDbDictionary
  3
2DWIREFRAME
350
2F
  3
3D_HIDDEN
350
31
  3
3DWIREFRAME
350
30
  3
BASIC
350
32
  3
BRIGHTEN
350
36
  3
COLORCHANGE
350
3A
  3
CONCEPTUAL
350
34
  3
DIM
350
35
  3
FACEPATTERN
350
39
  3
FLAT
350
2B
  3
FLATWITHEDGES
350
2C
  3
GOURAUD
350
2D
  3
GOURAUDWITHEDGES
350
2E
  3
LINEPATTERN
350
38
  3
REALISTIC
350
33
  3
THICKEN
350
37
1001
ACAD
1000
TREAT_AS_HARD
1070
     0
  0
DICTIONARY
  5
77
102
{ACAD_REACTORS
330
C
102
}
330
C
100
AcDbDictionary
  3
DIMASSOC
350
7A
  3
HIDETEXT
350
7B
1001
ACAD
1000
TREAT_AS_HARD
1070
     0
  0
MATERIAL
  5
3D
102
{ACAD_REACTORS
330
3B
102
}
102
{ACAD_XDICTIONARY
360
C1
102
}
330
3B
100
AcDbMaterial
  1
ByBlock
  0
MATERIAL
  5
3C
102
{ACAD_REACTORS
330
3B
102
}
102
{ACAD_XDICTIONARY
360
BF
102
}
330
3B
100
AcDbMaterial
  1
ByLayer
  0
MATERIAL
  5
3E
102
{ACAD_REACTORS
330
3B
102
}
102
{ACAD_XDICTIONARY
360
C3
102
}
330
3B
100
AcDbMaterial
  1
Global
  0
MLINESTYLE
  5
18
102
{ACAD_REACTORS
330
17
102
}
330
17
100
AcDbMlineStyle
  2
Standard
 70
     0
  3

 62
   256
 51
90.0
 52
90.0
 71
     2
 49
0.5
 62
   256
  6
BYLAYER
 49
-0.5
 62
   256
  6
BYLAYER
  0
ACAD_PROXY_OBJECT
  5
2F
102
{ACAD_REACTORS
330
2A
102
}
330
2A
100
AcDbZombieObject
 90
      499
 91
      501
 93
      436
310
42CC9915DA5C99599C985B595049028333333333333E3BF0000000000000FB0107901411070040501600405405064090741402480A0340
1001
ACAD
1000
AcDbSavedByObjectVersion
1070
     0
  0
ACAD_PROXY_OBJECT
  5
31
102
{ACAD_REACTORS
330
2A
102
}
330
2A
100
AcDbZombieObject
 90
      499
 91
      501
 93
      500
310
424CD108121A5919195B90640502408333333333333E3BF0000000000000FB01079024090700405020000000000001110200405405064090740C02480A0340
1001
ACAD
1000
AcDbSavedByObjectVersion
1070
     0
  0
ACAD_PROXY_OBJECT
  5
30
102
{ACAD_REACTORS
330
2A
102
}
330
2A
100
AcDbZombieObject
 90
      499
 91
      501
 93
      436
310
42CCD915DA5C99599C985B595059028333333333333E3BF0000000000000FB0107901411070040501600405405064090741402480A0340
1001
ACAD
1000
AcDbSavedByObjectVersion
1070
     0
  0
ACAD_PROXY_OBJECT
  5
32
102
{ACAD_REACTORS
330
2A
102
}
330
2A
100
AcDbZombieObject
 90
      499
 91
      501
 93
      388
310
4150985CDA58D07406404333333333333E3BF0000000000000FB0107A41107004050150841D405064090741402480A0350
1001
ACAD
1000
AcDbSavedByObjectVersion
1070
     0
  0
ACAD_PROXY_OBJECT
  5
36
102
{ACAD_REACTORS
330
2A
102
}
330
2A
100
AcDbZombieObject
 90
      499
 91
      501
 93
      428
310
42109C9A59DA1D195B90C409028333333333333E3BF0000000000000FB010790141107004050150841D405064090741402480A029950
1001
ACAD
1000
AcDbSavedByObjectVersion
1070
     0
  0
ACAD_PROXY_OBJECT
  5
3A
102
{ACAD_REACTORS
330
2A
102
}
330
2A
100
AcDbZombieObject
 90
      499
 91
      501
 93
      452
310
42D0DBDB1BDC90DA185B99D95104090240C333333333333E3BF0000000000000FB0108901411070040501508421405064090741402480A0350
1001
ACAD
1000
AcDbSavedByObjectVersion
1070
     0
  0
ACAD_PROXY_OBJECT
  5
34
102
{ACAD_REACTORS
330
2A
102
}
330
2A
100
AcDbZombieObject
 90
      499
 91
      501
 93
      500
310
4290DBDB98D95C1D1D585B10940D028333333333333E3BF0000000000000FB0107902409070040501000000000000111010841D405064090740C02480A0340
1001
ACAD
1000
AcDbSavedByObjectVersion
1070
     0
  0
ACAD_PROXY_OBJECT
  5
35
102
{ACAD_REACTORS
330
2A
102
}
330
2A
100
AcDbZombieObject
 90
      499
 91
      501
 93
      412
310
40D11A5B50B409028333333333333E3BF0000000000000FB010790141107004050150841D405064090741402480A02677FFFFFD0
1001
ACAD
1000
AcDbSavedByObjectVersion
1070
     0
  0
ACAD_PROXY_OBJECT
  5
39
102
{ACAD_REACTORS
330
2A
102
}
330
2A
100
AcDbZombieObject
 90
      499
 91
      501
 93
      444
310
42D19858D95C185D1D195C9B90F409028333333333333E3BF0000000000000FB010790141107004050150841D405064090741402480A0350
1001
ACAD
1000
AcDbSavedByObjectVersion
1070
     0
  0
ACAD_PROXY_OBJECT
  5
2B
102
{ACAD_REACTORS
330
2A
102
}
330
2A
100
AcDbZombieObject
 90
      499
 91
      501
 93
      388
310
41119B185D240901404333333333333E3BF0000000000000F9010740A41107004050150841D405064090741402480A1B50
1001
ACAD
1000
AcDbSavedByObjectVersion
1070
     0
  0
ACAD_PROXY_OBJECT
  5
2C
102
{ACAD_REACTORS
330
2A
102
}
330
2A
100
AcDbZombieObject
 90
      499
 91
      501
 93
      476
310
43519B185D15DA5D1A115919D95CD0140901404333333333333E3BF0000000000000F9010740901411070040501600405405064090741402480A1B50
1001
ACAD
1000
AcDbSavedByObjectVersion
1070
     0
  0
ACAD_PROXY_OBJECT
  5
2D
102
{ACAD_REACTORS
330
2A
102
}
330
2A
100
AcDbZombieObject
 90
      499
 91
      501
 93
      412
310
41D1DBDD5C985D5910240902404333333333333E3BF0000000000000F9010740A411070040501641D405064090741402480A1B50
1001
ACAD
1000
AcDbSavedByObjectVersion
1070
     0
  0
ACAD_PROXY_OBJECT
  5
2E
102
{ACAD_REACTORS
330
2A
102
}
330
2A
100
AcDbZombieObject
 90
      499
 91
      501
 93
      500
310
4411DBDD5C985D5915DA5D1A115919D95CD0340902404333333333333E3BF0000000000000F9010740901411070040501600405405064090741402480A1B50
1001
ACAD
1000
AcDbSavedByObjectVersion
1070
     0
  0
ACAD_PROXY_OBJECT
  5
38
102
{ACAD_REACTORS
330
2A
102
}
330
2A
100
AcDbZombieObject
 90
      499
 91
      501
 93
      444
310
42D31A5B995C185D1D195C9B90E409028333333333333E3BF0000000000000FB010790141107004050750841D405064090741402483A0350
1001
ACAD
1000
AcDbSavedByObjectVersion
1070
     0
  0
ACAD_PROXY_OBJECT
  5
33
102
{ACAD_REACTORS
330
2A
102
}
330
2A
100
AcDbZombieObject
 90
      499
 91
      501
 93
      420
310
425499585B1A5CDD1A58D08409028333333333333E3BF0000000000000FB01079019070040501508421405064090741402480A1B40
1001
ACAD
1000
AcDbSavedByObjectVersion
1070
     0
  0
ACAD_PROXY_OBJECT
  5
37
102
{ACAD_REACTORS
330
2A
102
}
330
2A
100
AcDbZombieObject
 90
      499
 91
      501
 93
      412
310
41D51A1A58DAD95B90D409028333333333333E3BF0000000000000FB010790141107004050150C41D405064090741402480A0350
1001
ACAD
1000
AcDbSavedByObjectVersion
1070
     0
  0
DICTIONARYVAR
  5
7A
102
{ACAD_REACTORS
330
77
102
}
330
77
100
DictionaryVariables
280
     0
  1
2
  0
DICTIONARYVAR
  5
7B
102
{ACAD_REACTORS
330
77
102
}
330
77
100
DictionaryVariables
280
     0
  1
1
  0
DICTIONARY
  5
C1
330
3D
100
AcDbDictionary
  3
ACAD_XREC_ROUNDTRIP
360
C2
1001
ACAD
1000
TREAT_AS_HARD
1070
     1
  0
DICTIONARY
  5
BF
330
3C
100
AcDbDictionary
  3
ACAD_XREC_ROUNDTRIP
360
C0
1001
ACAD
1000
TREAT_AS_HARD
1070
     1
  0
DICTIONARY
  5
C3
330
3E
100
AcDbDictionary
  3
ACAD_XREC_ROUNDTRIP
360
C4
1001
ACAD
1000
TREAT_AS_HARD
1070
     1
  0
XRECORD
  5
C2
102
{ACAD_REACTORS
330
C1
102
}
330
C1
100
AcDbXrecord
102
MATERIAL
148
0.0
149
0.0
149
0.0
 93
        0
 94
      127
282
     0
 72
     1
 77
     1
171
     1
175
     1
179
     1
273
     0
  0
XRECORD
  5
C0
102
{ACAD_REACTORS
330
BF
102
}
330
BF
100
AcDbXrecord
102
MATERIAL
148
0.0
149
0.0
149
0.0
 93
        0
 94
      127
282
     0
 72
     1
 77
     1
171
     1
175
     1
179
     1
273
     0
  0
XRECORD
  5
C4
102
{ACAD_REACTORS
330
C3
102
}
330
C3
100
AcDbXrecord
102
MATERIAL
148
0.0
149
0.0
149
0.0
 93
        0
 94
      127
282
     0
 72
     1
 77
     1
171
     1
175
     1
179
     1
273
     0
  0
ENDSEC
  0
EOF
