<?xml version="1.0" encoding="utf-8"?>
<!-- Generator: Adobe Illustrator 21.1.0, SVG Export Plug-In . SVG Version: 6.00 Build 0)  -->
<svg version="1.1"
	 id="svg2" inkscape:version="0.91 r13725" sodipodi:docname="O_C_blank_spacer.svg" xmlns:cc="http://creativecommons.org/ns#" xmlns:dc="http://purl.org/dc/elements/1.1/" xmlns:inkscape="http://www.inkscape.org/namespaces/inkscape" xmlns:rdf="http://www.w3.org/1999/02/22-rdf-syntax-ns#" xmlns:sodipodi="http://sodipodi.sourceforge.net/DTD/sodipodi-0.dtd" xmlns:svg="http://www.w3.org/2000/svg"
	 xmlns="http://www.w3.org/2000/svg" xmlns:xlink="http://www.w3.org/1999/xlink" x="0px" y="0px" viewBox="0 0 226.8 396.9"
	 style="enable-background:new 0 0 226.8 396.9;" xml:space="preserve">
<style type="text/css">
	.st0{fill:#FFFFFF;stroke:#0000FF;stroke-width:0.2835;stroke-linecap:round;stroke-linejoin:round;}
	.st1{fill:#FF0000;}
	.st2{font-family:'MyriadPro-Regular';}
	.st3{font-size:12px;}
	.st4{fill:none;stroke:#FF0000;stroke-width:1.4173;stroke-miterlimit:10;}
</style>
<sodipodi:namedview  bordercolor="#666666" borderopacity="1" gridtolerance="10" guidetolerance="10" id="namedview66" inkscape:current-layer="svg2" inkscape:cx="-30.685084" inkscape:cy="227.4803" inkscape:pageopacity="0" inkscape:pageshadow="2" inkscape:window-height="771" inkscape:window-maximized="0" inkscape:window-width="1347" inkscape:window-x="0" inkscape:window-y="0" inkscape:zoom="1.1083866" objecttolerance="10" pagecolor="#ffffff" showgrid="false" width="120mm">
	</sodipodi:namedview>
<desc  id="desc4">Created with the Front Panel Designer by the export of the file &apos;O_C_blank_spacer.fpd&apos;.</desc>
<g id="g18" transform="matrix(1,0,0,-1,4.8378625,133.37976)">
	<path id="path20" vector-effect="non-scaling-stroke" inkscape:connector-curvature="0" class="st0" d="M209.5,119.3H8.9l0,0v-364
		l0,0h200.6l0,0V119.3L209.5,119.3z"/>
	<circle id="circle22" vector-effect="non-scaling-stroke" class="st0" cx="33" cy="-145.5" r="8.9"/>
	<circle id="circle24" vector-effect="non-scaling-stroke" class="st0" cx="59.9" cy="-145.5" r="8.9"/>
	<circle id="circle26" vector-effect="non-scaling-stroke" class="st0" cx="86.8" cy="-145.5" r="8.9"/>
	<circle id="circle28" vector-effect="non-scaling-stroke" class="st0" cx="113.8" cy="-145.5" r="8.9"/>
	<circle id="circle30" vector-effect="non-scaling-stroke" class="st0" cx="156.3" cy="-145.5" r="8.9"/>
	<circle id="circle32" vector-effect="non-scaling-stroke" class="st0" cx="183.2" cy="-145.5" r="8.9"/>
	<circle id="circle34" vector-effect="non-scaling-stroke" class="st0" cx="33" cy="-179.5" r="8.9"/>
	<circle id="circle36" vector-effect="non-scaling-stroke" class="st0" cx="59.9" cy="-179.5" r="8.9"/>
	<circle id="circle38" vector-effect="non-scaling-stroke" class="st0" cx="86.8" cy="-179.5" r="8.9"/>
	<circle id="circle40" vector-effect="non-scaling-stroke" class="st0" cx="113.8" cy="-179.5" r="8.9"/>
	<circle id="circle42" vector-effect="non-scaling-stroke" class="st0" cx="156.3" cy="-179.5" r="8.9"/>
	<circle id="circle44" vector-effect="non-scaling-stroke" class="st0" cx="183.2" cy="-179.5" r="8.9"/>
	<circle id="circle46" vector-effect="non-scaling-stroke" class="st0" cx="169.9" cy="-56.2" r="12.8"/>
	<circle id="circle48" vector-effect="non-scaling-stroke" class="st0" cx="45.4" cy="-56.2" r="12.8"/>
	<circle id="circle50" vector-effect="non-scaling-stroke" class="st0" cx="169.9" cy="12.1" r="9.5"/>
	<circle id="circle52" vector-effect="non-scaling-stroke" class="st0" cx="169.9" cy="65.4" r="9.5"/>
	<path id="rect54" vector-effect="non-scaling-stroke" class="st0" d="M34.9,15h85c2.3,0,4.3,1.9,4.3,4.3v41.1
		c0,2.3-1.9,4.3-4.3,4.3h-85c-2.3,0-4.3-1.9-4.3-4.3V19.3C30.7,16.9,32.6,15,34.9,15z"/>
	<path id="path56" vector-effect="non-scaling-stroke" inkscape:connector-curvature="0" class="st0" d="M21.7-233.6
		c0.4,1.4,1.8,2.4,3.2,2.4h10c1.5,0,2.8-1,3.2-2.4c0.5-1.7,0.5-3.5,0-5.1c-0.4-1.4-1.8-2.4-3.2-2.4H25c-1.5,0-2.8,1-3.2,2.4
		C21.2-237.1,21.2-235.3,21.7-233.6z"/>
	<path id="path58" vector-effect="non-scaling-stroke" inkscape:connector-curvature="0" class="st0" d="M21.7,113.3
		c0.4,1.4,1.8,2.4,3.2,2.4h10c1.5,0,2.8-1,3.2-2.4c0.5-1.7,0.5-3.5,0-5.1c-0.4-1.4-1.8-2.4-3.2-2.4H25c-1.5,0-2.8,1-3.2,2.4
		C21.2,109.9,21.2,111.7,21.7,113.3z"/>
	<path id="path60" vector-effect="non-scaling-stroke" inkscape:connector-curvature="0" class="st0" d="M180.1-233.6
		c0.4,1.4,1.8,2.4,3.2,2.4h10c1.5,0,2.8-1,3.2-2.4c0.5-1.7,0.5-3.5,0-5.1c-0.4-1.4-1.8-2.4-3.2-2.4h-10c-1.5,0-2.8,1-3.2,2.4
		C179.6-237.1,179.6-235.3,180.1-233.6z"/>
	<path id="path62" vector-effect="non-scaling-stroke" inkscape:connector-curvature="0" class="st0" d="M180.1,113.3
		c0.4,1.4,1.8,2.4,3.2,2.4h10c1.5,0,2.8-1,3.2-2.4c0.5-1.7,0.5-3.5,0-5.1c-0.4-1.4-1.8-2.4-3.2-2.4h-10c-1.5,0-2.8,1-3.2,2.4
		C179.6,109.9,179.6,111.7,180.1,113.3z"/>
	<circle id="circle64" vector-effect="non-scaling-stroke" class="st0" cx="140.1" cy="65.4" r="4.4"/>
</g>
<text transform="matrix(1 0 0 1 73.6663 27.5804)" class="st1 st2 st3">O_c</text>
<line class="st4" x1="161.1" y1="300.8" x2="161.1" y2="290.9"/>
<line class="st4" x1="188" y1="300.8" x2="188" y2="290.9"/>
<circle class="st4" cx="161.1" cy="278.9" r="12.1"/>
<circle class="st4" cx="188" cy="278.9" r="12.1"/>
<circle class="st4" cx="161.1" cy="312.9" r="12.1"/>
<circle class="st4" cx="188" cy="312.9" r="12.1"/>
<line class="st4" x1="173.2" y1="278.9" x2="176" y2="278.9"/>
<line class="st4" x1="173.2" y1="312.9" x2="176" y2="312.9"/>
<line class="st4" x1="46.7" y1="278.9" x2="55.8" y2="278.9"/>
<line class="st4" x1="82.7" y1="278.9" x2="73.7" y2="278.9"/>
<line class="st4" x1="109.7" y1="278.9" x2="100.6" y2="278.9"/>
<line class="st4" x1="46.7" y1="312.9" x2="55.8" y2="312.9"/>
<line class="st4" x1="82.7" y1="312.9" x2="73.7" y2="312.9"/>
<line class="st4" x1="109.7" y1="312.9" x2="100.6" y2="312.9"/>
</svg>
