; NON-PLATED HOLES START AT T1
; THROUGH (PLATED) HOLES START AT T100
M48
INCH
T1C0.118110
T100C0.038000
T101C0.043307
T102C0.027559
T103C0.035000
T104C0.105105
T105C0.042000
T106C0.050165
T107C0.015748
T108C0.061825
T109C0.007874
T110C0.125984
T111C0.040000
T112C0.061867
%
T1
X019248Y007451
X022994Y007451
X013286Y007451
X023016Y002748
X019271Y002748
X005862Y002748
X013308Y002771
X009603Y002748
X005867Y007451
X009563Y007451
X002167Y007451
X002167Y002766
T100
X012294Y038134
X011294Y038134
X010294Y038134
X009294Y038134
X008294Y038134
X007294Y038134
X006294Y038134
X005294Y038134
T101
X002893Y016843
X022145Y022552
X020176Y016843
X004861Y016843
X003877Y016843
X022145Y016843
X002893Y022552
X020176Y022552
X004861Y022552
X021160Y016843
T102
X013546Y028808
X011546Y028808
X014546Y034808
X012546Y034808
X010546Y034808
X013546Y034808
X011546Y034808
X001546Y028808
X006546Y028808
X004546Y028808
X002546Y028808
X009546Y028808
X007546Y028808
X005546Y028808
X003546Y028808
X001546Y034808
X008546Y028808
X006546Y034808
X004546Y034808
X002546Y034808
X009546Y034808
X007546Y034808
X005546Y034808
X003546Y034808
X008546Y034808
X014546Y028808
X012546Y028808
X010546Y028808
T103
X023199Y027863
X019168Y032571
X023199Y030835
X020168Y032571
X022168Y032571
X021168Y032571
X023168Y032571
X019184Y035260
X019168Y033571
X023199Y038232
X019184Y027863
X020168Y033571
X022168Y033571
X024152Y023693
X021168Y033571
X023168Y033571
X019184Y030835
X023152Y023693
X018837Y024796
X023199Y035260
X019184Y038232
X019837Y024796
T104
X006062Y019796
X018975Y019796
X023345Y019796
X001692Y019796
T105
X019074Y026567
X022054Y026567
X024310Y025910
X024310Y028890
T106
X013296Y005085
X002150Y005085
X022993Y005133
X002174Y005133
X009588Y005133
X005855Y005085
X009591Y005085
X005867Y005133
X013296Y005133
X019257Y005133
X023005Y005085
X019260Y005085
T107
X005018Y037040
X002578Y025426
X002578Y026134
X015373Y022512
X010963Y032119
X001672Y025426
X001672Y026134
X012696Y017749
X018562Y022512
X020412Y021449
X011003Y030071
T108
X013296Y004062
X022993Y006156
X002150Y004062
X002174Y006156
X009588Y006156
X005867Y006156
X013296Y006156
X005855Y004062
X009591Y004062
X019257Y006156
X023005Y004062
X019260Y004062
T109
X015381Y033556
X003562Y022945
X012932Y020505
X011019Y023871
X001200Y014166
X011121Y009678
X013837Y013024
X016554Y031134
X016830Y030386
X017026Y032276
X008011Y023815
X010452Y025977
X010019Y021253
X003050Y031843
X005030Y010776
X001015Y028158
X010629Y023524
X013719Y013615
X011042Y025977
X016593Y029205
X006672Y015465
X015373Y030386
X013641Y031095
X023326Y015623
X003294Y010210
X018798Y014402
X001672Y012394
X011908Y026292
X023326Y011843
X009310Y035741
X016318Y028103
X021436Y015268
X003365Y021882
X019310Y015268
X011908Y022394
X004507Y024087
X016593Y026843
X002656Y023733
X006830Y023457
X008247Y037276
X003294Y011359
X005845Y016331
X013601Y020505
X002341Y023221
X013916Y030780
X006672Y027985
X009007Y021253
X013326Y031410
X009034Y023930
X012830Y030256
X009507Y021253
X021711Y035111
X000845Y010819
X006672Y015898
X018286Y017827
X018050Y023300
X018286Y014402
X016633Y012552
X021436Y014441
X005845Y015465
X010491Y035741
X008522Y027158
X005030Y010209
X002223Y015229
X010215Y014363
X013782Y023524
X019310Y013969
X003294Y010776
X011121Y010347
X009861Y026253
X017026Y014008
X017932Y029835
X004940Y026056
X016554Y030741
X017223Y029205
X005845Y016764
X018800Y015268
X018286Y015268
X016593Y025347
X012696Y023851
X011475Y013497
X007538Y012749
X013719Y018457
X016593Y021686
X022617Y015623
X000518Y027999
X013011Y013182
X005030Y011359
X011436Y015386
X010019Y023930
X003837Y031843
X016672Y017827
X005845Y015898
X016554Y031528
X014481Y033981
T110
X016349Y005276
X016996Y036750
T111
X012109Y031292
X008109Y031292
T112
X005881Y000785
X022967Y009432
X013322Y000785
X019286Y000785
X023030Y000785
X009562Y009432
X002148Y009432
X005841Y009432
X013271Y009432
X019231Y009432
X002176Y000785
X009617Y000785
T00
M30
